G04*
G04 #@! TF.GenerationSoftware,Altium Limited,Altium Designer,23.8.1 (32)*
G04*
G04 Layer_Color=128*
%FSLAX25Y25*%
%MOIN*%
G70*
G04*
G04 #@! TF.SameCoordinates,264EC624-27BF-4E82-BD90-BE7253C1E6FF*
G04*
G04*
G04 #@! TF.FilePolarity,Positive*
G04*
G01*
G75*
%ADD62C,0.00500*%
D62*
X208100Y109200D02*
X221900D01*
X215000Y102300D02*
Y116100D01*
X134300Y119200D02*
X139300D01*
X136800Y116700D02*
Y121700D01*
X146800Y109200D02*
X151800D01*
X149300Y106700D02*
Y111700D01*
X134300Y99200D02*
X139300D01*
X136800Y96700D02*
Y101700D01*
X225350Y123800D02*
X226650D01*
X226000Y123150D02*
Y124450D01*
X225350Y119300D02*
X226650D01*
X226000Y118650D02*
Y119950D01*
X225350Y114800D02*
X226650D01*
X226000Y114150D02*
Y115450D01*
X225350Y110300D02*
X226650D01*
X226000Y109650D02*
Y110950D01*
X225350Y105800D02*
X226650D01*
X226000Y105150D02*
Y106450D01*
X225350Y101300D02*
X226650D01*
X226000Y100650D02*
Y101950D01*
X225350Y96800D02*
X226650D01*
X226000Y96150D02*
Y97450D01*
X221850Y121300D02*
X223150D01*
X222500Y120650D02*
Y121950D01*
X221850Y116800D02*
X223150D01*
X222500Y116150D02*
Y117450D01*
X221850Y103300D02*
X223150D01*
X222500Y102650D02*
Y103950D01*
X221850Y98800D02*
X223150D01*
X222500Y98150D02*
Y99450D01*
X221850Y94300D02*
X223150D01*
X222500Y93650D02*
Y94950D01*
X218350Y123800D02*
X219650D01*
X219000Y123150D02*
Y124450D01*
X218350Y119300D02*
X219650D01*
X219000Y118650D02*
Y119950D01*
X218350Y96800D02*
X219650D01*
X219000Y96150D02*
Y97450D01*
X214350Y121300D02*
X215650D01*
X215000Y120650D02*
Y121950D01*
X214350Y98800D02*
X215650D01*
X215000Y98150D02*
Y99450D01*
X214350Y94300D02*
X215650D01*
X215000Y93650D02*
Y94950D01*
X210350Y123300D02*
X211650D01*
X211000Y122650D02*
Y123950D01*
X210350Y118800D02*
X211650D01*
X211000Y118150D02*
Y119450D01*
X210350Y96300D02*
X211650D01*
X211000Y95650D02*
Y96950D01*
X205850Y120800D02*
X207150D01*
X206500Y120150D02*
Y121450D01*
X205850Y116300D02*
X207150D01*
X206500Y115650D02*
Y116950D01*
X205850Y102800D02*
X207150D01*
X206500Y102150D02*
Y103450D01*
X205850Y98300D02*
X207150D01*
X206500Y97650D02*
Y98950D01*
X205850Y93800D02*
X207150D01*
X206500Y93150D02*
Y94450D01*
X201350Y123300D02*
X202650D01*
X202000Y122650D02*
Y123950D01*
X201350Y118800D02*
X202650D01*
X202000Y118150D02*
Y119450D01*
X201350Y114300D02*
X202650D01*
X202000Y113650D02*
Y114950D01*
X201350Y109800D02*
X202650D01*
X202000Y109150D02*
Y110450D01*
X201350Y105300D02*
X202650D01*
X202000Y104650D02*
Y105950D01*
X201350Y100800D02*
X202650D01*
X202000Y100150D02*
Y101450D01*
X201350Y96300D02*
X202650D01*
X202000Y95650D02*
Y96950D01*
X196850Y120800D02*
X198150D01*
X197500Y120150D02*
Y121450D01*
X196850Y116300D02*
X198150D01*
X197500Y115650D02*
Y116950D01*
X196850Y111800D02*
X198150D01*
X197500Y111150D02*
Y112450D01*
X196850Y107300D02*
X198150D01*
X197500Y106650D02*
Y107950D01*
X196850Y102800D02*
X198150D01*
X197500Y102150D02*
Y103450D01*
X196850Y98300D02*
X198150D01*
X197500Y97650D02*
Y98950D01*
X196850Y93800D02*
X198150D01*
X197500Y93150D02*
Y94450D01*
X192350Y123300D02*
X193650D01*
X193000Y122650D02*
Y123950D01*
X192350Y118800D02*
X193650D01*
X193000Y118150D02*
Y119450D01*
X192350Y114300D02*
X193650D01*
X193000Y113650D02*
Y114950D01*
X192350Y109800D02*
X193650D01*
X193000Y109150D02*
Y110450D01*
X192350Y105300D02*
X193650D01*
X193000Y104650D02*
Y105950D01*
X192350Y100800D02*
X193650D01*
X193000Y100150D02*
Y101450D01*
X192350Y96300D02*
X193650D01*
X193000Y95650D02*
Y96950D01*
X187850Y120800D02*
X189150D01*
X188500Y120150D02*
Y121450D01*
X187850Y116300D02*
X189150D01*
X188500Y115650D02*
Y116950D01*
X187850Y111800D02*
X189150D01*
X188500Y111150D02*
Y112450D01*
X187850Y107300D02*
X189150D01*
X188500Y106650D02*
Y107950D01*
X187850Y102800D02*
X189150D01*
X188500Y102150D02*
Y103450D01*
X187850Y98300D02*
X189150D01*
X188500Y97650D02*
Y98950D01*
X187850Y93800D02*
X189150D01*
X188500Y93150D02*
Y94450D01*
X183350Y123300D02*
X184650D01*
X184000Y122650D02*
Y123950D01*
X183350Y118800D02*
X184650D01*
X184000Y118150D02*
Y119450D01*
X183350Y114300D02*
X184650D01*
X184000Y113650D02*
Y114950D01*
X183350Y109800D02*
X184650D01*
X184000Y109150D02*
Y110450D01*
X183350Y105300D02*
X184650D01*
X184000Y104650D02*
Y105950D01*
X183350Y100800D02*
X184650D01*
X184000Y100150D02*
Y101450D01*
X183350Y96300D02*
X184650D01*
X184000Y95650D02*
Y96950D01*
X178850Y120800D02*
X180150D01*
X179500Y120150D02*
Y121450D01*
X178850Y116300D02*
X180150D01*
X179500Y115650D02*
Y116950D01*
X178850Y111800D02*
X180150D01*
X179500Y111150D02*
Y112450D01*
X178850Y107300D02*
X180150D01*
X179500Y106650D02*
Y107950D01*
X178850Y102800D02*
X180150D01*
X179500Y102150D02*
Y103450D01*
X178850Y98300D02*
X180150D01*
X179500Y97650D02*
Y98950D01*
X178850Y93800D02*
X180150D01*
X179500Y93150D02*
Y94450D01*
X174850Y122800D02*
X176150D01*
X175500Y122150D02*
Y123450D01*
X174850Y118300D02*
X176150D01*
X175500Y117650D02*
Y118950D01*
X174850Y113800D02*
X176150D01*
X175500Y113150D02*
Y114450D01*
X174850Y109300D02*
X176150D01*
X175500Y108650D02*
Y109950D01*
X174850Y104800D02*
X176150D01*
X175500Y104150D02*
Y105450D01*
X174850Y100300D02*
X176150D01*
X175500Y99650D02*
Y100950D01*
X174850Y95800D02*
X176150D01*
X175500Y95150D02*
Y96450D01*
X169150Y24900D02*
X173050D01*
X171100Y22950D02*
Y26850D01*
X169150Y34900D02*
X173050D01*
X171100Y32950D02*
Y36850D01*
X169150Y44900D02*
X173050D01*
X171100Y42950D02*
Y46850D01*
X169150Y54900D02*
X173050D01*
X171100Y52950D02*
Y56850D01*
X54550Y122600D02*
X55850D01*
X55200Y121950D02*
Y123250D01*
X54550Y118100D02*
X55850D01*
X55200Y117450D02*
Y118750D01*
X54550Y113600D02*
X55850D01*
X55200Y112950D02*
Y114250D01*
X54550Y109100D02*
X55850D01*
X55200Y108450D02*
Y109750D01*
X54550Y104600D02*
X55850D01*
X55200Y103950D02*
Y105250D01*
X54550Y100100D02*
X55850D01*
X55200Y99450D02*
Y100750D01*
X54550Y95600D02*
X55850D01*
X55200Y94950D02*
Y96250D01*
X50550Y124600D02*
X51850D01*
X51200Y123950D02*
Y125250D01*
X50550Y120100D02*
X51850D01*
X51200Y119450D02*
Y120750D01*
X50550Y115600D02*
X51850D01*
X51200Y114950D02*
Y116250D01*
X50550Y111100D02*
X51850D01*
X51200Y110450D02*
Y111750D01*
X50550Y106600D02*
X51850D01*
X51200Y105950D02*
Y107250D01*
X50550Y102100D02*
X51850D01*
X51200Y101450D02*
Y102750D01*
X50550Y97600D02*
X51850D01*
X51200Y96950D02*
Y98250D01*
X46050Y122100D02*
X47350D01*
X46700Y121450D02*
Y122750D01*
X46050Y117600D02*
X47350D01*
X46700Y116950D02*
Y118250D01*
X46050Y113100D02*
X47350D01*
X46700Y112450D02*
Y113750D01*
X46050Y108600D02*
X47350D01*
X46700Y107950D02*
Y109250D01*
X46050Y104100D02*
X47350D01*
X46700Y103450D02*
Y104750D01*
X46050Y99600D02*
X47350D01*
X46700Y98950D02*
Y100250D01*
X46050Y95100D02*
X47350D01*
X46700Y94450D02*
Y95750D01*
X41550Y124600D02*
X42850D01*
X42200Y123950D02*
Y125250D01*
X41550Y120100D02*
X42850D01*
X42200Y119450D02*
Y120750D01*
X41550Y115600D02*
X42850D01*
X42200Y114950D02*
Y116250D01*
X41550Y111100D02*
X42850D01*
X42200Y110450D02*
Y111750D01*
X41550Y106600D02*
X42850D01*
X42200Y105950D02*
Y107250D01*
X41550Y102100D02*
X42850D01*
X42200Y101450D02*
Y102750D01*
X41550Y97600D02*
X42850D01*
X42200Y96950D02*
Y98250D01*
X37050Y122100D02*
X38350D01*
X37700Y121450D02*
Y122750D01*
X37050Y117600D02*
X38350D01*
X37700Y116950D02*
Y118250D01*
X37050Y113100D02*
X38350D01*
X37700Y112450D02*
Y113750D01*
X37050Y108600D02*
X38350D01*
X37700Y107950D02*
Y109250D01*
X37050Y104100D02*
X38350D01*
X37700Y103450D02*
Y104750D01*
X37050Y99600D02*
X38350D01*
X37700Y98950D02*
Y100250D01*
X37050Y95100D02*
X38350D01*
X37700Y94450D02*
Y95750D01*
X32550Y124600D02*
X33850D01*
X33200Y123950D02*
Y125250D01*
X32550Y120100D02*
X33850D01*
X33200Y119450D02*
Y120750D01*
X32550Y115600D02*
X33850D01*
X33200Y114950D02*
Y116250D01*
X32550Y111100D02*
X33850D01*
X33200Y110450D02*
Y111750D01*
X32550Y106600D02*
X33850D01*
X33200Y105950D02*
Y107250D01*
X32550Y102100D02*
X33850D01*
X33200Y101450D02*
Y102750D01*
X32550Y97600D02*
X33850D01*
X33200Y96950D02*
Y98250D01*
X28050Y122100D02*
X29350D01*
X28700Y121450D02*
Y122750D01*
X28050Y117600D02*
X29350D01*
X28700Y116950D02*
Y118250D01*
X28050Y113100D02*
X29350D01*
X28700Y112450D02*
Y113750D01*
X28050Y108600D02*
X29350D01*
X28700Y107950D02*
Y109250D01*
X28050Y104100D02*
X29350D01*
X28700Y103450D02*
Y104750D01*
X28050Y99600D02*
X29350D01*
X28700Y98950D02*
Y100250D01*
X28050Y95100D02*
X29350D01*
X28700Y94450D02*
Y95750D01*
X23550Y124600D02*
X24850D01*
X24200Y123950D02*
Y125250D01*
X23550Y120100D02*
X24850D01*
X24200Y119450D02*
Y120750D01*
X23550Y115600D02*
X24850D01*
X24200Y114950D02*
Y116250D01*
X23550Y102100D02*
X24850D01*
X24200Y101450D02*
Y102750D01*
X23550Y97600D02*
X24850D01*
X24200Y96950D02*
Y98250D01*
X19050Y122100D02*
X20350D01*
X19700Y121450D02*
Y122750D01*
X19050Y99600D02*
X20350D01*
X19700Y98950D02*
Y100250D01*
X19050Y95100D02*
X20350D01*
X19700Y94450D02*
Y95750D01*
X15050Y124100D02*
X16350D01*
X15700Y123450D02*
Y124750D01*
X15050Y119600D02*
X16350D01*
X15700Y118950D02*
Y120250D01*
X15050Y97100D02*
X16350D01*
X15700Y96450D02*
Y97750D01*
X11050Y121600D02*
X12350D01*
X11700Y120950D02*
Y122250D01*
X11050Y99100D02*
X12350D01*
X11700Y98450D02*
Y99750D01*
X11050Y94600D02*
X12350D01*
X11700Y93950D02*
Y95250D01*
X7550Y124100D02*
X8850D01*
X8200Y123450D02*
Y124750D01*
X7550Y119600D02*
X8850D01*
X8200Y118950D02*
Y120250D01*
X7550Y115100D02*
X8850D01*
X8200Y114450D02*
Y115750D01*
X7550Y101600D02*
X8850D01*
X8200Y100950D02*
Y102250D01*
X7550Y97100D02*
X8850D01*
X8200Y96450D02*
Y97750D01*
X4050Y121600D02*
X5350D01*
X4700Y120950D02*
Y122250D01*
X4050Y117100D02*
X5350D01*
X4700Y116450D02*
Y117750D01*
X4050Y112600D02*
X5350D01*
X4700Y111950D02*
Y113250D01*
X4050Y108100D02*
X5350D01*
X4700Y107450D02*
Y108750D01*
X4050Y103600D02*
X5350D01*
X4700Y102950D02*
Y104250D01*
X4050Y99100D02*
X5350D01*
X4700Y98450D02*
Y99750D01*
X4050Y94600D02*
X5350D01*
X4700Y93950D02*
Y95250D01*
X91400Y119200D02*
X96400D01*
X93900Y116700D02*
Y121700D01*
X78900Y109200D02*
X83900D01*
X81400Y106700D02*
Y111700D01*
X91400Y99200D02*
X96400D01*
X93900Y96700D02*
Y101700D01*
X8800Y109200D02*
X22600D01*
X15700Y102300D02*
Y116100D01*
X181050Y165200D02*
X208550D01*
X194800Y151450D02*
Y178950D01*
X22050Y165200D02*
X49550D01*
X35800Y151450D02*
Y178950D01*
X49850Y23900D02*
X53350D01*
X51600Y22150D02*
Y25650D01*
X45825Y30900D02*
X49325D01*
X47575Y29150D02*
Y32650D01*
X41825Y23900D02*
X45325D01*
X43575Y22150D02*
Y25650D01*
X37775Y30900D02*
X41275D01*
X39525Y29150D02*
Y32650D01*
X33800Y23900D02*
X37300D01*
X35550Y22150D02*
Y25650D01*
X29775Y30900D02*
X33275D01*
X31525Y29150D02*
Y32650D01*
X25775Y23900D02*
X29275D01*
X27525Y22150D02*
Y25650D01*
X21750Y30900D02*
X25250D01*
X23500Y29150D02*
Y32650D01*
X62850Y49900D02*
X66350D01*
X64600Y48150D02*
Y51650D01*
X53850Y49900D02*
X57350D01*
X55600Y48150D02*
Y51650D01*
X17850Y49900D02*
X21350D01*
X19600Y48150D02*
Y51650D01*
X8850Y49900D02*
X12350D01*
X10600Y48150D02*
Y51650D01*
X6300Y13900D02*
X18900D01*
X12600Y7600D02*
Y20200D01*
X56300Y13900D02*
X68900D01*
X62600Y7600D02*
Y20200D01*
X2450Y27400D02*
X8750D01*
X5600Y24250D02*
Y30550D01*
X66450Y27400D02*
X72750D01*
X69600Y24250D02*
Y30550D01*
X178709Y76600D02*
X179891D01*
X179300Y76010D02*
Y77191D01*
X164309Y76600D02*
X165491D01*
X164900Y76010D02*
Y77191D01*
X164250Y82500D02*
X165550D01*
X164900Y81850D02*
Y83150D01*
X178650Y82500D02*
X179950D01*
X179300Y81850D02*
Y83150D01*
X194450Y81900D02*
X195750D01*
X195100Y81250D02*
Y82550D01*
X132950Y35600D02*
X134250D01*
X133600Y34950D02*
Y36250D01*
X136550Y35700D02*
X137850D01*
X137200Y35050D02*
Y36350D01*
X134609Y31000D02*
X135791D01*
X135200Y30409D02*
Y31591D01*
X120909Y28100D02*
X122091D01*
X121500Y27509D02*
Y28691D01*
X126350Y23900D02*
X127650D01*
X127000Y23250D02*
Y24550D01*
X118409Y75300D02*
X119591D01*
X119000Y74709D02*
Y75890D01*
X118850Y67400D02*
X120150D01*
X119500Y66750D02*
Y68050D01*
X138625Y4925D02*
X139925D01*
X139275Y4275D02*
Y5575D01*
X100780Y45568D02*
X102080D01*
X101430Y44918D02*
Y46218D01*
X90650Y64500D02*
X91950D01*
X91300Y63850D02*
Y65150D01*
X116550Y118900D02*
X117850D01*
X117200Y118250D02*
Y119550D01*
X113150Y118900D02*
X114450D01*
X113800Y118250D02*
Y119550D01*
X137250Y72300D02*
X138550D01*
X137900Y71650D02*
Y72950D01*
X219050Y62400D02*
X220350D01*
X219700Y61750D02*
Y63050D01*
X116550Y122200D02*
X117850D01*
X117200Y121550D02*
Y122850D01*
X114850Y115800D02*
X116150D01*
X115500Y115150D02*
Y116450D01*
X113150Y122200D02*
X114450D01*
X113800Y121550D02*
Y122850D01*
X114650Y180800D02*
X115950D01*
X115300Y180150D02*
Y181450D01*
X114650Y184100D02*
X115950D01*
X115300Y183450D02*
Y184750D01*
X114650Y187600D02*
X115950D01*
X115300Y186950D02*
Y188250D01*
X114650Y190900D02*
X115950D01*
X115300Y190250D02*
Y191550D01*
X114650Y194200D02*
X115950D01*
X115300Y193550D02*
Y194850D01*
X57750Y71600D02*
X59050D01*
X58400Y70950D02*
Y72250D01*
X17850Y71000D02*
X19150D01*
X18500Y70350D02*
Y71650D01*
X186510Y60762D02*
X187810D01*
X187160Y60112D02*
Y61412D01*
X185850Y72600D02*
X187150D01*
X186500Y71950D02*
Y73250D01*
X127109Y73400D02*
X128291D01*
X127700Y72809D02*
Y73990D01*
X204250Y5500D02*
X205550D01*
X204900Y4850D02*
Y6150D01*
M02*
