G04*
G04 #@! TF.GenerationSoftware,Altium Limited,Altium Designer,23.10.1 (27)*
G04*
G04 Layer_Color=255*
%FSLAX25Y25*%
%MOIN*%
G70*
G04*
G04 #@! TF.SameCoordinates,48329E4E-80D2-4777-9540-AAF0B2507E0B*
G04*
G04*
G04 #@! TF.FilePolarity,Positive*
G04*
G01*
G75*
G04:AMPARAMS|DCode=54|XSize=341mil|YSize=563mil|CornerRadius=17.05mil|HoleSize=0mil|Usage=FLASHONLY|Rotation=270.000|XOffset=0mil|YOffset=0mil|HoleType=Round|Shape=RoundedRectangle|*
%AMROUNDEDRECTD54*
21,1,0.34100,0.52890,0,0,270.0*
21,1,0.30690,0.56300,0,0,270.0*
1,1,0.03410,-0.26445,-0.15345*
1,1,0.03410,-0.26445,0.15345*
1,1,0.03410,0.26445,0.15345*
1,1,0.03410,0.26445,-0.15345*
%
%ADD54ROUNDEDRECTD54*%
%ADD55C,0.08000*%
%ADD56C,0.02500*%
%ADD57C,0.04940*%
%ADD58R,0.68750X0.68750*%
%ADD59C,0.06000*%
%ADD60C,0.12600*%
%ADD61C,0.08700*%
D54*
X200200Y109200D02*
D03*
X30500D02*
D03*
D55*
X136800Y119200D02*
D03*
X149300Y109200D02*
D03*
X136800Y99200D02*
D03*
X93900Y119200D02*
D03*
X81400Y109200D02*
D03*
X93900Y99200D02*
D03*
D56*
X226000Y123800D02*
D03*
Y119300D02*
D03*
Y114800D02*
D03*
Y110300D02*
D03*
Y105800D02*
D03*
Y101300D02*
D03*
Y96800D02*
D03*
X222500Y121300D02*
D03*
Y116800D02*
D03*
Y103300D02*
D03*
Y98800D02*
D03*
Y94300D02*
D03*
X219000Y123800D02*
D03*
Y119300D02*
D03*
Y96800D02*
D03*
X215000Y121300D02*
D03*
Y98800D02*
D03*
Y94300D02*
D03*
X211000Y123300D02*
D03*
Y118800D02*
D03*
Y96300D02*
D03*
X206500Y120800D02*
D03*
Y116300D02*
D03*
Y102800D02*
D03*
Y98300D02*
D03*
Y93800D02*
D03*
X202000Y123300D02*
D03*
Y118800D02*
D03*
Y114300D02*
D03*
Y109800D02*
D03*
Y105300D02*
D03*
Y100800D02*
D03*
Y96300D02*
D03*
X197500Y120800D02*
D03*
Y116300D02*
D03*
Y111800D02*
D03*
Y107300D02*
D03*
Y102800D02*
D03*
Y98300D02*
D03*
Y93800D02*
D03*
X193000Y123300D02*
D03*
Y118800D02*
D03*
Y114300D02*
D03*
Y109800D02*
D03*
Y105300D02*
D03*
Y100800D02*
D03*
Y96300D02*
D03*
X188500Y120800D02*
D03*
Y116300D02*
D03*
Y111800D02*
D03*
Y107300D02*
D03*
Y102800D02*
D03*
Y98300D02*
D03*
Y93800D02*
D03*
X184000Y123300D02*
D03*
Y118800D02*
D03*
Y114300D02*
D03*
Y109800D02*
D03*
Y105300D02*
D03*
Y100800D02*
D03*
Y96300D02*
D03*
X179500Y120800D02*
D03*
Y116300D02*
D03*
Y111800D02*
D03*
Y107300D02*
D03*
Y102800D02*
D03*
Y98300D02*
D03*
Y93800D02*
D03*
X175500Y122800D02*
D03*
Y118300D02*
D03*
Y113800D02*
D03*
Y109300D02*
D03*
Y104800D02*
D03*
Y100300D02*
D03*
Y95800D02*
D03*
X55200Y122600D02*
D03*
Y118100D02*
D03*
Y113600D02*
D03*
Y109100D02*
D03*
Y104600D02*
D03*
Y100100D02*
D03*
Y95600D02*
D03*
X51200Y124600D02*
D03*
Y120100D02*
D03*
Y115600D02*
D03*
Y111100D02*
D03*
Y106600D02*
D03*
Y102100D02*
D03*
Y97600D02*
D03*
X46700Y122100D02*
D03*
Y117600D02*
D03*
Y113100D02*
D03*
Y108600D02*
D03*
Y104100D02*
D03*
Y99600D02*
D03*
Y95100D02*
D03*
X42200Y124600D02*
D03*
Y120100D02*
D03*
Y115600D02*
D03*
Y111100D02*
D03*
Y106600D02*
D03*
Y102100D02*
D03*
Y97600D02*
D03*
X37700Y122100D02*
D03*
Y117600D02*
D03*
Y113100D02*
D03*
Y108600D02*
D03*
Y104100D02*
D03*
Y99600D02*
D03*
Y95100D02*
D03*
X33200Y124600D02*
D03*
Y120100D02*
D03*
Y115600D02*
D03*
Y111100D02*
D03*
Y106600D02*
D03*
Y102100D02*
D03*
Y97600D02*
D03*
X28700Y122100D02*
D03*
Y117600D02*
D03*
Y113100D02*
D03*
Y108600D02*
D03*
Y104100D02*
D03*
Y99600D02*
D03*
Y95100D02*
D03*
X24200Y124600D02*
D03*
Y120100D02*
D03*
Y115600D02*
D03*
Y102100D02*
D03*
Y97600D02*
D03*
X19700Y122100D02*
D03*
Y99600D02*
D03*
Y95100D02*
D03*
X15700Y124100D02*
D03*
Y119600D02*
D03*
Y97100D02*
D03*
X11700Y121600D02*
D03*
Y99100D02*
D03*
Y94600D02*
D03*
X8200Y124100D02*
D03*
Y119600D02*
D03*
Y115100D02*
D03*
Y101600D02*
D03*
Y97100D02*
D03*
X4700Y121600D02*
D03*
Y117100D02*
D03*
Y112600D02*
D03*
Y108100D02*
D03*
Y103600D02*
D03*
Y99100D02*
D03*
Y94600D02*
D03*
D57*
X171100Y24900D02*
D03*
Y34900D02*
D03*
Y44900D02*
D03*
Y54900D02*
D03*
D58*
X194800Y165200D02*
D03*
X35800D02*
D03*
D59*
X51600Y23900D02*
D03*
X47575Y30900D02*
D03*
X43575Y23900D02*
D03*
X39525Y30900D02*
D03*
X35550Y23900D02*
D03*
X31525Y30900D02*
D03*
X27525Y23900D02*
D03*
X23500Y30900D02*
D03*
X64600Y49900D02*
D03*
X55600D02*
D03*
X19600D02*
D03*
X10600D02*
D03*
D60*
X12600Y13900D02*
D03*
X62600D02*
D03*
D61*
X5600Y27400D02*
D03*
X69600D02*
D03*
M02*
