G04*
G04 #@! TF.GenerationSoftware,Altium Limited,Altium Designer,23.5.1 (21)*
G04*
G04 Layer_Color=65535*
%FSLAX44Y44*%
%MOMM*%
G71*
G04*
G04 #@! TF.SameCoordinates,4C835EFE-E1B3-4BCD-AC60-ED55561C1739*
G04*
G04*
G04 #@! TF.FilePolarity,Positive*
G04*
G01*
G75*
%ADD10C,0.2540*%
%ADD11C,0.1524*%
%ADD12C,0.2032*%
%ADD13C,0.1270*%
%ADD14C,0.3048*%
%ADD15R,0.2794X1.7526*%
%ADD16R,6.1214X0.3302*%
%ADD17R,0.3302X6.1214*%
D10*
X308814Y119375D02*
G03*
X308864Y119380I50J-249D01*
G01*
X244145Y119126D02*
G03*
X244145Y119126I-254J0D01*
G01*
X285532Y260350D02*
G03*
X285532Y260350I-3592J0D01*
G01*
X309880D02*
G03*
X309880Y260350I-3592J0D01*
G01*
X332740D01*
X284480Y262890D02*
X302260Y275590D01*
X254000Y260350D02*
X276860D01*
X375662Y303279D02*
X378201Y305818D01*
Y310897D01*
X375662Y313436D01*
X365505D01*
X362966Y310897D01*
Y305818D01*
X365505Y303279D01*
X370583D01*
Y308358D01*
X375662Y242339D02*
X378201Y244878D01*
Y249956D01*
X375662Y252496D01*
X373123D01*
X370583Y249956D01*
Y244878D01*
X368044Y242339D01*
X365505D01*
X362966Y244878D01*
Y249956D01*
X365505Y252496D01*
X413761Y284226D02*
X398526D01*
Y276609D01*
X401065Y274069D01*
X411222D01*
X413761Y276609D01*
Y284226D01*
X209554Y251711D02*
X207015Y249172D01*
Y244093D01*
X209554Y241554D01*
X219711D01*
X222250Y244093D01*
Y249172D01*
X219711Y251711D01*
X214632D01*
Y246632D01*
X209554Y312651D02*
X207015Y310112D01*
Y305033D01*
X209554Y302494D01*
X212093D01*
X214632Y305033D01*
Y310112D01*
X217172Y312651D01*
X219711D01*
X222250Y310112D01*
Y305033D01*
X219711Y302494D01*
X171455Y270764D02*
X186690D01*
Y278381D01*
X184151Y280921D01*
X173994D01*
X171455Y278381D01*
Y270764D01*
X50800Y202436D02*
Y192278D01*
Y202436D02*
X55153D01*
X56604Y201952D01*
X57088Y201468D01*
X57572Y200501D01*
Y199534D01*
X57088Y198566D01*
X56604Y198083D01*
X55153Y197599D01*
X50800D02*
X55153D01*
X56604Y197115D01*
X57088Y196631D01*
X57572Y195664D01*
Y194213D01*
X57088Y193245D01*
X56604Y192762D01*
X55153Y192278D01*
X50800D01*
X75566D02*
X71696Y202436D01*
X67826Y192278D01*
X69278Y195664D02*
X74115D01*
X85917Y202436D02*
Y192278D01*
Y202436D02*
X90270D01*
X91721Y201952D01*
X92205Y201468D01*
X92689Y200501D01*
Y199534D01*
X92205Y198566D01*
X91721Y198083D01*
X90270Y197599D01*
X85917D01*
X89303D02*
X92689Y192278D01*
X102943Y202436D02*
Y192278D01*
Y202436D02*
X107297D01*
X108748Y201952D01*
X109232Y201468D01*
X109715Y200501D01*
Y199534D01*
X109232Y198566D01*
X108748Y198083D01*
X107297Y197599D01*
X102943D01*
X106329D02*
X109715Y192278D01*
X119970Y202436D02*
Y192278D01*
X136368Y202436D02*
X130079D01*
Y192278D01*
X136368D01*
X130079Y197599D02*
X133949D01*
X146042Y202436D02*
Y192278D01*
Y202436D02*
X150395D01*
X151846Y201952D01*
X152330Y201468D01*
X152814Y200501D01*
Y199534D01*
X152330Y198566D01*
X151846Y198083D01*
X150395Y197599D01*
X146042D01*
X149428D02*
X152814Y192278D01*
X37084Y222248D02*
Y212090D01*
X53965Y220797D02*
X52998Y221764D01*
X51547Y222248D01*
X49612D01*
X48161Y221764D01*
X47193Y220797D01*
Y219829D01*
X47677Y218862D01*
X48161Y218378D01*
X49128Y217894D01*
X52031Y216927D01*
X52998Y216443D01*
X53482Y215960D01*
X53965Y214992D01*
Y213541D01*
X52998Y212574D01*
X51547Y212090D01*
X49612D01*
X48161Y212574D01*
X47193Y213541D01*
X67122Y222248D02*
X66155Y221764D01*
X65187Y220797D01*
X64704Y219829D01*
X64220Y218378D01*
Y215960D01*
X64704Y214508D01*
X65187Y213541D01*
X66155Y212574D01*
X67122Y212090D01*
X69057D01*
X70024Y212574D01*
X70992Y213541D01*
X71476Y214508D01*
X71959Y215960D01*
Y218378D01*
X71476Y219829D01*
X70992Y220797D01*
X70024Y221764D01*
X69057Y222248D01*
X67122D01*
X82310D02*
Y212090D01*
X88115D01*
X104948D02*
X101078Y222248D01*
X97209Y212090D01*
X98660Y215476D02*
X103497D01*
X118685Y222248D02*
Y212090D01*
X115299Y222248D02*
X122071D01*
X131262D02*
Y212090D01*
X144273Y222248D02*
X143306Y221764D01*
X142338Y220797D01*
X141855Y219829D01*
X141371Y218378D01*
Y215960D01*
X141855Y214508D01*
X142338Y213541D01*
X143306Y212574D01*
X144273Y212090D01*
X146208D01*
X147175Y212574D01*
X148143Y213541D01*
X148626Y214508D01*
X149110Y215960D01*
Y218378D01*
X148626Y219829D01*
X148143Y220797D01*
X147175Y221764D01*
X146208Y222248D01*
X144273D01*
X159461D02*
Y212090D01*
Y222248D02*
X166233Y212090D01*
Y222248D02*
Y212090D01*
D11*
X304292Y101600D02*
X305562D01*
X304292D02*
Y162560D01*
X305562D01*
X356362Y101600D02*
X357632D01*
Y162560D01*
X356362D02*
X357632D01*
X239319Y107188D02*
X240335D01*
X272593D02*
X273609D01*
Y137668D01*
X272593D02*
X273609D01*
X239319Y107188D02*
Y137668D01*
X240335D01*
X432816Y161036D02*
X446786D01*
Y44196D02*
Y161036D01*
X432816Y44196D02*
X446786D01*
X386842Y161036D02*
X400812D01*
X386842Y44196D02*
Y161036D01*
Y44196D02*
X400812D01*
X254254Y368300D02*
Y410464D01*
X282194Y368300D02*
Y410464D01*
X331724Y368300D02*
Y410464D01*
X303784Y368300D02*
Y410464D01*
X359652Y401821D02*
X382397D01*
X359652D02*
X370940Y382270D01*
X370967Y382023D02*
X382397Y401821D01*
X339852Y335026D02*
Y338328D01*
X401320Y335026D02*
Y338328D01*
X339852D02*
X401320D01*
X339852Y335026D02*
X401320D01*
X339852Y338836D02*
Y445770D01*
X401320Y338836D02*
Y445770D01*
X339852D02*
X401320D01*
X339852Y338836D02*
X401320D01*
X204204Y401821D02*
X226949D01*
X204204D02*
X215492Y382270D01*
X215519Y382023D02*
X226949Y401821D01*
X184404Y335026D02*
Y338328D01*
X245872Y335026D02*
Y338328D01*
X184404D02*
X245872D01*
X184404Y335026D02*
X245872D01*
X184404Y338836D02*
Y445770D01*
X245872Y338836D02*
Y445770D01*
X184404D02*
X245872D01*
X184404Y338836D02*
X245872D01*
X336811Y465570D02*
Y488315D01*
Y465570D02*
X356362Y476858D01*
X336811Y488315D02*
X356609Y476885D01*
X400304Y445770D02*
X403606D01*
X400304Y507238D02*
X403606D01*
X400304Y445770D02*
Y507238D01*
X403606Y445770D02*
Y507238D01*
X292862Y445770D02*
X399796D01*
X292862Y507238D02*
X399796D01*
X292862Y445770D02*
Y507238D01*
X399796Y445770D02*
Y507238D01*
X248913Y464693D02*
Y487438D01*
X229362Y476150D02*
X248913Y487438D01*
X229115Y476123D02*
X248913Y464693D01*
X182118Y507238D02*
X185420D01*
X182118Y445770D02*
X185420D01*
Y507238D01*
X182118Y445770D02*
Y507238D01*
X185928D02*
X292862D01*
X185928Y445770D02*
X292862D01*
Y507238D01*
X185928Y445770D02*
Y507238D01*
X245618Y55626D02*
X260858D01*
X245618Y22860D02*
X260858D01*
X343916Y41402D02*
X351536D01*
X347726Y37592D02*
Y45212D01*
X298196Y46482D02*
X341376D01*
Y36322D02*
Y46482D01*
X298196Y36322D02*
Y46482D01*
Y3302D02*
Y13462D01*
Y3302D02*
X341376D01*
Y13462D01*
D12*
X547751Y80010D02*
Y97790D01*
X580771Y80010D02*
Y97790D01*
X547751D02*
X580771D01*
X547751Y80010D02*
X580771D01*
X544322D02*
Y97790D01*
X547878Y80010D02*
Y97790D01*
X544322D02*
X547878D01*
X544322Y80010D02*
X547878D01*
X547751Y99060D02*
Y116840D01*
X580771Y99060D02*
Y116840D01*
X547751D02*
X580771D01*
X547751Y99060D02*
X580771D01*
X544322D02*
Y116840D01*
X547878Y99060D02*
Y116840D01*
X544322D02*
X547878D01*
X544322Y99060D02*
X547878D01*
X547751Y118110D02*
Y135890D01*
X580771Y118110D02*
Y135890D01*
X547751D02*
X580771D01*
X547751Y118110D02*
X580771D01*
X544322D02*
Y135890D01*
X547878Y118110D02*
Y135890D01*
X544322D02*
X547878D01*
X544322Y118110D02*
X547878D01*
X495300Y68580D02*
X581660D01*
X459740Y102870D02*
X495300Y68580D01*
X3927Y207264D02*
X234950D01*
X295910Y394462D02*
Y402082D01*
X288290Y398272D02*
X295910Y394462D01*
X288290Y398272D02*
X295910Y402082D01*
X449580Y102870D02*
X459740D01*
X406400D02*
X439420D01*
X389890Y118110D02*
X406400Y102870D01*
X312420Y132080D02*
X351790D01*
X368300D02*
X378460Y124460D01*
X361950Y132080D02*
X368300D01*
X235108Y207176D02*
X298704Y144780D01*
X290068Y356108D02*
X297688Y352298D01*
X290068Y348488D02*
X297688Y352298D01*
X290068Y348488D02*
Y356108D01*
X330962Y237236D02*
X342138D01*
X334518Y229616D02*
X342138Y237236D01*
X334518Y244856D02*
X342138Y237236D01*
X243586Y236220D02*
X251206Y228600D01*
X243586Y236220D02*
X251206Y243840D01*
X243586Y236220D02*
X257048D01*
X268732Y289052D02*
X277114D01*
X288036Y283718D02*
X293878Y275082D01*
X280416Y296418D02*
X283210Y284734D01*
X281940Y279908D02*
X288036Y283718D01*
X283210Y284734D02*
X289814Y289052D01*
X277114D02*
X281940Y279908D01*
X289814Y289052D02*
X293878Y275082D01*
X268732Y289052D02*
X280416Y296418D01*
X439505Y188552D02*
X437812Y190244D01*
X434427D01*
X432734Y188552D01*
Y181780D01*
X434427Y180088D01*
X437812D01*
X439505Y181780D01*
X447969Y180088D02*
Y190244D01*
X442891Y185166D01*
X449662D01*
X533983Y55976D02*
X534951Y56460D01*
X536402Y57911D01*
Y47753D01*
X541916Y55492D02*
Y55976D01*
X542400Y56943D01*
X542883Y57427D01*
X543851Y57911D01*
X545786D01*
X546753Y57427D01*
X547237Y56943D01*
X547720Y55976D01*
Y55009D01*
X547237Y54041D01*
X546269Y52590D01*
X541432Y47753D01*
X548204D01*
X550477Y57911D02*
X554347Y47753D01*
X558217Y57911D02*
X554347Y47753D01*
X474978Y132506D02*
X464822D01*
Y137584D01*
X466514Y139277D01*
X469900D01*
X471593Y137584D01*
Y132506D01*
Y135892D02*
X474978Y139277D01*
X466514Y142663D02*
X464822Y144356D01*
Y147741D01*
X466514Y149434D01*
X468207D01*
X469900Y147741D01*
X471593Y149434D01*
X473286D01*
X474978Y147741D01*
Y144356D01*
X473286Y142663D01*
X471593D01*
X469900Y144356D01*
X468207Y142663D01*
X466514D01*
X469900Y144356D02*
Y147741D01*
X455468Y36103D02*
X454985Y37071D01*
X454017Y38038D01*
X453050Y38522D01*
X451115D01*
X450148Y38038D01*
X449180Y37071D01*
X448697Y36103D01*
X448213Y34652D01*
Y32234D01*
X448697Y30783D01*
X449180Y29815D01*
X450148Y28848D01*
X451115Y28364D01*
X453050D01*
X454017Y28848D01*
X454985Y29815D01*
X455468Y30783D01*
Y32234D01*
X453050D02*
X455468D01*
X465530Y28364D02*
X461660Y38522D01*
X457790Y28364D01*
X459241Y31750D02*
X464078D01*
X471286Y38522D02*
Y28364D01*
X467900Y38522D02*
X474672D01*
X482169D02*
X475881D01*
Y28364D01*
X482169D01*
X475881Y33685D02*
X479751D01*
X483862Y24978D02*
X491601D01*
X492907Y38522D02*
Y28364D01*
Y38522D02*
X496293D01*
X497744Y38038D01*
X498712Y37071D01*
X499196Y36103D01*
X499679Y34652D01*
Y32234D01*
X499196Y30783D01*
X498712Y29815D01*
X497744Y28848D01*
X496293Y28364D01*
X492907D01*
X501953Y38522D02*
Y28364D01*
Y38522D02*
X506306D01*
X507757Y38038D01*
X508241Y37555D01*
X508725Y36587D01*
Y35620D01*
X508241Y34652D01*
X507757Y34169D01*
X506306Y33685D01*
X501953D01*
X505339D02*
X508725Y28364D01*
X510998Y38522D02*
Y28364D01*
X513126Y38522D02*
X516996Y28364D01*
X520866Y38522D02*
X516996Y28364D01*
X528460Y38522D02*
X522172D01*
Y28364D01*
X528460D01*
X522172Y33685D02*
X526041D01*
X530153Y24978D02*
X537892D01*
X545970Y37071D02*
X545002Y38038D01*
X543551Y38522D01*
X541617D01*
X540165Y38038D01*
X539198Y37071D01*
Y36103D01*
X539682Y35136D01*
X540165Y34652D01*
X541133Y34169D01*
X544035Y33201D01*
X545002Y32717D01*
X545486Y32234D01*
X545970Y31266D01*
Y29815D01*
X545002Y28848D01*
X543551Y28364D01*
X541617D01*
X540165Y28848D01*
X539198Y29815D01*
X548243Y38522D02*
Y28364D01*
X557627Y36103D02*
X557143Y37071D01*
X556176Y38038D01*
X555209Y38522D01*
X553274D01*
X552306Y38038D01*
X551339Y37071D01*
X550855Y36103D01*
X550372Y34652D01*
Y32234D01*
X550855Y30783D01*
X551339Y29815D01*
X552306Y28848D01*
X553274Y28364D01*
X555209D01*
X556176Y28848D01*
X557143Y29815D01*
X557627Y30783D01*
Y32234D01*
X555209D02*
X557627D01*
X493843Y154092D02*
Y143934D01*
X502743Y152641D02*
X501775Y153608D01*
X500324Y154092D01*
X498389D01*
X496938Y153608D01*
X495971Y152641D01*
Y151673D01*
X496455Y150706D01*
X496938Y150222D01*
X497906Y149739D01*
X500808Y148771D01*
X501775Y148287D01*
X502259Y147804D01*
X502743Y146836D01*
Y145385D01*
X501775Y144418D01*
X500324Y143934D01*
X498389D01*
X496938Y144418D01*
X495971Y145385D01*
X507918Y154092D02*
X506951Y153608D01*
X505984Y152641D01*
X505500Y151673D01*
X505016Y150222D01*
Y147804D01*
X505500Y146353D01*
X505984Y145385D01*
X506951Y144418D01*
X507918Y143934D01*
X509853D01*
X510821Y144418D01*
X511788Y145385D01*
X512272Y146353D01*
X512755Y147804D01*
Y150222D01*
X512272Y151673D01*
X511788Y152641D01*
X510821Y153608D01*
X509853Y154092D01*
X507918D01*
X515126Y140548D02*
X522865D01*
X531426Y151673D02*
X530943Y152641D01*
X529975Y153608D01*
X529008Y154092D01*
X527073D01*
X526106Y153608D01*
X525138Y152641D01*
X524655Y151673D01*
X524171Y150222D01*
Y147804D01*
X524655Y146353D01*
X525138Y145385D01*
X526106Y144418D01*
X527073Y143934D01*
X529008D01*
X529975Y144418D01*
X530943Y145385D01*
X531426Y146353D01*
Y147804D01*
X529008D02*
X531426D01*
X533748Y154092D02*
Y143934D01*
Y154092D02*
X540520Y143934D01*
Y154092D02*
Y143934D01*
X543326Y154092D02*
Y143934D01*
Y154092D02*
X546712D01*
X548163Y153608D01*
X549130Y152641D01*
X549614Y151673D01*
X550098Y150222D01*
Y147804D01*
X549614Y146353D01*
X549130Y145385D01*
X548163Y144418D01*
X546712Y143934D01*
X543326D01*
X495959Y174412D02*
Y164254D01*
X504859Y172961D02*
X503892Y173928D01*
X502441Y174412D01*
X500506D01*
X499055Y173928D01*
X498087Y172961D01*
Y171993D01*
X498571Y171026D01*
X499055Y170542D01*
X500022Y170058D01*
X502924Y169091D01*
X503892Y168607D01*
X504375Y168124D01*
X504859Y167156D01*
Y165705D01*
X503892Y164738D01*
X502441Y164254D01*
X500506D01*
X499055Y164738D01*
X498087Y165705D01*
X510035Y174412D02*
X509067Y173928D01*
X508100Y172961D01*
X507616Y171993D01*
X507133Y170542D01*
Y168124D01*
X507616Y166673D01*
X508100Y165705D01*
X509067Y164738D01*
X510035Y164254D01*
X511970D01*
X512937Y164738D01*
X513904Y165705D01*
X514388Y166673D01*
X514872Y168124D01*
Y170542D01*
X514388Y171993D01*
X513904Y172961D01*
X512937Y173928D01*
X511970Y174412D01*
X510035D01*
X517242Y160868D02*
X524981D01*
X526287Y172477D02*
X527255Y172961D01*
X528706Y174412D01*
Y164254D01*
X534220Y171993D02*
Y172477D01*
X534704Y173444D01*
X535188Y173928D01*
X536155Y174412D01*
X538090D01*
X539057Y173928D01*
X539541Y173444D01*
X540025Y172477D01*
Y171510D01*
X539541Y170542D01*
X538573Y169091D01*
X533736Y164254D01*
X540508D01*
X542782Y174412D02*
X546651Y164254D01*
X550521Y174412D02*
X546651Y164254D01*
X537598Y17392D02*
X537115Y18360D01*
X536147Y19327D01*
X535180Y19811D01*
X533245D01*
X532277Y19327D01*
X531310Y18360D01*
X530826Y17392D01*
X530343Y15941D01*
Y13523D01*
X530826Y12072D01*
X531310Y11104D01*
X532277Y10137D01*
X533245Y9653D01*
X535180D01*
X536147Y10137D01*
X537115Y11104D01*
X537598Y12072D01*
Y13523D01*
X535180D02*
X537598D01*
X539920Y19811D02*
Y9653D01*
Y19811D02*
X546692Y9653D01*
Y19811D02*
Y9653D01*
X549497Y19811D02*
Y9653D01*
Y19811D02*
X552883D01*
X554334Y19327D01*
X555302Y18360D01*
X555786Y17392D01*
X556269Y15941D01*
Y13523D01*
X555786Y12072D01*
X555302Y11104D01*
X554334Y10137D01*
X552883Y9653D01*
X549497D01*
X507847Y215052D02*
X511717Y204894D01*
X515587Y215052D02*
X511717Y204894D01*
X524148Y212633D02*
X523665Y213601D01*
X522697Y214568D01*
X521730Y215052D01*
X519795D01*
X518828Y214568D01*
X517860Y213601D01*
X517376Y212633D01*
X516893Y211182D01*
Y208764D01*
X517376Y207313D01*
X517860Y206345D01*
X518828Y205378D01*
X519795Y204894D01*
X521730D01*
X522697Y205378D01*
X523665Y206345D01*
X524148Y207313D01*
Y208764D01*
X521730D02*
X524148D01*
X526470Y201508D02*
X534209D01*
X542287Y213601D02*
X541320Y214568D01*
X539869Y215052D01*
X537934D01*
X536483Y214568D01*
X535515Y213601D01*
Y212633D01*
X535999Y211666D01*
X536483Y211182D01*
X537450Y210699D01*
X540352Y209731D01*
X541320Y209247D01*
X541804Y208764D01*
X542287Y207796D01*
Y206345D01*
X541320Y205378D01*
X539869Y204894D01*
X537934D01*
X536483Y205378D01*
X535515Y206345D01*
X545044Y212633D02*
Y213117D01*
X545528Y214084D01*
X546012Y214568D01*
X546979Y215052D01*
X548914D01*
X549882Y214568D01*
X550365Y214084D01*
X550849Y213117D01*
Y212150D01*
X550365Y211182D01*
X549398Y209731D01*
X544561Y204894D01*
X551333D01*
X242828Y206250D02*
Y216406D01*
X247906D01*
X249599Y214714D01*
Y211328D01*
X247906Y209635D01*
X242828D01*
X246214D02*
X249599Y206250D01*
X252985D02*
X256370D01*
X254678D01*
Y216406D01*
X252985Y214714D01*
X261449D02*
X263142Y216406D01*
X266527D01*
X268220Y214714D01*
Y213021D01*
X266527Y211328D01*
X264834D01*
X266527D01*
X268220Y209635D01*
Y207942D01*
X266527Y206250D01*
X263142D01*
X261449Y207942D01*
X300994Y205996D02*
Y216152D01*
X306073D01*
X307765Y214460D01*
Y211074D01*
X306073Y209381D01*
X300994D01*
X304380D02*
X307765Y205996D01*
X311151D02*
X314536D01*
X312844D01*
Y216152D01*
X311151Y214460D01*
X326386Y205996D02*
X319615D01*
X326386Y212767D01*
Y214460D01*
X324693Y216152D01*
X321308D01*
X319615Y214460D01*
X361952Y140634D02*
X370416D01*
X372108Y142327D01*
Y145712D01*
X370416Y147405D01*
X361952D01*
X363644Y150791D02*
X361952Y152484D01*
Y155869D01*
X363644Y157562D01*
X365337D01*
X367030Y155869D01*
Y154176D01*
Y155869D01*
X368723Y157562D01*
X370416D01*
X372108Y155869D01*
Y152484D01*
X370416Y150791D01*
X278894Y113456D02*
X287358D01*
X289050Y115149D01*
Y118534D01*
X287358Y120227D01*
X278894D01*
X289050Y130384D02*
Y123613D01*
X282279Y130384D01*
X280586D01*
X278894Y128691D01*
Y125306D01*
X280586Y123613D01*
X372366Y80605D02*
X380830D01*
X382522Y82298D01*
Y85683D01*
X380830Y87376D01*
X372366D01*
X382522Y90762D02*
Y94147D01*
Y92454D01*
X372366D01*
X374058Y90762D01*
X511294Y194732D02*
X515164Y184574D01*
X519033Y194732D02*
X515164Y184574D01*
X527595Y192313D02*
X527111Y193281D01*
X526144Y194248D01*
X525176Y194732D01*
X523242D01*
X522274Y194248D01*
X521307Y193281D01*
X520823Y192313D01*
X520339Y190862D01*
Y188444D01*
X520823Y186993D01*
X521307Y186025D01*
X522274Y185058D01*
X523242Y184574D01*
X525176D01*
X526144Y185058D01*
X527111Y186025D01*
X527595Y186993D01*
Y188444D01*
X525176D02*
X527595D01*
X529917Y181188D02*
X537656D01*
X545734Y193281D02*
X544767Y194248D01*
X543315Y194732D01*
X541381D01*
X539930Y194248D01*
X538962Y193281D01*
Y192313D01*
X539446Y191346D01*
X539930Y190862D01*
X540897Y190378D01*
X543799Y189411D01*
X544767Y188927D01*
X545250Y188444D01*
X545734Y187476D01*
Y186025D01*
X544767Y185058D01*
X543315Y184574D01*
X541381D01*
X539930Y185058D01*
X538962Y186025D01*
X548007Y192797D02*
X548975Y193281D01*
X550426Y194732D01*
Y184574D01*
X364494Y180850D02*
Y191006D01*
X369572D01*
X371265Y189314D01*
Y185928D01*
X369572Y184235D01*
X364494D01*
X367880D02*
X371265Y180850D01*
X374651D02*
X378036D01*
X376344D01*
Y191006D01*
X374651Y189314D01*
X389886Y191006D02*
X383115D01*
Y185928D01*
X386500Y187621D01*
X388193D01*
X389886Y185928D01*
Y182542D01*
X388193Y180850D01*
X384808D01*
X383115Y182542D01*
X392942Y210314D02*
Y220470D01*
X398021D01*
X399713Y218778D01*
Y215392D01*
X398021Y213699D01*
X392942D01*
X396328D02*
X399713Y210314D01*
X403099D02*
X406484D01*
X404792D01*
Y220470D01*
X403099Y218778D01*
X416641Y210314D02*
Y220470D01*
X411563Y215392D01*
X418334D01*
X288038Y428325D02*
X298194D01*
Y423247D01*
X296502Y421554D01*
X293116D01*
X291423Y423247D01*
Y428325D01*
Y424939D02*
X288038Y421554D01*
Y418168D02*
Y414783D01*
Y416476D01*
X298194D01*
X296502Y418168D01*
X288038Y409704D02*
Y406319D01*
Y408012D01*
X298194D01*
X296502Y409704D01*
X288038Y386838D02*
X298194D01*
Y381759D01*
X296502Y380067D01*
X293116D01*
X291423Y381759D01*
Y386838D01*
Y383452D02*
X288038Y380067D01*
Y376681D02*
Y373296D01*
Y374988D01*
X298194D01*
X296502Y376681D01*
Y368217D02*
X298194Y366524D01*
Y363139D01*
X296502Y361446D01*
X289730D01*
X288038Y363139D01*
Y366524D01*
X289730Y368217D01*
X296502D01*
X218184Y142412D02*
X208028D01*
Y147490D01*
X209720Y149183D01*
X213106D01*
X214799Y147490D01*
Y142412D01*
Y145798D02*
X218184Y149183D01*
X216492Y152569D02*
X218184Y154262D01*
Y157647D01*
X216492Y159340D01*
X209720D01*
X208028Y157647D01*
Y154262D01*
X209720Y152569D01*
X211413D01*
X213106Y154262D01*
Y159340D01*
X474978Y161716D02*
X464822D01*
Y166794D01*
X466514Y168487D01*
X469900D01*
X471593Y166794D01*
Y161716D01*
Y165102D02*
X474978Y168487D01*
X464822Y171873D02*
Y178644D01*
X466514D01*
X473286Y171873D01*
X474978D01*
X217676Y112694D02*
X207520D01*
Y117772D01*
X209212Y119465D01*
X212598D01*
X214291Y117772D01*
Y112694D01*
Y116080D02*
X217676Y119465D01*
X207520Y129622D02*
X209212Y126236D01*
X212598Y122851D01*
X215984D01*
X217676Y124544D01*
Y127929D01*
X215984Y129622D01*
X214291D01*
X212598Y127929D01*
Y122851D01*
X473708Y192704D02*
X463552D01*
Y197782D01*
X465244Y199475D01*
X468630D01*
X470323Y197782D01*
Y192704D01*
Y196090D02*
X473708Y199475D01*
X463552Y209632D02*
Y202861D01*
X468630D01*
X466937Y206246D01*
Y207939D01*
X468630Y209632D01*
X472016D01*
X473708Y207939D01*
Y204554D01*
X472016Y202861D01*
X277540Y72138D02*
Y82294D01*
X282618D01*
X284311Y80602D01*
Y77216D01*
X282618Y75523D01*
X277540D01*
X280926D02*
X284311Y72138D01*
X292775D02*
Y82294D01*
X287697Y77216D01*
X294468D01*
X225042Y76880D02*
X214886D01*
Y81958D01*
X216578Y83651D01*
X219964D01*
X221657Y81958D01*
Y76880D01*
Y80266D02*
X225042Y83651D01*
X216578Y87037D02*
X214886Y88730D01*
Y92115D01*
X216578Y93808D01*
X218271D01*
X219964Y92115D01*
Y90422D01*
Y92115D01*
X221657Y93808D01*
X223350D01*
X225042Y92115D01*
Y88730D01*
X223350Y87037D01*
X158668Y161546D02*
Y171702D01*
X163746D01*
X165439Y170010D01*
Y166624D01*
X163746Y164931D01*
X158668D01*
X162054D02*
X165439Y161546D01*
X175596D02*
X168825D01*
X175596Y168317D01*
Y170010D01*
X173903Y171702D01*
X170518D01*
X168825Y170010D01*
X22693Y160276D02*
Y170432D01*
X27771D01*
X29464Y168740D01*
Y165354D01*
X27771Y163661D01*
X22693D01*
X26078D02*
X29464Y160276D01*
X32850D02*
X36235D01*
X34542D01*
Y170432D01*
X32850Y168740D01*
X316315Y240368D02*
X314622Y242060D01*
X311237D01*
X309544Y240368D01*
Y238675D01*
X311237Y236982D01*
X314622D01*
X316315Y235289D01*
Y233596D01*
X314622Y231904D01*
X311237D01*
X309544Y233596D01*
X326472Y231904D02*
X319701D01*
X326472Y238675D01*
Y240368D01*
X324779Y242060D01*
X321394D01*
X319701Y240368D01*
X267970Y240114D02*
X266277Y241806D01*
X262892D01*
X261199Y240114D01*
Y238421D01*
X262892Y236728D01*
X266277D01*
X267970Y235035D01*
Y233342D01*
X266277Y231650D01*
X262892D01*
X261199Y233342D01*
X271356Y231650D02*
X274741D01*
X273048D01*
Y241806D01*
X271356Y240114D01*
X94488Y154938D02*
X91102D01*
X92795D01*
Y146474D01*
X91102Y144782D01*
X89410D01*
X87717Y146474D01*
X97874Y144782D02*
X101259D01*
X99566D01*
Y154938D01*
X97874Y153246D01*
X349168Y330452D02*
Y320296D01*
X354246D01*
X355939Y321988D01*
Y328760D01*
X354246Y330452D01*
X349168D01*
X364403Y320296D02*
Y330452D01*
X359325Y325374D01*
X366096D01*
X217088Y330706D02*
Y320550D01*
X222166D01*
X223859Y322242D01*
Y329014D01*
X222166Y330706D01*
X217088D01*
X227245Y329014D02*
X228938Y330706D01*
X232323D01*
X234016Y329014D01*
Y327321D01*
X232323Y325628D01*
X230630D01*
X232323D01*
X234016Y323935D01*
Y322242D01*
X232323Y320550D01*
X228938D01*
X227245Y322242D01*
X309036Y441450D02*
Y431294D01*
X314114D01*
X315807Y432986D01*
Y439758D01*
X314114Y441450D01*
X309036D01*
X325964Y431294D02*
X319193D01*
X325964Y438065D01*
Y439758D01*
X324271Y441450D01*
X320886D01*
X319193Y439758D01*
X259421Y441450D02*
Y431294D01*
X264499D01*
X266192Y432986D01*
Y439758D01*
X264499Y441450D01*
X259421D01*
X269578Y431294D02*
X272963D01*
X271270D01*
Y441450D01*
X269578Y439758D01*
X209637Y48598D02*
X207944Y50290D01*
X204559D01*
X202866Y48598D01*
Y41826D01*
X204559Y40134D01*
X207944D01*
X209637Y41826D01*
X213022Y40134D02*
Y50290D01*
X216408Y46905D01*
X219794Y50290D01*
Y40134D01*
X229950D02*
X223179D01*
X229950Y46905D01*
Y48598D01*
X228258Y50290D01*
X224872D01*
X223179Y48598D01*
X210568Y17356D02*
X208875Y19048D01*
X205489D01*
X203797Y17356D01*
Y10584D01*
X205489Y8892D01*
X208875D01*
X210568Y10584D01*
X213953Y8892D02*
Y19048D01*
X217339Y15663D01*
X220724Y19048D01*
Y8892D01*
X224110D02*
X227495D01*
X225803D01*
Y19048D01*
X224110Y17356D01*
X331808Y328337D02*
X333500Y330030D01*
Y333415D01*
X331808Y335108D01*
X325036D01*
X323344Y333415D01*
Y330030D01*
X325036Y328337D01*
Y324951D02*
X323344Y323258D01*
Y319873D01*
X325036Y318180D01*
X331808D01*
X333500Y319873D01*
Y323258D01*
X331808Y324951D01*
X330115D01*
X328422Y323258D01*
Y318180D01*
X260942Y328083D02*
X262634Y329776D01*
Y333161D01*
X260942Y334854D01*
X254170D01*
X252478Y333161D01*
Y329776D01*
X254170Y328083D01*
X260942Y324697D02*
X262634Y323004D01*
Y319619D01*
X260942Y317926D01*
X259249D01*
X257556Y319619D01*
X255863Y317926D01*
X254170D01*
X252478Y319619D01*
Y323004D01*
X254170Y324697D01*
X255863D01*
X257556Y323004D01*
X259249Y324697D01*
X260942D01*
X257556Y323004D02*
Y319619D01*
X331894Y184489D02*
X330202Y182796D01*
Y179411D01*
X331894Y177718D01*
X338666D01*
X340358Y179411D01*
Y182796D01*
X338666Y184489D01*
X330202Y187875D02*
Y194646D01*
X331894D01*
X338666Y187875D01*
X340358D01*
X344001Y90000D02*
X342308Y91692D01*
X338923D01*
X337230Y90000D01*
Y83228D01*
X338923Y81536D01*
X342308D01*
X344001Y83228D01*
X354158Y91692D02*
X350772Y90000D01*
X347387Y86614D01*
Y83228D01*
X349080Y81536D01*
X352465D01*
X354158Y83228D01*
Y84921D01*
X352465Y86614D01*
X347387D01*
X239607Y183980D02*
X237914Y185672D01*
X234529D01*
X232836Y183980D01*
Y177208D01*
X234529Y175516D01*
X237914D01*
X239607Y177208D01*
X249764Y185672D02*
X242993D01*
Y180594D01*
X246378Y182287D01*
X248071D01*
X249764Y180594D01*
Y177208D01*
X248071Y175516D01*
X244686D01*
X242993Y177208D01*
X284057Y97112D02*
X282364Y98804D01*
X278979D01*
X277286Y97112D01*
Y90340D01*
X278979Y88648D01*
X282364D01*
X284057Y90340D01*
X287443Y97112D02*
X289136Y98804D01*
X292521D01*
X294214Y97112D01*
Y95419D01*
X292521Y93726D01*
X290828D01*
X292521D01*
X294214Y92033D01*
Y90340D01*
X292521Y88648D01*
X289136D01*
X287443Y90340D01*
X365083Y24722D02*
X363390Y26414D01*
X360005D01*
X358312Y24722D01*
Y17950D01*
X360005Y16258D01*
X363390D01*
X365083Y17950D01*
X375240Y16258D02*
X368469D01*
X375240Y23029D01*
Y24722D01*
X373547Y26414D01*
X370162D01*
X368469Y24722D01*
X365252Y64346D02*
X363559Y66038D01*
X360174D01*
X358481Y64346D01*
Y57574D01*
X360174Y55882D01*
X363559D01*
X365252Y57574D01*
X368638Y55882D02*
X372023D01*
X370330D01*
Y66038D01*
X368638Y64346D01*
D13*
X245618Y37592D02*
X260858D01*
X245618Y4826D02*
X260858D01*
D14*
X501907Y94475D02*
X500940Y95442D01*
X499489Y95926D01*
X497554D01*
X496103Y95442D01*
X495135Y94475D01*
Y93507D01*
X495619Y92540D01*
X496103Y92056D01*
X497070Y91573D01*
X499972Y90605D01*
X500940Y90121D01*
X501424Y89638D01*
X501907Y88670D01*
Y87219D01*
X500940Y86252D01*
X499489Y85768D01*
X497554D01*
X496103Y86252D01*
X495135Y87219D01*
X504664Y93507D02*
Y93991D01*
X505148Y94958D01*
X505632Y95442D01*
X506599Y95926D01*
X508534D01*
X509501Y95442D01*
X509985Y94958D01*
X510469Y93991D01*
Y93024D01*
X509985Y92056D01*
X509018Y90605D01*
X504181Y85768D01*
X510953D01*
X513226Y82382D02*
X520965D01*
X525173Y95926D02*
X524206Y95442D01*
X523239Y94475D01*
X522755Y93507D01*
X522271Y92056D01*
Y89638D01*
X522755Y88187D01*
X523239Y87219D01*
X524206Y86252D01*
X525173Y85768D01*
X527108D01*
X528076Y86252D01*
X529043Y87219D01*
X529527Y88187D01*
X530011Y89638D01*
Y92056D01*
X529527Y93507D01*
X529043Y94475D01*
X528076Y95442D01*
X527108Y95926D01*
X525173D01*
X532381D02*
Y85768D01*
Y95926D02*
X539153Y85768D01*
Y95926D02*
Y85768D01*
X502705Y114033D02*
X501738Y115000D01*
X500287Y115484D01*
X498352D01*
X496901Y115000D01*
X495933Y114033D01*
Y113065D01*
X496417Y112098D01*
X496901Y111614D01*
X497868Y111131D01*
X500771Y110163D01*
X501738Y109679D01*
X502222Y109196D01*
X502705Y108228D01*
Y106777D01*
X501738Y105810D01*
X500287Y105326D01*
X498352D01*
X496901Y105810D01*
X495933Y106777D01*
X504979Y113549D02*
X505946Y114033D01*
X507397Y115484D01*
Y105326D01*
X512428Y101940D02*
X520167D01*
X524375Y115484D02*
X523408Y115000D01*
X522441Y114033D01*
X521957Y113065D01*
X521473Y111614D01*
Y109196D01*
X521957Y107745D01*
X522441Y106777D01*
X523408Y105810D01*
X524375Y105326D01*
X526310D01*
X527278Y105810D01*
X528245Y106777D01*
X528729Y107745D01*
X529212Y109196D01*
Y111614D01*
X528729Y113065D01*
X528245Y114033D01*
X527278Y115000D01*
X526310Y115484D01*
X524375D01*
X531583D02*
Y105326D01*
Y115484D02*
X538354Y105326D01*
Y115484D02*
Y105326D01*
X510749Y126758D02*
X515102D01*
X516553Y127242D01*
X517037Y127726D01*
X517520Y128693D01*
Y130144D01*
X517037Y131111D01*
X516553Y131595D01*
X515102Y132079D01*
X510749D01*
Y121921D01*
X519794Y132079D02*
X522212Y121921D01*
X524631Y132079D02*
X522212Y121921D01*
X524631Y132079D02*
X527049Y121921D01*
X529468Y132079D02*
X527049Y121921D01*
X531499Y132079D02*
Y121921D01*
Y132079D02*
X535853D01*
X537304Y131595D01*
X537788Y131111D01*
X538271Y130144D01*
Y129177D01*
X537788Y128209D01*
X537304Y127726D01*
X535853Y127242D01*
X531499D01*
X534885D02*
X538271Y121921D01*
D15*
X545973Y89027D02*
D03*
Y108077D02*
D03*
Y127127D02*
D03*
D16*
X370459Y336677D02*
D03*
X215011D02*
D03*
D17*
X401955Y476377D02*
D03*
X183769Y476631D02*
D03*
M02*
