%TF.GenerationSoftware,Altium Limited,Altium Designer,23.5.1 (21)*%
G04 Layer_Color=8388736*
%FSLAX45Y45*%
%MOMM*%
%TF.SameCoordinates,CD6643E0-46C1-4182-BE8D-D09F5E157601*%
%TF.FilePolarity,Negative*%
%TF.FileFunction,Soldermask,Top*%
%TF.Part,Single*%
G01*
G75*
%TA.AperFunction,SMDPad,CuDef*%
G04:AMPARAMS|DCode=42|XSize=1.143mm|YSize=1.1938mm|CornerRadius=0.14859mm|HoleSize=0mm|Usage=FLASHONLY|Rotation=270.000|XOffset=0mm|YOffset=0mm|HoleType=Round|Shape=RoundedRectangle|*
%AMROUNDEDRECTD42*
21,1,1.14300,0.89662,0,0,270.0*
21,1,0.84582,1.19380,0,0,270.0*
1,1,0.29718,-0.44831,-0.42291*
1,1,0.29718,-0.44831,0.42291*
1,1,0.29718,0.44831,0.42291*
1,1,0.29718,0.44831,-0.42291*
%
%ADD42ROUNDEDRECTD42*%
G04:AMPARAMS|DCode=43|XSize=2.0066mm|YSize=1.1938mm|CornerRadius=0.22542mm|HoleSize=0mm|Usage=FLASHONLY|Rotation=0.000|XOffset=0mm|YOffset=0mm|HoleType=Round|Shape=RoundedRectangle|*
%AMROUNDEDRECTD43*
21,1,2.00660,0.74295,0,0,0.0*
21,1,1.55575,1.19380,0,0,0.0*
1,1,0.45085,0.77788,-0.37148*
1,1,0.45085,-0.77788,-0.37148*
1,1,0.45085,-0.77788,0.37148*
1,1,0.45085,0.77788,0.37148*
%
%ADD43ROUNDEDRECTD43*%
G04:AMPARAMS|DCode=44|XSize=1.7526mm|YSize=0.8128mm|CornerRadius=0.13208mm|HoleSize=0mm|Usage=FLASHONLY|Rotation=90.000|XOffset=0mm|YOffset=0mm|HoleType=Round|Shape=RoundedRectangle|*
%AMROUNDEDRECTD44*
21,1,1.75260,0.54864,0,0,90.0*
21,1,1.48844,0.81280,0,0,90.0*
1,1,0.26416,0.27432,0.74422*
1,1,0.26416,0.27432,-0.74422*
1,1,0.26416,-0.27432,-0.74422*
1,1,0.26416,-0.27432,0.74422*
%
%ADD44ROUNDEDRECTD44*%
G04:AMPARAMS|DCode=45|XSize=0.8128mm|YSize=1.2446mm|CornerRadius=0.13208mm|HoleSize=0mm|Usage=FLASHONLY|Rotation=0.000|XOffset=0mm|YOffset=0mm|HoleType=Round|Shape=RoundedRectangle|*
%AMROUNDEDRECTD45*
21,1,0.81280,0.98044,0,0,0.0*
21,1,0.54864,1.24460,0,0,0.0*
1,1,0.26416,0.27432,-0.49022*
1,1,0.26416,-0.27432,-0.49022*
1,1,0.26416,-0.27432,0.49022*
1,1,0.26416,0.27432,0.49022*
%
%ADD45ROUNDEDRECTD45*%
G04:AMPARAMS|DCode=46|XSize=1.143mm|YSize=1.1938mm|CornerRadius=0.14859mm|HoleSize=0mm|Usage=FLASHONLY|Rotation=0.000|XOffset=0mm|YOffset=0mm|HoleType=Round|Shape=RoundedRectangle|*
%AMROUNDEDRECTD46*
21,1,1.14300,0.89662,0,0,0.0*
21,1,0.84582,1.19380,0,0,0.0*
1,1,0.29718,0.42291,-0.44831*
1,1,0.29718,-0.42291,-0.44831*
1,1,0.29718,-0.42291,0.44831*
1,1,0.29718,0.42291,0.44831*
%
%ADD46ROUNDEDRECTD46*%
G04:AMPARAMS|DCode=47|XSize=1.4478mm|YSize=3.3782mm|CornerRadius=0.25718mm|HoleSize=0mm|Usage=FLASHONLY|Rotation=90.000|XOffset=0mm|YOffset=0mm|HoleType=Round|Shape=RoundedRectangle|*
%AMROUNDEDRECTD47*
21,1,1.44780,2.86385,0,0,90.0*
21,1,0.93345,3.37820,0,0,90.0*
1,1,0.51435,1.43192,0.46672*
1,1,0.51435,1.43192,-0.46672*
1,1,0.51435,-1.43192,-0.46672*
1,1,0.51435,-1.43192,0.46672*
%
%ADD47ROUNDEDRECTD47*%
G04:AMPARAMS|DCode=48|XSize=4.0132mm|YSize=3.2258mm|CornerRadius=0.25273mm|HoleSize=0mm|Usage=FLASHONLY|Rotation=0.000|XOffset=0mm|YOffset=0mm|HoleType=Round|Shape=RoundedRectangle|*
%AMROUNDEDRECTD48*
21,1,4.01320,2.72034,0,0,0.0*
21,1,3.50774,3.22580,0,0,0.0*
1,1,0.50546,1.75387,-1.36017*
1,1,0.50546,-1.75387,-1.36017*
1,1,0.50546,-1.75387,1.36017*
1,1,0.50546,1.75387,1.36017*
%
%ADD48ROUNDEDRECTD48*%
G04:AMPARAMS|DCode=49|XSize=4.0132mm|YSize=3.2258mm|CornerRadius=0.25273mm|HoleSize=0mm|Usage=FLASHONLY|Rotation=90.000|XOffset=0mm|YOffset=0mm|HoleType=Round|Shape=RoundedRectangle|*
%AMROUNDEDRECTD49*
21,1,4.01320,2.72034,0,0,90.0*
21,1,3.50774,3.22580,0,0,90.0*
1,1,0.50546,1.36017,1.75387*
1,1,0.50546,1.36017,-1.75387*
1,1,0.50546,-1.36017,-1.75387*
1,1,0.50546,-1.36017,1.75387*
%
%ADD49ROUNDEDRECTD49*%
G04:AMPARAMS|DCode=50|XSize=1.0033mm|YSize=0.8636mm|CornerRadius=0.13462mm|HoleSize=0mm|Usage=FLASHONLY|Rotation=0.000|XOffset=0mm|YOffset=0mm|HoleType=Round|Shape=RoundedRectangle|*
%AMROUNDEDRECTD50*
21,1,1.00330,0.59436,0,0,0.0*
21,1,0.73406,0.86360,0,0,0.0*
1,1,0.26924,0.36703,-0.29718*
1,1,0.26924,-0.36703,-0.29718*
1,1,0.26924,-0.36703,0.29718*
1,1,0.26924,0.36703,0.29718*
%
%ADD50ROUNDEDRECTD50*%
G04:AMPARAMS|DCode=51|XSize=1.2954mm|YSize=2.6924mm|CornerRadius=0.15621mm|HoleSize=0mm|Usage=FLASHONLY|Rotation=270.000|XOffset=0mm|YOffset=0mm|HoleType=Round|Shape=RoundedRectangle|*
%AMROUNDEDRECTD51*
21,1,1.29540,2.37998,0,0,270.0*
21,1,0.98298,2.69240,0,0,270.0*
1,1,0.31242,-1.18999,-0.49149*
1,1,0.31242,-1.18999,0.49149*
1,1,0.31242,1.18999,0.49149*
1,1,0.31242,1.18999,-0.49149*
%
%ADD51ROUNDEDRECTD51*%
G04:AMPARAMS|DCode=52|XSize=1.1938mm|YSize=1.651mm|CornerRadius=0.15113mm|HoleSize=0mm|Usage=FLASHONLY|Rotation=270.000|XOffset=0mm|YOffset=0mm|HoleType=Round|Shape=RoundedRectangle|*
%AMROUNDEDRECTD52*
21,1,1.19380,1.34874,0,0,270.0*
21,1,0.89154,1.65100,0,0,270.0*
1,1,0.30226,-0.67437,-0.44577*
1,1,0.30226,-0.67437,0.44577*
1,1,0.30226,0.67437,0.44577*
1,1,0.30226,0.67437,-0.44577*
%
%ADD52ROUNDEDRECTD52*%
G04:AMPARAMS|DCode=53|XSize=1.8034mm|YSize=2.794mm|CornerRadius=0.30162mm|HoleSize=0mm|Usage=FLASHONLY|Rotation=270.000|XOffset=0mm|YOffset=0mm|HoleType=Round|Shape=RoundedRectangle|*
%AMROUNDEDRECTD53*
21,1,1.80340,2.19075,0,0,270.0*
21,1,1.20015,2.79400,0,0,270.0*
1,1,0.60325,-1.09537,-0.60008*
1,1,0.60325,-1.09537,0.60008*
1,1,0.60325,1.09537,0.60008*
1,1,0.60325,1.09537,-0.60008*
%
%ADD53ROUNDEDRECTD53*%
%TA.AperFunction,ComponentPad*%
%ADD54C,2.23520*%
G04:AMPARAMS|DCode=55|XSize=8.8646mm|YSize=14.5034mm|CornerRadius=0.53467mm|HoleSize=0mm|Usage=FLASHONLY|Rotation=270.000|XOffset=0mm|YOffset=0mm|HoleType=Round|Shape=RoundedRectangle|*
%AMROUNDEDRECTD55*
21,1,8.86460,13.43406,0,0,270.0*
21,1,7.79526,14.50340,0,0,270.0*
1,1,1.06934,-6.71703,-3.89763*
1,1,1.06934,-6.71703,3.89763*
1,1,1.06934,6.71703,3.89763*
1,1,1.06934,6.71703,-3.89763*
%
%ADD55ROUNDEDRECTD55*%
%ADD56C,1.45796*%
%ADD57R,17.66570X17.66570*%
%ADD58C,1.72720*%
%ADD59C,3.40360*%
%ADD60C,2.41300*%
D42*
X4447540Y1938020D02*
D03*
Y2098040D02*
D03*
X2768600Y2164080D02*
D03*
Y2004060D02*
D03*
X2921000Y2164080D02*
D03*
Y2004060D02*
D03*
X2291080Y1524000D02*
D03*
Y1363980D02*
D03*
X4851400Y1313180D02*
D03*
Y1473200D02*
D03*
Y1617980D02*
D03*
Y1778000D02*
D03*
X2291080Y1219200D02*
D03*
Y1059180D02*
D03*
X4851400Y1922780D02*
D03*
Y2082800D02*
D03*
X2291080Y914400D02*
D03*
Y754380D02*
D03*
X2443480Y1640840D02*
D03*
Y1480820D02*
D03*
X4295140Y2098040D02*
D03*
Y1938020D02*
D03*
D43*
X5638800Y2095500D02*
D03*
Y1892300D02*
D03*
Y1488440D02*
D03*
Y1691640D02*
D03*
X5712460Y149860D02*
D03*
Y337820D02*
D03*
X5715000Y525780D02*
D03*
D44*
X3119120Y1050290D02*
D03*
X3246120D02*
D03*
X3373120D02*
D03*
X3500120D02*
D03*
X3373120Y1591310D02*
D03*
X3246120D02*
D03*
X3119120D02*
D03*
X3500120D02*
D03*
D45*
X2482088Y1064260D02*
D03*
X2577084D02*
D03*
X2672080D02*
D03*
Y1333500D02*
D03*
X2482088D02*
D03*
D46*
X5562600Y889000D02*
D03*
X5722620D02*
D03*
X5562600Y1079500D02*
D03*
X5722620D02*
D03*
X3843020Y1996440D02*
D03*
X3683000D02*
D03*
X3845560Y2148840D02*
D03*
X3685540D02*
D03*
X2438400Y759460D02*
D03*
X2598420D02*
D03*
X1734820Y1821180D02*
D03*
X1574800D02*
D03*
X187960Y1811020D02*
D03*
X347980D02*
D03*
X5562600Y1270000D02*
D03*
X5722620D02*
D03*
X3312160Y876300D02*
D03*
X3152140D02*
D03*
X2438400Y909320D02*
D03*
X2598420D02*
D03*
X3355340Y607060D02*
D03*
X3515360D02*
D03*
D47*
X2682240Y3573780D02*
D03*
Y4213860D02*
D03*
X3177540D02*
D03*
Y3573780D02*
D03*
D48*
X3705860Y4269740D02*
D03*
Y3583940D02*
D03*
X2151380Y4269740D02*
D03*
Y3583940D02*
D03*
D49*
X3116580Y4765040D02*
D03*
X3802380D02*
D03*
X2740660D02*
D03*
X2054860D02*
D03*
D50*
X2288540Y412750D02*
D03*
Y612140D02*
D03*
X2593340D02*
D03*
Y412750D02*
D03*
X2288540Y81280D02*
D03*
Y280670D02*
D03*
X2593340D02*
D03*
Y81280D02*
D03*
D51*
X3144520Y3393440D02*
D03*
Y3083560D02*
D03*
X2715260D02*
D03*
Y3393440D02*
D03*
D52*
X3500120Y1729740D02*
D03*
Y1920240D02*
D03*
D53*
X3446780Y259080D02*
D03*
X3086100D02*
D03*
D54*
X3474720Y2519680D02*
D03*
X3792220Y2773680D02*
D03*
X3474720Y3027680D02*
D03*
X2385060D02*
D03*
X2067560Y2773680D02*
D03*
X2385060Y2519680D02*
D03*
D55*
X5085080Y2773680D02*
D03*
X774700D02*
D03*
D56*
X4345940Y632460D02*
D03*
Y886460D02*
D03*
Y1140460D02*
D03*
Y1394460D02*
D03*
D57*
X4947920Y4196080D02*
D03*
X909320D02*
D03*
D58*
X1310640Y607060D02*
D03*
X1208405Y784860D02*
D03*
X1106805Y607060D02*
D03*
X1003935Y784860D02*
D03*
X902970Y607060D02*
D03*
X800735Y784860D02*
D03*
X699135Y607060D02*
D03*
X596900Y784860D02*
D03*
X1640840Y1267460D02*
D03*
X1412240D02*
D03*
X497840D02*
D03*
X269240D02*
D03*
D59*
X320040Y353060D02*
D03*
X1590040D02*
D03*
D60*
X142240Y695960D02*
D03*
X1767840D02*
D03*
%TF.MD5,21b6077044b11af448dad44a8d773a2c*%
M02*
