G04*
G04 #@! TF.GenerationSoftware,Altium Limited,Altium Designer,23.5.1 (21)*
G04*
G04 Layer_Physical_Order=2*
G04 Layer_Color=16711680*
%FSLAX25Y25*%
%MOIN*%
G70*
G04*
G04 #@! TF.SameCoordinates,7E09B851-E4E8-4F46-A3FF-E0AA081142DE*
G04*
G04*
G04 #@! TF.FilePolarity,Positive*
G04*
G01*
G75*
%ADD11C,0.00600*%
%ADD49C,0.02000*%
%ADD51C,0.02500*%
%ADD52C,0.08000*%
G04:AMPARAMS|DCode=53|XSize=341mil|YSize=563mil|CornerRadius=17.05mil|HoleSize=0mil|Usage=FLASHONLY|Rotation=270.000|XOffset=0mil|YOffset=0mil|HoleType=Round|Shape=RoundedRectangle|*
%AMROUNDEDRECTD53*
21,1,0.34100,0.52890,0,0,270.0*
21,1,0.30690,0.56300,0,0,270.0*
1,1,0.03410,-0.26445,-0.15345*
1,1,0.03410,-0.26445,0.15345*
1,1,0.03410,0.26445,0.15345*
1,1,0.03410,0.26445,-0.15345*
%
%ADD53ROUNDEDRECTD53*%
%ADD54C,0.04940*%
%ADD55R,0.68750X0.68750*%
%ADD56C,0.06000*%
%ADD57C,0.12600*%
%ADD58C,0.08700*%
%ADD59C,0.02362*%
G36*
X70262Y130038D02*
X70262Y129782D01*
X70162Y129280D01*
X69966Y128807D01*
X69681Y128381D01*
X69319Y128019D01*
X68893Y127734D01*
X68420Y127538D01*
X67918Y127438D01*
X67661Y127438D01*
X61761D01*
X61438Y127423D01*
X60804Y127296D01*
X60206Y127049D01*
X59668Y126689D01*
X59211Y126232D01*
X58851Y125694D01*
X58604Y125096D01*
X58477Y124462D01*
X58461Y124138D01*
X58461Y95239D01*
X58461Y94963D01*
X58354Y94422D01*
X58143Y93912D01*
X57836Y93454D01*
X57446Y93064D01*
X56988Y92757D01*
X56478Y92546D01*
X55937Y92439D01*
X55661Y92439D01*
X3344D01*
X2572Y92758D01*
X1981Y93349D01*
X1661Y94121D01*
Y94538D01*
X1263Y178784D01*
X1616Y179139D01*
X70262D01*
X70262Y130038D01*
D02*
G37*
G36*
X229398Y179146D02*
X229000Y94900D01*
Y94482D01*
X228680Y93710D01*
X228090Y93120D01*
X227318Y92800D01*
X175000D01*
X174724Y92800D01*
X174183Y92908D01*
X173674Y93119D01*
X173215Y93425D01*
X172825Y93815D01*
X172519Y94274D01*
X172308Y94783D01*
X172200Y95324D01*
X172200Y95600D01*
X172200Y124500D01*
X172184Y124823D01*
X172058Y125458D01*
X171810Y126056D01*
X171451Y126593D01*
X170993Y127051D01*
X170456Y127410D01*
X169858Y127658D01*
X169223Y127784D01*
X168900Y127800D01*
X163000D01*
X162744Y127800D01*
X162242Y127900D01*
X161768Y128096D01*
X161343Y128380D01*
X160980Y128743D01*
X160696Y129168D01*
X160500Y129642D01*
X160400Y130144D01*
X160400Y130400D01*
X160400Y179500D01*
X229046D01*
X229398Y179146D01*
D02*
G37*
G36*
X153425Y180098D02*
X153366Y179500D01*
X153366Y130400D01*
X153366Y130144D01*
X153366Y130144D01*
X153366Y130144D01*
X153425Y129546D01*
Y124023D01*
X153300Y123900D01*
X162800Y114900D01*
Y84900D01*
X229480D01*
Y53440D01*
X229406Y31703D01*
X229090Y31263D01*
X229059Y31233D01*
X207450Y31178D01*
X196026Y42838D01*
X176151Y42915D01*
X175586Y43292D01*
X173862Y44006D01*
X172033Y44370D01*
X170167D01*
X168338Y44006D01*
X168328Y44002D01*
X167954Y44370D01*
X153220Y58900D01*
X119800D01*
X119500Y64000D01*
X106300Y76900D01*
Y84900D01*
X101900Y88900D01*
X66544D01*
Y120300D01*
X77506D01*
Y129659D01*
X77295Y129783D01*
X77295Y130039D01*
X77295Y179139D01*
X77175Y180361D01*
Y199908D01*
X106726Y199941D01*
X142589Y199980D01*
X153425D01*
Y180098D01*
D02*
G37*
G36*
X80284Y67226D02*
X99089Y67120D01*
X121091Y44900D01*
X140324D01*
X149593Y35800D01*
X167338D01*
X167642Y35403D01*
X167630Y35357D01*
Y34443D01*
X167867Y33561D01*
X168323Y32769D01*
X168969Y32123D01*
X169761Y31666D01*
X170643Y31430D01*
X171557D01*
X172439Y31666D01*
X173231Y32123D01*
X173877Y32769D01*
X174043Y33057D01*
X174538Y33128D01*
X183995Y24084D01*
X229077Y24199D01*
X229431Y23846D01*
Y1500D01*
X1020D01*
Y77300D01*
X69900D01*
X80284Y67226D01*
D02*
G37*
%LPC*%
G36*
X137458Y124200D02*
X136142D01*
X134870Y123859D01*
X133730Y123201D01*
X132799Y122270D01*
X132141Y121130D01*
X131800Y119858D01*
Y118542D01*
X132141Y117270D01*
X132799Y116130D01*
X133730Y115199D01*
X134870Y114541D01*
X136142Y114200D01*
X137458D01*
X138730Y114541D01*
X139275Y114855D01*
X139653Y114496D01*
X139106Y113423D01*
X138571Y111776D01*
X138300Y110066D01*
Y108334D01*
X138571Y106624D01*
X139106Y104978D01*
X139892Y103435D01*
X140910Y102034D01*
X142134Y100810D01*
X143535Y99792D01*
X145078Y99006D01*
X146724Y98471D01*
X148434Y98200D01*
X150166D01*
X151876Y98471D01*
X153523Y99006D01*
X155065Y99792D01*
X156466Y100810D01*
X157690Y102034D01*
X158708Y103435D01*
X159494Y104978D01*
X160029Y106624D01*
X160300Y108334D01*
Y110066D01*
X160029Y111776D01*
X159494Y113423D01*
X158708Y114965D01*
X157690Y116366D01*
X156466Y117590D01*
X155065Y118608D01*
X153523Y119394D01*
X151876Y119929D01*
X150166Y120200D01*
X148434D01*
X146724Y119929D01*
X145078Y119394D01*
X143535Y118608D01*
X142134Y117590D01*
X142037Y117493D01*
X141588Y117752D01*
X141800Y118542D01*
Y119858D01*
X141459Y121130D01*
X140801Y122270D01*
X139870Y123201D01*
X138730Y123859D01*
X137458Y124200D01*
D02*
G37*
G36*
X82266Y120200D02*
X80534D01*
X78824Y119929D01*
X77178Y119394D01*
X75635Y118608D01*
X74234Y117590D01*
X73010Y116366D01*
X71992Y114965D01*
X71206Y113423D01*
X70671Y111776D01*
X70400Y110066D01*
Y108334D01*
X70671Y106624D01*
X71206Y104978D01*
X71992Y103435D01*
X73010Y102034D01*
X74234Y100810D01*
X75635Y99792D01*
X77178Y99006D01*
X78824Y98471D01*
X80534Y98200D01*
X82266D01*
X83976Y98471D01*
X85623Y99006D01*
X87165Y99792D01*
X88566Y100810D01*
X88663Y100907D01*
X89112Y100648D01*
X88900Y99858D01*
Y98542D01*
X89241Y97270D01*
X89899Y96130D01*
X90830Y95199D01*
X91970Y94541D01*
X93242Y94200D01*
X94558D01*
X95830Y94541D01*
X96970Y95199D01*
X97901Y96130D01*
X98559Y97270D01*
X98900Y98542D01*
Y99858D01*
X98559Y101130D01*
X97901Y102270D01*
X96970Y103201D01*
X95830Y103859D01*
X94558Y104200D01*
X93242D01*
X91970Y103859D01*
X91425Y103545D01*
X91047Y103904D01*
X91594Y104978D01*
X92129Y106624D01*
X92400Y108334D01*
Y110066D01*
X92129Y111776D01*
X91594Y113423D01*
X90808Y114965D01*
X89790Y116366D01*
X88566Y117590D01*
X87165Y118608D01*
X85623Y119394D01*
X83976Y119929D01*
X82266Y120200D01*
D02*
G37*
G36*
X119434Y77481D02*
X118566D01*
X117764Y77149D01*
X117151Y76535D01*
X116819Y75734D01*
Y74866D01*
X117151Y74064D01*
X117764Y73451D01*
X118566Y73119D01*
X119434D01*
X119776Y73261D01*
X124857D01*
X125778Y72340D01*
X125851Y72164D01*
X126464Y71551D01*
X127266Y71219D01*
X128134D01*
X128936Y71551D01*
X129549Y72164D01*
X129881Y72966D01*
Y73834D01*
X129549Y74635D01*
X128936Y75249D01*
X128426Y75460D01*
X127144Y76742D01*
X126482Y77184D01*
X125702Y77339D01*
X119776D01*
X119434Y77481D01*
D02*
G37*
G36*
X171557Y58370D02*
X170643D01*
X169761Y58134D01*
X168969Y57677D01*
X168323Y57031D01*
X167867Y56239D01*
X167630Y55357D01*
Y54443D01*
X167867Y53561D01*
X168323Y52769D01*
X168969Y52123D01*
X169761Y51666D01*
X170643Y51430D01*
X171557D01*
X172439Y51666D01*
X173231Y52123D01*
X173877Y52769D01*
X174334Y53561D01*
X174570Y54443D01*
Y55357D01*
X174334Y56239D01*
X173877Y57031D01*
X173231Y57677D01*
X172439Y58134D01*
X171557Y58370D01*
D02*
G37*
G36*
X65127Y53900D02*
X64073D01*
X63056Y53627D01*
X62144Y53101D01*
X61399Y52356D01*
X60873Y51444D01*
X60600Y50427D01*
Y49373D01*
X60873Y48356D01*
X61399Y47444D01*
X62144Y46699D01*
X63056Y46173D01*
X64073Y45900D01*
X65127D01*
X66144Y46173D01*
X67056Y46699D01*
X67801Y47444D01*
X68327Y48356D01*
X68600Y49373D01*
Y50427D01*
X68327Y51444D01*
X67801Y52356D01*
X67056Y53101D01*
X66144Y53627D01*
X65127Y53900D01*
D02*
G37*
G36*
X56127D02*
X55073D01*
X54056Y53627D01*
X53144Y53101D01*
X52399Y52356D01*
X51873Y51444D01*
X51600Y50427D01*
Y49373D01*
X51873Y48356D01*
X52399Y47444D01*
X53144Y46699D01*
X54056Y46173D01*
X55073Y45900D01*
X56127D01*
X57144Y46173D01*
X58056Y46699D01*
X58801Y47444D01*
X59327Y48356D01*
X59600Y49373D01*
Y50427D01*
X59327Y51444D01*
X58801Y52356D01*
X58056Y53101D01*
X57144Y53627D01*
X56127Y53900D01*
D02*
G37*
G36*
X20127D02*
X19073D01*
X18056Y53627D01*
X17144Y53101D01*
X16399Y52356D01*
X15873Y51444D01*
X15600Y50427D01*
Y49373D01*
X15873Y48356D01*
X16399Y47444D01*
X17144Y46699D01*
X18056Y46173D01*
X19073Y45900D01*
X20127D01*
X21144Y46173D01*
X22056Y46699D01*
X22801Y47444D01*
X23327Y48356D01*
X23600Y49373D01*
Y50427D01*
X23327Y51444D01*
X22801Y52356D01*
X22056Y53101D01*
X21144Y53627D01*
X20127Y53900D01*
D02*
G37*
G36*
X11127D02*
X10073D01*
X9056Y53627D01*
X8144Y53101D01*
X7399Y52356D01*
X6873Y51444D01*
X6600Y50427D01*
Y49373D01*
X6873Y48356D01*
X7399Y47444D01*
X8144Y46699D01*
X9056Y46173D01*
X10073Y45900D01*
X11127D01*
X12144Y46173D01*
X13056Y46699D01*
X13801Y47444D01*
X14327Y48356D01*
X14600Y49373D01*
Y50427D01*
X14327Y51444D01*
X13801Y52356D01*
X13056Y53101D01*
X12144Y53627D01*
X11127Y53900D01*
D02*
G37*
G36*
X48102Y34900D02*
X47048D01*
X46031Y34627D01*
X45119Y34101D01*
X44374Y33356D01*
X43848Y32444D01*
X43809Y32299D01*
X43291D01*
X43252Y32444D01*
X42726Y33356D01*
X41981Y34101D01*
X41069Y34627D01*
X40052Y34900D01*
X38998D01*
X37981Y34627D01*
X37069Y34101D01*
X36324Y33356D01*
X35798Y32444D01*
X35775Y32360D01*
X35275D01*
X35252Y32444D01*
X34726Y33356D01*
X33981Y34101D01*
X33069Y34627D01*
X32052Y34900D01*
X30998D01*
X29981Y34627D01*
X29069Y34101D01*
X28324Y33356D01*
X27798Y32444D01*
X27771Y32346D01*
X27254D01*
X27227Y32444D01*
X26701Y33356D01*
X25956Y34101D01*
X25044Y34627D01*
X24027Y34900D01*
X22973D01*
X21956Y34627D01*
X21044Y34101D01*
X20299Y33356D01*
X19773Y32444D01*
X19500Y31427D01*
Y30373D01*
X19773Y29356D01*
X20299Y28444D01*
X21044Y27699D01*
X21956Y27173D01*
X22973Y26900D01*
X24027D01*
X24210Y26949D01*
X24469Y26501D01*
X24324Y26356D01*
X23798Y25444D01*
X23525Y24427D01*
Y23373D01*
X23798Y22356D01*
X24324Y21444D01*
X25069Y20699D01*
X25981Y20173D01*
X26998Y19900D01*
X28052D01*
X29069Y20173D01*
X29981Y20699D01*
X30726Y21444D01*
X31252Y22356D01*
X31279Y22454D01*
X31796D01*
X31823Y22356D01*
X32349Y21444D01*
X33094Y20699D01*
X34006Y20173D01*
X35023Y19900D01*
X36077D01*
X37094Y20173D01*
X38006Y20699D01*
X38751Y21444D01*
X39277Y22356D01*
X39304Y22454D01*
X39821D01*
X39848Y22356D01*
X40374Y21444D01*
X41119Y20699D01*
X42031Y20173D01*
X43048Y19900D01*
X44102D01*
X45119Y20173D01*
X46031Y20699D01*
X46776Y21444D01*
X47302Y22356D01*
X47329Y22454D01*
X47846D01*
X47873Y22356D01*
X48399Y21444D01*
X49144Y20699D01*
X50056Y20173D01*
X51073Y19900D01*
X52127D01*
X53144Y20173D01*
X54056Y20699D01*
X54801Y21444D01*
X55327Y22356D01*
X55600Y23373D01*
Y24427D01*
X55327Y25444D01*
X54801Y26356D01*
X54056Y27101D01*
X53144Y27627D01*
X52127Y27900D01*
X51073D01*
X50890Y27851D01*
X50631Y28299D01*
X50776Y28444D01*
X51302Y29356D01*
X51575Y30373D01*
Y31427D01*
X51302Y32444D01*
X50776Y33356D01*
X50031Y34101D01*
X49119Y34627D01*
X48102Y34900D01*
D02*
G37*
G36*
X135634Y33181D02*
X134766D01*
X133965Y32849D01*
X133441Y32326D01*
X131500D01*
X130993Y32225D01*
X130563Y31937D01*
X127951Y29326D01*
X123353D01*
X123349Y29335D01*
X122736Y29949D01*
X121934Y30281D01*
X121066D01*
X120264Y29949D01*
X119651Y29335D01*
X119319Y28534D01*
Y27666D01*
X119651Y26864D01*
X120264Y26251D01*
X121066Y25919D01*
X121934D01*
X122736Y26251D01*
X123159Y26675D01*
X128500D01*
X129007Y26775D01*
X129437Y27063D01*
X132049Y29675D01*
X133441D01*
X133965Y29151D01*
X134766Y28819D01*
X135634D01*
X136435Y29151D01*
X137049Y29765D01*
X137381Y30566D01*
Y31434D01*
X137049Y32236D01*
X136435Y32849D01*
X135634Y33181D01*
D02*
G37*
G36*
X63319Y21200D02*
X61881D01*
X60471Y20920D01*
X59142Y20369D01*
X57946Y19570D01*
X56930Y18553D01*
X56131Y17358D01*
X55581Y16029D01*
X55300Y14619D01*
Y13181D01*
X55581Y11771D01*
X56131Y10442D01*
X56930Y9246D01*
X57946Y8230D01*
X59142Y7431D01*
X60471Y6881D01*
X61881Y6600D01*
X63319D01*
X64729Y6881D01*
X66058Y7431D01*
X67254Y8230D01*
X68270Y9246D01*
X69069Y10442D01*
X69620Y11771D01*
X69900Y13181D01*
Y14619D01*
X69620Y16029D01*
X69069Y17358D01*
X68270Y18553D01*
X67254Y19570D01*
X66058Y20369D01*
X64729Y20920D01*
X63319Y21200D01*
D02*
G37*
G36*
X13319D02*
X11881D01*
X10471Y20920D01*
X9142Y20369D01*
X7947Y19570D01*
X6930Y18553D01*
X6131Y17358D01*
X5581Y16029D01*
X5300Y14619D01*
Y13181D01*
X5581Y11771D01*
X6131Y10442D01*
X6930Y9246D01*
X7947Y8230D01*
X9142Y7431D01*
X10471Y6881D01*
X11881Y6600D01*
X13319D01*
X14729Y6881D01*
X16058Y7431D01*
X17254Y8230D01*
X18270Y9246D01*
X19069Y10442D01*
X19620Y11771D01*
X19900Y13181D01*
Y14619D01*
X19620Y16029D01*
X19069Y17358D01*
X18270Y18553D01*
X17254Y19570D01*
X16058Y20369D01*
X14729Y20920D01*
X13319Y21200D01*
D02*
G37*
%LPD*%
D11*
X131500Y31000D02*
X135200D01*
X128500Y28000D02*
X131500Y31000D01*
X121600Y28000D02*
X128500D01*
X121500Y28100D02*
X121600Y28000D01*
D49*
X119000Y75300D02*
X125702D01*
X127602Y73400D01*
X127700D01*
D51*
X175500Y95800D02*
D03*
Y100300D02*
D03*
Y104800D02*
D03*
Y109300D02*
D03*
Y113800D02*
D03*
Y118300D02*
D03*
Y122800D02*
D03*
X179500Y93800D02*
D03*
Y98300D02*
D03*
Y102800D02*
D03*
Y107300D02*
D03*
Y111800D02*
D03*
Y116300D02*
D03*
Y120800D02*
D03*
X184000Y96300D02*
D03*
Y100800D02*
D03*
Y105300D02*
D03*
Y109800D02*
D03*
Y114300D02*
D03*
Y118800D02*
D03*
Y123300D02*
D03*
X188500Y93800D02*
D03*
Y98300D02*
D03*
Y102800D02*
D03*
Y107300D02*
D03*
Y111800D02*
D03*
Y116300D02*
D03*
Y120800D02*
D03*
X193000Y96300D02*
D03*
Y100800D02*
D03*
Y105300D02*
D03*
Y109800D02*
D03*
Y114300D02*
D03*
Y118800D02*
D03*
Y123300D02*
D03*
X197500Y93800D02*
D03*
Y98300D02*
D03*
Y102800D02*
D03*
Y107300D02*
D03*
Y111800D02*
D03*
Y116300D02*
D03*
Y120800D02*
D03*
X202000Y96300D02*
D03*
Y100800D02*
D03*
Y105300D02*
D03*
Y109800D02*
D03*
Y114300D02*
D03*
Y118800D02*
D03*
Y123300D02*
D03*
X206500Y93800D02*
D03*
Y98300D02*
D03*
Y102800D02*
D03*
Y116300D02*
D03*
Y120800D02*
D03*
X211000Y96300D02*
D03*
Y118800D02*
D03*
Y123300D02*
D03*
X215000Y94300D02*
D03*
Y98800D02*
D03*
Y121300D02*
D03*
X219000Y96800D02*
D03*
Y119300D02*
D03*
Y123800D02*
D03*
X222500Y94300D02*
D03*
Y98800D02*
D03*
Y103300D02*
D03*
Y116800D02*
D03*
Y121300D02*
D03*
X226000Y96800D02*
D03*
Y101300D02*
D03*
Y105800D02*
D03*
Y110300D02*
D03*
Y114800D02*
D03*
Y119300D02*
D03*
Y123800D02*
D03*
X55200Y122600D02*
D03*
Y118100D02*
D03*
Y113600D02*
D03*
Y109100D02*
D03*
Y104600D02*
D03*
Y100100D02*
D03*
Y95600D02*
D03*
X51200Y124600D02*
D03*
Y120100D02*
D03*
Y115600D02*
D03*
Y111100D02*
D03*
Y106600D02*
D03*
Y102100D02*
D03*
Y97600D02*
D03*
X46700Y122100D02*
D03*
Y117600D02*
D03*
Y113100D02*
D03*
Y108600D02*
D03*
Y104100D02*
D03*
Y99600D02*
D03*
Y95100D02*
D03*
X42200Y124600D02*
D03*
Y120100D02*
D03*
Y115600D02*
D03*
Y111100D02*
D03*
Y106600D02*
D03*
Y102100D02*
D03*
Y97600D02*
D03*
X37700Y122100D02*
D03*
Y117600D02*
D03*
Y113100D02*
D03*
Y108600D02*
D03*
Y104100D02*
D03*
Y99600D02*
D03*
Y95100D02*
D03*
X33200Y124600D02*
D03*
Y120100D02*
D03*
Y115600D02*
D03*
Y111100D02*
D03*
Y106600D02*
D03*
Y102100D02*
D03*
Y97600D02*
D03*
X28700Y122100D02*
D03*
Y117600D02*
D03*
Y113100D02*
D03*
Y108600D02*
D03*
Y104100D02*
D03*
Y99600D02*
D03*
Y95100D02*
D03*
X24200Y124600D02*
D03*
Y120100D02*
D03*
Y115600D02*
D03*
Y102100D02*
D03*
Y97600D02*
D03*
X19700Y122100D02*
D03*
Y99600D02*
D03*
Y95100D02*
D03*
X15700Y124100D02*
D03*
Y119600D02*
D03*
Y97100D02*
D03*
X11700Y121600D02*
D03*
Y99100D02*
D03*
Y94600D02*
D03*
X8200Y124100D02*
D03*
Y119600D02*
D03*
Y115100D02*
D03*
Y101600D02*
D03*
Y97100D02*
D03*
X4700Y121600D02*
D03*
Y117100D02*
D03*
Y112600D02*
D03*
Y108100D02*
D03*
Y103600D02*
D03*
Y99100D02*
D03*
Y94600D02*
D03*
X133600Y35600D02*
D03*
X137200Y35700D02*
D03*
X127000Y23900D02*
D03*
X119500Y67400D02*
D03*
X139275Y4925D02*
D03*
X101430Y45568D02*
D03*
X91300Y64500D02*
D03*
X117200Y118900D02*
D03*
X113800D02*
D03*
X137900Y72300D02*
D03*
X219700Y62400D02*
D03*
X195100Y81900D02*
D03*
X117200Y122200D02*
D03*
X115500Y115800D02*
D03*
X113800Y122200D02*
D03*
X115300Y180800D02*
D03*
Y184100D02*
D03*
Y187600D02*
D03*
Y190900D02*
D03*
Y194200D02*
D03*
X58400Y71600D02*
D03*
X18500Y71000D02*
D03*
X187160Y60762D02*
D03*
X186500Y72600D02*
D03*
X166900Y73100D02*
D03*
X204900Y5500D02*
D03*
D52*
X136800Y99200D02*
D03*
X149300Y109200D02*
D03*
X136800Y119200D02*
D03*
X93900D02*
D03*
X81400Y109200D02*
D03*
X93900Y99200D02*
D03*
D53*
X200200Y109200D02*
D03*
X30500D02*
D03*
D54*
X171100Y24900D02*
D03*
Y34900D02*
D03*
Y44900D02*
D03*
Y54900D02*
D03*
D55*
X194800Y165200D02*
D03*
X35800D02*
D03*
D56*
X51600Y23900D02*
D03*
X47575Y30900D02*
D03*
X43575Y23900D02*
D03*
X39525Y30900D02*
D03*
X35550Y23900D02*
D03*
X31525Y30900D02*
D03*
X27525Y23900D02*
D03*
X23500Y30900D02*
D03*
X64600Y49900D02*
D03*
X55600D02*
D03*
X19600D02*
D03*
X10600D02*
D03*
D57*
X12600Y13900D02*
D03*
X62600D02*
D03*
D58*
X5600Y27400D02*
D03*
X69600D02*
D03*
D59*
X135200Y31000D02*
D03*
X121500Y28100D02*
D03*
X119000Y75300D02*
D03*
X127700Y73400D02*
D03*
M02*
