%TF.GenerationSoftware,Altium Limited,Altium Designer,23.5.1 (21)*%
G04 Layer_Color=32896*
%FSLAX45Y45*%
%MOMM*%
%TF.SameCoordinates,CD6643E0-46C1-4182-BE8D-D09F5E157601*%
%TF.FilePolarity,Positive*%
%TF.FileFunction,Legend,Bot*%
%TF.Part,Single*%
G01*
G75*
%TA.AperFunction,NonConductor*%
%ADD35C,0.25400*%
%ADD37C,0.20320*%
D35*
X5085455Y253978D02*
Y176585D01*
X5090292Y162074D01*
X5095130Y157237D01*
X5104804Y152400D01*
X5119315D01*
X5128989Y157237D01*
X5085455Y239467D02*
X5095130Y249141D01*
X5104804Y253978D01*
X5119315D01*
X5128989Y249141D01*
X5138663Y239467D01*
X5143500Y224956D01*
Y215282D01*
X5138663Y200771D01*
X5128989Y191097D01*
X5119315Y186259D01*
X5104804D01*
X5095130Y191097D01*
X5085455Y200771D01*
X5048694Y287838D02*
X5043857Y283001D01*
X5039020Y287838D01*
X5043857Y292675D01*
X5048694Y287838D01*
X5043857Y253978D02*
Y186259D01*
X5006611Y287838D02*
Y205608D01*
X5001774Y191097D01*
X4992100Y186259D01*
X4982426D01*
X5021123Y253978D02*
X4987263D01*
X4967915Y287838D02*
Y186259D01*
Y234630D02*
X4953404Y249141D01*
X4943730Y253978D01*
X4929218D01*
X4919544Y249141D01*
X4914707Y234630D01*
Y186259D01*
X4888104Y253978D02*
Y205608D01*
X4883266Y191097D01*
X4873592Y186259D01*
X4859081D01*
X4849407Y191097D01*
X4834896Y205608D01*
Y253978D02*
Y186259D01*
X4808292Y287838D02*
Y186259D01*
Y239467D02*
X4798618Y249141D01*
X4788944Y253978D01*
X4774433D01*
X4764759Y249141D01*
X4755084Y239467D01*
X4750248Y224956D01*
Y215282D01*
X4755084Y200771D01*
X4764759Y191097D01*
X4774433Y186259D01*
X4788944D01*
X4798618Y191097D01*
X4808292Y200771D01*
X4723644Y195934D02*
X4728481Y191097D01*
X4723644Y186259D01*
X4718807Y191097D01*
X4723644Y195934D01*
X4638512Y239467D02*
X4648186Y249141D01*
X4657860Y253978D01*
X4672371D01*
X4682045Y249141D01*
X4691719Y239467D01*
X4696556Y224956D01*
Y215282D01*
X4691719Y200771D01*
X4682045Y191097D01*
X4672371Y186259D01*
X4657860D01*
X4648186Y191097D01*
X4638512Y200771D01*
X4592560Y253978D02*
X4602234Y249141D01*
X4611908Y239467D01*
X4616745Y224956D01*
Y215282D01*
X4611908Y200771D01*
X4602234Y191097D01*
X4592560Y186259D01*
X4578049D01*
X4568374Y191097D01*
X4558700Y200771D01*
X4553863Y215282D01*
Y224956D01*
X4558700Y239467D01*
X4568374Y249141D01*
X4578049Y253978D01*
X4592560D01*
X4531613D02*
Y186259D01*
Y234630D02*
X4517101Y249141D01*
X4507427Y253978D01*
X4492916D01*
X4483242Y249141D01*
X4478405Y234630D01*
Y186259D01*
Y234630D02*
X4463894Y249141D01*
X4454220Y253978D01*
X4439709D01*
X4430035Y249141D01*
X4425197Y234630D01*
Y186259D01*
X4393273Y171748D02*
X4325554Y287838D01*
X4318782D02*
Y186259D01*
Y239467D02*
X4309108Y249141D01*
X4299434Y253978D01*
X4284923D01*
X4275248Y249141D01*
X4265574Y239467D01*
X4260737Y224956D01*
Y215282D01*
X4265574Y200771D01*
X4275248Y191097D01*
X4284923Y186259D01*
X4299434D01*
X4309108Y191097D01*
X4318782Y200771D01*
X4238971Y224956D02*
X4180926D01*
Y234630D01*
X4185763Y244304D01*
X4190600Y249141D01*
X4200274Y253978D01*
X4214785D01*
X4224459Y249141D01*
X4234134Y239467D01*
X4238971Y224956D01*
Y215282D01*
X4234134Y200771D01*
X4224459Y191097D01*
X4214785Y186259D01*
X4200274D01*
X4190600Y191097D01*
X4180926Y200771D01*
X4159159Y253978D02*
Y186259D01*
Y234630D02*
X4144648Y249141D01*
X4134974Y253978D01*
X4120463D01*
X4110789Y249141D01*
X4105952Y234630D01*
Y186259D01*
X4079348Y287838D02*
Y186259D01*
X4048391Y287838D02*
X4043554Y283001D01*
X4038717Y287838D01*
X4043554Y292675D01*
X4048391Y287838D01*
X4043554Y253978D02*
Y186259D01*
X3962775Y253978D02*
Y186259D01*
Y239467D02*
X3972449Y249141D01*
X3982123Y253978D01*
X3996634D01*
X4006308Y249141D01*
X4015982Y239467D01*
X4020819Y224956D01*
Y215282D01*
X4015982Y200771D01*
X4006308Y191097D01*
X3996634Y186259D01*
X3982123D01*
X3972449Y191097D01*
X3962775Y200771D01*
X3911502Y253978D02*
X3921176Y249141D01*
X3930850Y239467D01*
X3935687Y224956D01*
Y215282D01*
X3930850Y200771D01*
X3921176Y191097D01*
X3911502Y186259D01*
X3896991D01*
X3887317Y191097D01*
X3877643Y200771D01*
X3872806Y215282D01*
Y224956D01*
X3877643Y239467D01*
X3887317Y249141D01*
X3896991Y253978D01*
X3911502D01*
X3850555Y268489D02*
X3840881Y273327D01*
X3826370Y287838D01*
Y186259D01*
X3776064Y171748D02*
X3708345Y287838D01*
X3701573D02*
Y186259D01*
X3656105Y253978D02*
X3665779Y249141D01*
X3675453Y239467D01*
X3680290Y224956D01*
Y215282D01*
X3675453Y200771D01*
X3665779Y191097D01*
X3656105Y186259D01*
X3641594D01*
X3631920Y191097D01*
X3622246Y200771D01*
X3617409Y215282D01*
Y224956D01*
X3622246Y239467D01*
X3631920Y249141D01*
X3641594Y253978D01*
X3656105D01*
X3537114D02*
Y186259D01*
Y239467D02*
X3546788Y249141D01*
X3556462Y253978D01*
X3570973D01*
X3580647Y249141D01*
X3590321Y239467D01*
X3595158Y224956D01*
Y215282D01*
X3590321Y200771D01*
X3580647Y191097D01*
X3570973Y186259D01*
X3556462D01*
X3546788Y191097D01*
X3537114Y200771D01*
X3451981Y287838D02*
Y186259D01*
Y239467D02*
X3461656Y249141D01*
X3471330Y253978D01*
X3485841D01*
X3495515Y249141D01*
X3505189Y239467D01*
X3510026Y224956D01*
Y215282D01*
X3505189Y200771D01*
X3495515Y191097D01*
X3485841Y186259D01*
X3471330D01*
X3461656Y191097D01*
X3451981Y200771D01*
X3424894Y152400D02*
X3347501D01*
X3334441Y287838D02*
Y186259D01*
Y239467D02*
X3324767Y249141D01*
X3315093Y253978D01*
X3300581D01*
X3290907Y249141D01*
X3281233Y239467D01*
X3276396Y224956D01*
Y215282D01*
X3281233Y200771D01*
X3290907Y191097D01*
X3300581Y186259D01*
X3315093D01*
X3324767Y191097D01*
X3334441Y200771D01*
X3196585Y253978D02*
Y186259D01*
Y239467D02*
X3206259Y249141D01*
X3215933Y253978D01*
X3230444D01*
X3240118Y249141D01*
X3249792Y239467D01*
X3254630Y224956D01*
Y215282D01*
X3249792Y200771D01*
X3240118Y191097D01*
X3230444Y186259D01*
X3215933D01*
X3206259Y191097D01*
X3196585Y200771D01*
X3169497Y253978D02*
Y186259D01*
Y234630D02*
X3154986Y249141D01*
X3145312Y253978D01*
X3130801D01*
X3121127Y249141D01*
X3116290Y234630D01*
Y186259D01*
X3089686Y287838D02*
Y186259D01*
X3041315Y253978D02*
X3089686Y205608D01*
X3070338Y224956D02*
X3036478Y186259D01*
X5529955Y449558D02*
Y372165D01*
X5534792Y357654D01*
X5539630Y352817D01*
X5549304Y347980D01*
X5563815D01*
X5573489Y352817D01*
X5529955Y435047D02*
X5539630Y444721D01*
X5549304Y449558D01*
X5563815D01*
X5573489Y444721D01*
X5583163Y435047D01*
X5588000Y420536D01*
Y410862D01*
X5583163Y396351D01*
X5573489Y386677D01*
X5563815Y381839D01*
X5549304D01*
X5539630Y386677D01*
X5529955Y396351D01*
X5493194Y483418D02*
X5488357Y478581D01*
X5483520Y483418D01*
X5488357Y488255D01*
X5493194Y483418D01*
X5488357Y449558D02*
Y381839D01*
X5451111Y483418D02*
Y401188D01*
X5446274Y386677D01*
X5436600Y381839D01*
X5426926D01*
X5465623Y449558D02*
X5431763D01*
X5412415Y483418D02*
Y381839D01*
X5333087Y449558D02*
Y381839D01*
Y435047D02*
X5342761Y444721D01*
X5352435Y449558D01*
X5366946D01*
X5376620Y444721D01*
X5386295Y435047D01*
X5391132Y420536D01*
Y410862D01*
X5386295Y396351D01*
X5376620Y386677D01*
X5366946Y381839D01*
X5352435D01*
X5342761Y386677D01*
X5333087Y396351D01*
X5306000Y483418D02*
Y381839D01*
Y435047D02*
X5296325Y444721D01*
X5286651Y449558D01*
X5272140D01*
X5262466Y444721D01*
X5252792Y435047D01*
X5247955Y420536D01*
Y410862D01*
X5252792Y396351D01*
X5262466Y386677D01*
X5272140Y381839D01*
X5286651D01*
X5296325Y386677D01*
X5306000Y396351D01*
X5221351Y391514D02*
X5226188Y386677D01*
X5221351Y381839D01*
X5216514Y386677D01*
X5221351Y391514D01*
X5136219Y435047D02*
X5145893Y444721D01*
X5155567Y449558D01*
X5170078D01*
X5179752Y444721D01*
X5189427Y435047D01*
X5194264Y420536D01*
Y410862D01*
X5189427Y396351D01*
X5179752Y386677D01*
X5170078Y381839D01*
X5155567D01*
X5145893Y386677D01*
X5136219Y396351D01*
X5090267Y449558D02*
X5099941Y444721D01*
X5109615Y435047D01*
X5114452Y420536D01*
Y410862D01*
X5109615Y396351D01*
X5099941Y386677D01*
X5090267Y381839D01*
X5075756D01*
X5066082Y386677D01*
X5056408Y396351D01*
X5051571Y410862D01*
Y420536D01*
X5056408Y435047D01*
X5066082Y444721D01*
X5075756Y449558D01*
X5090267D01*
X5029320D02*
Y381839D01*
Y430210D02*
X5014809Y444721D01*
X5005135Y449558D01*
X4990624D01*
X4980950Y444721D01*
X4976112Y430210D01*
Y381839D01*
Y430210D02*
X4961601Y444721D01*
X4951927Y449558D01*
X4937416D01*
X4927742Y444721D01*
X4922905Y430210D01*
Y381839D01*
X4890980Y367328D02*
X4823261Y483418D01*
X4816489Y449558D02*
Y347980D01*
Y435047D02*
X4806815Y444721D01*
X4797141Y449558D01*
X4782630D01*
X4772956Y444721D01*
X4763282Y435047D01*
X4758445Y420536D01*
Y410862D01*
X4763282Y396351D01*
X4772956Y386677D01*
X4782630Y381839D01*
X4797141D01*
X4806815Y386677D01*
X4816489Y396351D01*
X4727004Y483418D02*
X4722167Y478581D01*
X4717330Y483418D01*
X4722167Y488255D01*
X4727004Y483418D01*
X4722167Y449558D02*
Y381839D01*
X4699433Y483418D02*
Y381839D01*
X4620105Y449558D02*
Y381839D01*
Y435047D02*
X4629779Y444721D01*
X4639453Y449558D01*
X4653964D01*
X4663638Y444721D01*
X4673312Y435047D01*
X4678150Y420536D01*
Y410862D01*
X4673312Y396351D01*
X4663638Y386677D01*
X4653964Y381839D01*
X4639453D01*
X4629779Y386677D01*
X4620105Y396351D01*
X4593017Y449558D02*
X4573669Y381839D01*
X4554321Y449558D02*
X4573669Y381839D01*
X4554321Y449558D02*
X4534973Y381839D01*
X4515624Y449558D02*
X4534973Y381839D01*
X4433878Y449558D02*
Y381839D01*
Y435047D02*
X4443552Y444721D01*
X4453227Y449558D01*
X4467738D01*
X4477412Y444721D01*
X4487086Y435047D01*
X4491923Y420536D01*
Y410862D01*
X4487086Y396351D01*
X4477412Y386677D01*
X4467738Y381839D01*
X4453227D01*
X4443552Y386677D01*
X4433878Y396351D01*
X4406791Y425373D02*
X4319724D01*
X4231689Y449558D02*
Y372165D01*
X4236526Y357654D01*
X4241363Y352817D01*
X4251037Y347980D01*
X4265548D01*
X4275223Y352817D01*
X4231689Y435047D02*
X4241363Y444721D01*
X4251037Y449558D01*
X4265548D01*
X4275223Y444721D01*
X4284897Y435047D01*
X4289734Y420536D01*
Y410862D01*
X4284897Y396351D01*
X4275223Y386677D01*
X4265548Y381839D01*
X4251037D01*
X4241363Y386677D01*
X4231689Y396351D01*
X4204602Y449558D02*
Y381839D01*
Y420536D02*
X4199765Y435047D01*
X4190090Y444721D01*
X4180416Y449558D01*
X4165905D01*
X4132529D02*
X4142204Y444721D01*
X4151878Y435047D01*
X4156715Y420536D01*
Y410862D01*
X4151878Y396351D01*
X4142204Y386677D01*
X4132529Y381839D01*
X4118018D01*
X4108344Y386677D01*
X4098670Y396351D01*
X4093833Y410862D01*
Y420536D01*
X4098670Y435047D01*
X4108344Y444721D01*
X4118018Y449558D01*
X4132529D01*
X4071583D02*
Y401188D01*
X4066745Y386677D01*
X4057071Y381839D01*
X4042560D01*
X4032886Y386677D01*
X4018375Y401188D01*
Y449558D02*
Y381839D01*
X3991771Y449558D02*
Y347980D01*
Y435047D02*
X3982097Y444721D01*
X3972423Y449558D01*
X3957912D01*
X3948238Y444721D01*
X3938564Y435047D01*
X3933727Y420536D01*
Y410862D01*
X3938564Y396351D01*
X3948238Y386677D01*
X3957912Y381839D01*
X3972423D01*
X3982097Y386677D01*
X3991771Y396351D01*
X3911960Y367328D02*
X3844241Y483418D01*
X3837469D02*
Y381839D01*
Y435047D02*
X3827795Y444721D01*
X3818121Y449558D01*
X3803610D01*
X3793936Y444721D01*
X3784261Y435047D01*
X3779424Y420536D01*
Y410862D01*
X3784261Y396351D01*
X3793936Y386677D01*
X3803610Y381839D01*
X3818121D01*
X3827795Y386677D01*
X3837469Y396351D01*
X3757658Y420536D02*
X3699613D01*
Y430210D01*
X3704450Y439884D01*
X3709287Y444721D01*
X3718961Y449558D01*
X3733472D01*
X3743146Y444721D01*
X3752821Y435047D01*
X3757658Y420536D01*
Y410862D01*
X3752821Y396351D01*
X3743146Y386677D01*
X3733472Y381839D01*
X3718961D01*
X3709287Y386677D01*
X3699613Y396351D01*
X3677846Y449558D02*
Y381839D01*
Y430210D02*
X3663335Y444721D01*
X3653661Y449558D01*
X3639150D01*
X3629476Y444721D01*
X3624639Y430210D01*
Y381839D01*
X3598035Y425373D02*
X3510968D01*
X3480978Y483418D02*
Y381839D01*
X3450021Y483418D02*
X3445184Y478581D01*
X3440347Y483418D01*
X3445184Y488255D01*
X3450021Y483418D01*
X3445184Y449558D02*
Y381839D01*
X3364405Y449558D02*
Y381839D01*
Y435047D02*
X3374079Y444721D01*
X3383753Y449558D01*
X3398264D01*
X3407938Y444721D01*
X3417612Y435047D01*
X3422450Y420536D01*
Y410862D01*
X3417612Y396351D01*
X3407938Y386677D01*
X3398264Y381839D01*
X3383753D01*
X3374079Y386677D01*
X3364405Y396351D01*
X3313132Y449558D02*
X3322806Y444721D01*
X3332480Y435047D01*
X3337317Y420536D01*
Y410862D01*
X3332480Y396351D01*
X3322806Y386677D01*
X3313132Y381839D01*
X3298621D01*
X3288947Y386677D01*
X3279273Y396351D01*
X3274436Y410862D01*
Y420536D01*
X3279273Y435047D01*
X3288947Y444721D01*
X3298621Y449558D01*
X3313132D01*
X3252185Y425373D02*
X3165118D01*
X3135128Y449558D02*
Y381839D01*
Y430210D02*
X3120617Y444721D01*
X3110943Y449558D01*
X3096432D01*
X3086758Y444721D01*
X3081921Y430210D01*
Y381839D01*
X3055317Y420536D02*
X2997272D01*
Y430210D01*
X3002109Y439884D01*
X3006946Y444721D01*
X3016621Y449558D01*
X3031132D01*
X3040806Y444721D01*
X3050480Y435047D01*
X3055317Y420536D01*
Y410862D01*
X3050480Y396351D01*
X3040806Y386677D01*
X3031132Y381839D01*
X3016621D01*
X3006946Y386677D01*
X2997272Y396351D01*
X2975506Y449558D02*
X2956157Y381839D01*
X2936809Y449558D02*
X2956157Y381839D01*
X2936809Y449558D02*
X2917461Y381839D01*
X2898113Y449558D02*
X2917461Y381839D01*
X2874411Y483418D02*
Y381839D01*
X2828943Y449558D02*
X2838617Y444721D01*
X2848291Y435047D01*
X2853128Y420536D01*
Y410862D01*
X2848291Y396351D01*
X2838617Y386677D01*
X2828943Y381839D01*
X2814432D01*
X2804757Y386677D01*
X2795083Y396351D01*
X2790246Y410862D01*
Y420536D01*
X2795083Y435047D01*
X2804757Y444721D01*
X2814432Y449558D01*
X2828943D01*
X2709951D02*
Y381839D01*
Y435047D02*
X2719625Y444721D01*
X2729299Y449558D01*
X2743810D01*
X2753484Y444721D01*
X2763159Y435047D01*
X2767996Y420536D01*
Y410862D01*
X2763159Y396351D01*
X2753484Y386677D01*
X2743810Y381839D01*
X2729299D01*
X2719625Y386677D01*
X2709951Y396351D01*
X2624819Y483418D02*
Y381839D01*
Y435047D02*
X2634493Y444721D01*
X2644167Y449558D01*
X2658678D01*
X2668352Y444721D01*
X2678026Y435047D01*
X2682864Y420536D01*
Y410862D01*
X2678026Y396351D01*
X2668352Y386677D01*
X2658678Y381839D01*
X2644167D01*
X2634493Y386677D01*
X2624819Y396351D01*
X2597731Y483418D02*
Y381839D01*
Y435047D02*
X2588057Y444721D01*
X2578383Y449558D01*
X2563872D01*
X2554198Y444721D01*
X2544524Y435047D01*
X2539687Y420536D01*
Y410862D01*
X2544524Y396351D01*
X2554198Y386677D01*
X2563872Y381839D01*
X2578383D01*
X2588057Y386677D01*
X2597731Y396351D01*
X2459875Y449558D02*
Y381839D01*
Y435047D02*
X2469550Y444721D01*
X2479224Y449558D01*
X2493735D01*
X2503409Y444721D01*
X2513083Y435047D01*
X2517920Y420536D01*
Y410862D01*
X2513083Y396351D01*
X2503409Y386677D01*
X2493735Y381839D01*
X2479224D01*
X2469550Y386677D01*
X2459875Y396351D01*
X2432788Y449558D02*
Y381839D01*
Y430210D02*
X2418277Y444721D01*
X2408602Y449558D01*
X2394091D01*
X2384417Y444721D01*
X2379580Y430210D01*
Y381839D01*
X2352976Y483418D02*
Y381839D01*
X2304606Y449558D02*
X2352976Y401188D01*
X2333628Y420536D02*
X2299769Y381839D01*
X2611120Y2366395D02*
Y2298683D01*
X2577264Y2264828D01*
X2543409Y2298683D01*
Y2366395D01*
X2441841Y2349467D02*
X2458769Y2366395D01*
X2492625D01*
X2509553Y2349467D01*
Y2281756D01*
X2492625Y2264828D01*
X2458769D01*
X2441841Y2281756D01*
Y2315611D01*
X2475697D01*
X2407986Y2247900D02*
X2340274D01*
X2238707Y2349467D02*
X2255635Y2366395D01*
X2289490D01*
X2306418Y2349467D01*
Y2332539D01*
X2289490Y2315611D01*
X2255635D01*
X2238707Y2298683D01*
Y2281756D01*
X2255635Y2264828D01*
X2289490D01*
X2306418Y2281756D01*
X2204851Y2264828D02*
X2170995D01*
X2187923D01*
Y2366395D01*
X2204851Y2349467D01*
X3705860Y3311275D02*
Y3243563D01*
X3672004Y3209708D01*
X3638149Y3243563D01*
Y3311275D01*
X3536581Y3294347D02*
X3553509Y3311275D01*
X3587365D01*
X3604293Y3294347D01*
Y3226636D01*
X3587365Y3209708D01*
X3553509D01*
X3536581Y3226636D01*
Y3260491D01*
X3570437D01*
X3502726Y3192780D02*
X3435014D01*
X3333447Y3294347D02*
X3350375Y3311275D01*
X3384230D01*
X3401158Y3294347D01*
Y3277419D01*
X3384230Y3260491D01*
X3350375D01*
X3333447Y3243563D01*
Y3226636D01*
X3350375Y3209708D01*
X3384230D01*
X3401158Y3226636D01*
X3231880Y3209708D02*
X3299591D01*
X3231880Y3277419D01*
Y3294347D01*
X3248808Y3311275D01*
X3282663D01*
X3299591Y3294347D01*
X1583289Y1701767D02*
X1600217Y1718695D01*
X1634072D01*
X1651000Y1701767D01*
Y1634056D01*
X1634072Y1617128D01*
X1600217D01*
X1583289Y1634056D01*
Y1667911D01*
X1617144D01*
X1549433Y1617128D02*
Y1684839D01*
X1515577Y1718695D01*
X1481721Y1684839D01*
Y1617128D01*
Y1667911D01*
X1549433D01*
X1447866Y1718695D02*
X1380154D01*
X1414010D01*
Y1617128D01*
X1278587Y1718695D02*
X1346298D01*
Y1617128D01*
X1278587D01*
X1346298Y1667911D02*
X1312443D01*
X1244731Y1600200D02*
X1177020D01*
X1143164Y1718695D02*
Y1617128D01*
X1092380D01*
X1075453Y1634056D01*
Y1701767D01*
X1092380Y1718695D01*
X1143164D01*
X1041597Y1617128D02*
Y1718695D01*
X990813D01*
X973885Y1701767D01*
Y1667911D01*
X990813Y1650983D01*
X1041597D01*
X1007741D02*
X973885Y1617128D01*
X940029Y1718695D02*
X906174D01*
X923102D01*
Y1617128D01*
X940029D01*
X906174D01*
X855390Y1718695D02*
Y1650983D01*
X821534Y1617128D01*
X787679Y1650983D01*
Y1718695D01*
X686111D02*
X753823D01*
Y1617128D01*
X686111D01*
X753823Y1667911D02*
X719967D01*
X652255Y1600200D02*
X584544D01*
X482977Y1701767D02*
X499905Y1718695D01*
X533760D01*
X550688Y1701767D01*
Y1684839D01*
X533760Y1667911D01*
X499905D01*
X482977Y1650983D01*
Y1634056D01*
X499905Y1617128D01*
X533760D01*
X550688Y1634056D01*
X449121Y1718695D02*
X415265D01*
X432193D01*
Y1617128D01*
X449121D01*
X415265D01*
X296770Y1701767D02*
X313698Y1718695D01*
X347554D01*
X364482Y1701767D01*
Y1634056D01*
X347554Y1617128D01*
X313698D01*
X296770Y1634056D01*
Y1667911D01*
X330626D01*
X1270000Y1138739D02*
X1253072Y1155667D01*
X1219217D01*
X1202289Y1172595D01*
X1100721Y1138739D02*
X1117649Y1155667D01*
X1151505D01*
X1168433Y1138739D01*
Y1121811D01*
X1151505Y1104883D01*
X1117649D01*
X1100721Y1087956D01*
Y1071028D01*
X1117649Y1054100D01*
X1151505D01*
X1168433Y1071028D01*
X1066866Y1155667D02*
X1033010D01*
X1049938D01*
Y1054100D01*
X1066866D01*
X1033010D01*
X914515Y1138739D02*
X931443Y1155667D01*
X965298D01*
X982226Y1138739D01*
Y1071028D01*
X965298Y1054100D01*
X931443D01*
X914515Y1071028D01*
Y1104883D01*
X948370D01*
X1748389Y935539D02*
X1765317Y952467D01*
X1799172D01*
X1816100Y935539D01*
Y918611D01*
X1799172Y901683D01*
X1765317D01*
X1748389Y884756D01*
Y867828D01*
X1765317Y850900D01*
X1799172D01*
X1816100Y867828D01*
X1714533Y952467D02*
X1680677D01*
X1697605D01*
Y850900D01*
X1714533D01*
X1680677D01*
X1562182Y935539D02*
X1579110Y952467D01*
X1612966D01*
X1629893Y935539D01*
Y867828D01*
X1612966Y850900D01*
X1579110D01*
X1562182Y867828D01*
Y901683D01*
X1596038D01*
X596900Y931328D02*
X563044D01*
X579972D01*
Y1032895D01*
X596900Y1015967D01*
X444549Y931328D02*
X512261D01*
X444549Y999039D01*
Y1015967D01*
X461477Y1032895D01*
X495333D01*
X512261Y1015967D01*
X410693Y1032895D02*
Y965183D01*
X376838Y931328D01*
X342982Y965183D01*
Y1032895D01*
X309126Y914400D02*
X241415D01*
X207559Y1032895D02*
X173703D01*
X190631D01*
Y931328D01*
X207559D01*
X173703D01*
X122919D02*
Y1032895D01*
X55208Y931328D01*
Y1032895D01*
X1240389Y380967D02*
X1257317Y397895D01*
X1291172D01*
X1308100Y380967D01*
Y313256D01*
X1291172Y296328D01*
X1257317D01*
X1240389Y313256D01*
Y347111D01*
X1274244D01*
X1206533Y296328D02*
Y397895D01*
X1138821Y296328D01*
Y397895D01*
X1104966D02*
Y296328D01*
X1054182D01*
X1037254Y313256D01*
Y380967D01*
X1054182Y397895D01*
X1104966D01*
X1003398Y279400D02*
X935687D01*
X901831Y397895D02*
X867975D01*
X884903D01*
Y296328D01*
X901831D01*
X867975D01*
X817192D02*
Y397895D01*
X749480Y296328D01*
Y397895D01*
X4161389Y668839D02*
X4178317Y685767D01*
X4212172D01*
X4229100Y668839D01*
Y601128D01*
X4212172Y584200D01*
X4178317D01*
X4161389Y601128D01*
Y634983D01*
X4195244D01*
X4127533Y584200D02*
Y685767D01*
X4059821Y584200D01*
Y685767D01*
X4025966D02*
Y584200D01*
X3975182D01*
X3958254Y601128D01*
Y668839D01*
X3975182Y685767D01*
X4025966D01*
X4216400Y825500D02*
X4182544D01*
X4199472D01*
Y927067D01*
X4216400Y910139D01*
X4064049Y825500D02*
X4131761D01*
X4064049Y893211D01*
Y910139D01*
X4080977Y927067D01*
X4114833D01*
X4131761Y910139D01*
X4030193Y927067D02*
Y859356D01*
X3996338Y825500D01*
X3962482Y859356D01*
Y927067D01*
X4216400Y1197995D02*
X4182544D01*
X4199472D01*
Y1096428D01*
X4216400D01*
X4182544D01*
X4064049Y1181067D02*
X4080977Y1197995D01*
X4114833D01*
X4131761Y1181067D01*
Y1164139D01*
X4114833Y1147211D01*
X4080977D01*
X4064049Y1130283D01*
Y1113356D01*
X4080977Y1096428D01*
X4114833D01*
X4131761Y1113356D01*
X3979410Y1197995D02*
X4013266D01*
X4030193Y1181067D01*
Y1113356D01*
X4013266Y1096428D01*
X3979410D01*
X3962482Y1113356D01*
Y1181067D01*
X3979410Y1197995D01*
X3928626Y1079500D02*
X3860915D01*
X3827059Y1096428D02*
X3793203D01*
X3810131D01*
Y1197995D01*
X3827059Y1181067D01*
X3674708Y1096428D02*
X3742419D01*
X3674708Y1164139D01*
Y1181067D01*
X3691636Y1197995D01*
X3725492D01*
X3742419Y1181067D01*
X3640852Y1197995D02*
Y1130283D01*
X3606997Y1096428D01*
X3573141Y1130283D01*
Y1197995D01*
X4216400Y1451995D02*
X4182544D01*
X4199472D01*
Y1350428D01*
X4216400D01*
X4182544D01*
X4064049Y1435067D02*
X4080977Y1451995D01*
X4114833D01*
X4131761Y1435067D01*
Y1418139D01*
X4114833Y1401211D01*
X4080977D01*
X4064049Y1384283D01*
Y1367356D01*
X4080977Y1350428D01*
X4114833D01*
X4131761Y1367356D01*
X3979410Y1451995D02*
X4013266D01*
X4030193Y1435067D01*
Y1367356D01*
X4013266Y1350428D01*
X3979410D01*
X3962482Y1367356D01*
Y1435067D01*
X3979410Y1451995D01*
X3928626Y1333500D02*
X3860915D01*
X3759348Y1435067D02*
X3776275Y1451995D01*
X3810131D01*
X3827059Y1435067D01*
Y1367356D01*
X3810131Y1350428D01*
X3776275D01*
X3759348Y1367356D01*
Y1401211D01*
X3793203D01*
X3725492Y1350428D02*
Y1451995D01*
X3657780Y1350428D01*
Y1451995D01*
X3623924D02*
Y1350428D01*
X3573141D01*
X3556213Y1367356D01*
Y1435067D01*
X3573141Y1451995D01*
X3623924D01*
X3657600Y3688916D02*
Y3790483D01*
X3606817D01*
X3589889Y3773555D01*
Y3739699D01*
X3606817Y3722771D01*
X3657600D01*
X3556033Y3688916D02*
X3522177D01*
X3539105D01*
Y3756627D01*
X3556033D01*
X3471393Y3688916D02*
X3437538D01*
X3454466D01*
Y3790483D01*
X3471393D01*
X3369826Y3756627D02*
X3335970D01*
X3319043Y3739699D01*
Y3688916D01*
X3369826D01*
X3386754Y3705843D01*
X3369826Y3722771D01*
X3319043D01*
X3285187Y3756627D02*
Y3705843D01*
X3268259Y3688916D01*
X3251331Y3705843D01*
X3234403Y3688916D01*
X3217475Y3705843D01*
Y3756627D01*
X3166692D02*
X3132836D01*
X3115908Y3739699D01*
Y3688916D01*
X3166692D01*
X3183619Y3705843D01*
X3166692Y3722771D01*
X3115908D01*
X3082052Y3739699D02*
X3014341D01*
X2980485Y3688916D02*
Y3790483D01*
X2929702D01*
X2912774Y3773555D01*
Y3739699D01*
X2929702Y3722771D01*
X2980485D01*
X2861990Y3688916D02*
X2828134D01*
X2811206Y3705843D01*
Y3739699D01*
X2828134Y3756627D01*
X2861990D01*
X2878918Y3739699D01*
Y3705843D01*
X2861990Y3688916D01*
X2709639Y3790483D02*
Y3688916D01*
X2760423D01*
X2777351Y3705843D01*
Y3739699D01*
X2760423Y3756627D01*
X2709639D01*
X2641928Y3655060D02*
X2625000D01*
X2608072Y3671988D01*
Y3756627D01*
X2658855D01*
X2675783Y3739699D01*
Y3705843D01*
X2658855Y3688916D01*
X2608072D01*
X2574216Y3756627D02*
Y3705843D01*
X2557288Y3688916D01*
X2506505D01*
Y3756627D01*
X2472649D02*
Y3688916D01*
Y3722771D01*
X2455721Y3739699D01*
X2438793Y3756627D01*
X2421865D01*
X2371082Y3688916D02*
X2320298D01*
X2303370Y3705843D01*
X2320298Y3722771D01*
X2354154D01*
X2371082Y3739699D01*
X2354154Y3756627D01*
X2303370D01*
X2269514Y3688916D02*
Y3790483D01*
Y3722771D02*
X2218731Y3756627D01*
X2269514Y3722771D02*
X2218731Y3688916D01*
X2167947D02*
X2134091D01*
X2151019D01*
Y3756627D01*
X2167947D01*
X3810000Y3883660D02*
Y3985227D01*
X3759217D01*
X3742289Y3968299D01*
Y3934443D01*
X3759217Y3917516D01*
X3810000D01*
X3776144D02*
X3742289Y3883660D01*
X3691505D02*
X3657649D01*
X3640721Y3900588D01*
Y3934443D01*
X3657649Y3951371D01*
X3691505D01*
X3708433Y3934443D01*
Y3900588D01*
X3691505Y3883660D01*
X3606866Y3985227D02*
Y3883660D01*
X3556082D01*
X3539154Y3900588D01*
Y3917516D01*
Y3934443D01*
X3556082Y3951371D01*
X3606866D01*
X3454515Y3883660D02*
X3488370D01*
X3505298Y3900588D01*
Y3934443D01*
X3488370Y3951371D01*
X3454515D01*
X3437587Y3934443D01*
Y3917516D01*
X3505298D01*
X3403731Y3951371D02*
Y3883660D01*
Y3917516D01*
X3386803Y3934443D01*
X3369875Y3951371D01*
X3352948D01*
X3285236Y3968299D02*
Y3951371D01*
X3302164D01*
X3268308D01*
X3285236D01*
Y3900588D01*
X3268308Y3883660D01*
X3810000Y4391627D02*
Y4290060D01*
X3759217D01*
X3742289Y4306988D01*
Y4323916D01*
X3759217Y4340843D01*
X3810000D01*
X3759217D01*
X3742289Y4357771D01*
Y4374699D01*
X3759217Y4391627D01*
X3810000D01*
X3657649Y4290060D02*
X3691505D01*
X3708433Y4306988D01*
Y4340843D01*
X3691505Y4357771D01*
X3657649D01*
X3640721Y4340843D01*
Y4323916D01*
X3708433D01*
X3606866Y4290060D02*
Y4357771D01*
X3556082D01*
X3539154Y4340843D01*
Y4290060D01*
X3403731Y4391627D02*
Y4290060D01*
X3336020D01*
X3302164D02*
X3268308D01*
X3285236D01*
Y4357771D01*
X3302164D01*
X3200597D02*
X3166741D01*
X3149813Y4340843D01*
Y4290060D01*
X3200597D01*
X3217524Y4306988D01*
X3200597Y4323916D01*
X3149813D01*
X3099029Y4290060D02*
X3065174D01*
X3048246Y4306988D01*
Y4340843D01*
X3065174Y4357771D01*
X3099029D01*
X3115957Y4340843D01*
Y4306988D01*
X3099029Y4290060D01*
X3810000Y4196883D02*
Y4095316D01*
X3742289D01*
X3691505D02*
X3657649D01*
X3640721Y4112243D01*
Y4146099D01*
X3657649Y4163027D01*
X3691505D01*
X3708433Y4146099D01*
Y4112243D01*
X3691505Y4095316D01*
X3573010Y4061460D02*
X3556082D01*
X3539154Y4078388D01*
Y4163027D01*
X3589938D01*
X3606866Y4146099D01*
Y4112243D01*
X3589938Y4095316D01*
X3539154D01*
X3488370Y4163027D02*
X3454515D01*
X3437587Y4146099D01*
Y4095316D01*
X3488370D01*
X3505298Y4112243D01*
X3488370Y4129171D01*
X3437587D01*
X3403731Y4095316D02*
Y4163027D01*
X3352948D01*
X3336020Y4146099D01*
Y4095316D01*
X3200597Y4196883D02*
Y4095316D01*
Y4146099D01*
X3132885D01*
Y4196883D01*
Y4095316D01*
X3082102D02*
X3048246D01*
X3031318Y4112243D01*
Y4146099D01*
X3048246Y4163027D01*
X3082102D01*
X3099029Y4146099D01*
Y4112243D01*
X3082102Y4095316D01*
X2997462Y4163027D02*
Y4095316D01*
Y4129171D01*
X2980534Y4146099D01*
X2963606Y4163027D01*
X2946679D01*
X2878967Y4095316D02*
X2845111D01*
X2828184Y4112243D01*
Y4146099D01*
X2845111Y4163027D01*
X2878967D01*
X2895895Y4146099D01*
Y4112243D01*
X2878967Y4095316D01*
X2794328Y4163027D02*
Y4112243D01*
X2777400Y4095316D01*
X2760472Y4112243D01*
X2743544Y4095316D01*
X2726616Y4112243D01*
Y4163027D01*
X2692760Y4095316D02*
X2658905D01*
X2675833D01*
Y4163027D01*
X2692760D01*
X2591193Y4179955D02*
Y4163027D01*
X2608121D01*
X2574265D01*
X2591193D01*
Y4112243D01*
X2574265Y4095316D01*
X2523482Y4163027D02*
X2455770D01*
X2523482Y4095316D01*
X2455770D01*
D37*
X1282700Y1435100D02*
X1384300Y1384300D01*
X1435100Y1473200D01*
X1320800Y1549400D02*
X1384300Y1384300D01*
X1117600Y939800D02*
X1181100Y901700D01*
X1231900Y952500D01*
X1163595Y1006733D02*
X1181100Y901700D01*
X1422400Y685800D02*
X1498600Y660400D01*
X1422400Y685800D02*
X1435100Y774700D01*
X1422400Y685800D02*
X1562100Y800100D01*
X431800Y774700D02*
X482600Y812800D01*
X457200Y876300D02*
X482600Y812800D01*
X368300Y850900D02*
X482600Y812800D01*
X622300Y469900D02*
X685800Y495300D01*
X723900Y444500D01*
X635000Y330200D02*
X685800Y495300D01*
%TF.MD5,d12cea926334dfa649afd96428e4ca21*%
M02*
