G04*
G04 #@! TF.GenerationSoftware,Altium Limited,Altium Designer,23.5.1 (21)*
G04*
G04 Layer_Color=32896*
%FSLAX25Y25*%
%MOIN*%
G70*
G04*
G04 #@! TF.SameCoordinates,7E09B851-E4E8-4F46-A3FF-E0AA081142DE*
G04*
G04*
G04 #@! TF.FilePolarity,Positive*
G04*
G01*
G75*
%ADD10C,0.01000*%
%ADD12C,0.00800*%
D10*
X200215Y9999D02*
Y6952D01*
X200405Y6381D01*
X200596Y6190D01*
X200976Y6000D01*
X201548D01*
X201929Y6190D01*
X200215Y9428D02*
X200596Y9809D01*
X200976Y9999D01*
X201548D01*
X201929Y9809D01*
X202310Y9428D01*
X202500Y8856D01*
Y8476D01*
X202310Y7904D01*
X201929Y7524D01*
X201548Y7333D01*
X200976D01*
X200596Y7524D01*
X200215Y7904D01*
X198767Y11332D02*
X198577Y11142D01*
X198387Y11332D01*
X198577Y11523D01*
X198767Y11332D01*
X198577Y9999D02*
Y7333D01*
X197111Y11332D02*
Y8095D01*
X196920Y7524D01*
X196539Y7333D01*
X196159D01*
X197682Y9999D02*
X196349D01*
X195587Y11332D02*
Y7333D01*
Y9237D02*
X195016Y9809D01*
X194635Y9999D01*
X194064D01*
X193683Y9809D01*
X193492Y9237D01*
Y7333D01*
X192445Y9999D02*
Y8095D01*
X192255Y7524D01*
X191874Y7333D01*
X191302D01*
X190921Y7524D01*
X190350Y8095D01*
Y9999D02*
Y7333D01*
X189303Y11332D02*
Y7333D01*
Y9428D02*
X188922Y9809D01*
X188541Y9999D01*
X187970D01*
X187589Y9809D01*
X187208Y9428D01*
X187018Y8856D01*
Y8476D01*
X187208Y7904D01*
X187589Y7524D01*
X187970Y7333D01*
X188541D01*
X188922Y7524D01*
X189303Y7904D01*
X185970Y7714D02*
X186161Y7524D01*
X185970Y7333D01*
X185780Y7524D01*
X185970Y7714D01*
X182619Y9428D02*
X182999Y9809D01*
X183380Y9999D01*
X183952D01*
X184333Y9809D01*
X184713Y9428D01*
X184904Y8856D01*
Y8476D01*
X184713Y7904D01*
X184333Y7524D01*
X183952Y7333D01*
X183380D01*
X182999Y7524D01*
X182619Y7904D01*
X180809Y9999D02*
X181190Y9809D01*
X181571Y9428D01*
X181762Y8856D01*
Y8476D01*
X181571Y7904D01*
X181190Y7524D01*
X180809Y7333D01*
X180238D01*
X179857Y7524D01*
X179476Y7904D01*
X179286Y8476D01*
Y8856D01*
X179476Y9428D01*
X179857Y9809D01*
X180238Y9999D01*
X180809D01*
X178410D02*
Y7333D01*
Y9237D02*
X177839Y9809D01*
X177458Y9999D01*
X176886D01*
X176506Y9809D01*
X176315Y9237D01*
Y7333D01*
Y9237D02*
X175744Y9809D01*
X175363Y9999D01*
X174792D01*
X174411Y9809D01*
X174220Y9237D01*
Y7333D01*
X172964Y6762D02*
X170297Y11332D01*
X170031D02*
Y7333D01*
Y9428D02*
X169650Y9809D01*
X169269Y9999D01*
X168698D01*
X168317Y9809D01*
X167936Y9428D01*
X167746Y8856D01*
Y8476D01*
X167936Y7904D01*
X168317Y7524D01*
X168698Y7333D01*
X169269D01*
X169650Y7524D01*
X170031Y7904D01*
X166889Y8856D02*
X164603D01*
Y9237D01*
X164794Y9618D01*
X164984Y9809D01*
X165365Y9999D01*
X165936D01*
X166317Y9809D01*
X166698Y9428D01*
X166889Y8856D01*
Y8476D01*
X166698Y7904D01*
X166317Y7524D01*
X165936Y7333D01*
X165365D01*
X164984Y7524D01*
X164603Y7904D01*
X163746Y9999D02*
Y7333D01*
Y9237D02*
X163175Y9809D01*
X162794Y9999D01*
X162223D01*
X161842Y9809D01*
X161652Y9237D01*
Y7333D01*
X160604Y11332D02*
Y7333D01*
X159386Y11332D02*
X159195Y11142D01*
X159005Y11332D01*
X159195Y11523D01*
X159386Y11332D01*
X159195Y9999D02*
Y7333D01*
X156015Y9999D02*
Y7333D01*
Y9428D02*
X156396Y9809D01*
X156776Y9999D01*
X157348D01*
X157729Y9809D01*
X158109Y9428D01*
X158300Y8856D01*
Y8476D01*
X158109Y7904D01*
X157729Y7524D01*
X157348Y7333D01*
X156776D01*
X156396Y7524D01*
X156015Y7904D01*
X153996Y9999D02*
X154377Y9809D01*
X154758Y9428D01*
X154948Y8856D01*
Y8476D01*
X154758Y7904D01*
X154377Y7524D01*
X153996Y7333D01*
X153425D01*
X153044Y7524D01*
X152663Y7904D01*
X152473Y8476D01*
Y8856D01*
X152663Y9428D01*
X153044Y9809D01*
X153425Y9999D01*
X153996D01*
X151597Y10570D02*
X151216Y10761D01*
X150645Y11332D01*
Y7333D01*
X148664Y6762D02*
X145998Y11332D01*
X145731D02*
Y7333D01*
X143941Y9999D02*
X144322Y9809D01*
X144703Y9428D01*
X144893Y8856D01*
Y8476D01*
X144703Y7904D01*
X144322Y7524D01*
X143941Y7333D01*
X143370D01*
X142989Y7524D01*
X142608Y7904D01*
X142418Y8476D01*
Y8856D01*
X142608Y9428D01*
X142989Y9809D01*
X143370Y9999D01*
X143941D01*
X139256D02*
Y7333D01*
Y9428D02*
X139637Y9809D01*
X140018Y9999D01*
X140589D01*
X140970Y9809D01*
X141351Y9428D01*
X141542Y8856D01*
Y8476D01*
X141351Y7904D01*
X140970Y7524D01*
X140589Y7333D01*
X140018D01*
X139637Y7524D01*
X139256Y7904D01*
X135905Y11332D02*
Y7333D01*
Y9428D02*
X136286Y9809D01*
X136667Y9999D01*
X137238D01*
X137619Y9809D01*
X138000Y9428D01*
X138190Y8856D01*
Y8476D01*
X138000Y7904D01*
X137619Y7524D01*
X137238Y7333D01*
X136667D01*
X136286Y7524D01*
X135905Y7904D01*
X134838Y6000D02*
X131791D01*
X131277Y11332D02*
Y7333D01*
Y9428D02*
X130896Y9809D01*
X130516Y9999D01*
X129944D01*
X129563Y9809D01*
X129182Y9428D01*
X128992Y8856D01*
Y8476D01*
X129182Y7904D01*
X129563Y7524D01*
X129944Y7333D01*
X130516D01*
X130896Y7524D01*
X131277Y7904D01*
X125850Y9999D02*
Y7333D01*
Y9428D02*
X126231Y9809D01*
X126611Y9999D01*
X127183D01*
X127564Y9809D01*
X127945Y9428D01*
X128135Y8856D01*
Y8476D01*
X127945Y7904D01*
X127564Y7524D01*
X127183Y7333D01*
X126611D01*
X126231Y7524D01*
X125850Y7904D01*
X124783Y9999D02*
Y7333D01*
Y9237D02*
X124212Y9809D01*
X123831Y9999D01*
X123260D01*
X122879Y9809D01*
X122689Y9237D01*
Y7333D01*
X121641Y11332D02*
Y7333D01*
X119737Y9999D02*
X121641Y8095D01*
X120879Y8856D02*
X119546Y7333D01*
X217715Y17699D02*
Y14652D01*
X217905Y14081D01*
X218096Y13890D01*
X218477Y13700D01*
X219048D01*
X219429Y13890D01*
X217715Y17128D02*
X218096Y17509D01*
X218477Y17699D01*
X219048D01*
X219429Y17509D01*
X219810Y17128D01*
X220000Y16556D01*
Y16176D01*
X219810Y15604D01*
X219429Y15224D01*
X219048Y15033D01*
X218477D01*
X218096Y15224D01*
X217715Y15604D01*
X216267Y19032D02*
X216077Y18842D01*
X215887Y19032D01*
X216077Y19223D01*
X216267Y19032D01*
X216077Y17699D02*
Y15033D01*
X214611Y19032D02*
Y15795D01*
X214420Y15224D01*
X214039Y15033D01*
X213658D01*
X215182Y17699D02*
X213849D01*
X213087Y19032D02*
Y15033D01*
X209964Y17699D02*
Y15033D01*
Y17128D02*
X210345Y17509D01*
X210726Y17699D01*
X211297D01*
X211678Y17509D01*
X212059Y17128D01*
X212249Y16556D01*
Y16176D01*
X212059Y15604D01*
X211678Y15224D01*
X211297Y15033D01*
X210726D01*
X210345Y15224D01*
X209964Y15604D01*
X208898Y19032D02*
Y15033D01*
Y17128D02*
X208517Y17509D01*
X208136Y17699D01*
X207565D01*
X207184Y17509D01*
X206803Y17128D01*
X206612Y16556D01*
Y16176D01*
X206803Y15604D01*
X207184Y15224D01*
X207565Y15033D01*
X208136D01*
X208517Y15224D01*
X208898Y15604D01*
X205565Y15414D02*
X205755Y15224D01*
X205565Y15033D01*
X205375Y15224D01*
X205565Y15414D01*
X202213Y17128D02*
X202594Y17509D01*
X202975Y17699D01*
X203546D01*
X203927Y17509D01*
X204308Y17128D01*
X204499Y16556D01*
Y16176D01*
X204308Y15604D01*
X203927Y15224D01*
X203546Y15033D01*
X202975D01*
X202594Y15224D01*
X202213Y15604D01*
X200404Y17699D02*
X200785Y17509D01*
X201166Y17128D01*
X201356Y16556D01*
Y16176D01*
X201166Y15604D01*
X200785Y15224D01*
X200404Y15033D01*
X199833D01*
X199452Y15224D01*
X199071Y15604D01*
X198881Y16176D01*
Y16556D01*
X199071Y17128D01*
X199452Y17509D01*
X199833Y17699D01*
X200404D01*
X198005D02*
Y15033D01*
Y16937D02*
X197433Y17509D01*
X197053Y17699D01*
X196481D01*
X196100Y17509D01*
X195910Y16937D01*
Y15033D01*
Y16937D02*
X195339Y17509D01*
X194958Y17699D01*
X194386D01*
X194006Y17509D01*
X193815Y16937D01*
Y15033D01*
X192558Y14462D02*
X189892Y19032D01*
X189626Y17699D02*
Y13700D01*
Y17128D02*
X189245Y17509D01*
X188864Y17699D01*
X188293D01*
X187912Y17509D01*
X187531Y17128D01*
X187340Y16556D01*
Y16176D01*
X187531Y15604D01*
X187912Y15224D01*
X188293Y15033D01*
X188864D01*
X189245Y15224D01*
X189626Y15604D01*
X186102Y19032D02*
X185912Y18842D01*
X185722Y19032D01*
X185912Y19223D01*
X186102Y19032D01*
X185912Y17699D02*
Y15033D01*
X185017Y19032D02*
Y15033D01*
X181894Y17699D02*
Y15033D01*
Y17128D02*
X182275Y17509D01*
X182656Y17699D01*
X183227D01*
X183608Y17509D01*
X183989Y17128D01*
X184179Y16556D01*
Y16176D01*
X183989Y15604D01*
X183608Y15224D01*
X183227Y15033D01*
X182656D01*
X182275Y15224D01*
X181894Y15604D01*
X180827Y17699D02*
X180066Y15033D01*
X179304Y17699D02*
X180066Y15033D01*
X179304Y17699D02*
X178542Y15033D01*
X177780Y17699D02*
X178542Y15033D01*
X174562Y17699D02*
Y15033D01*
Y17128D02*
X174943Y17509D01*
X175324Y17699D01*
X175895D01*
X176276Y17509D01*
X176657Y17128D01*
X176847Y16556D01*
Y16176D01*
X176657Y15604D01*
X176276Y15224D01*
X175895Y15033D01*
X175324D01*
X174943Y15224D01*
X174562Y15604D01*
X173496Y16747D02*
X170068D01*
X166602Y17699D02*
Y14652D01*
X166792Y14081D01*
X166983Y13890D01*
X167364Y13700D01*
X167935D01*
X168316Y13890D01*
X166602Y17128D02*
X166983Y17509D01*
X167364Y17699D01*
X167935D01*
X168316Y17509D01*
X168697Y17128D01*
X168887Y16556D01*
Y16176D01*
X168697Y15604D01*
X168316Y15224D01*
X167935Y15033D01*
X167364D01*
X166983Y15224D01*
X166602Y15604D01*
X165535Y17699D02*
Y15033D01*
Y16556D02*
X165345Y17128D01*
X164964Y17509D01*
X164583Y17699D01*
X164012D01*
X162698D02*
X163079Y17509D01*
X163460Y17128D01*
X163650Y16556D01*
Y16176D01*
X163460Y15604D01*
X163079Y15224D01*
X162698Y15033D01*
X162127D01*
X161746Y15224D01*
X161365Y15604D01*
X161174Y16176D01*
Y16556D01*
X161365Y17128D01*
X161746Y17509D01*
X162127Y17699D01*
X162698D01*
X160299D02*
Y15795D01*
X160108Y15224D01*
X159727Y15033D01*
X159156D01*
X158775Y15224D01*
X158204Y15795D01*
Y17699D02*
Y15033D01*
X157156Y17699D02*
Y13700D01*
Y17128D02*
X156775Y17509D01*
X156395Y17699D01*
X155823D01*
X155442Y17509D01*
X155062Y17128D01*
X154871Y16556D01*
Y16176D01*
X155062Y15604D01*
X155442Y15224D01*
X155823Y15033D01*
X156395D01*
X156775Y15224D01*
X157156Y15604D01*
X154014Y14462D02*
X151348Y19032D01*
X151082D02*
Y15033D01*
Y17128D02*
X150701Y17509D01*
X150320Y17699D01*
X149748D01*
X149367Y17509D01*
X148987Y17128D01*
X148796Y16556D01*
Y16176D01*
X148987Y15604D01*
X149367Y15224D01*
X149748Y15033D01*
X150320D01*
X150701Y15224D01*
X151082Y15604D01*
X147939Y16556D02*
X145654D01*
Y16937D01*
X145844Y17318D01*
X146035Y17509D01*
X146416Y17699D01*
X146987D01*
X147368Y17509D01*
X147749Y17128D01*
X147939Y16556D01*
Y16176D01*
X147749Y15604D01*
X147368Y15224D01*
X146987Y15033D01*
X146416D01*
X146035Y15224D01*
X145654Y15604D01*
X144797Y17699D02*
Y15033D01*
Y16937D02*
X144226Y17509D01*
X143845Y17699D01*
X143274D01*
X142893Y17509D01*
X142702Y16937D01*
Y15033D01*
X141655Y16747D02*
X138227D01*
X137046Y19032D02*
Y15033D01*
X135828Y19032D02*
X135637Y18842D01*
X135447Y19032D01*
X135637Y19223D01*
X135828Y19032D01*
X135637Y17699D02*
Y15033D01*
X132457Y17699D02*
Y15033D01*
Y17128D02*
X132838Y17509D01*
X133219Y17699D01*
X133790D01*
X134171Y17509D01*
X134552Y17128D01*
X134742Y16556D01*
Y16176D01*
X134552Y15604D01*
X134171Y15224D01*
X133790Y15033D01*
X133219D01*
X132838Y15224D01*
X132457Y15604D01*
X130438Y17699D02*
X130819Y17509D01*
X131200Y17128D01*
X131391Y16556D01*
Y16176D01*
X131200Y15604D01*
X130819Y15224D01*
X130438Y15033D01*
X129867D01*
X129486Y15224D01*
X129105Y15604D01*
X128915Y16176D01*
Y16556D01*
X129105Y17128D01*
X129486Y17509D01*
X129867Y17699D01*
X130438D01*
X128039Y16747D02*
X124611D01*
X123430Y17699D02*
Y15033D01*
Y16937D02*
X122859Y17509D01*
X122478Y17699D01*
X121907D01*
X121526Y17509D01*
X121335Y16937D01*
Y15033D01*
X120288Y16556D02*
X118003D01*
Y16937D01*
X118193Y17318D01*
X118384Y17509D01*
X118765Y17699D01*
X119336D01*
X119717Y17509D01*
X120098Y17128D01*
X120288Y16556D01*
Y16176D01*
X120098Y15604D01*
X119717Y15224D01*
X119336Y15033D01*
X118765D01*
X118384Y15224D01*
X118003Y15604D01*
X117146Y17699D02*
X116384Y15033D01*
X115622Y17699D02*
X116384Y15033D01*
X115622Y17699D02*
X114861Y15033D01*
X114099Y17699D02*
X114861Y15033D01*
X113166Y19032D02*
Y15033D01*
X111376Y17699D02*
X111757Y17509D01*
X112137Y17128D01*
X112328Y16556D01*
Y16176D01*
X112137Y15604D01*
X111757Y15224D01*
X111376Y15033D01*
X110804D01*
X110424Y15224D01*
X110043Y15604D01*
X109852Y16176D01*
Y16556D01*
X110043Y17128D01*
X110424Y17509D01*
X110804Y17699D01*
X111376D01*
X106691D02*
Y15033D01*
Y17128D02*
X107072Y17509D01*
X107453Y17699D01*
X108024D01*
X108405Y17509D01*
X108786Y17128D01*
X108976Y16556D01*
Y16176D01*
X108786Y15604D01*
X108405Y15224D01*
X108024Y15033D01*
X107453D01*
X107072Y15224D01*
X106691Y15604D01*
X103339Y19032D02*
Y15033D01*
Y17128D02*
X103720Y17509D01*
X104101Y17699D01*
X104672D01*
X105053Y17509D01*
X105434Y17128D01*
X105624Y16556D01*
Y16176D01*
X105434Y15604D01*
X105053Y15224D01*
X104672Y15033D01*
X104101D01*
X103720Y15224D01*
X103339Y15604D01*
X102273Y19032D02*
Y15033D01*
Y17128D02*
X101892Y17509D01*
X101511Y17699D01*
X100940D01*
X100559Y17509D01*
X100178Y17128D01*
X99988Y16556D01*
Y16176D01*
X100178Y15604D01*
X100559Y15224D01*
X100940Y15033D01*
X101511D01*
X101892Y15224D01*
X102273Y15604D01*
X96846Y17699D02*
Y15033D01*
Y17128D02*
X97226Y17509D01*
X97607Y17699D01*
X98178D01*
X98559Y17509D01*
X98940Y17128D01*
X99131Y16556D01*
Y16176D01*
X98940Y15604D01*
X98559Y15224D01*
X98178Y15033D01*
X97607D01*
X97226Y15224D01*
X96846Y15604D01*
X95779Y17699D02*
Y15033D01*
Y16937D02*
X95208Y17509D01*
X94827Y17699D01*
X94256D01*
X93875Y17509D01*
X93684Y16937D01*
Y15033D01*
X92637Y19032D02*
Y15033D01*
X90733Y17699D02*
X92637Y15795D01*
X91875Y16556D02*
X90542Y15033D01*
X102800Y93165D02*
Y90499D01*
X101467Y89166D01*
X100134Y90499D01*
Y93165D01*
X96135Y92499D02*
X96802Y93165D01*
X98135D01*
X98801Y92499D01*
Y89833D01*
X98135Y89166D01*
X96802D01*
X96135Y89833D01*
Y91166D01*
X97468D01*
X94803Y88500D02*
X92137D01*
X88138Y92499D02*
X88805Y93165D01*
X90137D01*
X90804Y92499D01*
Y91832D01*
X90137Y91166D01*
X88805D01*
X88138Y90499D01*
Y89833D01*
X88805Y89166D01*
X90137D01*
X90804Y89833D01*
X86805Y89166D02*
X85472D01*
X86139D01*
Y93165D01*
X86805Y92499D01*
X145900Y130365D02*
Y127699D01*
X144567Y126366D01*
X143234Y127699D01*
Y130365D01*
X139235Y129699D02*
X139902Y130365D01*
X141235D01*
X141901Y129699D01*
Y127033D01*
X141235Y126366D01*
X139902D01*
X139235Y127033D01*
Y128366D01*
X140568D01*
X137903Y125700D02*
X135237D01*
X131238Y129699D02*
X131904Y130365D01*
X133237D01*
X133904Y129699D01*
Y129032D01*
X133237Y128366D01*
X131904D01*
X131238Y127699D01*
Y127033D01*
X131904Y126366D01*
X133237D01*
X133904Y127033D01*
X127239Y126366D02*
X129905D01*
X127239Y129032D01*
Y129699D01*
X127906Y130365D01*
X129239D01*
X129905Y129699D01*
X62334Y66999D02*
X63001Y67665D01*
X64334D01*
X65000Y66999D01*
Y64333D01*
X64334Y63666D01*
X63001D01*
X62334Y64333D01*
Y65666D01*
X63667D01*
X61001Y63666D02*
Y66332D01*
X59668Y67665D01*
X58336Y66332D01*
Y63666D01*
Y65666D01*
X61001D01*
X57003Y67665D02*
X54337D01*
X55670D01*
Y63666D01*
X50338Y67665D02*
X53004D01*
Y63666D01*
X50338D01*
X53004Y65666D02*
X51671D01*
X49005Y63000D02*
X46339D01*
X45006Y67665D02*
Y63666D01*
X43007D01*
X42341Y64333D01*
Y66999D01*
X43007Y67665D01*
X45006D01*
X41008Y63666D02*
Y67665D01*
X39008D01*
X38342Y66999D01*
Y65666D01*
X39008Y64999D01*
X41008D01*
X39675D02*
X38342Y63666D01*
X37009Y67665D02*
X35676D01*
X36343D01*
Y63666D01*
X37009D01*
X35676D01*
X33677Y67665D02*
Y64999D01*
X32344Y63666D01*
X31011Y64999D01*
Y67665D01*
X27012D02*
X29678D01*
Y63666D01*
X27012D01*
X29678Y65666D02*
X28345D01*
X25679Y63000D02*
X23014D01*
X19015Y66999D02*
X19681Y67665D01*
X21014D01*
X21681Y66999D01*
Y66332D01*
X21014Y65666D01*
X19681D01*
X19015Y64999D01*
Y64333D01*
X19681Y63666D01*
X21014D01*
X21681Y64333D01*
X17682Y67665D02*
X16349D01*
X17016D01*
Y63666D01*
X17682D01*
X16349D01*
X11684Y66999D02*
X12350Y67665D01*
X13683D01*
X14350Y66999D01*
Y64333D01*
X13683Y63666D01*
X12350D01*
X11684Y64333D01*
Y65666D01*
X13017D01*
X50000Y44832D02*
X49334Y45499D01*
X48001D01*
X47334Y46165D01*
X43336Y44832D02*
X44002Y45499D01*
X45335D01*
X46001Y44832D01*
Y44166D01*
X45335Y43499D01*
X44002D01*
X43336Y42833D01*
Y42166D01*
X44002Y41500D01*
X45335D01*
X46001Y42166D01*
X42003Y45499D02*
X40670D01*
X41336D01*
Y41500D01*
X42003D01*
X40670D01*
X36004Y44832D02*
X36671Y45499D01*
X38004D01*
X38670Y44832D01*
Y42166D01*
X38004Y41500D01*
X36671D01*
X36004Y42166D01*
Y43499D01*
X37337D01*
X68834Y36832D02*
X69501Y37499D01*
X70834D01*
X71500Y36832D01*
Y36166D01*
X70834Y35499D01*
X69501D01*
X68834Y34833D01*
Y34166D01*
X69501Y33500D01*
X70834D01*
X71500Y34166D01*
X67501Y37499D02*
X66168D01*
X66835D01*
Y33500D01*
X67501D01*
X66168D01*
X61503Y36832D02*
X62170Y37499D01*
X63503D01*
X64169Y36832D01*
Y34166D01*
X63503Y33500D01*
X62170D01*
X61503Y34166D01*
Y35499D01*
X62836D01*
X23500Y36666D02*
X22167D01*
X22833D01*
Y40665D01*
X23500Y39999D01*
X17502Y36666D02*
X20168D01*
X17502Y39332D01*
Y39999D01*
X18168Y40665D01*
X19501D01*
X20168Y39999D01*
X16169Y40665D02*
Y37999D01*
X14836Y36666D01*
X13503Y37999D01*
Y40665D01*
X12170Y36000D02*
X9505D01*
X8172Y40665D02*
X6839D01*
X7505D01*
Y36666D01*
X8172D01*
X6839D01*
X4839D02*
Y40665D01*
X2173Y36666D01*
Y40665D01*
X48834Y14999D02*
X49501Y15665D01*
X50834D01*
X51500Y14999D01*
Y12333D01*
X50834Y11666D01*
X49501D01*
X48834Y12333D01*
Y13666D01*
X50167D01*
X47501Y11666D02*
Y15665D01*
X44835Y11666D01*
Y15665D01*
X43503D02*
Y11666D01*
X41503D01*
X40837Y12333D01*
Y14999D01*
X41503Y15665D01*
X43503D01*
X39504Y11000D02*
X36838D01*
X35505Y15665D02*
X34172D01*
X34839D01*
Y11666D01*
X35505D01*
X34172D01*
X32173D02*
Y15665D01*
X29507Y11666D01*
Y15665D01*
X163834Y26332D02*
X164501Y26999D01*
X165833D01*
X166500Y26332D01*
Y23666D01*
X165833Y23000D01*
X164501D01*
X163834Y23666D01*
Y24999D01*
X165167D01*
X162501Y23000D02*
Y26999D01*
X159836Y23000D01*
Y26999D01*
X158503D02*
Y23000D01*
X156503D01*
X155837Y23666D01*
Y26332D01*
X156503Y26999D01*
X158503D01*
X166000Y32500D02*
X164667D01*
X165333D01*
Y36499D01*
X166000Y35832D01*
X160002Y32500D02*
X162668D01*
X160002Y35166D01*
Y35832D01*
X160668Y36499D01*
X162001D01*
X162668Y35832D01*
X158669Y36499D02*
Y33833D01*
X157336Y32500D01*
X156003Y33833D01*
Y36499D01*
X166000Y47165D02*
X164667D01*
X165333D01*
Y43166D01*
X166000D01*
X164667D01*
X160002Y46499D02*
X160668Y47165D01*
X162001D01*
X162668Y46499D01*
Y45832D01*
X162001Y45166D01*
X160668D01*
X160002Y44499D01*
Y43833D01*
X160668Y43166D01*
X162001D01*
X162668Y43833D01*
X156670Y47165D02*
X158003D01*
X158669Y46499D01*
Y43833D01*
X158003Y43166D01*
X156670D01*
X156003Y43833D01*
Y46499D01*
X156670Y47165D01*
X154670Y42500D02*
X152005D01*
X150672Y43166D02*
X149339D01*
X150005D01*
Y47165D01*
X150672Y46499D01*
X144674Y43166D02*
X147339D01*
X144674Y45832D01*
Y46499D01*
X145340Y47165D01*
X146673D01*
X147339Y46499D01*
X143341Y47165D02*
Y44499D01*
X142008Y43166D01*
X140675Y44499D01*
Y47165D01*
X166000Y57165D02*
X164667D01*
X165333D01*
Y53166D01*
X166000D01*
X164667D01*
X160002Y56499D02*
X160668Y57165D01*
X162001D01*
X162668Y56499D01*
Y55832D01*
X162001Y55166D01*
X160668D01*
X160002Y54499D01*
Y53833D01*
X160668Y53166D01*
X162001D01*
X162668Y53833D01*
X156670Y57165D02*
X158003D01*
X158669Y56499D01*
Y53833D01*
X158003Y53166D01*
X156670D01*
X156003Y53833D01*
Y56499D01*
X156670Y57165D01*
X154670Y52500D02*
X152005D01*
X148006Y56499D02*
X148672Y57165D01*
X150005D01*
X150672Y56499D01*
Y53833D01*
X150005Y53166D01*
X148672D01*
X148006Y53833D01*
Y55166D01*
X149339D01*
X146673Y53166D02*
Y57165D01*
X144007Y53166D01*
Y57165D01*
X142674D02*
Y53166D01*
X140675D01*
X140008Y53833D01*
Y56499D01*
X140675Y57165D01*
X142674D01*
X144000Y145233D02*
Y149232D01*
X142001D01*
X141334Y148565D01*
Y147232D01*
X142001Y146566D01*
X144000D01*
X140001Y145233D02*
X138668D01*
X139335D01*
Y147899D01*
X140001D01*
X136669Y145233D02*
X135336D01*
X136003D01*
Y149232D01*
X136669D01*
X132670Y147899D02*
X131337D01*
X130671Y147232D01*
Y145233D01*
X132670D01*
X133337Y145899D01*
X132670Y146566D01*
X130671D01*
X129338Y147899D02*
Y145899D01*
X128672Y145233D01*
X128005Y145899D01*
X127339Y145233D01*
X126672Y145899D01*
Y147899D01*
X124673D02*
X123340D01*
X122674Y147232D01*
Y145233D01*
X124673D01*
X125339Y145899D01*
X124673Y146566D01*
X122674D01*
X121341Y147232D02*
X118675D01*
X117342Y145233D02*
Y149232D01*
X115343D01*
X114676Y148565D01*
Y147232D01*
X115343Y146566D01*
X117342D01*
X112677Y145233D02*
X111344D01*
X110677Y145899D01*
Y147232D01*
X111344Y147899D01*
X112677D01*
X113343Y147232D01*
Y145899D01*
X112677Y145233D01*
X106679Y149232D02*
Y145233D01*
X108678D01*
X109344Y145899D01*
Y147232D01*
X108678Y147899D01*
X106679D01*
X104013Y143900D02*
X103347D01*
X102680Y144567D01*
Y147899D01*
X104679D01*
X105346Y147232D01*
Y145899D01*
X104679Y145233D01*
X102680D01*
X101347Y147899D02*
Y145899D01*
X100681Y145233D01*
X98681D01*
Y147899D01*
X97348D02*
Y145233D01*
Y146566D01*
X96682Y147232D01*
X96016Y147899D01*
X95349D01*
X93350Y145233D02*
X91350D01*
X90684Y145899D01*
X91350Y146566D01*
X92683D01*
X93350Y147232D01*
X92683Y147899D01*
X90684D01*
X89351Y145233D02*
Y149232D01*
Y146566D02*
X87352Y147899D01*
X89351Y146566D02*
X87352Y145233D01*
X85352D02*
X84019D01*
X84686D01*
Y147899D01*
X85352D01*
X150000Y152900D02*
Y156899D01*
X148001D01*
X147334Y156232D01*
Y154899D01*
X148001Y154233D01*
X150000D01*
X148667D02*
X147334Y152900D01*
X145335D02*
X144002D01*
X143335Y153567D01*
Y154899D01*
X144002Y155566D01*
X145335D01*
X146001Y154899D01*
Y153567D01*
X145335Y152900D01*
X142003Y156899D02*
Y152900D01*
X140003D01*
X139337Y153567D01*
Y154233D01*
Y154899D01*
X140003Y155566D01*
X142003D01*
X136004Y152900D02*
X137337D01*
X138004Y153567D01*
Y154899D01*
X137337Y155566D01*
X136004D01*
X135338Y154899D01*
Y154233D01*
X138004D01*
X134005Y155566D02*
Y152900D01*
Y154233D01*
X133339Y154899D01*
X132672Y155566D01*
X132006D01*
X129340Y156232D02*
Y155566D01*
X130006D01*
X128674D01*
X129340D01*
Y153567D01*
X128674Y152900D01*
X150000Y172899D02*
Y168900D01*
X148001D01*
X147334Y169567D01*
Y170233D01*
X148001Y170899D01*
X150000D01*
X148001D01*
X147334Y171566D01*
Y172232D01*
X148001Y172899D01*
X150000D01*
X144002Y168900D02*
X145335D01*
X146001Y169567D01*
Y170899D01*
X145335Y171566D01*
X144002D01*
X143335Y170899D01*
Y170233D01*
X146001D01*
X142003Y168900D02*
Y171566D01*
X140003D01*
X139337Y170899D01*
Y168900D01*
X134005Y172899D02*
Y168900D01*
X131339D01*
X130006D02*
X128674D01*
X129340D01*
Y171566D01*
X130006D01*
X126008D02*
X124675D01*
X124008Y170899D01*
Y168900D01*
X126008D01*
X126674Y169567D01*
X126008Y170233D01*
X124008D01*
X122009Y168900D02*
X120676D01*
X120010Y169567D01*
Y170899D01*
X120676Y171566D01*
X122009D01*
X122676Y170899D01*
Y169567D01*
X122009Y168900D01*
X150000Y165232D02*
Y161233D01*
X147334D01*
X145335D02*
X144002D01*
X143335Y161899D01*
Y163232D01*
X144002Y163899D01*
X145335D01*
X146001Y163232D01*
Y161899D01*
X145335Y161233D01*
X140670Y159900D02*
X140003D01*
X139337Y160566D01*
Y163899D01*
X141336D01*
X142003Y163232D01*
Y161899D01*
X141336Y161233D01*
X139337D01*
X137337Y163899D02*
X136004D01*
X135338Y163232D01*
Y161233D01*
X137337D01*
X138004Y161899D01*
X137337Y162566D01*
X135338D01*
X134005Y161233D02*
Y163899D01*
X132006D01*
X131339Y163232D01*
Y161233D01*
X126008Y165232D02*
Y161233D01*
Y163232D01*
X123342D01*
Y165232D01*
Y161233D01*
X121343D02*
X120010D01*
X119343Y161899D01*
Y163232D01*
X120010Y163899D01*
X121343D01*
X122009Y163232D01*
Y161899D01*
X121343Y161233D01*
X118010Y163899D02*
Y161233D01*
Y162566D01*
X117344Y163232D01*
X116677Y163899D01*
X116011D01*
X113345Y161233D02*
X112012D01*
X111346Y161899D01*
Y163232D01*
X112012Y163899D01*
X113345D01*
X114012Y163232D01*
Y161899D01*
X113345Y161233D01*
X110013Y163899D02*
Y161899D01*
X109346Y161233D01*
X108680Y161899D01*
X108014Y161233D01*
X107347Y161899D01*
Y163899D01*
X106014Y161233D02*
X104681D01*
X105348D01*
Y163899D01*
X106014D01*
X102015Y164565D02*
Y163899D01*
X102682D01*
X101349D01*
X102015D01*
Y161899D01*
X101349Y161233D01*
X99350Y163899D02*
X96684D01*
X99350Y161233D01*
X96684D01*
D12*
X50500Y56500D02*
X54500Y54500D01*
X56500Y58000D01*
X52000Y61000D02*
X54500Y54500D01*
X44000Y37000D02*
X46500Y35500D01*
X48500Y37500D01*
X45811Y39635D02*
X46500Y35500D01*
X56000Y27000D02*
X59000Y26000D01*
X56000Y27000D02*
X56500Y30500D01*
X56000Y27000D02*
X61500Y31500D01*
X17000Y30500D02*
X19000Y32000D01*
X18000Y34500D02*
X19000Y32000D01*
X14500Y33500D02*
X19000Y32000D01*
X24500Y18500D02*
X27000Y19500D01*
X28500Y17500D01*
X25000Y13000D02*
X27000Y19500D01*
M02*
