M48
;Layer_Color=9474304
;FILE_FORMAT=4:4
METRIC,LZ
;TYPE=PLATED
T1F00S00C0.3000
T2F00S00C0.3302
T3F00S00C0.7620
T4F00S00C0.8890
T5F00S00C0.9906
T6F00S00C1.2700
T7F00S00C1.6002
T8F00S00C3.5052
T9F00S00C6.9850
;TYPE=NON_PLATED
T10F00S00C3.2004
%
T01
X00307594Y00190246
X00324358Y00186436
T02
X0004699Y0018034
X00148336Y00181864
X00252085Y00159603
X00256794Y00118618
X0030353Y00171196
X00358729Y00192043
X00423926Y00185674
X0047371Y00184404
X00475385Y00154334
X00497586Y002032
X00520446Y0001397
X003048Y00012446
X0032258Y00060706
X00326136Y00078994
X00359918Y0009525
X00558038Y00158496
X00565404Y0024003
Y0025146
Y0026289
X00574294Y0025781
Y0026924
Y0028067
Y002921
Y0030353
Y0031496
X00565404Y0030861
Y0029718
X00556514Y0030353
Y0031496
X00546354Y0030861
Y0025146
Y0024003
X00556514Y0024638
X00574294
X00536194Y0024511
X00524764Y0025019
Y0026162
X00513334Y0025654
Y0026797
Y002794
Y0029083
Y0030226
Y0031369
X00524764Y0030734
Y0029591
X00536194Y0030226
Y0031369
X00501904Y0030734
Y0029591
Y0028448
Y0027305
Y0026162
Y0025019
Y0023876
X00513334Y0024511
X00524764Y0023876
X00490474Y0024511
Y0025654
Y0026797
Y002794
Y0029083
Y0030226
Y0031369
X00479044Y0030734
Y0029591
Y0028448
Y0027305
Y0026162
Y0025019
Y0023876
X00467614Y0024511
Y0025654
Y0026797
Y002794
Y0029083
Y0030226
Y0031369
X00456184Y0030734
Y0029591
Y0028448
Y0027305
Y0026162
Y0025019
Y0023876
X00446024Y0024384
Y0025527
Y002667
Y0027813
Y0028956
Y0030099
Y0031242
X00292608Y00476758
X00139192Y0031115
Y0029972
Y0028829
Y0027686
Y0026543
Y00254
Y0024257
X00129032Y0024765
Y0025908
Y0027051
Y0028194
Y0029337
Y003048
Y0031623
X00117602Y0030988
Y0029845
Y0028702
Y0027559
Y0026416
Y0025273
Y002413
X00106172Y0024765
Y0025908
Y0027051
Y0028194
Y0029337
Y003048
Y0031623
X00094742Y0030988
Y0029845
Y0028702
Y0027559
Y0026416
Y0025273
Y002413
X00083312Y0024765
Y0025908
Y0027051
Y0028194
Y0029337
Y003048
Y0031623
X00071882Y0030988
Y0029845
Y0028702
Y0027559
Y0026416
Y0025273
Y002413
X00060452Y0024765
Y0025908
X00049022Y0025273
Y002413
X00038862Y0024638
X00028702Y0025146
Y0024003
X00019812Y0024638
Y0025781
X00010922Y0026289
Y0025146
Y0024003
Y0027432
Y0028575
Y0029718
Y0030861
X00019812Y0030353
Y002921
Y0031496
X00028702Y0030861
X00038862Y0030353
Y0031496
X00049022Y0030988
X00060452Y003048
Y0029337
Y0031623
T03
X00293116Y0030861
T04
X00069914Y00060706
X00090297
X00110681
X00131064
X00120841Y00078486
X00100393
X00080073
X0005969
X00049784Y00126746
X00026924
X00141224
X00164084
T05
X00434594Y00063246
Y00088646
Y00114046
Y00139446
T06
X0020574Y00277114
X0023749Y00251714
Y00302514
X00347726Y00303276
Y00252476
X00379476Y00277876
T07
X00014224Y00069596
X00176784
T08
X00546354Y00277876
X00038862Y00277114
T09
X00494792Y00419608
X00090932
T10
X00032004Y00035306
X00159004
M30
