M48
;Layer_Color=9474304
;FILE_FORMAT=2:5
INCH,LZ
;TYPE=PLATED
T1F00S00C0.01181
T2F00S00C0.01300
T3F00S00C0.03500
T4F00S00C0.03900
T5F00S00C0.05000
T6F00S00C0.06300
T7F00S00C0.13800
T8F00S00C0.27500
;TYPE=NON_PLATED
T9F00S00C0.12600
%
T01
X01215Y00281
X01352Y0031
X01277Y00734
X0119Y00753
X01649Y00766
X01793
T02
X00185Y0071
X00584Y00716
X00913Y00645
X010143Y0045568
X01195Y00674
X01379Y00723
X01649Y00825
X01793
X01951Y00819
X01865Y00726
X018716Y0060762
X02049Y00055
X0139275Y0004925
X0127Y00239
X01336Y00356
X01372Y00357
X02197Y00624
X02225Y00943
Y00988
Y01033
X0226Y01013
Y00968
X0219
X0215Y00988
Y00943
X0226Y01058
Y01103
Y01148
Y01193
Y01238
X02225Y01213
Y01168
X0219Y01193
Y01238
X0215Y01213
X0211Y01233
Y01188
X02065Y01208
Y01163
X0202Y01143
Y01098
Y01053
Y01008
Y00963
X01975Y00983
Y00938
X0193Y00963
Y01008
Y01053
Y01098
Y01143
Y01188
Y01233
X01885Y01208
Y01163
Y01118
Y01073
Y01028
Y00983
Y00938
X0184Y00963
Y01008
Y01053
Y01098
Y01143
Y01188
Y01233
X01795Y01208
Y01163
Y01118
Y01073
Y01028
Y00983
Y00938
X01755Y00958
Y01003
Y01048
Y01093
Y01138
Y01183
Y01228
X01975Y01208
Y01163
Y01118
Y01073
Y01028
X02065
Y00983
Y00938
X0211Y00963
X0202Y01188
Y01233
X01172Y01222
Y01189
X01138
Y01222
X01155Y01158
X01153Y01808
Y01841
Y01876
Y01909
Y01942
X00552Y01226
Y01181
Y01136
Y01091
Y01046
Y01001
Y00956
X00512Y00976
Y01021
Y01066
Y01111
Y01156
Y01201
Y01246
X00467Y01221
Y01176
Y01131
Y01086
Y01041
Y00996
Y00951
X00422Y00976
Y01021
Y01066
Y01111
Y01156
Y01201
Y01246
X00377Y01221
Y01176
Y01131
Y01086
Y01041
Y00996
Y00951
X00332Y00976
Y01021
Y01066
Y01111
Y01156
Y01201
Y01246
X00287Y01221
Y01176
Y01131
Y01086
Y01041
Y00996
Y00951
X00242Y00976
Y01021
X00197Y00996
Y00951
X00157Y00971
X00117Y00991
Y00946
X00082Y00971
Y01016
X00047Y01036
Y01081
Y01126
Y01171
Y01216
X00082Y01196
Y01241
X00117Y01216
X00157Y01196
Y01241
X00197Y01221
X00242Y01201
Y01246
Y01156
X00082Y01151
X00047Y00991
Y00946
T03
X0027525Y00239
X003555
X0043575
X00516
X0047575Y00309
X0039525
X0031525
X00235
X00196Y00499
X00106
X00556
X00646
T04
X01711Y00249
Y00349
Y00449
Y00549
T05
X00814Y01092
X00939Y01192
Y00992
X01368
Y01192
X01493Y01092
T06
X00056Y00274
X00696
T07
X0215Y01092
X00157
T08
X01948Y01652
X00358
T09
X00126Y00139
X00626
M30
