%TF.GenerationSoftware,Altium Limited,Altium Designer,23.5.1 (21)*%
G04 Layer_Physical_Order=1*
G04 Layer_Color=255*
%FSLAX45Y45*%
%MOMM*%
%TF.SameCoordinates,CD6643E0-46C1-4182-BE8D-D09F5E157601*%
%TF.FilePolarity,Positive*%
%TF.FileFunction,Copper,L1,Top,Signal*%
%TF.Part,Single*%
G01*
G75*
%TA.AperFunction,SMDPad,CuDef*%
G04:AMPARAMS|DCode=10|XSize=0.9398mm|YSize=0.9906mm|CornerRadius=0.04699mm|HoleSize=0mm|Usage=FLASHONLY|Rotation=270.000|XOffset=0mm|YOffset=0mm|HoleType=Round|Shape=RoundedRectangle|*
%AMROUNDEDRECTD10*
21,1,0.93980,0.89662,0,0,270.0*
21,1,0.84582,0.99060,0,0,270.0*
1,1,0.09398,-0.44831,-0.42291*
1,1,0.09398,-0.44831,0.42291*
1,1,0.09398,0.44831,0.42291*
1,1,0.09398,0.44831,-0.42291*
%
%ADD10ROUNDEDRECTD10*%
G04:AMPARAMS|DCode=11|XSize=1.8034mm|YSize=0.9906mm|CornerRadius=0.12382mm|HoleSize=0mm|Usage=FLASHONLY|Rotation=0.000|XOffset=0mm|YOffset=0mm|HoleType=Round|Shape=RoundedRectangle|*
%AMROUNDEDRECTD11*
21,1,1.80340,0.74295,0,0,0.0*
21,1,1.55575,0.99060,0,0,0.0*
1,1,0.24765,0.77788,-0.37148*
1,1,0.24765,-0.77788,-0.37148*
1,1,0.24765,-0.77788,0.37148*
1,1,0.24765,0.77788,0.37148*
%
%ADD11ROUNDEDRECTD11*%
G04:AMPARAMS|DCode=12|XSize=1.5494mm|YSize=0.6096mm|CornerRadius=0.03048mm|HoleSize=0mm|Usage=FLASHONLY|Rotation=90.000|XOffset=0mm|YOffset=0mm|HoleType=Round|Shape=RoundedRectangle|*
%AMROUNDEDRECTD12*
21,1,1.54940,0.54864,0,0,90.0*
21,1,1.48844,0.60960,0,0,90.0*
1,1,0.06096,0.27432,0.74422*
1,1,0.06096,0.27432,-0.74422*
1,1,0.06096,-0.27432,-0.74422*
1,1,0.06096,-0.27432,0.74422*
%
%ADD12ROUNDEDRECTD12*%
G04:AMPARAMS|DCode=13|XSize=0.6096mm|YSize=1.0414mm|CornerRadius=0.03048mm|HoleSize=0mm|Usage=FLASHONLY|Rotation=0.000|XOffset=0mm|YOffset=0mm|HoleType=Round|Shape=RoundedRectangle|*
%AMROUNDEDRECTD13*
21,1,0.60960,0.98044,0,0,0.0*
21,1,0.54864,1.04140,0,0,0.0*
1,1,0.06096,0.27432,-0.49022*
1,1,0.06096,-0.27432,-0.49022*
1,1,0.06096,-0.27432,0.49022*
1,1,0.06096,0.27432,0.49022*
%
%ADD13ROUNDEDRECTD13*%
G04:AMPARAMS|DCode=14|XSize=0.9398mm|YSize=0.9906mm|CornerRadius=0.04699mm|HoleSize=0mm|Usage=FLASHONLY|Rotation=0.000|XOffset=0mm|YOffset=0mm|HoleType=Round|Shape=RoundedRectangle|*
%AMROUNDEDRECTD14*
21,1,0.93980,0.89662,0,0,0.0*
21,1,0.84582,0.99060,0,0,0.0*
1,1,0.09398,0.42291,-0.44831*
1,1,0.09398,-0.42291,-0.44831*
1,1,0.09398,-0.42291,0.44831*
1,1,0.09398,0.42291,0.44831*
%
%ADD14ROUNDEDRECTD14*%
G04:AMPARAMS|DCode=15|XSize=1.2446mm|YSize=3.175mm|CornerRadius=0.15558mm|HoleSize=0mm|Usage=FLASHONLY|Rotation=90.000|XOffset=0mm|YOffset=0mm|HoleType=Round|Shape=RoundedRectangle|*
%AMROUNDEDRECTD15*
21,1,1.24460,2.86385,0,0,90.0*
21,1,0.93345,3.17500,0,0,90.0*
1,1,0.31115,1.43192,0.46672*
1,1,0.31115,1.43192,-0.46672*
1,1,0.31115,-1.43192,-0.46672*
1,1,0.31115,-1.43192,0.46672*
%
%ADD15ROUNDEDRECTD15*%
G04:AMPARAMS|DCode=16|XSize=3.81mm|YSize=3.0226mm|CornerRadius=0.15113mm|HoleSize=0mm|Usage=FLASHONLY|Rotation=0.000|XOffset=0mm|YOffset=0mm|HoleType=Round|Shape=RoundedRectangle|*
%AMROUNDEDRECTD16*
21,1,3.81000,2.72034,0,0,0.0*
21,1,3.50774,3.02260,0,0,0.0*
1,1,0.30226,1.75387,-1.36017*
1,1,0.30226,-1.75387,-1.36017*
1,1,0.30226,-1.75387,1.36017*
1,1,0.30226,1.75387,1.36017*
%
%ADD16ROUNDEDRECTD16*%
G04:AMPARAMS|DCode=17|XSize=3.81mm|YSize=3.0226mm|CornerRadius=0.15113mm|HoleSize=0mm|Usage=FLASHONLY|Rotation=90.000|XOffset=0mm|YOffset=0mm|HoleType=Round|Shape=RoundedRectangle|*
%AMROUNDEDRECTD17*
21,1,3.81000,2.72034,0,0,90.0*
21,1,3.50774,3.02260,0,0,90.0*
1,1,0.30226,1.36017,1.75387*
1,1,0.30226,1.36017,-1.75387*
1,1,0.30226,-1.36017,-1.75387*
1,1,0.30226,-1.36017,1.75387*
%
%ADD17ROUNDEDRECTD17*%
G04:AMPARAMS|DCode=18|XSize=0.8001mm|YSize=0.6604mm|CornerRadius=0.03302mm|HoleSize=0mm|Usage=FLASHONLY|Rotation=0.000|XOffset=0mm|YOffset=0mm|HoleType=Round|Shape=RoundedRectangle|*
%AMROUNDEDRECTD18*
21,1,0.80010,0.59436,0,0,0.0*
21,1,0.73406,0.66040,0,0,0.0*
1,1,0.06604,0.36703,-0.29718*
1,1,0.06604,-0.36703,-0.29718*
1,1,0.06604,-0.36703,0.29718*
1,1,0.06604,0.36703,0.29718*
%
%ADD18ROUNDEDRECTD18*%
G04:AMPARAMS|DCode=19|XSize=1.0922mm|YSize=2.4892mm|CornerRadius=0.05461mm|HoleSize=0mm|Usage=FLASHONLY|Rotation=270.000|XOffset=0mm|YOffset=0mm|HoleType=Round|Shape=RoundedRectangle|*
%AMROUNDEDRECTD19*
21,1,1.09220,2.37998,0,0,270.0*
21,1,0.98298,2.48920,0,0,270.0*
1,1,0.10922,-1.18999,-0.49149*
1,1,0.10922,-1.18999,0.49149*
1,1,0.10922,1.18999,0.49149*
1,1,0.10922,1.18999,-0.49149*
%
%ADD19ROUNDEDRECTD19*%
G04:AMPARAMS|DCode=20|XSize=0.9906mm|YSize=1.4478mm|CornerRadius=0.04953mm|HoleSize=0mm|Usage=FLASHONLY|Rotation=270.000|XOffset=0mm|YOffset=0mm|HoleType=Round|Shape=RoundedRectangle|*
%AMROUNDEDRECTD20*
21,1,0.99060,1.34874,0,0,270.0*
21,1,0.89154,1.44780,0,0,270.0*
1,1,0.09906,-0.67437,-0.44577*
1,1,0.09906,-0.67437,0.44577*
1,1,0.09906,0.67437,0.44577*
1,1,0.09906,0.67437,-0.44577*
%
%ADD20ROUNDEDRECTD20*%
G04:AMPARAMS|DCode=21|XSize=1.6002mm|YSize=2.5908mm|CornerRadius=0.20002mm|HoleSize=0mm|Usage=FLASHONLY|Rotation=270.000|XOffset=0mm|YOffset=0mm|HoleType=Round|Shape=RoundedRectangle|*
%AMROUNDEDRECTD21*
21,1,1.60020,2.19075,0,0,270.0*
21,1,1.20015,2.59080,0,0,270.0*
1,1,0.40005,-1.09537,-0.60008*
1,1,0.40005,-1.09537,0.60008*
1,1,0.40005,1.09537,0.60008*
1,1,0.40005,1.09537,-0.60008*
%
%ADD21ROUNDEDRECTD21*%
%TA.AperFunction,Conductor*%
%ADD22C,0.50800*%
%ADD23C,0.15240*%
%ADD24C,1.27000*%
%TA.AperFunction,ComponentPad*%
%ADD25C,0.63500*%
%ADD26C,2.03200*%
G04:AMPARAMS|DCode=27|XSize=8.6614mm|YSize=14.3002mm|CornerRadius=0.43307mm|HoleSize=0mm|Usage=FLASHONLY|Rotation=270.000|XOffset=0mm|YOffset=0mm|HoleType=Round|Shape=RoundedRectangle|*
%AMROUNDEDRECTD27*
21,1,8.66140,13.43406,0,0,270.0*
21,1,7.79526,14.30020,0,0,270.0*
1,1,0.86614,-6.71703,-3.89763*
1,1,0.86614,-6.71703,3.89763*
1,1,0.86614,6.71703,3.89763*
1,1,0.86614,6.71703,-3.89763*
%
%ADD27ROUNDEDRECTD27*%
%ADD28C,1.25476*%
%ADD29R,17.46250X17.46250*%
%ADD30C,1.52400*%
%ADD31C,3.20040*%
%ADD32C,2.20980*%
%TA.AperFunction,ViaPad*%
%ADD33C,0.60000*%
%ADD34C,0.63500*%
G36*
X2999092Y4969780D02*
X2999817Y4969480D01*
X3009900Y4963159D01*
X3011791Y4961445D01*
X3016028Y4958615D01*
X3016032Y4958612D01*
X3020744Y4956660D01*
X3025746Y4955665D01*
X3028296Y4955540D01*
X3116580D01*
Y4765040D01*
Y4574540D01*
X3028296D01*
X3025746Y4574415D01*
X3020744Y4573420D01*
X3016032Y4571468D01*
X3011792Y4568634D01*
X3009900Y4566920D01*
X3008088Y4565108D01*
X3003827Y4562261D01*
X2999092Y4560300D01*
X2994066Y4559300D01*
X2863174D01*
X2858147Y4560300D01*
X2853413Y4562261D01*
X2849152Y4565108D01*
X2847340Y4566920D01*
X2845448Y4568634D01*
X2841208Y4571468D01*
X2836496Y4573420D01*
X2831494Y4574415D01*
X2828944Y4574540D01*
X2740660D01*
Y4765040D01*
Y4955540D01*
X2828944D01*
X2831494Y4955665D01*
X2836496Y4956660D01*
X2841208Y4958612D01*
X2845448Y4961445D01*
X2847340Y4963160D01*
X2849152Y4964972D01*
X2853413Y4967819D01*
X2858147Y4969780D01*
X2863174Y4970780D01*
X2994066D01*
X2999092Y4969780D01*
D02*
G37*
G36*
X3890279Y3732163D02*
X3891858Y3731509D01*
X3893278Y3730560D01*
X3893882Y3729956D01*
X3895090Y3728748D01*
X3896477Y3726672D01*
Y3442540D01*
X3896001Y3441389D01*
X3893154Y3437128D01*
X3891342Y3435316D01*
X3890738Y3434712D01*
X3889318Y3433763D01*
X3887739Y3433110D01*
X3886064Y3432776D01*
X3532436D01*
X3514586Y3431899D01*
X3479571Y3424934D01*
X3446588Y3411273D01*
X3416904Y3391438D01*
X3403662Y3379436D01*
X3393999Y3369773D01*
X3371273Y3354588D01*
X3346021Y3344129D01*
X3319214Y3338796D01*
X3022662D01*
X3020122Y3341336D01*
Y3623078D01*
X3020455Y3624754D01*
X3021109Y3626332D01*
X3022058Y3627752D01*
X3022662Y3628356D01*
X3023870Y3629564D01*
X3026710Y3631462D01*
X3029867Y3632770D01*
X3033218Y3633436D01*
X3339620D01*
X3352370Y3634063D01*
X3377381Y3639038D01*
X3400940Y3648796D01*
X3422143Y3662963D01*
X3431602Y3671536D01*
X3471009Y3710944D01*
X3471009D01*
X3480405Y3718922D01*
X3488186Y3724122D01*
X3501578Y3729668D01*
X3515794Y3732496D01*
X3888604D01*
X3890279Y3732163D01*
D02*
G37*
G36*
X2358264Y3730972D02*
X2371656Y3725425D01*
X2383708Y3717372D01*
X2388833Y3712247D01*
X2428240Y3672840D01*
X2437698Y3664267D01*
X2458901Y3650100D01*
X2482461Y3640341D01*
X2507471Y3635366D01*
X2520222Y3634740D01*
X2826624D01*
X2829975Y3634073D01*
X2833131Y3632766D01*
X2835972Y3630868D01*
X2837180Y3629660D01*
X2837784Y3629056D01*
X2838733Y3627636D01*
X2839386Y3626057D01*
X2839720Y3624382D01*
Y3623528D01*
Y3342640D01*
X2837180Y3340100D01*
X2540627D01*
X2513820Y3345432D01*
X2488569Y3355892D01*
X2465843Y3371077D01*
X2456180Y3380740D01*
X2442938Y3392742D01*
X2413254Y3412576D01*
X2380271Y3426238D01*
X2345256Y3433203D01*
X2327406Y3434080D01*
X1973778D01*
X1972102Y3434413D01*
X1970524Y3435067D01*
X1969104Y3436016D01*
X1968500Y3436620D01*
X1966688Y3438432D01*
X1963841Y3442693D01*
X1961880Y3447427D01*
X1960880Y3452454D01*
Y3455016D01*
Y3718996D01*
Y3720704D01*
X1961546Y3724055D01*
X1962854Y3727211D01*
X1964752Y3730052D01*
X1965960Y3731260D01*
X1966564Y3731864D01*
X1967984Y3732813D01*
X1969562Y3733466D01*
X1971238Y3733800D01*
X2344047D01*
X2358264Y3730972D01*
D02*
G37*
G36*
X2198912Y4953728D02*
X2201759Y4949467D01*
X2203720Y4944732D01*
X2204720Y4939706D01*
Y4937144D01*
Y4577080D01*
X2205842Y4565683D01*
X2214565Y4544623D01*
X2230683Y4528505D01*
X2251743Y4519782D01*
X2263140Y4518660D01*
X2270895D01*
X2286107Y4515634D01*
X2300437Y4509698D01*
X2313334Y4501081D01*
X2324301Y4490114D01*
X2332918Y4477217D01*
X2338854Y4462887D01*
X2341880Y4447675D01*
Y4439920D01*
Y4137660D01*
Y4134123D01*
X2339173Y4127588D01*
X2334171Y4122587D01*
X2327636Y4119880D01*
X1780540D01*
X1780539Y3304540D01*
X1780540Y3298035D01*
X1778002Y3285277D01*
X1773024Y3273258D01*
X1765797Y3262442D01*
X1756598Y3253243D01*
X1745781Y3246016D01*
X1733763Y3241038D01*
X1721004Y3238500D01*
X1714500Y3238500D01*
X1564640D01*
X1556424Y3238096D01*
X1540308Y3234891D01*
X1525128Y3228603D01*
X1511465Y3219474D01*
X1499846Y3207855D01*
X1490717Y3194192D01*
X1484429Y3179011D01*
X1481224Y3162896D01*
X1480820Y3154680D01*
X1480819Y2420620D01*
X1480820Y2413615D01*
X1478087Y2399875D01*
X1472726Y2386932D01*
X1464942Y2375283D01*
X1455036Y2365377D01*
X1443388Y2357594D01*
X1430445Y2352233D01*
X1416705Y2349500D01*
X1409700Y2349500D01*
X80830D01*
X61225Y2357620D01*
X46220Y2372625D01*
X38100Y2392230D01*
Y2402840D01*
X27983Y4542678D01*
X36942Y4551680D01*
X901809D01*
X901700Y4572000D01*
X1210845Y4881145D01*
X1228535Y4898834D01*
X1270136Y4926632D01*
X1316361Y4945779D01*
X1365433Y4955540D01*
X2197100D01*
X2198912Y4953728D01*
D02*
G37*
G36*
X3319095Y3146689D02*
X3335035Y3131851D01*
X3343811Y3113472D01*
X3345177Y3101337D01*
X3345177Y3101337D01*
X3345177Y3101337D01*
X3345180Y2778760D01*
X3345852Y2765067D01*
X3351194Y2738206D01*
X3361673Y2712904D01*
X3376888Y2690133D01*
X3396253Y2670768D01*
X3419024Y2655553D01*
X3444326Y2645074D01*
X3471187Y2639732D01*
X3484880Y2639060D01*
X3495137D01*
X3515256Y2635058D01*
X3534209Y2627208D01*
X3551265Y2615811D01*
X3565771Y2601305D01*
X3577168Y2584249D01*
X3585018Y2565296D01*
X3589020Y2545177D01*
Y2534920D01*
X3589019Y2517140D01*
X3589021Y2505631D01*
X3584532Y2483056D01*
X3575724Y2461790D01*
X3562937Y2442652D01*
X3546660Y2426377D01*
X3527521Y2413591D01*
X3506255Y2404785D01*
X3484669Y2400495D01*
X3472180Y2400301D01*
X3472170Y2400301D01*
X3472170Y2400300D01*
X2760980D01*
X2735963Y2400299D01*
X2686892Y2410057D01*
X2640667Y2429203D01*
X2599065Y2456998D01*
X2563686Y2492376D01*
X2535889Y2533976D01*
X2516741Y2580200D01*
X2506980Y2629271D01*
X2506980Y2654288D01*
X2506980Y2654300D01*
Y2771140D01*
X2506319Y2784584D01*
X2501074Y2810955D01*
X2490784Y2835797D01*
X2475846Y2858153D01*
X2456833Y2877166D01*
X2434477Y2892104D01*
X2409635Y2902394D01*
X2383264Y2907639D01*
X2369820Y2908300D01*
X2358562Y2908299D01*
X2336480Y2912689D01*
X2315679Y2921303D01*
X2296959Y2933810D01*
X2295559Y2935209D01*
X2280674Y2955697D01*
X2269750Y2966621D01*
X2268529Y2968449D01*
X2259913Y2989249D01*
X2255520Y3011331D01*
X2255520Y3022588D01*
X2255520Y3022600D01*
X2255520Y3045460D01*
X2256360Y3056506D01*
X2262119Y3077901D01*
X2271758Y3097851D01*
X2284939Y3115661D01*
X2301203Y3130707D01*
X2319981Y3142466D01*
X2340619Y3150528D01*
X2362397Y3154609D01*
X2373475Y3154590D01*
X2487782Y3154409D01*
X2716397Y3154207D01*
X2945012Y3154215D01*
X3173627Y3154434D01*
X3287934Y3154622D01*
X3298822Y3154643D01*
X3319095Y3146689D01*
D02*
G37*
G36*
X4540879Y4945779D02*
X4587104Y4926632D01*
X4628705Y4898834D01*
X4646395Y4881145D01*
X4955540Y4572000D01*
X4955477Y4560278D01*
X5818736D01*
X5827695Y4551276D01*
X5817577Y2411438D01*
Y2400828D01*
X5809457Y2381223D01*
X5794452Y2366218D01*
X5774847Y2358098D01*
X4445977D01*
X4438973Y2358097D01*
X4425232Y2360830D01*
X4412289Y2366192D01*
X4400641Y2373975D01*
X4390735Y2383881D01*
X4382952Y2395529D01*
X4377590Y2408472D01*
X4374857Y2422213D01*
X4374858Y2429217D01*
X4374857Y3163278D01*
X4374454Y3171493D01*
X4371248Y3187609D01*
X4364960Y3202790D01*
X4355831Y3216452D01*
X4344212Y3228071D01*
X4330550Y3237200D01*
X4315369Y3243488D01*
X4299253Y3246694D01*
X4291037Y3247098D01*
X4141177D01*
X4134673Y3247097D01*
X4121914Y3249635D01*
X4109896Y3254614D01*
X4099079Y3261841D01*
X4089881Y3271039D01*
X4082654Y3281856D01*
X4077675Y3293874D01*
X4075137Y3306633D01*
X4075138Y3313137D01*
X4075137Y4119880D01*
X3529603D01*
X3523068Y4122587D01*
X3518067Y4127588D01*
X3515360Y4134123D01*
Y4137660D01*
Y4439920D01*
Y4447675D01*
X3518386Y4462887D01*
X3524321Y4477217D01*
X3532939Y4490114D01*
X3543906Y4501081D01*
X3556802Y4509698D01*
X3571132Y4515634D01*
X3586345Y4518660D01*
X3594100D01*
X3605497Y4519782D01*
X3626556Y4528505D01*
X3642674Y4544623D01*
X3651397Y4565683D01*
X3652520Y4577080D01*
Y4937144D01*
Y4939706D01*
X3653520Y4944732D01*
X3655481Y4949467D01*
X3658328Y4953728D01*
X3660140Y4955540D01*
X4491806D01*
X4540879Y4945779D01*
D02*
G37*
G36*
X3528664Y1127156D02*
X3529613Y1125736D01*
X3530266Y1124157D01*
X3530600Y1122482D01*
Y869076D01*
X3529933Y865725D01*
X3528626Y862569D01*
X3526728Y859728D01*
X3525520Y858520D01*
X3523708Y856708D01*
X3519447Y853861D01*
X3514712Y851900D01*
X3509686Y850900D01*
X3398644D01*
X3395980Y850901D01*
X3395979Y850900D01*
X3394778Y850842D01*
X3394775Y850840D01*
X3392420Y850372D01*
X3392418Y850371D01*
X3390199Y849452D01*
X3390195Y849449D01*
X3388199Y848116D01*
X3387310Y847310D01*
X3387307Y847308D01*
Y847307D01*
X3374885Y834885D01*
X3369863Y831529D01*
X3364283Y829218D01*
X3358360Y828040D01*
X3270872D01*
X3266440Y832472D01*
Y928602D01*
X3269533Y936070D01*
X3275249Y941786D01*
X3282718Y944880D01*
X3312160D01*
X3318106Y945465D01*
X3329094Y950017D01*
X3337503Y958426D01*
X3342054Y969414D01*
X3342640Y975360D01*
X3342640Y1117246D01*
X3354288Y1127760D01*
X3528060D01*
X3528664Y1127156D01*
D02*
G37*
D10*
X4447540Y1938020D02*
D03*
Y2098040D02*
D03*
X2768600Y2164080D02*
D03*
Y2004060D02*
D03*
X2921000Y2164080D02*
D03*
Y2004060D02*
D03*
X2291080Y1524000D02*
D03*
Y1363980D02*
D03*
X4851400Y1313180D02*
D03*
Y1473200D02*
D03*
Y1617980D02*
D03*
Y1778000D02*
D03*
X2291080Y1219200D02*
D03*
Y1059180D02*
D03*
X4851400Y1922780D02*
D03*
Y2082800D02*
D03*
X2291080Y914400D02*
D03*
Y754380D02*
D03*
X2443480Y1640840D02*
D03*
Y1480820D02*
D03*
X4295140Y2098040D02*
D03*
Y1938020D02*
D03*
D11*
X5638800Y2095500D02*
D03*
Y1892300D02*
D03*
Y1488440D02*
D03*
Y1691640D02*
D03*
X5712460Y149860D02*
D03*
Y337820D02*
D03*
X5715000Y525780D02*
D03*
D12*
X3119120Y1050290D02*
D03*
X3246120D02*
D03*
X3373120D02*
D03*
X3500120D02*
D03*
X3373120Y1591310D02*
D03*
X3246120D02*
D03*
X3119120D02*
D03*
X3500120D02*
D03*
D13*
X2482088Y1064260D02*
D03*
X2577084D02*
D03*
X2672080D02*
D03*
Y1333500D02*
D03*
X2482088D02*
D03*
D14*
X5562600Y889000D02*
D03*
X5722620D02*
D03*
X5562600Y1079500D02*
D03*
X5722620D02*
D03*
X3843020Y1996440D02*
D03*
X3683000D02*
D03*
X3845560Y2148840D02*
D03*
X3685540D02*
D03*
X2438400Y759460D02*
D03*
X2598420D02*
D03*
X1734820Y1821180D02*
D03*
X1574800D02*
D03*
X187960Y1811020D02*
D03*
X347980D02*
D03*
X5562600Y1270000D02*
D03*
X5722620D02*
D03*
X3312160Y876300D02*
D03*
X3152140D02*
D03*
X2438400Y909320D02*
D03*
X2598420D02*
D03*
X3355340Y607060D02*
D03*
X3515360D02*
D03*
D15*
X2682240Y3573780D02*
D03*
Y4213860D02*
D03*
X3177540D02*
D03*
Y3573780D02*
D03*
D16*
X3705860Y4269740D02*
D03*
Y3583940D02*
D03*
X2151380Y4269740D02*
D03*
Y3583940D02*
D03*
D17*
X3116580Y4765040D02*
D03*
X3802380D02*
D03*
X2740660D02*
D03*
X2054860D02*
D03*
D18*
X2288540Y412750D02*
D03*
Y612140D02*
D03*
X2593340D02*
D03*
Y412750D02*
D03*
X2288540Y81280D02*
D03*
Y280670D02*
D03*
X2593340D02*
D03*
Y81280D02*
D03*
D19*
X3144520Y3393440D02*
D03*
Y3083560D02*
D03*
X2715260D02*
D03*
Y3393440D02*
D03*
D20*
X3500120Y1729740D02*
D03*
Y1920240D02*
D03*
D21*
X3446780Y259080D02*
D03*
X3086100D02*
D03*
D22*
X4320070Y1696720D02*
X4447540Y1824190D01*
Y2098040D02*
X4448810Y2096770D01*
X4552950D01*
X4554220Y2095500D01*
X4293870Y2096770D02*
X4295140Y2098040D01*
X4189730Y2096770D02*
X4293870D01*
X4188460Y2095500D02*
X4189730Y2096770D01*
X4295140Y1671790D02*
Y1938020D01*
Y1465467D02*
Y1671790D01*
X4447540Y1824190D02*
Y1938020D01*
X4295140Y1465467D02*
X4345940Y1414667D01*
Y1394460D02*
Y1414667D01*
X4295140Y2098040D02*
X4447540D01*
X2385060Y2519680D02*
X2413000D01*
X2744470Y2188210D01*
Y2185670D02*
Y2188210D01*
Y2185670D02*
X2766060Y2164080D01*
X2768600D01*
X2768600D02*
X2921000D01*
X4097020Y2647428D02*
Y2899932D01*
X3845560Y2148840D02*
Y2395968D01*
X3515959Y3027680D02*
X3566759Y3078480D01*
X3474720Y3027680D02*
X3515959D01*
X3918472Y3078480D02*
X4097020Y2899932D01*
X3566759Y3078480D02*
X3918472D01*
X3845560Y2395968D02*
X4097020Y2647428D01*
X4287520Y855980D02*
X4315460Y828040D01*
X3622040Y703580D02*
X3774440Y855980D01*
X4287520D01*
X3152140Y769620D02*
X3218180Y703580D01*
X3313430Y605790D02*
X3314700Y604520D01*
X3225800Y607060D02*
X3227070Y605790D01*
X3313430D01*
X3218180Y703580D02*
X3622040D01*
X3395980Y485140D02*
X3515360Y604520D01*
X4091940D01*
X4094480Y607060D01*
X4315460Y828040D01*
X3152140Y769620D02*
Y876300D01*
X3130550Y897890D02*
X3152140Y876300D01*
X2981238Y1050290D02*
X3114040D01*
X3130550Y897890D02*
Y991870D01*
X3114040Y1008380D02*
X3130550Y991870D01*
X3114040Y1008380D02*
Y1045210D01*
X3515360Y607060D02*
X4094480D01*
X3135630Y259080D02*
X3361690Y485140D01*
X3395980D01*
X3086100Y259080D02*
X3135630D01*
X2951480Y1080048D02*
X2981238Y1050290D01*
X2951480Y1080048D02*
Y1217930D01*
X2688590Y1480820D02*
X2951480Y1217930D01*
X3089910Y1824958D02*
X3413792Y2148840D01*
X3089910Y1794510D02*
Y1824958D01*
X2923540Y2004060D02*
X3013220Y1914380D01*
X3020840D02*
X3022600Y1912620D01*
X3013220Y1914380D02*
X3020840D01*
X3413792Y2148840D02*
X3685540D01*
X2771140Y2004060D02*
X2980690Y1794510D01*
X3089910D01*
X3246120Y1638300D01*
Y1591310D02*
Y1638300D01*
X3047890Y1709530D02*
X3119120Y1638300D01*
X3035300Y1711960D02*
X3037730Y1709530D01*
X3047890D01*
X2921000Y2004060D02*
X2923540D01*
X3119120Y1591310D02*
Y1638300D01*
X3446780Y259080D02*
X3480545D01*
X3535155Y204470D01*
Y127525D02*
Y204470D01*
Y127525D02*
X3537585Y125095D01*
X2593340Y81280D02*
X3219450D01*
X3397250Y259080D01*
X3446780D01*
X2593340Y280670D02*
X2600960Y273050D01*
X3072130D01*
X3086100Y259080D01*
X2442210Y1639570D02*
X2443480Y1640840D01*
X2320290Y1639570D02*
X2442210D01*
X2319020Y1638300D02*
X2320290Y1639570D01*
X2443480Y1480820D02*
X2688590D01*
X2442210Y1479550D02*
X2482088Y1439672D01*
Y1333500D02*
Y1439672D01*
X2576703Y1064641D02*
X2577084Y1064260D01*
X2576703Y1064641D02*
Y1157050D01*
X2576322Y1157431D02*
X2576703Y1157050D01*
X1176655Y129540D02*
X1932940D01*
X699135Y607060D02*
X1176655Y129540D01*
X1932940D02*
X2084070Y280670D01*
X477520Y558800D02*
X985520Y50800D01*
X2281555Y81280D02*
X2288540D01*
X2251075Y50800D02*
X2281555Y81280D01*
X985520Y50800D02*
X2251075D01*
X2084070Y280670D02*
X2288540D01*
X477520Y665480D02*
X596900Y784860D01*
X477520Y558800D02*
Y665480D01*
X3500120Y1920240D02*
X3501390Y1918970D01*
Y1837690D02*
Y1918970D01*
Y1837690D02*
X3502660Y1836420D01*
X3500120Y1591310D02*
Y1729740D01*
X3373120Y1734820D02*
Y1988820D01*
X3423920Y2039620D01*
X3243580Y1864360D02*
X3373120Y1734820D01*
X3423920Y2039620D02*
X3631652D01*
X3683000Y1996440D02*
Y1998980D01*
X3661410Y2020570D02*
X3683000Y1998980D01*
X3650702Y2020570D02*
X3661410D01*
X3631652Y2039620D02*
X3650702Y2020570D01*
X3373120Y1591310D02*
Y1734820D01*
X4099560Y1394460D02*
X4345940D01*
X3902710Y1591310D02*
X4099560Y1394460D01*
X3500120Y1003300D02*
Y1050290D01*
X2768600Y2004060D02*
X2771140D01*
X3843020Y1996440D02*
X3844290Y1997710D01*
Y2147570D01*
X3500120Y1591310D02*
X3902710D01*
D23*
X4295140Y1671790D02*
X4320070Y1696720D01*
X3716020Y2245360D02*
X3764280Y2197100D01*
X3004820Y2245360D02*
X3716020D01*
X3764280Y1907541D02*
Y2197100D01*
X4552470Y1945640D02*
X4751756D01*
X4796206Y1990090D01*
X4076700Y1953260D02*
X4180840D01*
X4188460Y1945640D01*
X3845560Y2148840D02*
X3926840D01*
X4053840Y2021840D02*
X4628071D01*
X3926840Y2148840D02*
X4053840Y2021840D01*
X3799840Y1871980D02*
X3995420D01*
X4076700Y1953260D01*
X4628071Y2021840D02*
X4756341Y2150110D01*
X4979610D01*
X5102800Y2026920D02*
X5570220D01*
X4979610Y2150110D02*
X5102800Y2026920D01*
X4853940Y2080260D02*
X4955540D01*
X4851400Y2082800D02*
X4853940Y2080260D01*
X5595340Y2058353D02*
X5638800Y2095500D01*
X5595340Y2052040D02*
Y2058353D01*
X5570220Y2026920D02*
X5595340Y2052040D01*
X5106633Y1892300D02*
X5638800D01*
X4796206Y1990090D02*
X4906594D01*
X5106633Y1892300D01*
X4345940Y886460D02*
X4775200Y457200D01*
X2664460Y345440D02*
X2994660Y675640D01*
Y711200D01*
X3431060Y784380D02*
X3434080Y787400D01*
X3266920Y784380D02*
X3431060D01*
X3230880Y820420D02*
X3266920Y784380D01*
X2994660Y711200D02*
X3083560D01*
X3086100Y713740D01*
X2871470Y834390D02*
X2994660Y711200D01*
X3230880Y1035050D02*
X3246120Y1050290D01*
X3230880Y820420D02*
Y1035050D01*
X2672080Y1333500D02*
X2674620Y1330960D01*
X2710180D01*
X2871470Y834390D02*
Y1169670D01*
X2710180Y1330960D02*
X2871470Y1169670D01*
X2628900Y1239520D02*
X2672080Y1196340D01*
Y1064260D02*
Y1196340D01*
Y985520D02*
Y1064260D01*
X2438400Y759460D02*
Y762000D01*
X2543810Y867410D01*
X2559050D01*
X2598420Y906780D01*
Y909320D01*
X2291080Y1219200D02*
X2494280D01*
X2608580Y1333500D02*
X2672080D01*
X2494280Y1219200D02*
X2608580Y1333500D01*
X3258820Y304800D02*
X3368040Y414020D01*
X5636260D01*
X3258820Y198120D02*
Y304800D01*
X2921000Y144780D02*
X3205480D01*
X3258820Y198120D01*
X2504440Y170180D02*
X2895600D01*
X2921000Y144780D01*
X2438400Y236220D02*
Y294640D01*
Y236220D02*
X2504440Y170180D01*
X2489200Y345440D02*
X2664460D01*
X2438400Y294640D02*
X2489200Y345440D01*
X2418080Y1506220D02*
X2438400Y1485900D01*
X2308860Y1506220D02*
X2418080D01*
X2291080Y1524000D02*
X2308860Y1506220D01*
X2181860Y1524000D02*
X2291080D01*
X1785620Y1920240D02*
X2181860Y1524000D01*
X1988962Y1363980D02*
X2291080D01*
X1783222Y1158240D02*
X1988962Y1363980D01*
X2291080Y1219200D02*
Y1363980D01*
X2566813Y1239520D02*
X2628900D01*
X2325751Y1093851D02*
X2381631D01*
X2454466Y1166686D02*
X2493979D01*
X2381631Y1093851D02*
X2454466Y1166686D01*
X2493979D02*
X2566813Y1239520D01*
X2291080Y1059180D02*
X2325751Y1093851D01*
X2598420Y911860D02*
X2672080Y985520D01*
X2598420Y909320D02*
Y911860D01*
X2438400Y909320D02*
Y998982D01*
X2482088Y1042670D01*
Y1064260D01*
X2291080Y914400D02*
X2292350Y913130D01*
X2434590D01*
X2438400Y909320D01*
X2593340Y612140D02*
Y754380D01*
X2598420Y759460D01*
X2589657Y412750D02*
X2593340D01*
X2564257Y438150D02*
X2589657Y412750D01*
X2564257Y438150D02*
Y501628D01*
X2350875Y715010D02*
X2564257Y501628D01*
X2330450Y715010D02*
X2350875D01*
X2291080Y754380D02*
X2330450Y715010D01*
X2133600Y675640D02*
X2350732D01*
X2288540Y412750D02*
X2295525D01*
X2320925Y438150D01*
Y445135D01*
X2359660Y483870D01*
Y666712D01*
X2350732Y675640D02*
X2359660Y666712D01*
X1615777Y891540D02*
X1917700D01*
X2133600Y675640D01*
X1509097Y784860D02*
X1615777Y891540D01*
X2281555Y612140D02*
X2288540D01*
X2202815Y533400D02*
X2281555Y612140D01*
X1699260Y533400D02*
X2202815D01*
X129540Y1920240D02*
X1785620D01*
X86360Y1877060D02*
X129540Y1920240D01*
X1208405Y784860D02*
X1509097D01*
X1661160Y571500D02*
X1699260Y533400D01*
X1640840Y571500D02*
X1661160D01*
X1310640Y607060D02*
X1605280D01*
X1640840Y571500D01*
X5636260Y414020D02*
X5712460Y337820D01*
X4951730Y1696720D02*
X5448300Y1200150D01*
X4320070Y1696720D02*
X4951730D01*
X5708967Y1983316D02*
X5819140Y1873143D01*
X5791200Y1150620D02*
Y1700423D01*
X5708967Y1782656D02*
X5791200Y1700423D01*
X5722620Y1082040D02*
X5791200Y1150620D01*
X5722620Y891540D02*
X5819140Y988060D01*
Y1873143D01*
X5722620Y1270000D02*
X5755640Y1303020D01*
X5709232Y1579191D02*
X5755640Y1532783D01*
Y1303020D02*
Y1532783D01*
X5483860Y1475740D02*
Y1605280D01*
X5605943Y1658783D02*
X5638800Y1691640D01*
X5537363Y1658783D02*
X5605943D01*
X5483860Y1605280D02*
X5537363Y1658783D01*
X5580380Y1529987D02*
X5621927Y1488440D01*
X5580380Y1529987D02*
Y1584960D01*
X5621927Y1488440D02*
X5638800D01*
X5483860Y1475740D02*
X5654040Y1305560D01*
Y1221740D02*
Y1305560D01*
X5448300Y1200150D02*
X5632450D01*
X5654040Y1221740D01*
X2923540Y2164080D02*
X3004820Y2245360D01*
X3764280Y1907541D02*
X3799840Y1871980D01*
X86360Y1450340D02*
Y1877060D01*
Y1450340D02*
X269240Y1267460D01*
X1572260Y1818640D02*
X1574800Y1821180D01*
X1483360Y1818640D02*
X1572260D01*
X1734820Y1361440D02*
Y1821180D01*
X1640840Y1267460D02*
X1734820Y1361440D01*
X187960Y1808480D02*
Y1811020D01*
Y1808480D02*
X497840Y1498600D01*
Y1267460D02*
Y1498600D01*
X347980Y1811020D02*
X355600Y1803400D01*
X469900D01*
X5681905Y525780D02*
X5715000D01*
X5640358Y484233D02*
X5681905Y525780D01*
X5640358Y466128D02*
Y484233D01*
X5631430Y457200D02*
X5640358Y466128D01*
X4775200Y457200D02*
X5631430D01*
X4787949Y1534111D02*
X4848860Y1473200D01*
X4763085Y1534111D02*
X4787949D01*
X4753851Y1543345D02*
X4763085Y1534111D01*
X4848860Y1473200D02*
X4851400D01*
X4823975Y1805425D02*
X4851400Y1778000D01*
X4775715Y1805425D02*
X4823975D01*
X4737100Y1844040D02*
X4775715Y1805425D01*
X4851400Y1922780D02*
X4853940D01*
X5469509Y1307211D01*
X5525389D01*
X5638800Y1892300D02*
X5667420D01*
X5525389Y1307211D02*
X5562600Y1270000D01*
X5392420Y1079500D02*
X5562600D01*
X4853940Y1617980D02*
X5392420Y1079500D01*
X4851400Y1617980D02*
X4853940D01*
X5278120Y889000D02*
X5562600D01*
X4853940Y1313180D02*
X5278120Y889000D01*
X4851400Y1313180D02*
X4853940D01*
X5638800Y1619250D02*
Y1691640D01*
Y1619250D02*
X5678859Y1579191D01*
X5709232D01*
X5722620Y1079500D02*
Y1082040D01*
X5708967Y1782656D02*
Y1850753D01*
X5667420Y1892300D02*
X5708967Y1850753D01*
Y1983316D02*
Y2053953D01*
X5722620Y889000D02*
Y891540D01*
X5667420Y2095500D02*
X5708967Y2053953D01*
X5638800Y2095500D02*
X5667420D01*
X2921000Y2164080D02*
X2923540D01*
X1412240Y1267460D02*
X1521460Y1158240D01*
X1783222D01*
X1193165Y784860D02*
X1208405D01*
X1295400Y607060D02*
X1310640D01*
X5674397Y149860D02*
X5712460D01*
X5632850Y108313D02*
X5674397Y149860D01*
X5632850Y77870D02*
Y108313D01*
X5610860Y55880D02*
X5632850Y77870D01*
X5204460Y139700D02*
X5288280Y55880D01*
X5610860D01*
X5711222Y148622D02*
X5712460Y149860D01*
D24*
X3643630Y4215130D02*
X3705860Y4277360D01*
X3178810Y4215130D02*
X3643630D01*
X3177540Y4213860D02*
X3178810Y4215130D01*
X2151380Y4277360D02*
X2213610Y4215130D01*
X2680970D01*
X2682240Y4213860D01*
D25*
X4457700Y2433320D02*
D03*
Y2547620D02*
D03*
Y2661920D02*
D03*
Y2776220D02*
D03*
Y2890520D02*
D03*
Y3004820D02*
D03*
Y3119120D02*
D03*
X4559300Y2382520D02*
D03*
Y2496820D02*
D03*
Y2611120D02*
D03*
Y2725420D02*
D03*
Y2839720D02*
D03*
Y2954020D02*
D03*
Y3068320D02*
D03*
X4673600Y2446020D02*
D03*
Y2560320D02*
D03*
Y2674620D02*
D03*
Y2788920D02*
D03*
Y2903220D02*
D03*
Y3017520D02*
D03*
Y3131820D02*
D03*
X4787900Y2382520D02*
D03*
Y2496820D02*
D03*
Y2611120D02*
D03*
Y2725420D02*
D03*
Y2839720D02*
D03*
Y2954020D02*
D03*
Y3068320D02*
D03*
X4902200Y2446020D02*
D03*
Y2560320D02*
D03*
Y2674620D02*
D03*
Y2788920D02*
D03*
Y2903220D02*
D03*
Y3017520D02*
D03*
Y3131820D02*
D03*
X5016500Y2382520D02*
D03*
Y2496820D02*
D03*
Y2611120D02*
D03*
Y2725420D02*
D03*
Y2839720D02*
D03*
Y2954020D02*
D03*
Y3068320D02*
D03*
X5130800Y2446020D02*
D03*
Y2560320D02*
D03*
Y2674620D02*
D03*
Y2788920D02*
D03*
Y2903220D02*
D03*
Y3017520D02*
D03*
Y3131820D02*
D03*
X5245100Y2382520D02*
D03*
Y2496820D02*
D03*
Y2611120D02*
D03*
Y2954020D02*
D03*
Y3068320D02*
D03*
X5359400Y2446020D02*
D03*
Y3017520D02*
D03*
Y3131820D02*
D03*
X5461000Y2395220D02*
D03*
Y2509520D02*
D03*
Y3081020D02*
D03*
X5562600Y2458720D02*
D03*
Y3030220D02*
D03*
Y3144520D02*
D03*
X5651500Y2395220D02*
D03*
Y2509520D02*
D03*
Y2623820D02*
D03*
Y2966720D02*
D03*
Y3081020D02*
D03*
X5740400Y2458720D02*
D03*
Y2573020D02*
D03*
Y2687320D02*
D03*
Y2801620D02*
D03*
Y2915920D02*
D03*
Y3030220D02*
D03*
Y3144520D02*
D03*
X1402080Y3114040D02*
D03*
Y2999740D02*
D03*
Y2885440D02*
D03*
Y2771140D02*
D03*
Y2656840D02*
D03*
Y2542540D02*
D03*
Y2428240D02*
D03*
X1300480Y3164840D02*
D03*
Y3050540D02*
D03*
Y2936240D02*
D03*
Y2821940D02*
D03*
Y2707640D02*
D03*
Y2593340D02*
D03*
Y2479040D02*
D03*
X1186180Y3101340D02*
D03*
Y2987040D02*
D03*
Y2872740D02*
D03*
Y2758440D02*
D03*
Y2644140D02*
D03*
Y2529840D02*
D03*
Y2415540D02*
D03*
X1071880Y3164840D02*
D03*
Y3050540D02*
D03*
Y2936240D02*
D03*
Y2821940D02*
D03*
Y2707640D02*
D03*
Y2593340D02*
D03*
Y2479040D02*
D03*
X957580Y3101340D02*
D03*
Y2987040D02*
D03*
Y2872740D02*
D03*
Y2758440D02*
D03*
Y2644140D02*
D03*
Y2529840D02*
D03*
Y2415540D02*
D03*
X843280Y3164840D02*
D03*
Y3050540D02*
D03*
Y2936240D02*
D03*
Y2821940D02*
D03*
Y2707640D02*
D03*
Y2593340D02*
D03*
Y2479040D02*
D03*
X728980Y3101340D02*
D03*
Y2987040D02*
D03*
Y2872740D02*
D03*
Y2758440D02*
D03*
Y2644140D02*
D03*
Y2529840D02*
D03*
Y2415540D02*
D03*
X614680Y3164840D02*
D03*
Y3050540D02*
D03*
Y2936240D02*
D03*
Y2593340D02*
D03*
Y2479040D02*
D03*
X500380Y3101340D02*
D03*
Y2529840D02*
D03*
Y2415540D02*
D03*
X398780Y3152140D02*
D03*
Y3037840D02*
D03*
Y2466340D02*
D03*
X297180Y3088640D02*
D03*
Y2517140D02*
D03*
Y2402840D02*
D03*
X208280Y3152140D02*
D03*
Y3037840D02*
D03*
Y2923540D02*
D03*
Y2580640D02*
D03*
Y2466340D02*
D03*
X119380Y3088640D02*
D03*
Y2974340D02*
D03*
Y2860040D02*
D03*
Y2745740D02*
D03*
Y2631440D02*
D03*
Y2517140D02*
D03*
Y2402840D02*
D03*
D26*
X3474720Y2519680D02*
D03*
X3792220Y2773680D02*
D03*
X3474720Y3027680D02*
D03*
X2385060D02*
D03*
X2067560Y2773680D02*
D03*
X2385060Y2519680D02*
D03*
D27*
X5085080Y2773680D02*
D03*
X774700D02*
D03*
D28*
X4345940Y632460D02*
D03*
Y886460D02*
D03*
Y1140460D02*
D03*
Y1394460D02*
D03*
D29*
X4947920Y4196080D02*
D03*
X909320D02*
D03*
D30*
X1310640Y607060D02*
D03*
X1208405Y784860D02*
D03*
X1106805Y607060D02*
D03*
X1003935Y784860D02*
D03*
X902970Y607060D02*
D03*
X800735Y784860D02*
D03*
X699135Y607060D02*
D03*
X596900Y784860D02*
D03*
X1640840Y1267460D02*
D03*
X1412240D02*
D03*
X497840D02*
D03*
X269240D02*
D03*
D31*
X320040Y353060D02*
D03*
X1590040D02*
D03*
D32*
X142240Y695960D02*
D03*
X1767840D02*
D03*
D33*
X4554220Y1945640D02*
D03*
X4188460D02*
D03*
X3434080Y787400D02*
D03*
X3086100Y713740D02*
D03*
X3022600Y1912620D02*
D03*
X3243580Y1864360D02*
D03*
D34*
X4188460Y2095500D02*
D03*
X4554220D02*
D03*
X4955540Y2080260D02*
D03*
X3393440Y904240D02*
D03*
X3484880Y906780D02*
D03*
X3225800Y607060D02*
D03*
X3035300Y1711960D02*
D03*
X3537585Y125095D02*
D03*
X2576322Y1157431D02*
D03*
X2319020Y1638300D02*
D03*
X2976880Y3020060D02*
D03*
X2890520D02*
D03*
X3502660Y1836420D02*
D03*
X5580380Y1584960D02*
D03*
X2976880Y3103880D02*
D03*
X2933700Y2941320D02*
D03*
X2890520Y3103880D02*
D03*
X2928620Y4592320D02*
D03*
Y4676140D02*
D03*
Y4765040D02*
D03*
Y4848860D02*
D03*
Y4932680D02*
D03*
X1483360Y1818640D02*
D03*
X469900Y1803400D02*
D03*
X4753851Y1543345D02*
D03*
X4737100Y1844040D02*
D03*
X5204460Y139700D02*
D03*
%TF.MD5,ee012f21c0d556364f65aea294081f36*%
M02*
