G04*
G04 #@! TF.GenerationSoftware,Altium Limited,Altium Designer,23.5.1 (21)*
G04*
G04 Layer_Color=32896*
%FSLAX44Y44*%
%MOMM*%
G71*
G04*
G04 #@! TF.SameCoordinates,400D6350-3BAC-4576-97D5-205421131FC2*
G04*
G04*
G04 #@! TF.FilePolarity,Positive*
G04*
G01*
G75*
%ADD10C,0.2540*%
%ADD11C,0.2032*%
D10*
X508545Y25398D02*
Y17658D01*
X509029Y16207D01*
X509513Y15724D01*
X510480Y15240D01*
X511931D01*
X512899Y15724D01*
X508545Y23947D02*
X509513Y24914D01*
X510480Y25398D01*
X511931D01*
X512899Y24914D01*
X513866Y23947D01*
X514350Y22496D01*
Y21528D01*
X513866Y20077D01*
X512899Y19110D01*
X511931Y18626D01*
X510480D01*
X509513Y19110D01*
X508545Y20077D01*
X504869Y28784D02*
X504386Y28300D01*
X503902Y28784D01*
X504386Y29267D01*
X504869Y28784D01*
X504386Y25398D02*
Y18626D01*
X500661Y28784D02*
Y20561D01*
X500177Y19110D01*
X499210Y18626D01*
X498243D01*
X502112Y25398D02*
X498726D01*
X496791Y28784D02*
Y18626D01*
Y23463D02*
X495340Y24914D01*
X494373Y25398D01*
X492922D01*
X491954Y24914D01*
X491471Y23463D01*
Y18626D01*
X488810Y25398D02*
Y20561D01*
X488327Y19110D01*
X487359Y18626D01*
X485908D01*
X484941Y19110D01*
X483490Y20561D01*
Y25398D02*
Y18626D01*
X480829Y28784D02*
Y18626D01*
Y23947D02*
X479862Y24914D01*
X478894Y25398D01*
X477443D01*
X476476Y24914D01*
X475508Y23947D01*
X475025Y22496D01*
Y21528D01*
X475508Y20077D01*
X476476Y19110D01*
X477443Y18626D01*
X478894D01*
X479862Y19110D01*
X480829Y20077D01*
X472364Y19593D02*
X472848Y19110D01*
X472364Y18626D01*
X471881Y19110D01*
X472364Y19593D01*
X463851Y23947D02*
X464819Y24914D01*
X465786Y25398D01*
X467237D01*
X468204Y24914D01*
X469172Y23947D01*
X469656Y22496D01*
Y21528D01*
X469172Y20077D01*
X468204Y19110D01*
X467237Y18626D01*
X465786D01*
X464819Y19110D01*
X463851Y20077D01*
X459256Y25398D02*
X460223Y24914D01*
X461191Y23947D01*
X461674Y22496D01*
Y21528D01*
X461191Y20077D01*
X460223Y19110D01*
X459256Y18626D01*
X457805D01*
X456837Y19110D01*
X455870Y20077D01*
X455386Y21528D01*
Y22496D01*
X455870Y23947D01*
X456837Y24914D01*
X457805Y25398D01*
X459256D01*
X453161D02*
Y18626D01*
Y23463D02*
X451710Y24914D01*
X450743Y25398D01*
X449292D01*
X448324Y24914D01*
X447840Y23463D01*
Y18626D01*
Y23463D02*
X446389Y24914D01*
X445422Y25398D01*
X443971D01*
X443004Y24914D01*
X442520Y23463D01*
Y18626D01*
X439327Y17175D02*
X432555Y28784D01*
X431878D02*
Y18626D01*
Y23947D02*
X430911Y24914D01*
X429943Y25398D01*
X428492D01*
X427525Y24914D01*
X426557Y23947D01*
X426074Y22496D01*
Y21528D01*
X426557Y20077D01*
X427525Y19110D01*
X428492Y18626D01*
X429943D01*
X430911Y19110D01*
X431878Y20077D01*
X423897Y22496D02*
X418093D01*
Y23463D01*
X418576Y24430D01*
X419060Y24914D01*
X420027Y25398D01*
X421479D01*
X422446Y24914D01*
X423413Y23947D01*
X423897Y22496D01*
Y21528D01*
X423413Y20077D01*
X422446Y19110D01*
X421479Y18626D01*
X420027D01*
X419060Y19110D01*
X418093Y20077D01*
X415916Y25398D02*
Y18626D01*
Y23463D02*
X414465Y24914D01*
X413497Y25398D01*
X412046D01*
X411079Y24914D01*
X410595Y23463D01*
Y18626D01*
X407935Y28784D02*
Y18626D01*
X404839Y28784D02*
X404355Y28300D01*
X403872Y28784D01*
X404355Y29267D01*
X404839Y28784D01*
X404355Y25398D02*
Y18626D01*
X396278Y25398D02*
Y18626D01*
Y23947D02*
X397245Y24914D01*
X398212Y25398D01*
X399663D01*
X400631Y24914D01*
X401598Y23947D01*
X402082Y22496D01*
Y21528D01*
X401598Y20077D01*
X400631Y19110D01*
X399663Y18626D01*
X398212D01*
X397245Y19110D01*
X396278Y20077D01*
X391150Y25398D02*
X392118Y24914D01*
X393085Y23947D01*
X393569Y22496D01*
Y21528D01*
X393085Y20077D01*
X392118Y19110D01*
X391150Y18626D01*
X389699D01*
X388732Y19110D01*
X387764Y20077D01*
X387281Y21528D01*
Y22496D01*
X387764Y23947D01*
X388732Y24914D01*
X389699Y25398D01*
X391150D01*
X385056Y26849D02*
X384088Y27333D01*
X382637Y28784D01*
Y18626D01*
X377606Y17175D02*
X370835Y28784D01*
X370157D02*
Y18626D01*
X365611Y25398D02*
X366578Y24914D01*
X367545Y23947D01*
X368029Y22496D01*
Y21528D01*
X367545Y20077D01*
X366578Y19110D01*
X365611Y18626D01*
X364159D01*
X363192Y19110D01*
X362225Y20077D01*
X361741Y21528D01*
Y22496D01*
X362225Y23947D01*
X363192Y24914D01*
X364159Y25398D01*
X365611D01*
X353711D02*
Y18626D01*
Y23947D02*
X354679Y24914D01*
X355646Y25398D01*
X357097D01*
X358065Y24914D01*
X359032Y23947D01*
X359516Y22496D01*
Y21528D01*
X359032Y20077D01*
X358065Y19110D01*
X357097Y18626D01*
X355646D01*
X354679Y19110D01*
X353711Y20077D01*
X345198Y28784D02*
Y18626D01*
Y23947D02*
X346166Y24914D01*
X347133Y25398D01*
X348584D01*
X349552Y24914D01*
X350519Y23947D01*
X351003Y22496D01*
Y21528D01*
X350519Y20077D01*
X349552Y19110D01*
X348584Y18626D01*
X347133D01*
X346166Y19110D01*
X345198Y20077D01*
X342489Y15240D02*
X334750D01*
X333444Y28784D02*
Y18626D01*
Y23947D02*
X332477Y24914D01*
X331509Y25398D01*
X330058D01*
X329091Y24914D01*
X328123Y23947D01*
X327640Y22496D01*
Y21528D01*
X328123Y20077D01*
X329091Y19110D01*
X330058Y18626D01*
X331509D01*
X332477Y19110D01*
X333444Y20077D01*
X319659Y25398D02*
Y18626D01*
Y23947D02*
X320626Y24914D01*
X321593Y25398D01*
X323044D01*
X324012Y24914D01*
X324979Y23947D01*
X325463Y22496D01*
Y21528D01*
X324979Y20077D01*
X324012Y19110D01*
X323044Y18626D01*
X321593D01*
X320626Y19110D01*
X319659Y20077D01*
X316950Y25398D02*
Y18626D01*
Y23463D02*
X315499Y24914D01*
X314531Y25398D01*
X313080D01*
X312113Y24914D01*
X311629Y23463D01*
Y18626D01*
X308969Y28784D02*
Y18626D01*
X304132Y25398D02*
X308969Y20561D01*
X307034Y22496D02*
X303648Y18626D01*
X552995Y44956D02*
Y37216D01*
X553479Y35765D01*
X553963Y35282D01*
X554930Y34798D01*
X556381D01*
X557349Y35282D01*
X552995Y43505D02*
X553963Y44472D01*
X554930Y44956D01*
X556381D01*
X557349Y44472D01*
X558316Y43505D01*
X558800Y42054D01*
Y41086D01*
X558316Y39635D01*
X557349Y38668D01*
X556381Y38184D01*
X554930D01*
X553963Y38668D01*
X552995Y39635D01*
X549319Y48342D02*
X548836Y47858D01*
X548352Y48342D01*
X548836Y48825D01*
X549319Y48342D01*
X548836Y44956D02*
Y38184D01*
X545111Y48342D02*
Y40119D01*
X544627Y38668D01*
X543660Y38184D01*
X542693D01*
X546562Y44956D02*
X543176D01*
X541241Y48342D02*
Y38184D01*
X533309Y44956D02*
Y38184D01*
Y43505D02*
X534276Y44472D01*
X535243Y44956D01*
X536695D01*
X537662Y44472D01*
X538629Y43505D01*
X539113Y42054D01*
Y41086D01*
X538629Y39635D01*
X537662Y38668D01*
X536695Y38184D01*
X535243D01*
X534276Y38668D01*
X533309Y39635D01*
X530600Y48342D02*
Y38184D01*
Y43505D02*
X529632Y44472D01*
X528665Y44956D01*
X527214D01*
X526247Y44472D01*
X525279Y43505D01*
X524795Y42054D01*
Y41086D01*
X525279Y39635D01*
X526247Y38668D01*
X527214Y38184D01*
X528665D01*
X529632Y38668D01*
X530600Y39635D01*
X522135Y39151D02*
X522619Y38668D01*
X522135Y38184D01*
X521651Y38668D01*
X522135Y39151D01*
X513622Y43505D02*
X514589Y44472D01*
X515557Y44956D01*
X517008D01*
X517975Y44472D01*
X518943Y43505D01*
X519426Y42054D01*
Y41086D01*
X518943Y39635D01*
X517975Y38668D01*
X517008Y38184D01*
X515557D01*
X514589Y38668D01*
X513622Y39635D01*
X509027Y44956D02*
X509994Y44472D01*
X510961Y43505D01*
X511445Y42054D01*
Y41086D01*
X510961Y39635D01*
X509994Y38668D01*
X509027Y38184D01*
X507576D01*
X506608Y38668D01*
X505641Y39635D01*
X505157Y41086D01*
Y42054D01*
X505641Y43505D01*
X506608Y44472D01*
X507576Y44956D01*
X509027D01*
X502932D02*
Y38184D01*
Y43021D02*
X501481Y44472D01*
X500513Y44956D01*
X499062D01*
X498095Y44472D01*
X497611Y43021D01*
Y38184D01*
Y43021D02*
X496160Y44472D01*
X495193Y44956D01*
X493742D01*
X492774Y44472D01*
X492290Y43021D01*
Y38184D01*
X489098Y36733D02*
X482326Y48342D01*
X481649Y44956D02*
Y34798D01*
Y43505D02*
X480681Y44472D01*
X479714Y44956D01*
X478263D01*
X477296Y44472D01*
X476328Y43505D01*
X475844Y42054D01*
Y41086D01*
X476328Y39635D01*
X477296Y38668D01*
X478263Y38184D01*
X479714D01*
X480681Y38668D01*
X481649Y39635D01*
X472700Y48342D02*
X472217Y47858D01*
X471733Y48342D01*
X472217Y48825D01*
X472700Y48342D01*
X472217Y44956D02*
Y38184D01*
X469943Y48342D02*
Y38184D01*
X462010Y44956D02*
Y38184D01*
Y43505D02*
X462978Y44472D01*
X463945Y44956D01*
X465396D01*
X466364Y44472D01*
X467331Y43505D01*
X467815Y42054D01*
Y41086D01*
X467331Y39635D01*
X466364Y38668D01*
X465396Y38184D01*
X463945D01*
X462978Y38668D01*
X462010Y39635D01*
X459302Y44956D02*
X457367Y38184D01*
X455432Y44956D02*
X457367Y38184D01*
X455432Y44956D02*
X453497Y38184D01*
X451562Y44956D02*
X453497Y38184D01*
X443388Y44956D02*
Y38184D01*
Y43505D02*
X444355Y44472D01*
X445323Y44956D01*
X446774D01*
X447741Y44472D01*
X448709Y43505D01*
X449192Y42054D01*
Y41086D01*
X448709Y39635D01*
X447741Y38668D01*
X446774Y38184D01*
X445323D01*
X444355Y38668D01*
X443388Y39635D01*
X440679Y42537D02*
X431972D01*
X423169Y44956D02*
Y37216D01*
X423653Y35765D01*
X424136Y35282D01*
X425104Y34798D01*
X426555D01*
X427522Y35282D01*
X423169Y43505D02*
X424136Y44472D01*
X425104Y44956D01*
X426555D01*
X427522Y44472D01*
X428490Y43505D01*
X428973Y42054D01*
Y41086D01*
X428490Y39635D01*
X427522Y38668D01*
X426555Y38184D01*
X425104D01*
X424136Y38668D01*
X423169Y39635D01*
X420460Y44956D02*
Y38184D01*
Y42054D02*
X419977Y43505D01*
X419009Y44472D01*
X418042Y44956D01*
X416590D01*
X413253D02*
X414220Y44472D01*
X415188Y43505D01*
X415672Y42054D01*
Y41086D01*
X415188Y39635D01*
X414220Y38668D01*
X413253Y38184D01*
X411802D01*
X410834Y38668D01*
X409867Y39635D01*
X409383Y41086D01*
Y42054D01*
X409867Y43505D01*
X410834Y44472D01*
X411802Y44956D01*
X413253D01*
X407158D02*
Y40119D01*
X406674Y38668D01*
X405707Y38184D01*
X404256D01*
X403289Y38668D01*
X401838Y40119D01*
Y44956D02*
Y38184D01*
X399177Y44956D02*
Y34798D01*
Y43505D02*
X398210Y44472D01*
X397242Y44956D01*
X395791D01*
X394824Y44472D01*
X393856Y43505D01*
X393373Y42054D01*
Y41086D01*
X393856Y39635D01*
X394824Y38668D01*
X395791Y38184D01*
X397242D01*
X398210Y38668D01*
X399177Y39635D01*
X391196Y36733D02*
X384424Y48342D01*
X383747D02*
Y38184D01*
Y43505D02*
X382780Y44472D01*
X381812Y44956D01*
X380361D01*
X379394Y44472D01*
X378426Y43505D01*
X377942Y42054D01*
Y41086D01*
X378426Y39635D01*
X379394Y38668D01*
X380361Y38184D01*
X381812D01*
X382780Y38668D01*
X383747Y39635D01*
X375766Y42054D02*
X369961D01*
Y43021D01*
X370445Y43988D01*
X370929Y44472D01*
X371896Y44956D01*
X373347D01*
X374315Y44472D01*
X375282Y43505D01*
X375766Y42054D01*
Y41086D01*
X375282Y39635D01*
X374315Y38668D01*
X373347Y38184D01*
X371896D01*
X370929Y38668D01*
X369961Y39635D01*
X367785Y44956D02*
Y38184D01*
Y43021D02*
X366334Y44472D01*
X365366Y44956D01*
X363915D01*
X362948Y44472D01*
X362464Y43021D01*
Y38184D01*
X359804Y42537D02*
X351097D01*
X348098Y48342D02*
Y38184D01*
X345002Y48342D02*
X344518Y47858D01*
X344035Y48342D01*
X344518Y48825D01*
X345002Y48342D01*
X344518Y44956D02*
Y38184D01*
X336441Y44956D02*
Y38184D01*
Y43505D02*
X337408Y44472D01*
X338375Y44956D01*
X339826D01*
X340794Y44472D01*
X341761Y43505D01*
X342245Y42054D01*
Y41086D01*
X341761Y39635D01*
X340794Y38668D01*
X339826Y38184D01*
X338375D01*
X337408Y38668D01*
X336441Y39635D01*
X331313Y44956D02*
X332281Y44472D01*
X333248Y43505D01*
X333732Y42054D01*
Y41086D01*
X333248Y39635D01*
X332281Y38668D01*
X331313Y38184D01*
X329862D01*
X328895Y38668D01*
X327927Y39635D01*
X327444Y41086D01*
Y42054D01*
X327927Y43505D01*
X328895Y44472D01*
X329862Y44956D01*
X331313D01*
X325219Y42537D02*
X316512D01*
X313513Y44956D02*
Y38184D01*
Y43021D02*
X312062Y44472D01*
X311094Y44956D01*
X309643D01*
X308676Y44472D01*
X308192Y43021D01*
Y38184D01*
X305532Y42054D02*
X299727D01*
Y43021D01*
X300211Y43988D01*
X300695Y44472D01*
X301662Y44956D01*
X303113D01*
X304081Y44472D01*
X305048Y43505D01*
X305532Y42054D01*
Y41086D01*
X305048Y39635D01*
X304081Y38668D01*
X303113Y38184D01*
X301662D01*
X300695Y38668D01*
X299727Y39635D01*
X297551Y44956D02*
X295616Y38184D01*
X293681Y44956D02*
X295616Y38184D01*
X293681Y44956D02*
X291746Y38184D01*
X289811Y44956D02*
X291746Y38184D01*
X287441Y48342D02*
Y38184D01*
X282894Y44956D02*
X283862Y44472D01*
X284829Y43505D01*
X285313Y42054D01*
Y41086D01*
X284829Y39635D01*
X283862Y38668D01*
X282894Y38184D01*
X281443D01*
X280476Y38668D01*
X279508Y39635D01*
X279025Y41086D01*
Y42054D01*
X279508Y43505D01*
X280476Y44472D01*
X281443Y44956D01*
X282894D01*
X270995D02*
Y38184D01*
Y43505D02*
X271963Y44472D01*
X272930Y44956D01*
X274381D01*
X275348Y44472D01*
X276316Y43505D01*
X276800Y42054D01*
Y41086D01*
X276316Y39635D01*
X275348Y38668D01*
X274381Y38184D01*
X272930D01*
X271963Y38668D01*
X270995Y39635D01*
X262482Y48342D02*
Y38184D01*
Y43505D02*
X263449Y44472D01*
X264417Y44956D01*
X265868D01*
X266835Y44472D01*
X267803Y43505D01*
X268286Y42054D01*
Y41086D01*
X267803Y39635D01*
X266835Y38668D01*
X265868Y38184D01*
X264417D01*
X263449Y38668D01*
X262482Y39635D01*
X259773Y48342D02*
Y38184D01*
Y43505D02*
X258806Y44472D01*
X257838Y44956D01*
X256387D01*
X255420Y44472D01*
X254452Y43505D01*
X253969Y42054D01*
Y41086D01*
X254452Y39635D01*
X255420Y38668D01*
X256387Y38184D01*
X257838D01*
X258806Y38668D01*
X259773Y39635D01*
X245987Y44956D02*
Y38184D01*
Y43505D02*
X246955Y44472D01*
X247922Y44956D01*
X249373D01*
X250341Y44472D01*
X251308Y43505D01*
X251792Y42054D01*
Y41086D01*
X251308Y39635D01*
X250341Y38668D01*
X249373Y38184D01*
X247922D01*
X246955Y38668D01*
X245987Y39635D01*
X243279Y44956D02*
Y38184D01*
Y43021D02*
X241828Y44472D01*
X240860Y44956D01*
X239409D01*
X238442Y44472D01*
X237958Y43021D01*
Y38184D01*
X235298Y48342D02*
Y38184D01*
X230461Y44956D02*
X235298Y40119D01*
X233363Y42054D02*
X229977Y38184D01*
X261112Y236639D02*
Y229868D01*
X257726Y226483D01*
X254341Y229868D01*
Y236639D01*
X244184Y234947D02*
X245877Y236639D01*
X249263D01*
X250955Y234947D01*
Y228176D01*
X249263Y226483D01*
X245877D01*
X244184Y228176D01*
Y231561D01*
X247570D01*
X240799Y224790D02*
X234027D01*
X223871Y234947D02*
X225564Y236639D01*
X228949D01*
X230642Y234947D01*
Y233254D01*
X228949Y231561D01*
X225564D01*
X223871Y229868D01*
Y228176D01*
X225564Y226483D01*
X228949D01*
X230642Y228176D01*
X220485Y226483D02*
X217099D01*
X218792D01*
Y236639D01*
X220485Y234947D01*
X370586Y331128D02*
Y324356D01*
X367200Y320971D01*
X363815Y324356D01*
Y331128D01*
X353658Y329435D02*
X355351Y331128D01*
X358736D01*
X360429Y329435D01*
Y322664D01*
X358736Y320971D01*
X355351D01*
X353658Y322664D01*
Y326049D01*
X357044D01*
X350273Y319278D02*
X343501D01*
X333345Y329435D02*
X335037Y331128D01*
X338423D01*
X340116Y329435D01*
Y327742D01*
X338423Y326049D01*
X335037D01*
X333345Y324356D01*
Y322664D01*
X335037Y320971D01*
X338423D01*
X340116Y322664D01*
X323188Y320971D02*
X329959D01*
X323188Y327742D01*
Y329435D01*
X324881Y331128D01*
X328266D01*
X329959Y329435D01*
X158329Y170177D02*
X160022Y171870D01*
X163407D01*
X165100Y170177D01*
Y163406D01*
X163407Y161713D01*
X160022D01*
X158329Y163406D01*
Y166791D01*
X161714D01*
X154943Y161713D02*
Y168484D01*
X151558Y171870D01*
X148172Y168484D01*
Y161713D01*
Y166791D01*
X154943D01*
X144787Y171870D02*
X138015D01*
X141401D01*
Y161713D01*
X127859Y171870D02*
X134630D01*
Y161713D01*
X127859D01*
X134630Y166791D02*
X131244D01*
X124473Y160020D02*
X117702D01*
X114316Y171870D02*
Y161713D01*
X109238D01*
X107545Y163406D01*
Y170177D01*
X109238Y171870D01*
X114316D01*
X104160Y161713D02*
Y171870D01*
X99081D01*
X97388Y170177D01*
Y166791D01*
X99081Y165098D01*
X104160D01*
X100774D02*
X97388Y161713D01*
X94003Y171870D02*
X90617D01*
X92310D01*
Y161713D01*
X94003D01*
X90617D01*
X85539Y171870D02*
Y165098D01*
X82153Y161713D01*
X78768Y165098D01*
Y171870D01*
X68611D02*
X75382D01*
Y161713D01*
X68611D01*
X75382Y166791D02*
X71997D01*
X65226Y160020D02*
X58454D01*
X48298Y170177D02*
X49991Y171870D01*
X53376D01*
X55069Y170177D01*
Y168484D01*
X53376Y166791D01*
X49991D01*
X48298Y165098D01*
Y163406D01*
X49991Y161713D01*
X53376D01*
X55069Y163406D01*
X44912Y171870D02*
X41526D01*
X43219D01*
Y161713D01*
X44912D01*
X41526D01*
X29677Y170177D02*
X31370Y171870D01*
X34755D01*
X36448Y170177D01*
Y163406D01*
X34755Y161713D01*
X31370D01*
X29677Y163406D01*
Y166791D01*
X33063D01*
X127000Y113874D02*
X125307Y115567D01*
X121922D01*
X120229Y117260D01*
X110072Y113874D02*
X111765Y115567D01*
X115150D01*
X116843Y113874D01*
Y112181D01*
X115150Y110488D01*
X111765D01*
X110072Y108796D01*
Y107103D01*
X111765Y105410D01*
X115150D01*
X116843Y107103D01*
X106687Y115567D02*
X103301D01*
X104994D01*
Y105410D01*
X106687D01*
X103301D01*
X91452Y113874D02*
X93144Y115567D01*
X96530D01*
X98223Y113874D01*
Y107103D01*
X96530Y105410D01*
X93144D01*
X91452Y107103D01*
Y110488D01*
X94837D01*
X174839Y93554D02*
X176532Y95247D01*
X179917D01*
X181610Y93554D01*
Y91861D01*
X179917Y90168D01*
X176532D01*
X174839Y88476D01*
Y86783D01*
X176532Y85090D01*
X179917D01*
X181610Y86783D01*
X171453Y95247D02*
X168068D01*
X169760D01*
Y85090D01*
X171453D01*
X168068D01*
X156218Y93554D02*
X157911Y95247D01*
X161297D01*
X162989Y93554D01*
Y86783D01*
X161297Y85090D01*
X157911D01*
X156218Y86783D01*
Y90168D01*
X159604D01*
X59690Y93133D02*
X56304D01*
X57997D01*
Y103289D01*
X59690Y101597D01*
X44455Y93133D02*
X51226D01*
X44455Y99904D01*
Y101597D01*
X46148Y103289D01*
X49533D01*
X51226Y101597D01*
X41069Y103289D02*
Y96518D01*
X37684Y93133D01*
X34298Y96518D01*
Y103289D01*
X30913Y91440D02*
X24141D01*
X20756Y103289D02*
X17370D01*
X19063D01*
Y93133D01*
X20756D01*
X17370D01*
X12292D02*
Y103289D01*
X5521Y93133D01*
Y103289D01*
X124039Y38097D02*
X125732Y39790D01*
X129117D01*
X130810Y38097D01*
Y31326D01*
X129117Y29633D01*
X125732D01*
X124039Y31326D01*
Y34711D01*
X127424D01*
X120653Y29633D02*
Y39790D01*
X113882Y29633D01*
Y39790D01*
X110497D02*
Y29633D01*
X105418D01*
X103725Y31326D01*
Y38097D01*
X105418Y39790D01*
X110497D01*
X100340Y27940D02*
X93569D01*
X90183Y39790D02*
X86798D01*
X88490D01*
Y29633D01*
X90183D01*
X86798D01*
X81719D02*
Y39790D01*
X74948Y29633D01*
Y39790D01*
X416139Y66884D02*
X417832Y68577D01*
X421217D01*
X422910Y66884D01*
Y60113D01*
X421217Y58420D01*
X417832D01*
X416139Y60113D01*
Y63498D01*
X419524D01*
X412753Y58420D02*
Y68577D01*
X405982Y58420D01*
Y68577D01*
X402597D02*
Y58420D01*
X397518D01*
X395825Y60113D01*
Y66884D01*
X397518Y68577D01*
X402597D01*
X421640Y82550D02*
X418254D01*
X419947D01*
Y92707D01*
X421640Y91014D01*
X406405Y82550D02*
X413176D01*
X406405Y89321D01*
Y91014D01*
X408098Y92707D01*
X411483D01*
X413176Y91014D01*
X403019Y92707D02*
Y85936D01*
X399634Y82550D01*
X396248Y85936D01*
Y92707D01*
X421640Y119799D02*
X418254D01*
X419947D01*
Y109643D01*
X421640D01*
X418254D01*
X406405Y118107D02*
X408098Y119799D01*
X411483D01*
X413176Y118107D01*
Y116414D01*
X411483Y114721D01*
X408098D01*
X406405Y113028D01*
Y111336D01*
X408098Y109643D01*
X411483D01*
X413176Y111336D01*
X397941Y119799D02*
X401327D01*
X403019Y118107D01*
Y111336D01*
X401327Y109643D01*
X397941D01*
X396248Y111336D01*
Y118107D01*
X397941Y119799D01*
X392863Y107950D02*
X386091D01*
X382706Y109643D02*
X379320D01*
X381013D01*
Y119799D01*
X382706Y118107D01*
X367471Y109643D02*
X374242D01*
X367471Y116414D01*
Y118107D01*
X369164Y119799D01*
X372549D01*
X374242Y118107D01*
X364085Y119799D02*
Y113028D01*
X360700Y109643D01*
X357314Y113028D01*
Y119799D01*
X421640Y145199D02*
X418254D01*
X419947D01*
Y135043D01*
X421640D01*
X418254D01*
X406405Y143507D02*
X408098Y145199D01*
X411483D01*
X413176Y143507D01*
Y141814D01*
X411483Y140121D01*
X408098D01*
X406405Y138428D01*
Y136736D01*
X408098Y135043D01*
X411483D01*
X413176Y136736D01*
X397941Y145199D02*
X401327D01*
X403019Y143507D01*
Y136736D01*
X401327Y135043D01*
X397941D01*
X396248Y136736D01*
Y143507D01*
X397941Y145199D01*
X392863Y133350D02*
X386091D01*
X375935Y143507D02*
X377627Y145199D01*
X381013D01*
X382706Y143507D01*
Y136736D01*
X381013Y135043D01*
X377627D01*
X375935Y136736D01*
Y140121D01*
X379320D01*
X372549Y135043D02*
Y145199D01*
X365778Y135043D01*
Y145199D01*
X362392D02*
Y135043D01*
X357314D01*
X355621Y136736D01*
Y143507D01*
X357314Y145199D01*
X362392D01*
X365760Y368892D02*
Y379048D01*
X360682D01*
X358989Y377355D01*
Y373970D01*
X360682Y372277D01*
X365760D01*
X355603Y368892D02*
X352218D01*
X353910D01*
Y375663D01*
X355603D01*
X347139Y368892D02*
X343754D01*
X345447D01*
Y379048D01*
X347139D01*
X336983Y375663D02*
X333597D01*
X331904Y373970D01*
Y368892D01*
X336983D01*
X338675Y370584D01*
X336983Y372277D01*
X331904D01*
X328519Y375663D02*
Y370584D01*
X326826Y368892D01*
X325133Y370584D01*
X323440Y368892D01*
X321748Y370584D01*
Y375663D01*
X316669D02*
X313284D01*
X311591Y373970D01*
Y368892D01*
X316669D01*
X318362Y370584D01*
X316669Y372277D01*
X311591D01*
X308205Y373970D02*
X301434D01*
X298048Y368892D02*
Y379048D01*
X292970D01*
X291277Y377355D01*
Y373970D01*
X292970Y372277D01*
X298048D01*
X286199Y368892D02*
X282813D01*
X281121Y370584D01*
Y373970D01*
X282813Y375663D01*
X286199D01*
X287892Y373970D01*
Y370584D01*
X286199Y368892D01*
X270964Y379048D02*
Y368892D01*
X276042D01*
X277735Y370584D01*
Y373970D01*
X276042Y375663D01*
X270964D01*
X264193Y365506D02*
X262500D01*
X260807Y367199D01*
Y375663D01*
X265886D01*
X267578Y373970D01*
Y370584D01*
X265886Y368892D01*
X260807D01*
X257422Y375663D02*
Y370584D01*
X255729Y368892D01*
X250651D01*
Y375663D01*
X247265D02*
Y368892D01*
Y372277D01*
X245572Y373970D01*
X243879Y375663D01*
X242187D01*
X237108Y368892D02*
X232030D01*
X230337Y370584D01*
X232030Y372277D01*
X235415D01*
X237108Y373970D01*
X235415Y375663D01*
X230337D01*
X226951Y368892D02*
Y379048D01*
Y372277D02*
X221873Y375663D01*
X226951Y372277D02*
X221873Y368892D01*
X216795D02*
X213409D01*
X215102D01*
Y375663D01*
X216795D01*
X381000Y388366D02*
Y398523D01*
X375922D01*
X374229Y396830D01*
Y393444D01*
X375922Y391752D01*
X381000D01*
X377614D02*
X374229Y388366D01*
X369151D02*
X365765D01*
X364072Y390059D01*
Y393444D01*
X365765Y395137D01*
X369151D01*
X370843Y393444D01*
Y390059D01*
X369151Y388366D01*
X360687Y398523D02*
Y388366D01*
X355608D01*
X353915Y390059D01*
Y391752D01*
Y393444D01*
X355608Y395137D01*
X360687D01*
X345452Y388366D02*
X348837D01*
X350530Y390059D01*
Y393444D01*
X348837Y395137D01*
X345452D01*
X343759Y393444D01*
Y391752D01*
X350530D01*
X340373Y395137D02*
Y388366D01*
Y391752D01*
X338680Y393444D01*
X336987Y395137D01*
X335295D01*
X328524Y396830D02*
Y395137D01*
X330216D01*
X326831D01*
X328524D01*
Y390059D01*
X326831Y388366D01*
X381000Y439163D02*
Y429006D01*
X375922D01*
X374229Y430699D01*
Y432392D01*
X375922Y434084D01*
X381000D01*
X375922D01*
X374229Y435777D01*
Y437470D01*
X375922Y439163D01*
X381000D01*
X365765Y429006D02*
X369151D01*
X370843Y430699D01*
Y434084D01*
X369151Y435777D01*
X365765D01*
X364072Y434084D01*
Y432392D01*
X370843D01*
X360687Y429006D02*
Y435777D01*
X355608D01*
X353915Y434084D01*
Y429006D01*
X340373Y439163D02*
Y429006D01*
X333602D01*
X330216D02*
X326831D01*
X328524D01*
Y435777D01*
X330216D01*
X320060D02*
X316674D01*
X314981Y434084D01*
Y429006D01*
X320060D01*
X321752Y430699D01*
X320060Y432392D01*
X314981D01*
X309903Y429006D02*
X306517D01*
X304825Y430699D01*
Y434084D01*
X306517Y435777D01*
X309903D01*
X311596Y434084D01*
Y430699D01*
X309903Y429006D01*
X381000Y419688D02*
Y409532D01*
X374229D01*
X369151D02*
X365765D01*
X364072Y411224D01*
Y414610D01*
X365765Y416303D01*
X369151D01*
X370843Y414610D01*
Y411224D01*
X369151Y409532D01*
X357301Y406146D02*
X355608D01*
X353915Y407839D01*
Y416303D01*
X358994D01*
X360687Y414610D01*
Y411224D01*
X358994Y409532D01*
X353915D01*
X348837Y416303D02*
X345452D01*
X343759Y414610D01*
Y409532D01*
X348837D01*
X350530Y411224D01*
X348837Y412917D01*
X343759D01*
X340373Y409532D02*
Y416303D01*
X335295D01*
X333602Y414610D01*
Y409532D01*
X320060Y419688D02*
Y409532D01*
Y414610D01*
X313288D01*
Y419688D01*
Y409532D01*
X308210D02*
X304825D01*
X303132Y411224D01*
Y414610D01*
X304825Y416303D01*
X308210D01*
X309903Y414610D01*
Y411224D01*
X308210Y409532D01*
X299746Y416303D02*
Y409532D01*
Y412917D01*
X298053Y414610D01*
X296361Y416303D01*
X294668D01*
X287897Y409532D02*
X284511D01*
X282818Y411224D01*
Y414610D01*
X284511Y416303D01*
X287897D01*
X289590Y414610D01*
Y411224D01*
X287897Y409532D01*
X279433Y416303D02*
Y411224D01*
X277740Y409532D01*
X276047Y411224D01*
X274354Y409532D01*
X272662Y411224D01*
Y416303D01*
X269276Y409532D02*
X265891D01*
X267583D01*
Y416303D01*
X269276D01*
X259119Y417995D02*
Y416303D01*
X260812D01*
X257426D01*
X259119D01*
Y411224D01*
X257426Y409532D01*
X252348Y416303D02*
X245577D01*
X252348Y409532D01*
X245577D01*
D11*
X128270Y143510D02*
X138430Y138430D01*
X143510Y147320D01*
X132080Y154940D02*
X138430Y138430D01*
X111760Y93980D02*
X118110Y90170D01*
X123190Y95250D01*
X116360Y100673D02*
X118110Y90170D01*
X142240Y68580D02*
X149860Y66040D01*
X142240Y68580D02*
X143510Y77470D01*
X142240Y68580D02*
X156210Y80010D01*
X43180Y77470D02*
X48260Y81280D01*
X45720Y87630D02*
X48260Y81280D01*
X36830Y85090D02*
X48260Y81280D01*
X62230Y46990D02*
X68580Y49530D01*
X72390Y44450D01*
X63500Y33020D02*
X68580Y49530D01*
M02*
