G04*
G04 #@! TF.GenerationSoftware,Altium Limited,Altium Designer,23.5.1 (21)*
G04*
G04 Layer_Color=8388736*
%FSLAX25Y25*%
%MOIN*%
G70*
G04*
G04 #@! TF.SameCoordinates,6C7C4F2D-7F01-49B3-B8D4-2628965C766F*
G04*
G04*
G04 #@! TF.FilePolarity,Negative*
G04*
G01*
G75*
G04:AMPARAMS|DCode=30|XSize=45mil|YSize=47mil|CornerRadius=5.85mil|HoleSize=0mil|Usage=FLASHONLY|Rotation=270.000|XOffset=0mil|YOffset=0mil|HoleType=Round|Shape=RoundedRectangle|*
%AMROUNDEDRECTD30*
21,1,0.04500,0.03530,0,0,270.0*
21,1,0.03330,0.04700,0,0,270.0*
1,1,0.01170,-0.01765,-0.01665*
1,1,0.01170,-0.01765,0.01665*
1,1,0.01170,0.01765,0.01665*
1,1,0.01170,0.01765,-0.01665*
%
%ADD30ROUNDEDRECTD30*%
G04:AMPARAMS|DCode=31|XSize=79mil|YSize=47mil|CornerRadius=8.88mil|HoleSize=0mil|Usage=FLASHONLY|Rotation=0.000|XOffset=0mil|YOffset=0mil|HoleType=Round|Shape=RoundedRectangle|*
%AMROUNDEDRECTD31*
21,1,0.07900,0.02925,0,0,0.0*
21,1,0.06125,0.04700,0,0,0.0*
1,1,0.01775,0.03063,-0.01463*
1,1,0.01775,-0.03063,-0.01463*
1,1,0.01775,-0.03063,0.01463*
1,1,0.01775,0.03063,0.01463*
%
%ADD31ROUNDEDRECTD31*%
G04:AMPARAMS|DCode=32|XSize=69mil|YSize=32mil|CornerRadius=5.2mil|HoleSize=0mil|Usage=FLASHONLY|Rotation=90.000|XOffset=0mil|YOffset=0mil|HoleType=Round|Shape=RoundedRectangle|*
%AMROUNDEDRECTD32*
21,1,0.06900,0.02160,0,0,90.0*
21,1,0.05860,0.03200,0,0,90.0*
1,1,0.01040,0.01080,0.02930*
1,1,0.01040,0.01080,-0.02930*
1,1,0.01040,-0.01080,-0.02930*
1,1,0.01040,-0.01080,0.02930*
%
%ADD32ROUNDEDRECTD32*%
G04:AMPARAMS|DCode=33|XSize=32mil|YSize=49mil|CornerRadius=5.2mil|HoleSize=0mil|Usage=FLASHONLY|Rotation=0.000|XOffset=0mil|YOffset=0mil|HoleType=Round|Shape=RoundedRectangle|*
%AMROUNDEDRECTD33*
21,1,0.03200,0.03860,0,0,0.0*
21,1,0.02160,0.04900,0,0,0.0*
1,1,0.01040,0.01080,-0.01930*
1,1,0.01040,-0.01080,-0.01930*
1,1,0.01040,-0.01080,0.01930*
1,1,0.01040,0.01080,0.01930*
%
%ADD33ROUNDEDRECTD33*%
G04:AMPARAMS|DCode=34|XSize=45mil|YSize=47mil|CornerRadius=5.85mil|HoleSize=0mil|Usage=FLASHONLY|Rotation=0.000|XOffset=0mil|YOffset=0mil|HoleType=Round|Shape=RoundedRectangle|*
%AMROUNDEDRECTD34*
21,1,0.04500,0.03530,0,0,0.0*
21,1,0.03330,0.04700,0,0,0.0*
1,1,0.01170,0.01665,-0.01765*
1,1,0.01170,-0.01665,-0.01765*
1,1,0.01170,-0.01665,0.01765*
1,1,0.01170,0.01665,0.01765*
%
%ADD34ROUNDEDRECTD34*%
G04:AMPARAMS|DCode=35|XSize=57mil|YSize=133mil|CornerRadius=10.13mil|HoleSize=0mil|Usage=FLASHONLY|Rotation=90.000|XOffset=0mil|YOffset=0mil|HoleType=Round|Shape=RoundedRectangle|*
%AMROUNDEDRECTD35*
21,1,0.05700,0.11275,0,0,90.0*
21,1,0.03675,0.13300,0,0,90.0*
1,1,0.02025,0.05638,0.01838*
1,1,0.02025,0.05638,-0.01838*
1,1,0.02025,-0.05638,-0.01838*
1,1,0.02025,-0.05638,0.01838*
%
%ADD35ROUNDEDRECTD35*%
G04:AMPARAMS|DCode=36|XSize=158mil|YSize=127mil|CornerRadius=9.95mil|HoleSize=0mil|Usage=FLASHONLY|Rotation=0.000|XOffset=0mil|YOffset=0mil|HoleType=Round|Shape=RoundedRectangle|*
%AMROUNDEDRECTD36*
21,1,0.15800,0.10710,0,0,0.0*
21,1,0.13810,0.12700,0,0,0.0*
1,1,0.01990,0.06905,-0.05355*
1,1,0.01990,-0.06905,-0.05355*
1,1,0.01990,-0.06905,0.05355*
1,1,0.01990,0.06905,0.05355*
%
%ADD36ROUNDEDRECTD36*%
G04:AMPARAMS|DCode=37|XSize=158mil|YSize=127mil|CornerRadius=9.95mil|HoleSize=0mil|Usage=FLASHONLY|Rotation=90.000|XOffset=0mil|YOffset=0mil|HoleType=Round|Shape=RoundedRectangle|*
%AMROUNDEDRECTD37*
21,1,0.15800,0.10710,0,0,90.0*
21,1,0.13810,0.12700,0,0,90.0*
1,1,0.01990,0.05355,0.06905*
1,1,0.01990,0.05355,-0.06905*
1,1,0.01990,-0.05355,-0.06905*
1,1,0.01990,-0.05355,0.06905*
%
%ADD37ROUNDEDRECTD37*%
G04:AMPARAMS|DCode=38|XSize=39.5mil|YSize=34mil|CornerRadius=5.3mil|HoleSize=0mil|Usage=FLASHONLY|Rotation=0.000|XOffset=0mil|YOffset=0mil|HoleType=Round|Shape=RoundedRectangle|*
%AMROUNDEDRECTD38*
21,1,0.03950,0.02340,0,0,0.0*
21,1,0.02890,0.03400,0,0,0.0*
1,1,0.01060,0.01445,-0.01170*
1,1,0.01060,-0.01445,-0.01170*
1,1,0.01060,-0.01445,0.01170*
1,1,0.01060,0.01445,0.01170*
%
%ADD38ROUNDEDRECTD38*%
G04:AMPARAMS|DCode=39|XSize=51mil|YSize=106mil|CornerRadius=6.15mil|HoleSize=0mil|Usage=FLASHONLY|Rotation=270.000|XOffset=0mil|YOffset=0mil|HoleType=Round|Shape=RoundedRectangle|*
%AMROUNDEDRECTD39*
21,1,0.05100,0.09370,0,0,270.0*
21,1,0.03870,0.10600,0,0,270.0*
1,1,0.01230,-0.04685,-0.01935*
1,1,0.01230,-0.04685,0.01935*
1,1,0.01230,0.04685,0.01935*
1,1,0.01230,0.04685,-0.01935*
%
%ADD39ROUNDEDRECTD39*%
G04:AMPARAMS|DCode=40|XSize=47mil|YSize=65mil|CornerRadius=5.95mil|HoleSize=0mil|Usage=FLASHONLY|Rotation=270.000|XOffset=0mil|YOffset=0mil|HoleType=Round|Shape=RoundedRectangle|*
%AMROUNDEDRECTD40*
21,1,0.04700,0.05310,0,0,270.0*
21,1,0.03510,0.06500,0,0,270.0*
1,1,0.01190,-0.02655,-0.01755*
1,1,0.01190,-0.02655,0.01755*
1,1,0.01190,0.02655,0.01755*
1,1,0.01190,0.02655,-0.01755*
%
%ADD40ROUNDEDRECTD40*%
G04:AMPARAMS|DCode=41|XSize=71mil|YSize=110mil|CornerRadius=11.88mil|HoleSize=0mil|Usage=FLASHONLY|Rotation=270.000|XOffset=0mil|YOffset=0mil|HoleType=Round|Shape=RoundedRectangle|*
%AMROUNDEDRECTD41*
21,1,0.07100,0.08625,0,0,270.0*
21,1,0.04725,0.11000,0,0,270.0*
1,1,0.02375,-0.04313,-0.02362*
1,1,0.02375,-0.04313,0.02362*
1,1,0.02375,0.04313,0.02362*
1,1,0.02375,0.04313,-0.02362*
%
%ADD41ROUNDEDRECTD41*%
%ADD42C,0.08800*%
G04:AMPARAMS|DCode=43|XSize=349mil|YSize=571mil|CornerRadius=21.05mil|HoleSize=0mil|Usage=FLASHONLY|Rotation=270.000|XOffset=0mil|YOffset=0mil|HoleType=Round|Shape=RoundedRectangle|*
%AMROUNDEDRECTD43*
21,1,0.34900,0.52890,0,0,270.0*
21,1,0.30690,0.57100,0,0,270.0*
1,1,0.04210,-0.26445,-0.15345*
1,1,0.04210,-0.26445,0.15345*
1,1,0.04210,0.26445,0.15345*
1,1,0.04210,0.26445,-0.15345*
%
%ADD43ROUNDEDRECTD43*%
%ADD44C,0.05740*%
%ADD45R,0.69550X0.69550*%
%ADD46C,0.06800*%
%ADD47C,0.13400*%
%ADD48C,0.09500*%
D30*
X175100Y76300D02*
D03*
Y82600D02*
D03*
X109000Y85200D02*
D03*
Y78900D02*
D03*
X115000Y85200D02*
D03*
Y78900D02*
D03*
X90200Y60000D02*
D03*
Y53700D02*
D03*
X191000Y51700D02*
D03*
Y58000D02*
D03*
Y63700D02*
D03*
Y70000D02*
D03*
X90200Y48000D02*
D03*
Y41700D02*
D03*
X191000Y75700D02*
D03*
Y82000D02*
D03*
X90200Y36000D02*
D03*
Y29700D02*
D03*
X96200Y64600D02*
D03*
Y58300D02*
D03*
X169100Y82600D02*
D03*
Y76300D02*
D03*
D31*
X222000Y82500D02*
D03*
Y74500D02*
D03*
Y58600D02*
D03*
Y66600D02*
D03*
X224900Y5900D02*
D03*
Y13300D02*
D03*
X225000Y20700D02*
D03*
D32*
X122800Y41350D02*
D03*
X127800D02*
D03*
X132800D02*
D03*
X137800D02*
D03*
X132800Y62650D02*
D03*
X127800D02*
D03*
X122800D02*
D03*
X137800D02*
D03*
D33*
X97720Y41900D02*
D03*
X101460D02*
D03*
X105200D02*
D03*
Y52500D02*
D03*
X97720D02*
D03*
D34*
X219000Y35000D02*
D03*
X225300D02*
D03*
X219000Y42500D02*
D03*
X225300D02*
D03*
X151300Y78600D02*
D03*
X145000D02*
D03*
X151400Y84600D02*
D03*
X145100D02*
D03*
X96000Y29900D02*
D03*
X102300D02*
D03*
X68300Y71700D02*
D03*
X62000D02*
D03*
X7400Y71300D02*
D03*
X13700D02*
D03*
X219000Y50000D02*
D03*
X225300D02*
D03*
X130400Y34500D02*
D03*
X124100D02*
D03*
X96000Y35800D02*
D03*
X102300D02*
D03*
X132100Y23900D02*
D03*
X138400D02*
D03*
D35*
X105600Y140700D02*
D03*
Y165900D02*
D03*
X125100D02*
D03*
Y140700D02*
D03*
D36*
X145900Y168100D02*
D03*
Y141100D02*
D03*
X84700Y168100D02*
D03*
Y141100D02*
D03*
D37*
X122700Y187600D02*
D03*
X149700D02*
D03*
X107900D02*
D03*
X80900D02*
D03*
D38*
X90100Y16250D02*
D03*
Y24100D02*
D03*
X102100D02*
D03*
Y16250D02*
D03*
X90100Y3200D02*
D03*
Y11050D02*
D03*
X102100D02*
D03*
Y3200D02*
D03*
D39*
X123800Y133600D02*
D03*
Y121400D02*
D03*
X106900D02*
D03*
Y133600D02*
D03*
D40*
X137800Y68100D02*
D03*
Y75600D02*
D03*
D41*
X135700Y10200D02*
D03*
X121500D02*
D03*
D42*
X136800Y99200D02*
D03*
X149300Y109200D02*
D03*
X136800Y119200D02*
D03*
X93900D02*
D03*
X81400Y109200D02*
D03*
X93900Y99200D02*
D03*
D43*
X200200Y109200D02*
D03*
X30500D02*
D03*
D44*
X171100Y24900D02*
D03*
Y34900D02*
D03*
Y44900D02*
D03*
Y54900D02*
D03*
D45*
X194800Y165200D02*
D03*
X35800D02*
D03*
D46*
X51600Y23900D02*
D03*
X47575Y30900D02*
D03*
X43575Y23900D02*
D03*
X39525Y30900D02*
D03*
X35550Y23900D02*
D03*
X31525Y30900D02*
D03*
X27525Y23900D02*
D03*
X23500Y30900D02*
D03*
X64600Y49900D02*
D03*
X55600D02*
D03*
X19600D02*
D03*
X10600D02*
D03*
D47*
X12600Y13900D02*
D03*
X62600D02*
D03*
D48*
X5600Y27400D02*
D03*
X69600D02*
D03*
M02*
