G04*
G04 #@! TF.GenerationSoftware,Altium Limited,Altium Designer,23.5.1 (21)*
G04*
G04 Layer_Color=16711935*
%FSLAX44Y44*%
%MOMM*%
G71*
G04*
G04 #@! TF.SameCoordinates,4C835EFE-E1B3-4BCD-AC60-ED55561C1739*
G04*
G04*
G04 #@! TF.FilePolarity,Negative*
G04*
G01*
G75*
%ADD40C,1.4580*%
G04:AMPARAMS|DCode=41|XSize=8.8646mm|YSize=14.5034mm|CornerRadius=0.5347mm|HoleSize=0mm|Usage=FLASHONLY|Rotation=270.000|XOffset=0mm|YOffset=0mm|HoleType=Round|Shape=RoundedRectangle|*
%AMROUNDEDRECTD41*
21,1,8.8646,13.4341,0,0,270.0*
21,1,7.7953,14.5034,0,0,270.0*
1,1,1.0693,-6.7170,-3.8976*
1,1,1.0693,-6.7170,3.8976*
1,1,1.0693,6.7170,3.8976*
1,1,1.0693,6.7170,-3.8976*
%
%ADD41ROUNDEDRECTD41*%
%ADD42C,2.2352*%
%ADD43R,17.6657X17.6657*%
%ADD44C,1.7272*%
%ADD45C,3.4036*%
%ADD46C,2.4130*%
%ADD59C,0.8382*%
%ADD60C,1.4732*%
%ADD61C,0.8032*%
D40*
X434594Y139446D02*
D03*
Y114046D02*
D03*
Y88646D02*
D03*
Y63246D02*
D03*
D41*
X508762Y277876D02*
D03*
X76454Y277114D02*
D03*
D42*
X347726Y303276D02*
D03*
X379476Y277876D02*
D03*
X347726Y252476D02*
D03*
X237490Y251714D02*
D03*
X205740Y277114D02*
D03*
X237490Y302514D02*
D03*
D43*
X494792Y419608D02*
D03*
X90932D02*
D03*
D44*
X131064Y60706D02*
D03*
X120841Y78486D02*
D03*
X110681Y60706D02*
D03*
X100393Y78486D02*
D03*
X90297Y60706D02*
D03*
X80073Y78486D02*
D03*
X69914Y60706D02*
D03*
X59690Y78486D02*
D03*
X164084Y126746D02*
D03*
X141224D02*
D03*
X49784D02*
D03*
X26924D02*
D03*
D45*
X32004Y35306D02*
D03*
X159004D02*
D03*
D46*
X14224Y69596D02*
D03*
X176784D02*
D03*
D59*
X292608Y476758D02*
D03*
X252085Y159603D02*
D03*
X256794Y118618D02*
D03*
X148336Y181864D02*
D03*
X46990Y180340D02*
D03*
X304800Y12446D02*
D03*
X322580Y60706D02*
D03*
X326136Y78994D02*
D03*
X475385Y154334D02*
D03*
X497586Y203200D02*
D03*
X473710Y184404D02*
D03*
X558038Y158496D02*
D03*
X423926Y185674D02*
D03*
X358729Y192043D02*
D03*
X303530Y171196D02*
D03*
X520446Y13970D02*
D03*
X359918Y95250D02*
D03*
D60*
X293116Y308610D02*
D03*
D61*
X324358Y186436D02*
D03*
X307594Y190246D02*
D03*
M02*
