G04*
G04 #@! TF.GenerationSoftware,Altium Limited,Altium Designer,23.5.1 (21)*
G04*
G04 Layer_Physical_Order=1*
G04 Layer_Color=255*
%FSLAX44Y44*%
%MOMM*%
G71*
G04*
G04 #@! TF.SameCoordinates,4C835EFE-E1B3-4BCD-AC60-ED55561C1739*
G04*
G04*
G04 #@! TF.FilePolarity,Positive*
G04*
G01*
G75*
%ADD11C,0.1524*%
G04:AMPARAMS|DCode=18|XSize=1.8034mm|YSize=0.9906mm|CornerRadius=0.1238mm|HoleSize=0mm|Usage=FLASHONLY|Rotation=0.000|XOffset=0mm|YOffset=0mm|HoleType=Round|Shape=RoundedRectangle|*
%AMROUNDEDRECTD18*
21,1,1.8034,0.7430,0,0,0.0*
21,1,1.5558,0.9906,0,0,0.0*
1,1,0.2477,0.7779,-0.3715*
1,1,0.2477,-0.7779,-0.3715*
1,1,0.2477,-0.7779,0.3715*
1,1,0.2477,0.7779,0.3715*
%
%ADD18ROUNDEDRECTD18*%
G04:AMPARAMS|DCode=19|XSize=1.5494mm|YSize=0.6096mm|CornerRadius=0.0305mm|HoleSize=0mm|Usage=FLASHONLY|Rotation=90.000|XOffset=0mm|YOffset=0mm|HoleType=Round|Shape=RoundedRectangle|*
%AMROUNDEDRECTD19*
21,1,1.5494,0.5486,0,0,90.0*
21,1,1.4884,0.6096,0,0,90.0*
1,1,0.0610,0.2743,0.7442*
1,1,0.0610,0.2743,-0.7442*
1,1,0.0610,-0.2743,-0.7442*
1,1,0.0610,-0.2743,0.7442*
%
%ADD19ROUNDEDRECTD19*%
G04:AMPARAMS|DCode=20|XSize=0.6096mm|YSize=1.0414mm|CornerRadius=0.0305mm|HoleSize=0mm|Usage=FLASHONLY|Rotation=0.000|XOffset=0mm|YOffset=0mm|HoleType=Round|Shape=RoundedRectangle|*
%AMROUNDEDRECTD20*
21,1,0.6096,0.9804,0,0,0.0*
21,1,0.5486,1.0414,0,0,0.0*
1,1,0.0610,0.2743,-0.4902*
1,1,0.0610,-0.2743,-0.4902*
1,1,0.0610,-0.2743,0.4902*
1,1,0.0610,0.2743,0.4902*
%
%ADD20ROUNDEDRECTD20*%
G04:AMPARAMS|DCode=21|XSize=0.9398mm|YSize=0.9906mm|CornerRadius=0.047mm|HoleSize=0mm|Usage=FLASHONLY|Rotation=0.000|XOffset=0mm|YOffset=0mm|HoleType=Round|Shape=RoundedRectangle|*
%AMROUNDEDRECTD21*
21,1,0.9398,0.8966,0,0,0.0*
21,1,0.8458,0.9906,0,0,0.0*
1,1,0.0940,0.4229,-0.4483*
1,1,0.0940,-0.4229,-0.4483*
1,1,0.0940,-0.4229,0.4483*
1,1,0.0940,0.4229,0.4483*
%
%ADD21ROUNDEDRECTD21*%
G04:AMPARAMS|DCode=22|XSize=0.9398mm|YSize=0.9906mm|CornerRadius=0.047mm|HoleSize=0mm|Usage=FLASHONLY|Rotation=90.000|XOffset=0mm|YOffset=0mm|HoleType=Round|Shape=RoundedRectangle|*
%AMROUNDEDRECTD22*
21,1,0.9398,0.8966,0,0,90.0*
21,1,0.8458,0.9906,0,0,90.0*
1,1,0.0940,0.4483,0.4229*
1,1,0.0940,0.4483,-0.4229*
1,1,0.0940,-0.4483,-0.4229*
1,1,0.0940,-0.4483,0.4229*
%
%ADD22ROUNDEDRECTD22*%
G04:AMPARAMS|DCode=23|XSize=1.2446mm|YSize=3.175mm|CornerRadius=0.1556mm|HoleSize=0mm|Usage=FLASHONLY|Rotation=90.000|XOffset=0mm|YOffset=0mm|HoleType=Round|Shape=RoundedRectangle|*
%AMROUNDEDRECTD23*
21,1,1.2446,2.8639,0,0,90.0*
21,1,0.9335,3.1750,0,0,90.0*
1,1,0.3112,1.4319,0.4667*
1,1,0.3112,1.4319,-0.4667*
1,1,0.3112,-1.4319,-0.4667*
1,1,0.3112,-1.4319,0.4667*
%
%ADD23ROUNDEDRECTD23*%
G04:AMPARAMS|DCode=24|XSize=3.81mm|YSize=3.0226mm|CornerRadius=0.1511mm|HoleSize=0mm|Usage=FLASHONLY|Rotation=0.000|XOffset=0mm|YOffset=0mm|HoleType=Round|Shape=RoundedRectangle|*
%AMROUNDEDRECTD24*
21,1,3.8100,2.7203,0,0,0.0*
21,1,3.5077,3.0226,0,0,0.0*
1,1,0.3023,1.7539,-1.3602*
1,1,0.3023,-1.7539,-1.3602*
1,1,0.3023,-1.7539,1.3602*
1,1,0.3023,1.7539,1.3602*
%
%ADD24ROUNDEDRECTD24*%
G04:AMPARAMS|DCode=25|XSize=3.81mm|YSize=3.0226mm|CornerRadius=0.1511mm|HoleSize=0mm|Usage=FLASHONLY|Rotation=90.000|XOffset=0mm|YOffset=0mm|HoleType=Round|Shape=RoundedRectangle|*
%AMROUNDEDRECTD25*
21,1,3.8100,2.7203,0,0,90.0*
21,1,3.5077,3.0226,0,0,90.0*
1,1,0.3023,1.3602,1.7539*
1,1,0.3023,1.3602,-1.7539*
1,1,0.3023,-1.3602,-1.7539*
1,1,0.3023,-1.3602,1.7539*
%
%ADD25ROUNDEDRECTD25*%
G04:AMPARAMS|DCode=26|XSize=0.7112mm|YSize=0.6096mm|CornerRadius=0.0305mm|HoleSize=0mm|Usage=FLASHONLY|Rotation=0.000|XOffset=0mm|YOffset=0mm|HoleType=Round|Shape=RoundedRectangle|*
%AMROUNDEDRECTD26*
21,1,0.7112,0.5486,0,0,0.0*
21,1,0.6502,0.6096,0,0,0.0*
1,1,0.0610,0.3251,-0.2743*
1,1,0.0610,-0.3251,-0.2743*
1,1,0.0610,-0.3251,0.2743*
1,1,0.0610,0.3251,0.2743*
%
%ADD26ROUNDEDRECTD26*%
G04:AMPARAMS|DCode=27|XSize=0.8992mm|YSize=1.6002mm|CornerRadius=0.045mm|HoleSize=0mm|Usage=FLASHONLY|Rotation=270.000|XOffset=0mm|YOffset=0mm|HoleType=Round|Shape=RoundedRectangle|*
%AMROUNDEDRECTD27*
21,1,0.8992,1.5103,0,0,270.0*
21,1,0.8092,1.6002,0,0,270.0*
1,1,0.0899,-0.7551,-0.4046*
1,1,0.0899,-0.7551,0.4046*
1,1,0.0899,0.7551,0.4046*
1,1,0.0899,0.7551,-0.4046*
%
%ADD27ROUNDEDRECTD27*%
G04:AMPARAMS|DCode=28|XSize=1.6002mm|YSize=2.5908mm|CornerRadius=0.2mm|HoleSize=0mm|Usage=FLASHONLY|Rotation=90.000|XOffset=0mm|YOffset=0mm|HoleType=Round|Shape=RoundedRectangle|*
%AMROUNDEDRECTD28*
21,1,1.6002,2.1908,0,0,90.0*
21,1,1.2002,2.5908,0,0,90.0*
1,1,0.4001,1.0954,0.6001*
1,1,0.4001,1.0954,-0.6001*
1,1,0.4001,-1.0954,-0.6001*
1,1,0.4001,-1.0954,0.6001*
%
%ADD28ROUNDEDRECTD28*%
%ADD47C,0.5080*%
%ADD48C,1.2700*%
%ADD49C,1.2548*%
G04:AMPARAMS|DCode=50|XSize=8.6614mm|YSize=14.3002mm|CornerRadius=0.4331mm|HoleSize=0mm|Usage=FLASHONLY|Rotation=270.000|XOffset=0mm|YOffset=0mm|HoleType=Round|Shape=RoundedRectangle|*
%AMROUNDEDRECTD50*
21,1,8.6614,13.4341,0,0,270.0*
21,1,7.7953,14.3002,0,0,270.0*
1,1,0.8661,-6.7170,-3.8976*
1,1,0.8661,-6.7170,3.8976*
1,1,0.8661,6.7170,3.8976*
1,1,0.8661,6.7170,-3.8976*
%
%ADD50ROUNDEDRECTD50*%
%ADD51C,2.0320*%
%ADD52C,0.6350*%
%ADD53R,17.4625X17.4625*%
%ADD54C,1.5240*%
%ADD55C,3.2004*%
%ADD56C,2.2098*%
%ADD57C,1.2700*%
%ADD58C,0.6000*%
G36*
X178054Y330454D02*
X178054Y329804D01*
X177800Y328528D01*
X177302Y327326D01*
X176580Y326244D01*
X175660Y325324D01*
X174578Y324602D01*
X173376Y324104D01*
X172100Y323850D01*
X171450Y323850D01*
X156464D01*
X155642Y323810D01*
X154031Y323489D01*
X152513Y322860D01*
X151146Y321947D01*
X149985Y320785D01*
X149072Y319419D01*
X148443Y317901D01*
X148122Y316290D01*
X148082Y315468D01*
X148082Y242062D01*
X148082Y241362D01*
X147809Y239988D01*
X147273Y238693D01*
X146494Y237528D01*
X145504Y236538D01*
X144339Y235759D01*
X143045Y235223D01*
X141671Y234950D01*
X140970Y234950D01*
X8083D01*
X6122Y235762D01*
X4622Y237262D01*
X3810Y239223D01*
Y240284D01*
X2798Y454268D01*
X3694Y455168D01*
X178054D01*
X178054Y330454D01*
D02*
G37*
G36*
X328504Y316253D02*
X329875Y315902D01*
X331151Y315290D01*
X332283Y314441D01*
X333228Y313387D01*
X333949Y312169D01*
X334257Y311292D01*
X334518Y310134D01*
X334518Y310134D01*
X334518D01*
X334518Y310134D01*
X334518Y277876D01*
X334585Y276507D01*
X335119Y273821D01*
X336167Y271290D01*
X337689Y269013D01*
X339625Y267077D01*
X341903Y265555D01*
X344433Y264507D01*
X347119Y263973D01*
X348488Y263906D01*
X349514D01*
X351526Y263506D01*
X353421Y262721D01*
X355126Y261581D01*
X356577Y260131D01*
X357717Y258425D01*
X358502Y256530D01*
X358902Y254518D01*
Y253492D01*
X358902Y251714D01*
X358902Y250563D01*
X358453Y248306D01*
X357572Y246179D01*
X356294Y244265D01*
X354666Y242638D01*
X352752Y241359D01*
X350626Y240479D01*
X348461Y240048D01*
X347218Y240030D01*
X347217Y240030D01*
X347217Y240030D01*
X276098D01*
X273596Y240030D01*
X268689Y241006D01*
X264067Y242920D01*
X259907Y245700D01*
X256369Y249238D01*
X253589Y253398D01*
X251674Y258020D01*
X250698Y262928D01*
X250698Y265429D01*
X250698Y265430D01*
Y277114D01*
X250632Y278458D01*
X250107Y281096D01*
X249078Y283580D01*
X247585Y285815D01*
X245683Y287717D01*
X243448Y289210D01*
X240963Y290239D01*
X238326Y290764D01*
X236982Y290830D01*
X235856Y290830D01*
X233648Y291269D01*
X231568Y292131D01*
X229696Y293381D01*
X228104Y294973D01*
X226853Y296845D01*
X225991Y298925D01*
X225552Y301133D01*
X225552Y302259D01*
X225552Y302260D01*
Y308902D01*
X225864Y310473D01*
X226477Y311952D01*
X227367Y313283D01*
X228499Y314415D01*
X229830Y315305D01*
X231309Y315918D01*
X232879Y316230D01*
X233680Y316230D01*
X233680Y316230D01*
X326390Y316230D01*
X327090Y316330D01*
X328504Y316253D01*
D02*
G37*
G36*
X582770Y455128D02*
X581758Y241144D01*
Y240083D01*
X580946Y238122D01*
X579445Y236622D01*
X577485Y235810D01*
X444598D01*
X443897Y235810D01*
X442523Y236083D01*
X441229Y236619D01*
X440064Y237397D01*
X439073Y238388D01*
X438295Y239553D01*
X437759Y240847D01*
X437486Y242221D01*
X437486Y242922D01*
X437486Y316328D01*
X437445Y317149D01*
X437125Y318761D01*
X436496Y320279D01*
X435583Y321645D01*
X434421Y322807D01*
X433055Y323720D01*
X431537Y324349D01*
X429925Y324669D01*
X429104Y324710D01*
X414118D01*
X413467Y324710D01*
X412191Y324963D01*
X410990Y325461D01*
X409908Y326184D01*
X408988Y327104D01*
X408265Y328186D01*
X407767Y329387D01*
X407514Y330663D01*
X407514Y331314D01*
X407514Y456028D01*
X581874D01*
X582770Y455128D01*
D02*
G37*
D11*
X282555Y24336D02*
Y28352D01*
X264259Y14478D02*
X272697D01*
X274066Y34445D02*
Y37652D01*
X319786Y20269D02*
X325196Y14859D01*
X380873D01*
X314376Y34925D02*
X319786Y29515D01*
Y20269D02*
Y29515D01*
X282555Y28352D02*
X289128Y34925D01*
X272697Y14478D02*
X282555Y24336D01*
X289128Y34925D02*
X314376D01*
X262890Y15847D02*
Y23269D01*
X274066Y34445D01*
X262890Y15847D02*
X264259Y14478D01*
X274066Y37652D02*
X317313Y80899D01*
X227838Y129540D02*
Y144018D01*
X240641Y129540D02*
X242038Y128143D01*
X250650D01*
X227838Y129540D02*
X240641D01*
X250650Y128143D02*
X257889Y135382D01*
X265938D01*
Y119576D02*
Y135382D01*
X317313Y80899D02*
Y95876D01*
X265938Y119576D02*
X304615Y80899D01*
X317313D01*
X224058Y163799D02*
X227838Y160020D01*
X204051Y163799D02*
X224058D01*
X250444Y93472D02*
Y102794D01*
X235712Y93472D02*
X250190D01*
X235712D02*
Y105918D01*
X228092Y113538D02*
X235712Y105918D01*
X227838Y113538D02*
X228092D01*
X246939Y106299D02*
X250444Y102794D01*
X246939Y106299D02*
Y108458D01*
X265938Y93726D02*
Y108458D01*
Y93726D02*
X266446Y93218D01*
X178747Y189103D02*
X204051Y163799D01*
X12065Y141605D02*
X26924Y126746D01*
X12065Y186621D02*
X14547Y189103D01*
X12065Y141605D02*
Y186621D01*
X14547Y189103D02*
X178747D01*
X157226Y181864D02*
X157480Y182118D01*
X148336Y181864D02*
X157226D01*
X173482Y136144D02*
Y182118D01*
X164084Y126746D02*
X173482Y136144D01*
X18796Y180848D02*
Y181102D01*
Y180848D02*
X49784Y149860D01*
Y126746D02*
Y149860D01*
X34798Y181102D02*
X35560Y180340D01*
X46990D01*
X434594Y88646D02*
X477520Y45720D01*
X568190Y52578D02*
X571500D01*
X564036Y48423D02*
X568190Y52578D01*
X564036Y46613D02*
Y48423D01*
X563143Y45720D02*
X564036Y46613D01*
X477520Y45720D02*
X563143D01*
X562864Y42164D02*
X571246Y33782D01*
X380873Y14859D02*
X408178Y42164D01*
X562864D01*
X324612Y100330D02*
Y105029D01*
X317313Y95876D02*
X319481Y98044D01*
X322326D01*
X324612Y100330D01*
X478795Y153411D02*
X484886Y147320D01*
X476309Y153411D02*
X478795D01*
X475385Y154334D02*
X476309Y153411D01*
X434594Y114046D02*
X435610Y115062D01*
X463086Y132690D02*
Y151994D01*
X479621Y168529D02*
X496316D01*
X463086Y151994D02*
X479621Y168529D01*
X484886Y147320D02*
X485140D01*
X482397Y180543D02*
X485140Y177800D01*
X477571Y180543D02*
X482397D01*
X473710Y184404D02*
X477571Y180543D01*
X485140Y208280D02*
X492506D01*
X497586Y203200D01*
X551561Y145045D02*
X562991Y133615D01*
X551561Y161179D02*
X555355Y164973D01*
X551561Y145045D02*
Y161179D01*
X555367Y164973D02*
X559558Y169164D01*
X555355Y164973D02*
X555367D01*
X559558Y169164D02*
X563880D01*
X562193Y148844D02*
X563880D01*
X558038Y152999D02*
X562193Y148844D01*
X558038Y152999D02*
Y158496D01*
X562991Y121481D02*
Y133615D01*
X561525Y120015D02*
X562991Y121481D01*
X544830Y120015D02*
X561525D01*
X496316Y168529D02*
X544830Y120015D01*
X444441Y114046D02*
X463086Y132690D01*
X434594Y114046D02*
X444441D01*
X485140Y192278D02*
X485394D01*
X546951Y130721D01*
X552539D01*
X563880Y189230D02*
X566742D01*
X475303Y205867D02*
X479621Y201549D01*
X500438Y189230D02*
X563880D01*
X488119Y201549D02*
X500438Y189230D01*
X479621Y201549D02*
X488119D01*
X552539Y130721D02*
X556260Y127000D01*
X539242Y107950D02*
X556260D01*
X485394Y161798D02*
X539242Y107950D01*
X485140Y161798D02*
X485394D01*
X527812Y88900D02*
X556260D01*
X485394Y131318D02*
X527812Y88900D01*
X485140Y131318D02*
X485394D01*
X563880Y161925D02*
Y169164D01*
Y161925D02*
X567886Y157919D01*
X570923D01*
X574929Y153913D01*
Y129667D02*
Y153913D01*
X572262Y127000D02*
X574929Y129667D01*
X570897Y198332D02*
X581787Y187441D01*
X572262Y107950D02*
Y108204D01*
Y89154D02*
X581787Y98679D01*
X578993Y114935D02*
Y170169D01*
X570897Y178266D02*
Y185075D01*
Y178266D02*
X578993Y170169D01*
X581787Y98679D02*
Y187441D01*
X566742Y189230D02*
X570897Y185075D01*
X572262Y108204D02*
X578993Y114935D01*
X422656Y205867D02*
X475303D01*
X570897Y198332D02*
Y205395D01*
X572262Y88900D02*
Y89154D01*
X566742Y209550D02*
X570897Y205395D01*
X563880Y209550D02*
X566742D01*
X499618D02*
X563880D01*
X384556Y215138D02*
X494030D01*
X499618Y209550D01*
X297815Y221869D02*
X373819D01*
X292100Y216408D02*
X292354D01*
X373819Y221869D02*
X376428Y219260D01*
X292354Y216408D02*
X297815Y221869D01*
X376428Y195268D02*
X379037Y192659D01*
X376428Y195268D02*
Y219260D01*
X379037Y192659D02*
X409448D01*
X422656Y205867D01*
X141224Y126746D02*
X152146Y115824D01*
X178322D01*
X119317Y78486D02*
X120841D01*
X150910D01*
X238506Y41148D02*
X243586Y46228D01*
X215674Y83947D02*
X243586Y56035D01*
Y46228D02*
Y56035D01*
X237998Y41148D02*
X238506D01*
X156371Y83947D02*
X215674D01*
X150910Y78486D02*
X156371Y83947D01*
X131064Y60706D02*
X165379D01*
X129540D02*
X131064D01*
X165379D02*
X171779Y54305D01*
X236017D01*
X237998Y52324D01*
X567440Y14986D02*
X571246D01*
X563285Y10831D02*
X567440Y14986D01*
X563285Y7787D02*
Y10831D01*
X561086Y5588D02*
X563285Y7787D01*
X520446Y13970D02*
X528828Y5588D01*
X561086D01*
X571122Y14862D02*
X571246Y14986D01*
X178322Y115824D02*
X192038Y129540D01*
X227838D01*
X235458Y93472D02*
X235712D01*
X266446Y77978D02*
Y93218D01*
X250444Y77724D02*
Y77978D01*
X256314Y73787D02*
X274066Y56035D01*
Y46228D02*
Y56035D01*
X254381Y73787D02*
X256314D01*
X268986Y41148D02*
X274066Y46228D01*
X268478Y41148D02*
X268986D01*
X250444Y77724D02*
X254381Y73787D01*
X267970Y52324D02*
X268478D01*
X256222Y64071D02*
X267970Y52324D01*
X249364Y64071D02*
X256222D01*
X235966Y77470D02*
X249364Y64071D01*
X235712Y77470D02*
X235966D01*
D18*
X563880Y209550D02*
D03*
Y189230D02*
D03*
Y148844D02*
D03*
Y169164D02*
D03*
X571246Y14986D02*
D03*
Y33782D02*
D03*
X571500Y52578D02*
D03*
D19*
X350012Y159131D02*
D03*
X311912D02*
D03*
X324612D02*
D03*
X337312D02*
D03*
X350012Y105029D02*
D03*
X337312D02*
D03*
X324612D02*
D03*
X311912D02*
D03*
D20*
X246939Y135382D02*
D03*
X265938D02*
D03*
Y108458D02*
D03*
X256438D02*
D03*
X246939D02*
D03*
D21*
X572262Y88900D02*
D03*
X556260D02*
D03*
X572262Y107950D02*
D03*
X556260D02*
D03*
X368300Y199644D02*
D03*
X384302D02*
D03*
X368554Y214884D02*
D03*
X384556D02*
D03*
X250444Y77978D02*
D03*
X266446D02*
D03*
X157480Y182118D02*
D03*
X173482D02*
D03*
X34798Y181102D02*
D03*
X18796D02*
D03*
X572262Y127000D02*
D03*
X556260D02*
D03*
X325882Y87884D02*
D03*
X309880D02*
D03*
X431800Y198882D02*
D03*
X447802D02*
D03*
X266446Y93218D02*
D03*
X250444D02*
D03*
X331470Y60452D02*
D03*
X347472D02*
D03*
D22*
X276860Y200406D02*
D03*
Y216408D02*
D03*
X292100Y200406D02*
D03*
Y216408D02*
D03*
X227838Y144018D02*
D03*
Y160020D02*
D03*
X485140Y147320D02*
D03*
Y131318D02*
D03*
Y177800D02*
D03*
Y161798D02*
D03*
X227838Y113538D02*
D03*
Y129540D02*
D03*
X485140Y208280D02*
D03*
Y192278D02*
D03*
X235712Y77470D02*
D03*
Y93472D02*
D03*
X350012Y192024D02*
D03*
Y176022D02*
D03*
X244348Y166116D02*
D03*
Y150114D02*
D03*
D23*
X268224Y357378D02*
D03*
Y421386D02*
D03*
X317754D02*
D03*
Y357378D02*
D03*
D24*
X370586Y426974D02*
D03*
Y358394D02*
D03*
X215138Y426974D02*
D03*
Y358394D02*
D03*
D25*
X311658Y476504D02*
D03*
X380238D02*
D03*
X274066D02*
D03*
X205486D02*
D03*
D26*
X237998Y52324D02*
D03*
X268478D02*
D03*
Y41148D02*
D03*
X237998D02*
D03*
Y19558D02*
D03*
X268478D02*
D03*
Y8382D02*
D03*
X237998D02*
D03*
D27*
X310134Y309626D02*
D03*
Y340614D02*
D03*
X275844D02*
D03*
Y309626D02*
D03*
D28*
X301752Y24892D02*
D03*
X337820D02*
D03*
D47*
X277983Y28555D02*
Y30246D01*
X268478Y19558D02*
X268986D01*
X277983Y28555D01*
Y30246D02*
X287234Y39497D01*
X318262D01*
X332867Y24892D01*
X337820D01*
X177990Y8382D02*
X237998D01*
X177482Y7874D02*
X177990Y8382D01*
X104785Y7874D02*
X177482D01*
X68390Y60706D02*
X69914D01*
X116396Y14224D01*
X174852D01*
X180186Y19558D01*
X237998D01*
X269243Y145542D02*
X304549Y110236D01*
X261583Y145542D02*
X269243D01*
X304549Y110236D02*
X311404D01*
X253836Y137795D02*
X261583Y145542D01*
X311912Y105029D02*
Y109728D01*
X311404Y110236D02*
X311912Y109728D01*
X311404Y89408D02*
Y105029D01*
X246939Y137541D02*
X247193Y137795D01*
X253836D01*
X244602Y166116D02*
X250872Y159846D01*
X251842D01*
X252085Y159603D01*
X244348Y166116D02*
X244602D01*
X242570Y150368D02*
X243078D01*
X235077Y157861D02*
X242570Y150368D01*
X230251Y157861D02*
X235077D01*
X229522Y158590D02*
X230251Y157861D01*
X229522Y158590D02*
Y159385D01*
X246939Y137541D02*
Y146507D01*
X243078Y150368D02*
X246939Y146507D01*
X256616Y108636D02*
Y118440D01*
X256794Y118618D01*
X256438Y108458D02*
X256616Y108636D01*
X301752Y24892D02*
X304800Y21844D01*
Y12446D02*
Y21844D01*
X331343Y60579D02*
X331470Y60452D01*
X322707Y60579D02*
X331343D01*
X322580Y60706D02*
X322707Y60579D01*
X326009Y79121D02*
Y87757D01*
Y79121D02*
X326136Y78994D01*
X325882Y87884D02*
X326009Y87757D01*
X337820Y24892D02*
Y50546D01*
X347472Y60198D01*
Y60452D01*
X349885Y62865D02*
X374142Y87122D01*
X388366D02*
X428498D01*
X374142D02*
X388366D01*
X325882Y87884D02*
Y88138D01*
X267716Y8382D02*
X280289D01*
X296799Y24892D01*
X301752D01*
X424169Y185917D02*
Y190997D01*
X431800Y198628D01*
Y198882D01*
X423926Y185674D02*
X424169Y185917D01*
X350012Y192024D02*
X350022Y192034D01*
X358719D01*
X358729Y192043D01*
X316278Y182832D02*
Y189783D01*
X324612Y163830D02*
Y174498D01*
X324358Y186436D02*
X337312Y173482D01*
X316278Y182832D02*
X324612Y174498D01*
X343756Y200533D02*
X367411D01*
X337312Y173482D02*
Y194089D01*
X343756Y200533D01*
X316278Y189783D02*
X341379Y214884D01*
X384556Y215138D02*
Y239851D01*
X409956Y265251D02*
Y290501D01*
X347726Y303276D02*
X351850D01*
X356930Y308356D01*
X392101D02*
X409956Y290501D01*
X384556Y239851D02*
X409956Y265251D01*
X356930Y308356D02*
X392101D01*
X237490Y252476D02*
X237871Y252095D01*
X276606Y216408D02*
X276860D01*
X260362Y232652D02*
X276606Y216408D01*
X256552Y232652D02*
X260362D01*
X237490Y251714D02*
X256552Y232652D01*
X57214Y55445D02*
X104785Y7874D01*
X57214Y55445D02*
Y65967D01*
X57746Y66499D02*
Y76542D01*
X59690Y78486D01*
X57214Y65967D02*
X57746Y66499D01*
X337312Y159131D02*
Y173482D01*
X367411Y200533D02*
X368300Y199644D01*
X341379Y214884D02*
X368554D01*
X311912Y159131D02*
Y163830D01*
X304789Y170953D02*
X311912Y163830D01*
X303773Y170953D02*
X304789D01*
X303530Y171196D02*
X303773Y170953D01*
X350012Y100330D02*
Y105029D01*
Y100330D02*
X354849Y95493D01*
X359675D01*
X359918Y95250D01*
X337312Y105029D02*
X350012D01*
X325882Y88138D02*
X336804Y99060D01*
Y104521D01*
X337312Y105029D01*
X309880Y87884D02*
X311404Y89408D01*
X276860Y216408D02*
X292100D01*
Y200406D02*
X292354D01*
X302338Y190422D01*
X307418D01*
X307594Y190246D01*
X307150Y181292D02*
X324612Y163830D01*
Y159131D02*
Y163830D01*
X296227Y181292D02*
X307150D01*
X277114Y200406D02*
X296227Y181292D01*
X276860Y200406D02*
X277114D01*
X439420Y118364D02*
X447802Y126746D01*
Y198882D01*
X434594Y139446D02*
Y141467D01*
X384302Y199644D02*
X384429Y199771D01*
Y214757D01*
X350012Y159131D02*
Y176022D01*
X311912Y109728D02*
X318770Y116586D01*
X358902D01*
X388366Y87122D01*
X390271Y159131D02*
X430530Y118872D01*
X350012Y159131D02*
X390271D01*
D48*
X274066Y476504D02*
X311658D01*
X384556Y437769D02*
Y476504D01*
X437896D01*
X494792Y419608D01*
X201168Y437769D02*
Y476504D01*
X147828D02*
X201168D01*
X90932Y419608D02*
X147828Y476504D01*
X277495Y308610D02*
X308483D01*
X311912Y357378D02*
X317754D01*
X311785Y357251D02*
X311912Y357378D01*
X311785Y342265D02*
Y357251D01*
X310134Y340614D02*
X311785Y342265D01*
X268224Y357378D02*
X274066D01*
X274193Y357251D01*
Y342265D02*
Y357251D01*
Y342265D02*
X275844Y340614D01*
X328930Y359156D02*
X370586D01*
X327152Y357378D02*
X328930Y359156D01*
X317754Y357378D02*
X327152D01*
X215138Y359156D02*
X257048D01*
X258826Y357378D01*
X268224D01*
X364363Y421513D02*
X370586Y427736D01*
X317881Y421513D02*
X364363D01*
X317754Y421386D02*
X317881Y421513D01*
X215138Y427736D02*
X221361Y421513D01*
X268097D01*
X268224Y421386D01*
X374523Y427736D02*
X384556Y437769D01*
X370586Y427736D02*
X374523D01*
X201168Y437769D02*
X211201Y427736D01*
X215138D01*
D49*
X434594Y139446D02*
D03*
Y114046D02*
D03*
Y88646D02*
D03*
Y63246D02*
D03*
D50*
X508762Y277876D02*
D03*
X76454Y277114D02*
D03*
D51*
X347726Y303276D02*
D03*
X379476Y277876D02*
D03*
X347726Y252476D02*
D03*
X237490Y251714D02*
D03*
X205740Y277114D02*
D03*
X237490Y302514D02*
D03*
D52*
X574294Y314960D02*
D03*
Y303530D02*
D03*
Y292100D02*
D03*
Y280670D02*
D03*
Y269240D02*
D03*
Y257810D02*
D03*
Y246380D02*
D03*
X565404Y308610D02*
D03*
Y297180D02*
D03*
Y262890D02*
D03*
Y251460D02*
D03*
Y240030D02*
D03*
X556514Y314960D02*
D03*
Y303530D02*
D03*
Y246380D02*
D03*
X546354Y308610D02*
D03*
Y251460D02*
D03*
Y240030D02*
D03*
X536194Y313690D02*
D03*
Y302260D02*
D03*
Y245110D02*
D03*
X524764Y307340D02*
D03*
Y295910D02*
D03*
Y261620D02*
D03*
Y250190D02*
D03*
Y238760D02*
D03*
X513334Y313690D02*
D03*
Y302260D02*
D03*
Y290830D02*
D03*
Y279400D02*
D03*
Y267970D02*
D03*
Y256540D02*
D03*
Y245110D02*
D03*
X501904Y307340D02*
D03*
Y295910D02*
D03*
Y284480D02*
D03*
Y273050D02*
D03*
Y261620D02*
D03*
Y250190D02*
D03*
Y238760D02*
D03*
X490474Y313690D02*
D03*
Y302260D02*
D03*
Y290830D02*
D03*
Y279400D02*
D03*
Y267970D02*
D03*
Y256540D02*
D03*
Y245110D02*
D03*
X479044Y307340D02*
D03*
Y295910D02*
D03*
Y284480D02*
D03*
Y273050D02*
D03*
Y261620D02*
D03*
Y250190D02*
D03*
Y238760D02*
D03*
X467614Y313690D02*
D03*
Y302260D02*
D03*
Y290830D02*
D03*
Y279400D02*
D03*
Y267970D02*
D03*
Y256540D02*
D03*
Y245110D02*
D03*
X456184Y307340D02*
D03*
Y295910D02*
D03*
Y284480D02*
D03*
Y273050D02*
D03*
Y261620D02*
D03*
Y250190D02*
D03*
Y238760D02*
D03*
X446024Y312420D02*
D03*
Y300990D02*
D03*
Y289560D02*
D03*
Y278130D02*
D03*
Y266700D02*
D03*
Y255270D02*
D03*
Y243840D02*
D03*
X10922Y240030D02*
D03*
Y251460D02*
D03*
Y262890D02*
D03*
Y274320D02*
D03*
Y285750D02*
D03*
Y297180D02*
D03*
Y308610D02*
D03*
X19812Y246380D02*
D03*
Y257810D02*
D03*
Y292100D02*
D03*
Y303530D02*
D03*
Y314960D02*
D03*
X28702Y240030D02*
D03*
Y251460D02*
D03*
Y308610D02*
D03*
X38862Y246380D02*
D03*
Y303530D02*
D03*
Y314960D02*
D03*
X49022Y241300D02*
D03*
Y252730D02*
D03*
Y309880D02*
D03*
X60452Y247650D02*
D03*
Y259080D02*
D03*
Y293370D02*
D03*
Y304800D02*
D03*
Y316230D02*
D03*
X71882Y241300D02*
D03*
Y252730D02*
D03*
Y264160D02*
D03*
Y275590D02*
D03*
Y287020D02*
D03*
Y298450D02*
D03*
Y309880D02*
D03*
X83312Y247650D02*
D03*
Y259080D02*
D03*
Y270510D02*
D03*
Y281940D02*
D03*
Y293370D02*
D03*
Y304800D02*
D03*
Y316230D02*
D03*
X94742Y241300D02*
D03*
Y252730D02*
D03*
Y264160D02*
D03*
Y275590D02*
D03*
Y287020D02*
D03*
Y298450D02*
D03*
Y309880D02*
D03*
X106172Y247650D02*
D03*
Y259080D02*
D03*
Y270510D02*
D03*
Y281940D02*
D03*
Y293370D02*
D03*
Y304800D02*
D03*
Y316230D02*
D03*
X117602Y241300D02*
D03*
Y252730D02*
D03*
Y264160D02*
D03*
Y275590D02*
D03*
Y287020D02*
D03*
Y298450D02*
D03*
Y309880D02*
D03*
X129032Y247650D02*
D03*
Y259080D02*
D03*
Y270510D02*
D03*
Y281940D02*
D03*
Y293370D02*
D03*
Y304800D02*
D03*
Y316230D02*
D03*
X139192Y242570D02*
D03*
Y254000D02*
D03*
Y265430D02*
D03*
Y276860D02*
D03*
Y288290D02*
D03*
Y299720D02*
D03*
Y311150D02*
D03*
X292608Y476758D02*
D03*
X252085Y159603D02*
D03*
X256794Y118618D02*
D03*
X148336Y181864D02*
D03*
X46990Y180340D02*
D03*
X304800Y12446D02*
D03*
X322580Y60706D02*
D03*
X326136Y78994D02*
D03*
X475385Y154334D02*
D03*
X497586Y203200D02*
D03*
X473710Y184404D02*
D03*
X558038Y158496D02*
D03*
X423926Y185674D02*
D03*
X358729Y192043D02*
D03*
X303530Y171196D02*
D03*
X520446Y13970D02*
D03*
X359918Y95250D02*
D03*
D53*
X494792Y419608D02*
D03*
X90932D02*
D03*
D54*
X131064Y60706D02*
D03*
X120841Y78486D02*
D03*
X110681Y60706D02*
D03*
X100393Y78486D02*
D03*
X90297Y60706D02*
D03*
X80073Y78486D02*
D03*
X69914Y60706D02*
D03*
X59690Y78486D02*
D03*
X164084Y126746D02*
D03*
X141224D02*
D03*
X49784D02*
D03*
X26924D02*
D03*
D55*
X32004Y35306D02*
D03*
X159004D02*
D03*
D56*
X14224Y69596D02*
D03*
X176784D02*
D03*
D57*
X293116Y308610D02*
D03*
D58*
X324358Y186436D02*
D03*
X307594Y190246D02*
D03*
M02*
