%TF.GenerationSoftware,Altium Limited,Altium Designer,23.5.1 (21)*%
G04 Layer_Color=8421504*
%FSLAX45Y45*%
%MOMM*%
%TF.SameCoordinates,CD6643E0-46C1-4182-BE8D-D09F5E157601*%
%TF.FilePolarity,Positive*%
%TF.FileFunction,Paste,Top*%
%TF.Part,Single*%
G01*
G75*
%TA.AperFunction,SMDPad,CuDef*%
G04:AMPARAMS|DCode=10|XSize=0.9398mm|YSize=0.9906mm|CornerRadius=0.04699mm|HoleSize=0mm|Usage=FLASHONLY|Rotation=270.000|XOffset=0mm|YOffset=0mm|HoleType=Round|Shape=RoundedRectangle|*
%AMROUNDEDRECTD10*
21,1,0.93980,0.89662,0,0,270.0*
21,1,0.84582,0.99060,0,0,270.0*
1,1,0.09398,-0.44831,-0.42291*
1,1,0.09398,-0.44831,0.42291*
1,1,0.09398,0.44831,0.42291*
1,1,0.09398,0.44831,-0.42291*
%
%ADD10ROUNDEDRECTD10*%
G04:AMPARAMS|DCode=11|XSize=1.8034mm|YSize=0.9906mm|CornerRadius=0.12382mm|HoleSize=0mm|Usage=FLASHONLY|Rotation=0.000|XOffset=0mm|YOffset=0mm|HoleType=Round|Shape=RoundedRectangle|*
%AMROUNDEDRECTD11*
21,1,1.80340,0.74295,0,0,0.0*
21,1,1.55575,0.99060,0,0,0.0*
1,1,0.24765,0.77788,-0.37148*
1,1,0.24765,-0.77788,-0.37148*
1,1,0.24765,-0.77788,0.37148*
1,1,0.24765,0.77788,0.37148*
%
%ADD11ROUNDEDRECTD11*%
G04:AMPARAMS|DCode=12|XSize=1.5494mm|YSize=0.6096mm|CornerRadius=0.03048mm|HoleSize=0mm|Usage=FLASHONLY|Rotation=90.000|XOffset=0mm|YOffset=0mm|HoleType=Round|Shape=RoundedRectangle|*
%AMROUNDEDRECTD12*
21,1,1.54940,0.54864,0,0,90.0*
21,1,1.48844,0.60960,0,0,90.0*
1,1,0.06096,0.27432,0.74422*
1,1,0.06096,0.27432,-0.74422*
1,1,0.06096,-0.27432,-0.74422*
1,1,0.06096,-0.27432,0.74422*
%
%ADD12ROUNDEDRECTD12*%
G04:AMPARAMS|DCode=13|XSize=0.6096mm|YSize=1.0414mm|CornerRadius=0.03048mm|HoleSize=0mm|Usage=FLASHONLY|Rotation=0.000|XOffset=0mm|YOffset=0mm|HoleType=Round|Shape=RoundedRectangle|*
%AMROUNDEDRECTD13*
21,1,0.60960,0.98044,0,0,0.0*
21,1,0.54864,1.04140,0,0,0.0*
1,1,0.06096,0.27432,-0.49022*
1,1,0.06096,-0.27432,-0.49022*
1,1,0.06096,-0.27432,0.49022*
1,1,0.06096,0.27432,0.49022*
%
%ADD13ROUNDEDRECTD13*%
G04:AMPARAMS|DCode=14|XSize=0.9398mm|YSize=0.9906mm|CornerRadius=0.04699mm|HoleSize=0mm|Usage=FLASHONLY|Rotation=0.000|XOffset=0mm|YOffset=0mm|HoleType=Round|Shape=RoundedRectangle|*
%AMROUNDEDRECTD14*
21,1,0.93980,0.89662,0,0,0.0*
21,1,0.84582,0.99060,0,0,0.0*
1,1,0.09398,0.42291,-0.44831*
1,1,0.09398,-0.42291,-0.44831*
1,1,0.09398,-0.42291,0.44831*
1,1,0.09398,0.42291,0.44831*
%
%ADD14ROUNDEDRECTD14*%
G04:AMPARAMS|DCode=15|XSize=1.2446mm|YSize=3.175mm|CornerRadius=0.15558mm|HoleSize=0mm|Usage=FLASHONLY|Rotation=90.000|XOffset=0mm|YOffset=0mm|HoleType=Round|Shape=RoundedRectangle|*
%AMROUNDEDRECTD15*
21,1,1.24460,2.86385,0,0,90.0*
21,1,0.93345,3.17500,0,0,90.0*
1,1,0.31115,1.43192,0.46672*
1,1,0.31115,1.43192,-0.46672*
1,1,0.31115,-1.43192,-0.46672*
1,1,0.31115,-1.43192,0.46672*
%
%ADD15ROUNDEDRECTD15*%
G04:AMPARAMS|DCode=16|XSize=3.81mm|YSize=3.0226mm|CornerRadius=0.15113mm|HoleSize=0mm|Usage=FLASHONLY|Rotation=0.000|XOffset=0mm|YOffset=0mm|HoleType=Round|Shape=RoundedRectangle|*
%AMROUNDEDRECTD16*
21,1,3.81000,2.72034,0,0,0.0*
21,1,3.50774,3.02260,0,0,0.0*
1,1,0.30226,1.75387,-1.36017*
1,1,0.30226,-1.75387,-1.36017*
1,1,0.30226,-1.75387,1.36017*
1,1,0.30226,1.75387,1.36017*
%
%ADD16ROUNDEDRECTD16*%
G04:AMPARAMS|DCode=17|XSize=3.81mm|YSize=3.0226mm|CornerRadius=0.15113mm|HoleSize=0mm|Usage=FLASHONLY|Rotation=90.000|XOffset=0mm|YOffset=0mm|HoleType=Round|Shape=RoundedRectangle|*
%AMROUNDEDRECTD17*
21,1,3.81000,2.72034,0,0,90.0*
21,1,3.50774,3.02260,0,0,90.0*
1,1,0.30226,1.36017,1.75387*
1,1,0.30226,1.36017,-1.75387*
1,1,0.30226,-1.36017,-1.75387*
1,1,0.30226,-1.36017,1.75387*
%
%ADD17ROUNDEDRECTD17*%
G04:AMPARAMS|DCode=18|XSize=0.8001mm|YSize=0.6604mm|CornerRadius=0.03302mm|HoleSize=0mm|Usage=FLASHONLY|Rotation=0.000|XOffset=0mm|YOffset=0mm|HoleType=Round|Shape=RoundedRectangle|*
%AMROUNDEDRECTD18*
21,1,0.80010,0.59436,0,0,0.0*
21,1,0.73406,0.66040,0,0,0.0*
1,1,0.06604,0.36703,-0.29718*
1,1,0.06604,-0.36703,-0.29718*
1,1,0.06604,-0.36703,0.29718*
1,1,0.06604,0.36703,0.29718*
%
%ADD18ROUNDEDRECTD18*%
G04:AMPARAMS|DCode=19|XSize=1.0922mm|YSize=2.4892mm|CornerRadius=0.05461mm|HoleSize=0mm|Usage=FLASHONLY|Rotation=270.000|XOffset=0mm|YOffset=0mm|HoleType=Round|Shape=RoundedRectangle|*
%AMROUNDEDRECTD19*
21,1,1.09220,2.37998,0,0,270.0*
21,1,0.98298,2.48920,0,0,270.0*
1,1,0.10922,-1.18999,-0.49149*
1,1,0.10922,-1.18999,0.49149*
1,1,0.10922,1.18999,0.49149*
1,1,0.10922,1.18999,-0.49149*
%
%ADD19ROUNDEDRECTD19*%
G04:AMPARAMS|DCode=20|XSize=0.9906mm|YSize=1.4478mm|CornerRadius=0.04953mm|HoleSize=0mm|Usage=FLASHONLY|Rotation=270.000|XOffset=0mm|YOffset=0mm|HoleType=Round|Shape=RoundedRectangle|*
%AMROUNDEDRECTD20*
21,1,0.99060,1.34874,0,0,270.0*
21,1,0.89154,1.44780,0,0,270.0*
1,1,0.09906,-0.67437,-0.44577*
1,1,0.09906,-0.67437,0.44577*
1,1,0.09906,0.67437,0.44577*
1,1,0.09906,0.67437,-0.44577*
%
%ADD20ROUNDEDRECTD20*%
G04:AMPARAMS|DCode=21|XSize=1.6002mm|YSize=2.5908mm|CornerRadius=0.20002mm|HoleSize=0mm|Usage=FLASHONLY|Rotation=270.000|XOffset=0mm|YOffset=0mm|HoleType=Round|Shape=RoundedRectangle|*
%AMROUNDEDRECTD21*
21,1,1.60020,2.19075,0,0,270.0*
21,1,1.20015,2.59080,0,0,270.0*
1,1,0.40005,-1.09537,-0.60008*
1,1,0.40005,-1.09537,0.60008*
1,1,0.40005,1.09537,0.60008*
1,1,0.40005,1.09537,-0.60008*
%
%ADD21ROUNDEDRECTD21*%
%TA.AperFunction,NonConductor*%
%ADD35C,0.25400*%
%ADD63R,14.17320X8.50900*%
D10*
X4447540Y1938020D02*
D03*
Y2098040D02*
D03*
X2768600Y2164080D02*
D03*
Y2004060D02*
D03*
X2921000Y2164080D02*
D03*
Y2004060D02*
D03*
X2291080Y1524000D02*
D03*
Y1363980D02*
D03*
X4851400Y1313180D02*
D03*
Y1473200D02*
D03*
Y1617980D02*
D03*
Y1778000D02*
D03*
X2291080Y1219200D02*
D03*
Y1059180D02*
D03*
X4851400Y1922780D02*
D03*
Y2082800D02*
D03*
X2291080Y914400D02*
D03*
Y754380D02*
D03*
X2443480Y1640840D02*
D03*
Y1480820D02*
D03*
X4295140Y2098040D02*
D03*
Y1938020D02*
D03*
D11*
X5638800Y2095500D02*
D03*
Y1892300D02*
D03*
Y1488440D02*
D03*
Y1691640D02*
D03*
X5712460Y149860D02*
D03*
Y337820D02*
D03*
X5715000Y525780D02*
D03*
D12*
X3119120Y1050290D02*
D03*
X3246120D02*
D03*
X3373120D02*
D03*
X3500120D02*
D03*
X3373120Y1591310D02*
D03*
X3246120D02*
D03*
X3119120D02*
D03*
X3500120D02*
D03*
D13*
X2482088Y1064260D02*
D03*
X2577084D02*
D03*
X2672080D02*
D03*
Y1333500D02*
D03*
X2482088D02*
D03*
D14*
X5562600Y889000D02*
D03*
X5722620D02*
D03*
X5562600Y1079500D02*
D03*
X5722620D02*
D03*
X3843020Y1996440D02*
D03*
X3683000D02*
D03*
X3845560Y2148840D02*
D03*
X3685540D02*
D03*
X2438400Y759460D02*
D03*
X2598420D02*
D03*
X1734820Y1821180D02*
D03*
X1574800D02*
D03*
X187960Y1811020D02*
D03*
X347980D02*
D03*
X5562600Y1270000D02*
D03*
X5722620D02*
D03*
X3312160Y876300D02*
D03*
X3152140D02*
D03*
X2438400Y909320D02*
D03*
X2598420D02*
D03*
X3355340Y607060D02*
D03*
X3515360D02*
D03*
D15*
X2682240Y3573780D02*
D03*
Y4213860D02*
D03*
X3177540D02*
D03*
Y3573780D02*
D03*
D16*
X3705860Y4269740D02*
D03*
Y3583940D02*
D03*
X2151380Y4269740D02*
D03*
Y3583940D02*
D03*
D17*
X3116580Y4765040D02*
D03*
X3802380D02*
D03*
X2740660D02*
D03*
X2054860D02*
D03*
D18*
X2288540Y412750D02*
D03*
Y612140D02*
D03*
X2593340D02*
D03*
Y412750D02*
D03*
X2288540Y81280D02*
D03*
Y280670D02*
D03*
X2593340D02*
D03*
Y81280D02*
D03*
D19*
X3144520Y3393440D02*
D03*
Y3083560D02*
D03*
X2715260D02*
D03*
Y3393440D02*
D03*
D20*
X3500120Y1729740D02*
D03*
Y1920240D02*
D03*
D21*
X3446780Y259080D02*
D03*
X3086100D02*
D03*
D35*
X4417060Y3205480D02*
G03*
X4371340Y3159760I0J-45720D01*
G01*
X5801360D02*
G03*
X5755640Y3205480I-45720J0D01*
G01*
X4371340Y2385060D02*
G03*
X4417060Y2339340I45720J0D01*
G01*
X5755640D02*
G03*
X5801360Y2385060I0J45720D01*
G01*
X1442720Y2341880D02*
G03*
X1488440Y2387600I0J45720D01*
G01*
X58420D02*
G03*
X104140Y2341880I45720J0D01*
G01*
X1488440Y3162300D02*
G03*
X1442720Y3208020I-45720J0D01*
G01*
X104140D02*
G03*
X58420Y3162300I0J-45720D01*
G01*
X4417060Y3205480D02*
X5755640D01*
X4417060Y2339340D02*
X5755640D01*
X5801360Y2385060D02*
Y3159760D01*
X4371340Y2385060D02*
Y3159760D01*
X104140Y2341880D02*
X1442720D01*
X104140Y3208020D02*
X1442720D01*
X58420Y2387600D02*
Y3162300D01*
X1488440Y2387600D02*
Y3162300D01*
D63*
X5087620Y2772410D02*
D03*
X772160Y2774950D02*
D03*
%TF.MD5,8f8f080ddb716a286ab83dbda99672de*%
M02*
