G04*
G04 #@! TF.GenerationSoftware,Altium Limited,Altium Designer,23.10.1 (27)*
G04*
G04 Layer_Color=65535*
%FSLAX25Y25*%
%MOIN*%
G70*
G04*
G04 #@! TF.SameCoordinates,48329E4E-80D2-4777-9540-AAF0B2507E0B*
G04*
G04*
G04 #@! TF.FilePolarity,Positive*
G04*
G01*
G75*
%ADD10C,0.01000*%
%ADD11C,0.00800*%
%ADD12C,0.00600*%
%ADD13C,0.01200*%
%ADD14R,0.01100X0.06900*%
%ADD15R,0.24100X0.01300*%
%ADD16R,0.01300X0.24100*%
D10*
X121580Y46998D02*
G03*
X121600Y47000I20J-98D01*
G01*
X96620Y46100D02*
G03*
X96620Y46100I-100J0D01*
G01*
X122298Y101694D02*
G03*
X122298Y101694I-1414J0D01*
G01*
X112712Y101694D02*
G03*
X112712Y101694I-1414J0D01*
G01*
X112298Y102694D02*
X119298Y107694D01*
X122298Y101694D02*
X131298Y101694D01*
X100825Y101669D02*
X109825Y101669D01*
X147798Y119201D02*
X148798Y120201D01*
Y122200D01*
X147798Y123200D01*
X143800D01*
X142800Y122200D01*
Y120201D01*
X143800Y119201D01*
X145799D01*
Y121201D01*
X147798Y95209D02*
X148798Y96209D01*
Y98208D01*
X147798Y99208D01*
X146799D01*
X145799Y98208D01*
Y96209D01*
X144799Y95209D01*
X143800D01*
X142800Y96209D01*
Y98208D01*
X143800Y99208D01*
X162798Y111700D02*
X156800D01*
Y108701D01*
X157800Y107701D01*
X161798D01*
X162798Y108701D01*
Y111700D01*
X67902Y106700D02*
X73900D01*
Y109699D01*
X72900Y110699D01*
X68902D01*
X67902Y109699D01*
Y106700D01*
X82902Y99199D02*
X81902Y98199D01*
Y96200D01*
X82902Y95200D01*
X86900D01*
X87900Y96200D01*
Y98199D01*
X86900Y99199D01*
X84901D01*
Y97199D01*
X82902Y123191D02*
X81902Y122191D01*
Y120192D01*
X82902Y119192D01*
X83901D01*
X84901Y120192D01*
Y122191D01*
X85901Y123191D01*
X86900D01*
X87900Y122191D01*
Y120192D01*
X86900Y119192D01*
X20000Y79699D02*
Y75700D01*
Y79699D02*
X21714D01*
X22285Y79509D01*
X22476Y79318D01*
X22666Y78937D01*
Y78557D01*
X22476Y78176D01*
X22285Y77985D01*
X21714Y77795D01*
X20000D02*
X21714D01*
X22285Y77604D01*
X22476Y77414D01*
X22666Y77033D01*
Y76462D01*
X22476Y76081D01*
X22285Y75890D01*
X21714Y75700D01*
X20000D01*
X29750D02*
X28227Y79699D01*
X26703Y75700D01*
X27275Y77033D02*
X29179D01*
X33826Y79699D02*
Y75700D01*
Y79699D02*
X35539D01*
X36111Y79509D01*
X36301Y79318D01*
X36492Y78937D01*
Y78557D01*
X36301Y78176D01*
X36111Y77985D01*
X35539Y77795D01*
X33826D01*
X35159D02*
X36492Y75700D01*
X40529Y79699D02*
Y75700D01*
Y79699D02*
X42243D01*
X42814Y79509D01*
X43005Y79318D01*
X43195Y78937D01*
Y78557D01*
X43005Y78176D01*
X42814Y77985D01*
X42243Y77795D01*
X40529D01*
X41862D02*
X43195Y75700D01*
X47232Y79699D02*
Y75700D01*
X53688Y79699D02*
X51212D01*
Y75700D01*
X53688D01*
X51212Y77795D02*
X52736D01*
X57497Y79699D02*
Y75700D01*
Y79699D02*
X59211D01*
X59782Y79509D01*
X59972Y79318D01*
X60163Y78937D01*
Y78557D01*
X59972Y78176D01*
X59782Y77985D01*
X59211Y77795D01*
X57497D01*
X58830D02*
X60163Y75700D01*
X14600Y87499D02*
Y83500D01*
X21246Y86928D02*
X20865Y87309D01*
X20294Y87499D01*
X19532D01*
X18961Y87309D01*
X18580Y86928D01*
Y86547D01*
X18770Y86166D01*
X18961Y85976D01*
X19342Y85785D01*
X20484Y85404D01*
X20865Y85214D01*
X21056Y85023D01*
X21246Y84643D01*
Y84071D01*
X20865Y83690D01*
X20294Y83500D01*
X19532D01*
X18961Y83690D01*
X18580Y84071D01*
X26426Y87499D02*
X26045Y87309D01*
X25664Y86928D01*
X25474Y86547D01*
X25283Y85976D01*
Y85023D01*
X25474Y84452D01*
X25664Y84071D01*
X26045Y83690D01*
X26426Y83500D01*
X27188D01*
X27569Y83690D01*
X27950Y84071D01*
X28140Y84452D01*
X28330Y85023D01*
Y85976D01*
X28140Y86547D01*
X27950Y86928D01*
X27569Y87309D01*
X27188Y87499D01*
X26426D01*
X32406D02*
Y83500D01*
X34691D01*
X41318D02*
X39795Y87499D01*
X38271Y83500D01*
X38842Y84833D02*
X40747D01*
X46726Y87499D02*
Y83500D01*
X45393Y87499D02*
X48059D01*
X51678D02*
Y83500D01*
X56801Y87499D02*
X56420Y87309D01*
X56039Y86928D01*
X55848Y86547D01*
X55658Y85976D01*
Y85023D01*
X55848Y84452D01*
X56039Y84071D01*
X56420Y83690D01*
X56801Y83500D01*
X57562D01*
X57943Y83690D01*
X58324Y84071D01*
X58514Y84452D01*
X58705Y85023D01*
Y85976D01*
X58514Y86547D01*
X58324Y86928D01*
X57943Y87309D01*
X57562Y87499D01*
X56801D01*
X62780D02*
Y83500D01*
Y87499D02*
X65446Y83500D01*
Y87499D02*
Y83500D01*
X122300Y95999D02*
X121301Y96999D01*
X119301D01*
X118302Y95999D01*
Y95000D01*
X119301Y94000D01*
X121301D01*
X122300Y93000D01*
Y92001D01*
X121301Y91001D01*
X119301D01*
X118302Y92001D01*
X128298Y91001D02*
X124300D01*
X128298Y95000D01*
Y95999D01*
X127299Y96999D01*
X125299D01*
X124300Y95999D01*
X107600Y95899D02*
X106600Y96899D01*
X104601D01*
X103601Y95899D01*
Y94900D01*
X104601Y93900D01*
X106600D01*
X107600Y92900D01*
Y91901D01*
X106600Y90901D01*
X104601D01*
X103601Y91901D01*
X109599Y90901D02*
X111599D01*
X110599D01*
Y96899D01*
X109599Y95899D01*
D11*
X214300Y31500D02*
X215700D01*
X214300Y38500D02*
X215700D01*
Y31500D02*
Y38500D01*
X214300Y31500D02*
Y38500D01*
X215650Y31500D02*
X228650D01*
X215650Y38500D02*
X228650D01*
Y31500D02*
Y38500D01*
X215650Y31500D02*
Y38500D01*
Y39000D02*
Y46000D01*
X228650Y39000D02*
Y46000D01*
X215650D02*
X228650D01*
X215650Y39000D02*
X228650D01*
X214300D02*
Y46000D01*
X215700Y39000D02*
Y46000D01*
X214300D02*
X215700D01*
X214300Y39000D02*
X215700D01*
X215650Y46500D02*
Y53500D01*
X228650Y46500D02*
Y53500D01*
X215650D02*
X228650D01*
X215650Y46500D02*
X228650D01*
X214300D02*
Y53500D01*
X215700Y46500D02*
Y53500D01*
X214300D02*
X215700D01*
X214300Y46500D02*
X215700D01*
X93100Y14950D02*
X99100D01*
X93100Y25250D02*
X99100D01*
X93100Y1900D02*
X99100D01*
X93100Y12200D02*
X99100D01*
X109398Y112994D02*
X111298Y109394D01*
X110698Y115894D02*
X111798Y111294D01*
X111298Y109394D02*
X113698Y110894D01*
X111798Y111294D02*
X114398Y112994D01*
X106098Y112994D02*
X109398Y112994D01*
X113698Y110894D02*
X115998Y107494D01*
X114398Y112994D02*
X115998Y107494D01*
X106098Y112994D02*
X110698Y115894D01*
X130700Y169800D02*
Y174000D01*
X132600Y172000D01*
X128800D02*
X130600Y174000D01*
X100200Y169900D02*
Y174100D01*
X102100Y172100D01*
X98300D02*
X100100Y174100D01*
X113200Y138400D02*
X117400D01*
X115400Y136500D02*
X117400Y138400D01*
X115400Y140300D02*
X117400Y138500D01*
X113400Y155600D02*
X115400Y153800D01*
X113400Y155700D02*
X115400Y157600D01*
X113400Y155700D02*
X117600D01*
X195000Y27000D02*
X229000D01*
X181000Y40500D02*
X195000Y27000D01*
X1546Y81600D02*
X92142D01*
X177000Y40500D02*
X181000D01*
X160000D02*
X173000D01*
X153500Y46500D02*
X160000Y40500D01*
X122600Y52000D02*
X138800D01*
X145000D02*
X150872Y47596D01*
X142500Y52000D02*
X145000D01*
X92142Y81600D02*
X117792Y56434D01*
X130300Y93400D02*
X134700D01*
X131700Y90400D02*
X134700Y93400D01*
X131700Y96400D02*
X134700Y93400D01*
X95900Y93000D02*
X98900Y90000D01*
X95900Y93000D02*
X98900Y96000D01*
X95900Y93000D02*
X101200D01*
X76400Y74567D02*
Y77233D01*
X75734Y77899D01*
X74401D01*
X73734Y77233D01*
Y74567D01*
X74401Y73901D01*
X75734D01*
X75067Y75234D02*
X76400Y73901D01*
X75734D02*
X76400Y74567D01*
X77733Y73901D02*
X79066D01*
X78399D01*
Y77899D01*
X77733Y77233D01*
X109034Y37133D02*
X108367Y37799D01*
X107034D01*
X106368Y37133D01*
Y34467D01*
X107034Y33801D01*
X108367D01*
X109034Y34467D01*
X110366Y37133D02*
X111033Y37799D01*
X112366D01*
X113032Y37133D01*
Y36466D01*
X112366Y35800D01*
X111699D01*
X112366D01*
X113032Y35134D01*
Y34467D01*
X112366Y33801D01*
X111033D01*
X110366Y34467D01*
X173501Y72932D02*
X177499D01*
Y70933D01*
X176833Y70266D01*
X175500D01*
X174834Y70933D01*
Y72932D01*
Y71599D02*
X173501Y70266D01*
X177499Y66268D02*
X176833Y67601D01*
X175500Y68933D01*
X174167D01*
X173501Y68267D01*
Y66934D01*
X174167Y66268D01*
X174834D01*
X175500Y66934D01*
Y68933D01*
X146933Y10367D02*
X147599Y11033D01*
Y12366D01*
X146933Y13032D01*
X144267D01*
X143601Y12366D01*
Y11033D01*
X144267Y10367D01*
X143601Y6368D02*
Y9033D01*
X146266Y6368D01*
X146933D01*
X147599Y7034D01*
Y8367D01*
X146933Y9033D01*
X210230Y22038D02*
X210611Y22228D01*
X211182Y22800D01*
Y18800D01*
X213353Y21847D02*
Y22038D01*
X213543Y22419D01*
X213734Y22609D01*
X214114Y22800D01*
X214876D01*
X215257Y22609D01*
X215447Y22419D01*
X215638Y22038D01*
Y21657D01*
X215447Y21276D01*
X215067Y20705D01*
X213162Y18800D01*
X215828D01*
X216723Y22800D02*
X218247Y18800D01*
X219770Y22800D02*
X218247Y18800D01*
X186999Y52168D02*
X183001D01*
Y54167D01*
X183667Y54834D01*
X185000D01*
X185667Y54167D01*
Y52168D01*
Y53501D02*
X186999Y54834D01*
X186333Y56166D02*
X186999Y56833D01*
Y58166D01*
X186333Y58832D01*
X183667D01*
X183001Y58166D01*
Y56833D01*
X183667Y56166D01*
X184334D01*
X185000Y56833D01*
Y58832D01*
X179318Y14214D02*
X179128Y14595D01*
X178747Y14976D01*
X178366Y15166D01*
X177604D01*
X177224Y14976D01*
X176843Y14595D01*
X176652Y14214D01*
X176462Y13643D01*
Y12690D01*
X176652Y12119D01*
X176843Y11738D01*
X177224Y11357D01*
X177604Y11167D01*
X178366D01*
X178747Y11357D01*
X179128Y11738D01*
X179318Y12119D01*
Y12690D01*
X178366D02*
X179318D01*
X183279Y11167D02*
X181756Y15166D01*
X180232Y11167D01*
X180804Y12500D02*
X182708D01*
X185546Y15166D02*
Y11167D01*
X184213Y15166D02*
X186879D01*
X189830D02*
X187355D01*
Y11167D01*
X189830D01*
X187355Y13262D02*
X188878D01*
X190497Y9834D02*
X193544D01*
X194058Y15166D02*
Y11167D01*
Y15166D02*
X195391D01*
X195962Y14976D01*
X196343Y14595D01*
X196534Y14214D01*
X196724Y13643D01*
Y12690D01*
X196534Y12119D01*
X196343Y11738D01*
X195962Y11357D01*
X195391Y11167D01*
X194058D01*
X197619Y15166D02*
Y11167D01*
Y15166D02*
X199333D01*
X199904Y14976D01*
X200095Y14785D01*
X200285Y14404D01*
Y14024D01*
X200095Y13643D01*
X199904Y13452D01*
X199333Y13262D01*
X197619D01*
X198952D02*
X200285Y11167D01*
X201180Y15166D02*
Y11167D01*
X202018Y15166D02*
X203542Y11167D01*
X205065Y15166D02*
X203542Y11167D01*
X208055Y15166D02*
X205579D01*
Y11167D01*
X208055D01*
X205579Y13262D02*
X207103D01*
X208721Y9834D02*
X211769D01*
X214949Y14595D02*
X214568Y14976D01*
X213997Y15166D01*
X213235D01*
X212664Y14976D01*
X212283Y14595D01*
Y14214D01*
X212473Y13833D01*
X212664Y13643D01*
X213044Y13452D01*
X214187Y13071D01*
X214568Y12881D01*
X214758Y12690D01*
X214949Y12310D01*
Y11738D01*
X214568Y11357D01*
X213997Y11167D01*
X213235D01*
X212664Y11357D01*
X212283Y11738D01*
X215844Y15166D02*
Y11167D01*
X219538Y14214D02*
X219348Y14595D01*
X218967Y14976D01*
X218586Y15166D01*
X217824D01*
X217443Y14976D01*
X217063Y14595D01*
X216872Y14214D01*
X216682Y13643D01*
Y12690D01*
X216872Y12119D01*
X217063Y11738D01*
X217443Y11357D01*
X217824Y11167D01*
X218586D01*
X218967Y11357D01*
X219348Y11738D01*
X219538Y12119D01*
Y12690D01*
X218586D02*
X219538D01*
X194426Y60666D02*
Y56667D01*
X197930Y60095D02*
X197549Y60476D01*
X196978Y60666D01*
X196216D01*
X195645Y60476D01*
X195264Y60095D01*
Y59714D01*
X195455Y59333D01*
X195645Y59143D01*
X196026Y58952D01*
X197169Y58571D01*
X197549Y58381D01*
X197740Y58190D01*
X197930Y57810D01*
Y57238D01*
X197549Y56857D01*
X196978Y56667D01*
X196216D01*
X195645Y56857D01*
X195264Y57238D01*
X199968Y60666D02*
X199587Y60476D01*
X199206Y60095D01*
X199016Y59714D01*
X198825Y59143D01*
Y58190D01*
X199016Y57619D01*
X199206Y57238D01*
X199587Y56857D01*
X199968Y56667D01*
X200730D01*
X201111Y56857D01*
X201491Y57238D01*
X201682Y57619D01*
X201872Y58190D01*
Y59143D01*
X201682Y59714D01*
X201491Y60095D01*
X201111Y60476D01*
X200730Y60666D01*
X199968D01*
X202805Y55334D02*
X205852D01*
X209223Y59714D02*
X209033Y60095D01*
X208652Y60476D01*
X208271Y60666D01*
X207509D01*
X207128Y60476D01*
X206747Y60095D01*
X206557Y59714D01*
X206366Y59143D01*
Y58190D01*
X206557Y57619D01*
X206747Y57238D01*
X207128Y56857D01*
X207509Y56667D01*
X208271D01*
X208652Y56857D01*
X209033Y57238D01*
X209223Y57619D01*
Y58190D01*
X208271D02*
X209223D01*
X210137Y60666D02*
Y56667D01*
Y60666D02*
X212803Y56667D01*
Y60666D02*
Y56667D01*
X213908Y60666D02*
Y56667D01*
Y60666D02*
X215241D01*
X215812Y60476D01*
X216193Y60095D01*
X216383Y59714D01*
X216574Y59143D01*
Y58190D01*
X216383Y57619D01*
X216193Y57238D01*
X215812Y56857D01*
X215241Y56667D01*
X213908D01*
X195259Y68666D02*
Y64667D01*
X198764Y68095D02*
X198383Y68476D01*
X197811Y68666D01*
X197049D01*
X196478Y68476D01*
X196097Y68095D01*
Y67714D01*
X196288Y67333D01*
X196478Y67143D01*
X196859Y66952D01*
X198002Y66571D01*
X198383Y66381D01*
X198573Y66190D01*
X198764Y65810D01*
Y65238D01*
X198383Y64857D01*
X197811Y64667D01*
X197049D01*
X196478Y64857D01*
X196097Y65238D01*
X200801Y68666D02*
X200420Y68476D01*
X200039Y68095D01*
X199849Y67714D01*
X199659Y67143D01*
Y66190D01*
X199849Y65619D01*
X200039Y65238D01*
X200420Y64857D01*
X200801Y64667D01*
X201563D01*
X201944Y64857D01*
X202325Y65238D01*
X202515Y65619D01*
X202706Y66190D01*
Y67143D01*
X202515Y67714D01*
X202325Y68095D01*
X201944Y68476D01*
X201563Y68666D01*
X200801D01*
X203639Y63334D02*
X206686D01*
X207200Y67904D02*
X207581Y68095D01*
X208152Y68666D01*
Y64667D01*
X210323Y67714D02*
Y67904D01*
X210513Y68285D01*
X210704Y68476D01*
X211085Y68666D01*
X211846D01*
X212227Y68476D01*
X212418Y68285D01*
X212608Y67904D01*
Y67523D01*
X212418Y67143D01*
X212037Y66571D01*
X210133Y64667D01*
X212799D01*
X213694Y68666D02*
X215217Y64667D01*
X216741Y68666D02*
X215217Y64667D01*
X211653Y6847D02*
X211462Y7228D01*
X211082Y7609D01*
X210701Y7800D01*
X209939D01*
X209558Y7609D01*
X209177Y7228D01*
X208987Y6847D01*
X208796Y6276D01*
Y5324D01*
X208987Y4753D01*
X209177Y4372D01*
X209558Y3991D01*
X209939Y3800D01*
X210701D01*
X211082Y3991D01*
X211462Y4372D01*
X211653Y4753D01*
Y5324D01*
X210701D02*
X211653D01*
X212567Y7800D02*
Y3800D01*
Y7800D02*
X215233Y3800D01*
Y7800D02*
Y3800D01*
X216338Y7800D02*
Y3800D01*
Y7800D02*
X217671D01*
X218242Y7609D01*
X218623Y7228D01*
X218813Y6847D01*
X219004Y6276D01*
Y5324D01*
X218813Y4753D01*
X218623Y4372D01*
X218242Y3991D01*
X217671Y3800D01*
X216338D01*
X199940Y84666D02*
X201463Y80667D01*
X202987Y84666D02*
X201463Y80667D01*
X206358Y83714D02*
X206167Y84095D01*
X205786Y84476D01*
X205405Y84666D01*
X204644D01*
X204263Y84476D01*
X203882Y84095D01*
X203692Y83714D01*
X203501Y83143D01*
Y82190D01*
X203692Y81619D01*
X203882Y81238D01*
X204263Y80857D01*
X204644Y80667D01*
X205405D01*
X205786Y80857D01*
X206167Y81238D01*
X206358Y81619D01*
Y82190D01*
X205405D02*
X206358D01*
X207272Y79334D02*
X210319D01*
X213499Y84095D02*
X213118Y84476D01*
X212547Y84666D01*
X211785D01*
X211214Y84476D01*
X210833Y84095D01*
Y83714D01*
X211023Y83333D01*
X211214Y83143D01*
X211595Y82952D01*
X212737Y82571D01*
X213118Y82381D01*
X213309Y82190D01*
X213499Y81810D01*
Y81238D01*
X213118Y80857D01*
X212547Y80667D01*
X211785D01*
X211214Y80857D01*
X210833Y81238D01*
X214584Y83714D02*
Y83904D01*
X214775Y84285D01*
X214965Y84476D01*
X215346Y84666D01*
X216108D01*
X216489Y84476D01*
X216679Y84285D01*
X216870Y83904D01*
Y83523D01*
X216679Y83143D01*
X216298Y82571D01*
X214394Y80667D01*
X217060D01*
X95602Y81201D02*
Y85199D01*
X97601D01*
X98267Y84533D01*
Y83200D01*
X97601Y82534D01*
X95602D01*
X96934D02*
X98267Y81201D01*
X99600D02*
X100933D01*
X100267D01*
Y85199D01*
X99600Y84533D01*
X104932Y81201D02*
Y85199D01*
X102933Y83200D01*
X105598D01*
X118502Y81101D02*
Y85099D01*
X120501D01*
X121167Y84433D01*
Y83100D01*
X120501Y82434D01*
X118502D01*
X119834D02*
X121167Y81101D01*
X122500D02*
X123833D01*
X123167D01*
Y85099D01*
X122500Y84433D01*
X125833D02*
X126499Y85099D01*
X127832D01*
X128498Y84433D01*
Y83766D01*
X127832Y83100D01*
X127165D01*
X127832D01*
X128498Y82434D01*
Y81767D01*
X127832Y81101D01*
X126499D01*
X125833Y81767D01*
X142501Y55368D02*
X145833D01*
X146499Y56034D01*
Y57367D01*
X145833Y58034D01*
X142501D01*
X143167Y59367D02*
X142501Y60033D01*
Y61366D01*
X143167Y62032D01*
X143833D01*
X144500Y61366D01*
Y60699D01*
Y61366D01*
X145167Y62032D01*
X145833D01*
X146499Y61366D01*
Y60033D01*
X145833Y59367D01*
X110001Y43768D02*
X113333D01*
X113999Y44434D01*
Y45767D01*
X113333Y46434D01*
X110001D01*
X113999Y50432D02*
Y47767D01*
X111334Y50432D01*
X110667D01*
X110001Y49766D01*
Y48433D01*
X110667Y47767D01*
X146601Y31734D02*
X149933D01*
X150599Y32401D01*
Y33734D01*
X149933Y34400D01*
X146601D01*
X150599Y35733D02*
Y37066D01*
Y36399D01*
X146601D01*
X147267Y35733D01*
X201297Y76666D02*
X202820Y72667D01*
X204344Y76666D02*
X202820Y72667D01*
X207715Y75714D02*
X207524Y76095D01*
X207143Y76476D01*
X206762Y76666D01*
X206001D01*
X205620Y76476D01*
X205239Y76095D01*
X205048Y75714D01*
X204858Y75143D01*
Y74190D01*
X205048Y73619D01*
X205239Y73238D01*
X205620Y72857D01*
X206001Y72667D01*
X206762D01*
X207143Y72857D01*
X207524Y73238D01*
X207715Y73619D01*
Y74190D01*
X206762D02*
X207715D01*
X208629Y71334D02*
X211676D01*
X214856Y76095D02*
X214475Y76476D01*
X213904Y76666D01*
X213142D01*
X212571Y76476D01*
X212190Y76095D01*
Y75714D01*
X212380Y75333D01*
X212571Y75143D01*
X212951Y74952D01*
X214094Y74571D01*
X214475Y74381D01*
X214666Y74190D01*
X214856Y73810D01*
Y73238D01*
X214475Y72857D01*
X213904Y72667D01*
X213142D01*
X212571Y72857D01*
X212190Y73238D01*
X215751Y75904D02*
X216132Y76095D01*
X216703Y76666D01*
Y72667D01*
X143002Y71201D02*
Y75199D01*
X145001D01*
X145667Y74533D01*
Y73200D01*
X145001Y72534D01*
X143002D01*
X144334D02*
X145667Y71201D01*
X147000D02*
X148333D01*
X147667D01*
Y75199D01*
X147000Y74533D01*
X152998Y75199D02*
X151665Y74533D01*
X150333Y73200D01*
Y71867D01*
X150999Y71201D01*
X152332D01*
X152998Y71867D01*
Y72534D01*
X152332Y73200D01*
X150333D01*
X142702Y88001D02*
Y91999D01*
X144701D01*
X145367Y91333D01*
Y90000D01*
X144701Y89334D01*
X142702D01*
X144035D02*
X145367Y88001D01*
X146700D02*
X148033D01*
X147367D01*
Y91999D01*
X146700Y91333D01*
X152698Y91999D02*
X150033D01*
Y90000D01*
X151365Y90666D01*
X152032D01*
X152698Y90000D01*
Y88667D01*
X152032Y88001D01*
X150699D01*
X150033Y88667D01*
X113401Y169298D02*
X117399D01*
Y167299D01*
X116733Y166633D01*
X115400D01*
X114734Y167299D01*
Y169298D01*
Y167965D02*
X113401Y166633D01*
Y165300D02*
Y163967D01*
Y164633D01*
X117399D01*
X116733Y165300D01*
X113401Y159302D02*
Y161967D01*
X116067Y159302D01*
X116733D01*
X117399Y159968D01*
Y161301D01*
X116733Y161967D01*
X113401Y151632D02*
X117399D01*
Y149633D01*
X116733Y148966D01*
X115400D01*
X114734Y149633D01*
Y151632D01*
Y150299D02*
X113401Y148966D01*
Y147633D02*
Y146300D01*
Y146967D01*
X117399D01*
X116733Y147633D01*
X113401Y144301D02*
Y142968D01*
Y143634D01*
X117399D01*
X116733Y144301D01*
X86299Y52102D02*
X82301D01*
Y54101D01*
X82967Y54767D01*
X84300D01*
X84966Y54101D01*
Y52102D01*
Y53434D02*
X86299Y54767D01*
Y56100D02*
Y57433D01*
Y56767D01*
X82301D01*
X82967Y56100D01*
Y59433D02*
X82301Y60099D01*
Y61432D01*
X82967Y62098D01*
X85633D01*
X86299Y61432D01*
Y60099D01*
X85633Y59433D01*
X82967D01*
X186999Y63668D02*
X183001D01*
Y65667D01*
X183667Y66334D01*
X185000D01*
X185667Y65667D01*
Y63668D01*
Y65001D02*
X186999Y66334D01*
X183667Y67667D02*
X183001Y68333D01*
Y69666D01*
X183667Y70332D01*
X184334D01*
X185000Y69666D01*
X185667Y70332D01*
X186333D01*
X186999Y69666D01*
Y68333D01*
X186333Y67667D01*
X185667D01*
X185000Y68333D01*
X184334Y67667D01*
X183667D01*
X185000Y68333D02*
Y69666D01*
X86299Y41968D02*
X82301D01*
Y43967D01*
X82967Y44634D01*
X84300D01*
X84966Y43967D01*
Y41968D01*
Y43301D02*
X86299Y44634D01*
X82301Y45967D02*
Y48632D01*
X82967D01*
X85633Y45967D01*
X86299D01*
X186499Y75868D02*
X182501D01*
Y77867D01*
X183167Y78534D01*
X184500D01*
X185167Y77867D01*
Y75868D01*
Y77201D02*
X186499Y78534D01*
X182501Y82532D02*
Y79866D01*
X184500D01*
X183834Y81199D01*
Y81866D01*
X184500Y82532D01*
X185833D01*
X186499Y81866D01*
Y80533D01*
X185833Y79866D01*
X86199Y29568D02*
X82201D01*
Y31567D01*
X82867Y32234D01*
X84200D01*
X84866Y31567D01*
Y29568D01*
Y30901D02*
X86199Y32234D01*
Y35566D02*
X82201D01*
X84200Y33566D01*
Y36232D01*
X106368Y27901D02*
Y31899D01*
X108367D01*
X109034Y31233D01*
Y29900D01*
X108367Y29234D01*
X106368D01*
X107701D02*
X109034Y27901D01*
X110366Y31233D02*
X111033Y31899D01*
X112366D01*
X113032Y31233D01*
Y30566D01*
X112366Y29900D01*
X111699D01*
X112366D01*
X113032Y29234D01*
Y28567D01*
X112366Y27901D01*
X111033D01*
X110366Y28567D01*
X61668Y64401D02*
Y68399D01*
X63667D01*
X64334Y67733D01*
Y66400D01*
X63667Y65734D01*
X61668D01*
X63001D02*
X64334Y64401D01*
X68332D02*
X65667D01*
X68332Y67066D01*
Y67733D01*
X67666Y68399D01*
X66333D01*
X65667Y67733D01*
X8934Y63101D02*
Y67099D01*
X10933D01*
X11600Y66433D01*
Y65100D01*
X10933Y64434D01*
X8934D01*
X10267D02*
X11600Y63101D01*
X12933D02*
X14266D01*
X13599D01*
Y67099D01*
X12933Y66433D01*
X37200Y60999D02*
X35867D01*
X36534D01*
Y57667D01*
X35867Y57001D01*
X35201D01*
X34534Y57667D01*
X38533Y57001D02*
X39866D01*
X39199D01*
Y60999D01*
X38533Y60333D01*
X137468Y130099D02*
Y126101D01*
X139467D01*
X140134Y126767D01*
Y129433D01*
X139467Y130099D01*
X137468D01*
X143466Y126101D02*
Y130099D01*
X141466Y128100D01*
X144132D01*
X85468Y130199D02*
Y126201D01*
X87467D01*
X88134Y126867D01*
Y129533D01*
X87467Y130199D01*
X85468D01*
X89467Y129533D02*
X90133Y130199D01*
X91466D01*
X92132Y129533D01*
Y128867D01*
X91466Y128200D01*
X90799D01*
X91466D01*
X92132Y127533D01*
Y126867D01*
X91466Y126201D01*
X90133D01*
X89467Y126867D01*
X120268Y173799D02*
Y169801D01*
X122267D01*
X122933Y170467D01*
Y173133D01*
X122267Y173799D01*
X120268D01*
X126932Y169801D02*
X124267D01*
X126932Y172467D01*
Y173133D01*
X126266Y173799D01*
X124933D01*
X124267Y173133D01*
X104134Y173799D02*
Y169801D01*
X106133D01*
X106800Y170467D01*
Y173133D01*
X106133Y173799D01*
X104134D01*
X108133Y169801D02*
X109466D01*
X108799D01*
Y173799D01*
X108133Y173133D01*
X83067Y17734D02*
X82401Y17068D01*
Y15735D01*
X83067Y15068D01*
X85733D01*
X86399Y15735D01*
Y17068D01*
X85733Y17734D01*
X86399Y19067D02*
X82401D01*
X83733Y20400D01*
X82401Y21733D01*
X86399D01*
Y25732D02*
Y23066D01*
X83733Y25732D01*
X83067D01*
X82401Y25065D01*
Y23732D01*
X83067Y23066D01*
X83167Y5201D02*
X82501Y4534D01*
Y3201D01*
X83167Y2535D01*
X85833D01*
X86499Y3201D01*
Y4534D01*
X85833Y5201D01*
X86499Y6533D02*
X82501D01*
X83834Y7867D01*
X82501Y9199D01*
X86499D01*
Y10532D02*
Y11865D01*
Y11199D01*
X82501D01*
X83167Y10532D01*
X130667Y126134D02*
X130001Y125467D01*
Y124134D01*
X130667Y123468D01*
X133333D01*
X133999Y124134D01*
Y125467D01*
X133333Y126134D01*
Y127466D02*
X133999Y128133D01*
Y129466D01*
X133333Y130132D01*
X130667D01*
X130001Y129466D01*
Y128133D01*
X130667Y127466D01*
X131333D01*
X132000Y128133D01*
Y130132D01*
X97367Y126233D02*
X96701Y125567D01*
Y124234D01*
X97367Y123568D01*
X100033D01*
X100699Y124234D01*
Y125567D01*
X100033Y126233D01*
X97367Y127567D02*
X96701Y128233D01*
Y129566D01*
X97367Y130232D01*
X98034D01*
X98700Y129566D01*
X99366Y130232D01*
X100033D01*
X100699Y129566D01*
Y128233D01*
X100033Y127567D01*
X99366D01*
X98700Y128233D01*
X98034Y127567D01*
X97367D01*
X98700Y128233D02*
Y129566D01*
X130167Y71634D02*
X129501Y70967D01*
Y69634D01*
X130167Y68968D01*
X132833D01*
X133499Y69634D01*
Y70967D01*
X132833Y71634D01*
X129501Y72966D02*
Y75632D01*
X130167D01*
X132833Y72966D01*
X133499D01*
X117467Y33434D02*
X116801Y32767D01*
Y31434D01*
X117467Y30768D01*
X120133D01*
X120799Y31434D01*
Y32767D01*
X120133Y33434D01*
X116801Y37432D02*
X117467Y36099D01*
X118800Y34767D01*
X120133D01*
X120799Y35433D01*
Y36766D01*
X120133Y37432D01*
X119466D01*
X118800Y36766D01*
Y34767D01*
X95134Y71233D02*
X94467Y71899D01*
X93134D01*
X92468Y71233D01*
Y68567D01*
X93134Y67901D01*
X94467D01*
X95134Y68567D01*
X99132Y71899D02*
X96466D01*
Y69900D01*
X97799Y70566D01*
X98466D01*
X99132Y69900D01*
Y68567D01*
X98466Y67901D01*
X97133D01*
X96466Y68567D01*
X170433Y70366D02*
X171099Y71033D01*
Y72366D01*
X170433Y73032D01*
X167767D01*
X167101Y72366D01*
Y71033D01*
X167767Y70366D01*
X167101Y67034D02*
X171099D01*
X169100Y69033D01*
Y66368D01*
X145400Y25433D02*
X144734Y26099D01*
X143401D01*
X142734Y25433D01*
Y22767D01*
X143401Y22101D01*
X144734D01*
X145400Y22767D01*
X146733Y22101D02*
X148066D01*
X147399D01*
Y26099D01*
X146733Y25433D01*
D12*
X120100Y14700D02*
Y18700D01*
X137100D01*
Y14700D02*
Y18700D01*
Y1700D02*
Y5700D01*
X120100Y1700D02*
Y5700D01*
Y1700D02*
X137100D01*
X117600Y2200D02*
Y5200D01*
X116100Y3700D02*
X119100D01*
X140300Y64000D02*
X140800D01*
Y40000D02*
Y64000D01*
X140300Y40000D02*
X140800D01*
X119800Y64000D02*
X120300D01*
X119800Y40000D02*
Y64000D01*
Y40000D02*
X120300D01*
X94720Y53400D02*
X95120D01*
X94720Y41400D02*
Y53400D01*
X107820D02*
X108220D01*
Y41400D02*
Y53400D01*
X107820Y41400D02*
X108220D01*
X94720D02*
X95120D01*
X152300Y17400D02*
X157800D01*
X152300D02*
Y63400D01*
X157800D01*
X170400Y17400D02*
X175900D01*
Y63400D01*
X170400D02*
X175900D01*
X100100Y145000D02*
Y161600D01*
X111100Y145000D02*
Y161600D01*
X130600Y145000D02*
Y161600D01*
X119600Y145000D02*
Y161600D01*
X141595Y158197D02*
X150550D01*
X141595D02*
X146039Y150500D01*
X146050Y150403D02*
X150550Y158197D01*
X133800Y131900D02*
Y133200D01*
X158000Y131900D02*
Y133200D01*
X133800D02*
X158000D01*
X133800Y131900D02*
X158000D01*
X133800Y133400D02*
Y175500D01*
X158000Y133400D02*
Y175500D01*
X133800D02*
X158000D01*
X133800Y133400D02*
X158000D01*
X80395Y158197D02*
X89350D01*
X80395D02*
X84839Y150500D01*
X84850Y150403D02*
X89350Y158197D01*
X72600Y131900D02*
Y133200D01*
X96800Y131900D02*
Y133200D01*
X72600D02*
X96800D01*
X72600Y131900D02*
X96800D01*
X72600Y133400D02*
Y175500D01*
X96800Y133400D02*
Y175500D01*
X72600D02*
X96800D01*
X72600Y133400D02*
X96800D01*
X132603Y183295D02*
Y192250D01*
Y183295D02*
X140300Y187739D01*
X132603Y192250D02*
X140397Y187750D01*
X157600Y175500D02*
X158900D01*
X157600Y199700D02*
X158900D01*
X157600Y175500D02*
Y199700D01*
X158900Y175500D02*
Y199700D01*
X115300Y175500D02*
X157400D01*
X115300Y199700D02*
X157400D01*
X115300Y175500D02*
Y199700D01*
X157400Y175500D02*
Y199700D01*
X97997Y182950D02*
Y191905D01*
X90300Y187461D02*
X97997Y191905D01*
X90203Y187450D02*
X97997Y182950D01*
X71700Y199700D02*
X73000D01*
X71700Y175500D02*
X73000D01*
Y199700D01*
X71700Y175500D02*
Y199700D01*
X73200D02*
X115300D01*
X73200Y175500D02*
X115300D01*
Y199700D01*
X73200Y175500D02*
Y199700D01*
D13*
X197601Y37195D02*
X197220Y37576D01*
X196649Y37766D01*
X195887D01*
X195316Y37576D01*
X194935Y37195D01*
Y36814D01*
X195126Y36433D01*
X195316Y36243D01*
X195697Y36052D01*
X196839Y35671D01*
X197220Y35481D01*
X197411Y35290D01*
X197601Y34910D01*
Y34338D01*
X197220Y33957D01*
X196649Y33767D01*
X195887D01*
X195316Y33957D01*
X194935Y34338D01*
X198687Y36814D02*
Y37004D01*
X198877Y37385D01*
X199068Y37576D01*
X199449Y37766D01*
X200210D01*
X200591Y37576D01*
X200781Y37385D01*
X200972Y37004D01*
Y36623D01*
X200781Y36243D01*
X200401Y35671D01*
X198496Y33767D01*
X201162D01*
X202058Y32434D02*
X205104D01*
X206761Y37766D02*
X206380Y37576D01*
X205999Y37195D01*
X205809Y36814D01*
X205619Y36243D01*
Y35290D01*
X205809Y34719D01*
X205999Y34338D01*
X206380Y33957D01*
X206761Y33767D01*
X207523D01*
X207904Y33957D01*
X208285Y34338D01*
X208475Y34719D01*
X208666Y35290D01*
Y36243D01*
X208475Y36814D01*
X208285Y37195D01*
X207904Y37576D01*
X207523Y37766D01*
X206761D01*
X209599D02*
Y33767D01*
Y37766D02*
X212265Y33767D01*
Y37766D02*
Y33767D01*
X197915Y44895D02*
X197535Y45276D01*
X196963Y45466D01*
X196202D01*
X195630Y45276D01*
X195249Y44895D01*
Y44514D01*
X195440Y44133D01*
X195630Y43943D01*
X196011Y43752D01*
X197154Y43371D01*
X197535Y43181D01*
X197725Y42990D01*
X197915Y42610D01*
Y42038D01*
X197535Y41657D01*
X196963Y41467D01*
X196202D01*
X195630Y41657D01*
X195249Y42038D01*
X198811Y44704D02*
X199191Y44895D01*
X199763Y45466D01*
Y41467D01*
X201743Y40134D02*
X204790D01*
X206447Y45466D02*
X206066Y45276D01*
X205685Y44895D01*
X205495Y44514D01*
X205304Y43943D01*
Y42990D01*
X205495Y42419D01*
X205685Y42038D01*
X206066Y41657D01*
X206447Y41467D01*
X207209D01*
X207590Y41657D01*
X207970Y42038D01*
X208161Y42419D01*
X208351Y42990D01*
Y43943D01*
X208161Y44514D01*
X207970Y44895D01*
X207590Y45276D01*
X207209Y45466D01*
X206447D01*
X209284D02*
Y41467D01*
Y45466D02*
X211951Y41467D01*
Y45466D02*
Y41467D01*
X201082Y49905D02*
X202796D01*
X203367Y50095D01*
X203558Y50286D01*
X203748Y50666D01*
Y51238D01*
X203558Y51619D01*
X203367Y51809D01*
X202796Y52000D01*
X201082D01*
Y48000D01*
X204643Y52000D02*
X205595Y48000D01*
X206548Y52000D02*
X205595Y48000D01*
X206548Y52000D02*
X207500Y48000D01*
X208452Y52000D02*
X207500Y48000D01*
X209252Y52000D02*
Y48000D01*
Y52000D02*
X210966D01*
X211537Y51809D01*
X211727Y51619D01*
X211918Y51238D01*
Y50857D01*
X211727Y50476D01*
X211537Y50286D01*
X210966Y50095D01*
X209252D01*
X210585D02*
X211918Y48000D01*
D14*
X214950Y35050D02*
D03*
Y42550D02*
D03*
Y50050D02*
D03*
D15*
X145850Y132550D02*
D03*
X84650D02*
D03*
D16*
X158250Y187550D02*
D03*
X72350Y187650D02*
D03*
M02*
