G04*
G04 #@! TF.GenerationSoftware,Altium Limited,Altium Designer,23.10.1 (27)*
G04*
G04 Layer_Color=16711935*
%FSLAX25Y25*%
%MOIN*%
G70*
G04*
G04 #@! TF.SameCoordinates,48329E4E-80D2-4777-9540-AAF0B2507E0B*
G04*
G04*
G04 #@! TF.FilePolarity,Negative*
G04*
G01*
G75*
G04:AMPARAMS|DCode=44|XSize=349mil|YSize=571mil|CornerRadius=21.05mil|HoleSize=0mil|Usage=FLASHONLY|Rotation=270.000|XOffset=0mil|YOffset=0mil|HoleType=Round|Shape=RoundedRectangle|*
%AMROUNDEDRECTD44*
21,1,0.34900,0.52890,0,0,270.0*
21,1,0.30690,0.57100,0,0,270.0*
1,1,0.04210,-0.26445,-0.15345*
1,1,0.04210,-0.26445,0.15345*
1,1,0.04210,0.26445,0.15345*
1,1,0.04210,0.26445,-0.15345*
%
%ADD44ROUNDEDRECTD44*%
%ADD45C,0.08800*%
%ADD46C,0.05740*%
%ADD47R,0.69550X0.69550*%
%ADD48C,0.06800*%
%ADD49C,0.13400*%
%ADD50C,0.09500*%
%ADD51C,0.03162*%
%ADD63C,0.03300*%
D44*
X200200Y109200D02*
D03*
X30500D02*
D03*
D45*
X136800Y119200D02*
D03*
X149300Y109200D02*
D03*
X136800Y99200D02*
D03*
X93900Y119200D02*
D03*
X81400Y109200D02*
D03*
X93900Y99200D02*
D03*
D46*
X171100Y24900D02*
D03*
Y34900D02*
D03*
Y44900D02*
D03*
Y54900D02*
D03*
D47*
X194800Y165200D02*
D03*
X35800D02*
D03*
D48*
X51600Y23900D02*
D03*
X47575Y30900D02*
D03*
X43575Y23900D02*
D03*
X39525Y30900D02*
D03*
X35550Y23900D02*
D03*
X31525Y30900D02*
D03*
X27525Y23900D02*
D03*
X23500Y30900D02*
D03*
X64600Y49900D02*
D03*
X55600D02*
D03*
X19600D02*
D03*
X10600D02*
D03*
D49*
X12600Y13900D02*
D03*
X62600D02*
D03*
D50*
X5600Y27400D02*
D03*
X69600D02*
D03*
D51*
X82700Y74800D02*
D03*
X179300Y76600D02*
D03*
X164900D02*
D03*
X135200Y31000D02*
D03*
X121500Y28100D02*
D03*
X119000Y75300D02*
D03*
X127700Y73400D02*
D03*
D63*
X100600Y61800D02*
D03*
X164900Y82500D02*
D03*
X179300D02*
D03*
X195100Y81900D02*
D03*
X133600Y35600D02*
D03*
X137200Y35700D02*
D03*
X127000Y23900D02*
D03*
X119500Y67400D02*
D03*
X139275Y4925D02*
D03*
X101430Y45568D02*
D03*
X117200Y118900D02*
D03*
X113800D02*
D03*
X137900Y72300D02*
D03*
X219700Y62400D02*
D03*
X117200Y122200D02*
D03*
X115500Y115800D02*
D03*
X113800Y122200D02*
D03*
X115300Y180800D02*
D03*
Y184100D02*
D03*
Y187600D02*
D03*
Y190900D02*
D03*
Y194200D02*
D03*
X18500Y71000D02*
D03*
X187160Y60762D02*
D03*
X186500Y72600D02*
D03*
X204900Y5500D02*
D03*
M02*
