G04*
G04 #@! TF.GenerationSoftware,Altium Limited,Altium Designer,23.5.1 (21)*
G04*
G04 Layer_Color=8421504*
%FSLAX44Y44*%
%MOMM*%
G71*
G04*
G04 #@! TF.SameCoordinates,400D6350-3BAC-4576-97D5-205421131FC2*
G04*
G04*
G04 #@! TF.FilePolarity,Positive*
G04*
G01*
G75*
%ADD10C,0.2540*%
%ADD17R,14.1732X8.5090*%
G04:AMPARAMS|DCode=18|XSize=0.9398mm|YSize=0.9906mm|CornerRadius=0.047mm|HoleSize=0mm|Usage=FLASHONLY|Rotation=90.000|XOffset=0mm|YOffset=0mm|HoleType=Round|Shape=RoundedRectangle|*
%AMROUNDEDRECTD18*
21,1,0.9398,0.8966,0,0,90.0*
21,1,0.8458,0.9906,0,0,90.0*
1,1,0.0940,0.4483,0.4229*
1,1,0.0940,0.4483,-0.4229*
1,1,0.0940,-0.4483,-0.4229*
1,1,0.0940,-0.4483,0.4229*
%
%ADD18ROUNDEDRECTD18*%
G04:AMPARAMS|DCode=19|XSize=0.8001mm|YSize=0.6604mm|CornerRadius=0.033mm|HoleSize=0mm|Usage=FLASHONLY|Rotation=0.000|XOffset=0mm|YOffset=0mm|HoleType=Round|Shape=RoundedRectangle|*
%AMROUNDEDRECTD19*
21,1,0.8001,0.5944,0,0,0.0*
21,1,0.7341,0.6604,0,0,0.0*
1,1,0.0660,0.3670,-0.2972*
1,1,0.0660,-0.3670,-0.2972*
1,1,0.0660,-0.3670,0.2972*
1,1,0.0660,0.3670,0.2972*
%
%ADD19ROUNDEDRECTD19*%
G04:AMPARAMS|DCode=20|XSize=1.6002mm|YSize=2.5908mm|CornerRadius=0.2mm|HoleSize=0mm|Usage=FLASHONLY|Rotation=270.000|XOffset=0mm|YOffset=0mm|HoleType=Round|Shape=RoundedRectangle|*
%AMROUNDEDRECTD20*
21,1,1.6002,2.1908,0,0,270.0*
21,1,1.2002,2.5908,0,0,270.0*
1,1,0.4001,-1.0954,-0.6001*
1,1,0.4001,-1.0954,0.6001*
1,1,0.4001,1.0954,0.6001*
1,1,0.4001,1.0954,-0.6001*
%
%ADD20ROUNDEDRECTD20*%
G04:AMPARAMS|DCode=21|XSize=1.8034mm|YSize=0.9906mm|CornerRadius=0.1238mm|HoleSize=0mm|Usage=FLASHONLY|Rotation=0.000|XOffset=0mm|YOffset=0mm|HoleType=Round|Shape=RoundedRectangle|*
%AMROUNDEDRECTD21*
21,1,1.8034,0.7430,0,0,0.0*
21,1,1.5558,0.9906,0,0,0.0*
1,1,0.2477,0.7779,-0.3715*
1,1,0.2477,-0.7779,-0.3715*
1,1,0.2477,-0.7779,0.3715*
1,1,0.2477,0.7779,0.3715*
%
%ADD21ROUNDEDRECTD21*%
G04:AMPARAMS|DCode=22|XSize=1.5494mm|YSize=0.6096mm|CornerRadius=0.0305mm|HoleSize=0mm|Usage=FLASHONLY|Rotation=90.000|XOffset=0mm|YOffset=0mm|HoleType=Round|Shape=RoundedRectangle|*
%AMROUNDEDRECTD22*
21,1,1.5494,0.5486,0,0,90.0*
21,1,1.4884,0.6096,0,0,90.0*
1,1,0.0610,0.2743,0.7442*
1,1,0.0610,0.2743,-0.7442*
1,1,0.0610,-0.2743,-0.7442*
1,1,0.0610,-0.2743,0.7442*
%
%ADD22ROUNDEDRECTD22*%
G04:AMPARAMS|DCode=23|XSize=0.6096mm|YSize=1.0414mm|CornerRadius=0.0305mm|HoleSize=0mm|Usage=FLASHONLY|Rotation=0.000|XOffset=0mm|YOffset=0mm|HoleType=Round|Shape=RoundedRectangle|*
%AMROUNDEDRECTD23*
21,1,0.6096,0.9804,0,0,0.0*
21,1,0.5486,1.0414,0,0,0.0*
1,1,0.0610,0.2743,-0.4902*
1,1,0.0610,-0.2743,-0.4902*
1,1,0.0610,-0.2743,0.4902*
1,1,0.0610,0.2743,0.4902*
%
%ADD23ROUNDEDRECTD23*%
G04:AMPARAMS|DCode=24|XSize=0.9398mm|YSize=0.9906mm|CornerRadius=0.047mm|HoleSize=0mm|Usage=FLASHONLY|Rotation=0.000|XOffset=0mm|YOffset=0mm|HoleType=Round|Shape=RoundedRectangle|*
%AMROUNDEDRECTD24*
21,1,0.9398,0.8966,0,0,0.0*
21,1,0.8458,0.9906,0,0,0.0*
1,1,0.0940,0.4229,-0.4483*
1,1,0.0940,-0.4229,-0.4483*
1,1,0.0940,-0.4229,0.4483*
1,1,0.0940,0.4229,0.4483*
%
%ADD24ROUNDEDRECTD24*%
G04:AMPARAMS|DCode=25|XSize=1.2446mm|YSize=3.175mm|CornerRadius=0.1556mm|HoleSize=0mm|Usage=FLASHONLY|Rotation=90.000|XOffset=0mm|YOffset=0mm|HoleType=Round|Shape=RoundedRectangle|*
%AMROUNDEDRECTD25*
21,1,1.2446,2.8639,0,0,90.0*
21,1,0.9335,3.1750,0,0,90.0*
1,1,0.3112,1.4319,0.4667*
1,1,0.3112,1.4319,-0.4667*
1,1,0.3112,-1.4319,-0.4667*
1,1,0.3112,-1.4319,0.4667*
%
%ADD25ROUNDEDRECTD25*%
G04:AMPARAMS|DCode=26|XSize=3.81mm|YSize=3.0226mm|CornerRadius=0.1511mm|HoleSize=0mm|Usage=FLASHONLY|Rotation=0.000|XOffset=0mm|YOffset=0mm|HoleType=Round|Shape=RoundedRectangle|*
%AMROUNDEDRECTD26*
21,1,3.8100,2.7203,0,0,0.0*
21,1,3.5077,3.0226,0,0,0.0*
1,1,0.3023,1.7539,-1.3602*
1,1,0.3023,-1.7539,-1.3602*
1,1,0.3023,-1.7539,1.3602*
1,1,0.3023,1.7539,1.3602*
%
%ADD26ROUNDEDRECTD26*%
G04:AMPARAMS|DCode=27|XSize=3.81mm|YSize=3.0226mm|CornerRadius=0.1511mm|HoleSize=0mm|Usage=FLASHONLY|Rotation=90.000|XOffset=0mm|YOffset=0mm|HoleType=Round|Shape=RoundedRectangle|*
%AMROUNDEDRECTD27*
21,1,3.8100,2.7203,0,0,90.0*
21,1,3.5077,3.0226,0,0,90.0*
1,1,0.3023,1.3602,1.7539*
1,1,0.3023,1.3602,-1.7539*
1,1,0.3023,-1.3602,-1.7539*
1,1,0.3023,-1.3602,1.7539*
%
%ADD27ROUNDEDRECTD27*%
G04:AMPARAMS|DCode=28|XSize=1.0922mm|YSize=2.4892mm|CornerRadius=0.0546mm|HoleSize=0mm|Usage=FLASHONLY|Rotation=270.000|XOffset=0mm|YOffset=0mm|HoleType=Round|Shape=RoundedRectangle|*
%AMROUNDEDRECTD28*
21,1,1.0922,2.3800,0,0,270.0*
21,1,0.9830,2.4892,0,0,270.0*
1,1,0.1092,-1.1900,-0.4915*
1,1,0.1092,-1.1900,0.4915*
1,1,0.1092,1.1900,0.4915*
1,1,0.1092,1.1900,-0.4915*
%
%ADD28ROUNDEDRECTD28*%
G04:AMPARAMS|DCode=29|XSize=0.9906mm|YSize=1.4478mm|CornerRadius=0.0495mm|HoleSize=0mm|Usage=FLASHONLY|Rotation=270.000|XOffset=0mm|YOffset=0mm|HoleType=Round|Shape=RoundedRectangle|*
%AMROUNDEDRECTD29*
21,1,0.9906,1.3487,0,0,270.0*
21,1,0.8915,1.4478,0,0,270.0*
1,1,0.0991,-0.6744,-0.4458*
1,1,0.0991,-0.6744,0.4458*
1,1,0.0991,0.6744,0.4458*
1,1,0.0991,0.6744,-0.4458*
%
%ADD29ROUNDEDRECTD29*%
D10*
X441960Y321056D02*
G03*
X437388Y316484I0J-4572D01*
G01*
X580390D02*
G03*
X575818Y321056I-4572J0D01*
G01*
X437388Y239014D02*
G03*
X441960Y234442I4572J0D01*
G01*
X575818D02*
G03*
X580390Y239014I0J4572D01*
G01*
X143256Y233934D02*
G03*
X147828Y238506I0J4572D01*
G01*
X4826D02*
G03*
X9398Y233934I4572J0D01*
G01*
X147828Y315976D02*
G03*
X143256Y320548I-4572J0D01*
G01*
X9398D02*
G03*
X4826Y315976I0J-4572D01*
G01*
X441960Y321056D02*
X575818D01*
X441960Y234442D02*
X575818D01*
X580390Y239014D02*
Y316484D01*
X437388Y239014D02*
Y316484D01*
X9398Y233934D02*
X143256D01*
X9398Y320548D02*
X143256D01*
X4826Y238506D02*
Y315976D01*
X147828Y238506D02*
Y315976D01*
D17*
X509016Y277749D02*
D03*
X76200Y277241D02*
D03*
D18*
X229108Y136398D02*
D03*
Y152400D02*
D03*
X244348Y164084D02*
D03*
Y148082D02*
D03*
X276860Y216408D02*
D03*
Y200406D02*
D03*
X292100Y216408D02*
D03*
Y200406D02*
D03*
X485140Y131318D02*
D03*
Y147320D02*
D03*
Y161798D02*
D03*
Y177800D02*
D03*
X229108Y121920D02*
D03*
Y105918D02*
D03*
X485140Y192278D02*
D03*
Y208280D02*
D03*
X229108Y91440D02*
D03*
Y75438D02*
D03*
D19*
X259334Y41275D02*
D03*
Y61214D02*
D03*
X228854D02*
D03*
Y41275D02*
D03*
X259334Y8128D02*
D03*
Y28067D02*
D03*
X228854D02*
D03*
Y8128D02*
D03*
D20*
X344678Y25908D02*
D03*
X308610D02*
D03*
D21*
X563880Y209550D02*
D03*
Y189230D02*
D03*
Y148844D02*
D03*
Y169164D02*
D03*
X571246Y14986D02*
D03*
Y33782D02*
D03*
X571500Y52578D02*
D03*
D22*
X311912Y105029D02*
D03*
X324612D02*
D03*
X337312D02*
D03*
X350012D02*
D03*
X337312Y159131D02*
D03*
X324612D02*
D03*
X311912D02*
D03*
X350012D02*
D03*
D23*
X248209Y106426D02*
D03*
X257708D02*
D03*
X267208D02*
D03*
Y133350D02*
D03*
X248209D02*
D03*
D24*
X556260Y88900D02*
D03*
X572262D02*
D03*
X556260Y107950D02*
D03*
X572262D02*
D03*
X384302Y199644D02*
D03*
X368300D02*
D03*
X384556Y214884D02*
D03*
X368554D02*
D03*
X243840Y75946D02*
D03*
X259842D02*
D03*
X173482Y182118D02*
D03*
X157480D02*
D03*
X18796Y181102D02*
D03*
X34798D02*
D03*
X556260Y127000D02*
D03*
X572262D02*
D03*
X309880Y87884D02*
D03*
X325882D02*
D03*
X447802Y198882D02*
D03*
X431800D02*
D03*
X259842Y90932D02*
D03*
X243840D02*
D03*
X347472Y60452D02*
D03*
X331470D02*
D03*
D25*
X268224Y357378D02*
D03*
Y421386D02*
D03*
X317754D02*
D03*
Y357378D02*
D03*
D26*
X370586Y358394D02*
D03*
Y426974D02*
D03*
X215138Y358394D02*
D03*
Y426974D02*
D03*
D27*
X380238Y476504D02*
D03*
X311658D02*
D03*
X205486D02*
D03*
X274066D02*
D03*
D28*
X314452Y339344D02*
D03*
Y308356D02*
D03*
X271526D02*
D03*
Y339344D02*
D03*
D29*
X350012Y172974D02*
D03*
Y192024D02*
D03*
M02*
