G04*
G04 #@! TF.GenerationSoftware,Altium Limited,Altium Designer,23.5.1 (21)*
G04*
G04 Layer_Color=16711935*
%FSLAX44Y44*%
%MOMM*%
G71*
G04*
G04 #@! TF.SameCoordinates,400D6350-3BAC-4576-97D5-205421131FC2*
G04*
G04*
G04 #@! TF.FilePolarity,Negative*
G04*
G01*
G75*
%ADD42C,1.4580*%
G04:AMPARAMS|DCode=43|XSize=8.8646mm|YSize=14.5034mm|CornerRadius=0.5347mm|HoleSize=0mm|Usage=FLASHONLY|Rotation=270.000|XOffset=0mm|YOffset=0mm|HoleType=Round|Shape=RoundedRectangle|*
%AMROUNDEDRECTD43*
21,1,8.8646,13.4341,0,0,270.0*
21,1,7.7953,14.5034,0,0,270.0*
1,1,1.0693,-6.7170,-3.8976*
1,1,1.0693,-6.7170,3.8976*
1,1,1.0693,6.7170,3.8976*
1,1,1.0693,6.7170,-3.8976*
%
%ADD43ROUNDEDRECTD43*%
%ADD44C,2.2352*%
%ADD45R,17.6657X17.6657*%
%ADD46C,1.7272*%
%ADD47C,3.4036*%
%ADD48C,2.4130*%
%ADD60C,0.8382*%
%ADD61C,0.8032*%
D42*
X434594Y63246D02*
D03*
Y88646D02*
D03*
Y114046D02*
D03*
Y139446D02*
D03*
D43*
X508762Y277876D02*
D03*
X76454Y277114D02*
D03*
D44*
X347726Y303276D02*
D03*
X379476Y277876D02*
D03*
X347726Y252476D02*
D03*
X237490Y251714D02*
D03*
X205740Y277114D02*
D03*
X237490Y302514D02*
D03*
D45*
X494792Y419608D02*
D03*
X90932D02*
D03*
D46*
X131064Y60706D02*
D03*
X120841Y78486D02*
D03*
X110681Y60706D02*
D03*
X100393Y78486D02*
D03*
X90297Y60706D02*
D03*
X80073Y78486D02*
D03*
X69914Y60706D02*
D03*
X59690Y78486D02*
D03*
X164084Y126746D02*
D03*
X141224D02*
D03*
X49784D02*
D03*
X26924D02*
D03*
D47*
X32004Y35306D02*
D03*
X159004D02*
D03*
D48*
X14224Y69596D02*
D03*
X176784D02*
D03*
D60*
X303530Y171196D02*
D03*
X353759Y12509D02*
D03*
X257632Y115743D02*
D03*
X231902Y163830D02*
D03*
X297688Y302006D02*
D03*
X289052D02*
D03*
X350266Y183642D02*
D03*
X558038Y158496D02*
D03*
X495554Y208026D02*
D03*
X297688Y310388D02*
D03*
X293370Y294132D02*
D03*
X289052Y310388D02*
D03*
X292862Y459232D02*
D03*
Y467614D02*
D03*
Y476504D02*
D03*
Y484886D02*
D03*
Y493268D02*
D03*
X148336Y181864D02*
D03*
X46990Y180340D02*
D03*
X322580Y60706D02*
D03*
X326136Y78994D02*
D03*
X475385Y154334D02*
D03*
X473710Y184404D02*
D03*
X423926Y185674D02*
D03*
X520446Y13970D02*
D03*
X359918Y95250D02*
D03*
D61*
X324358Y186436D02*
D03*
X307594Y190246D02*
D03*
M02*
