G04*
G04 #@! TF.GenerationSoftware,Altium Limited,Altium Designer,23.10.1 (27)*
G04*
G04 Layer_Physical_Order=4*
G04 Layer_Color=16711680*
%FSLAX44Y44*%
%MOMM*%
G71*
G04*
G04 #@! TF.SameCoordinates,2E78A80F-BD86-4490-A529-E194FF2111EF*
G04*
G04*
G04 #@! TF.FilePolarity,Positive*
G04*
G01*
G75*
%ADD13C,0.1524*%
%ADD68C,1.5240*%
%ADD69C,2.9210*%
G04:AMPARAMS|DCode=70|XSize=0.6858mm|YSize=3.5052mm|CornerRadius=0.0343mm|HoleSize=0mm|Usage=FLASHONLY|Rotation=90.000|XOffset=0mm|YOffset=0mm|HoleType=Round|Shape=RoundedRectangle|*
%AMROUNDEDRECTD70*
21,1,0.6858,3.4366,0,0,90.0*
21,1,0.6172,3.5052,0,0,90.0*
1,1,0.0686,1.7183,0.3086*
1,1,0.0686,1.7183,-0.3086*
1,1,0.0686,-1.7183,-0.3086*
1,1,0.0686,-1.7183,0.3086*
%
%ADD70ROUNDEDRECTD70*%
G04:AMPARAMS|DCode=71|XSize=0.6858mm|YSize=2.8956mm|CornerRadius=0.0343mm|HoleSize=0mm|Usage=FLASHONLY|Rotation=180.000|XOffset=0mm|YOffset=0mm|HoleType=Round|Shape=RoundedRectangle|*
%AMROUNDEDRECTD71*
21,1,0.6858,2.8270,0,0,180.0*
21,1,0.6172,2.8956,0,0,180.0*
1,1,0.0686,-0.3086,1.4135*
1,1,0.0686,0.3086,1.4135*
1,1,0.0686,0.3086,-1.4135*
1,1,0.0686,-0.3086,-1.4135*
%
%ADD71ROUNDEDRECTD71*%
G04:AMPARAMS|DCode=72|XSize=0.6858mm|YSize=2.7178mm|CornerRadius=0.0343mm|HoleSize=0mm|Usage=FLASHONLY|Rotation=180.000|XOffset=0mm|YOffset=0mm|HoleType=Round|Shape=RoundedRectangle|*
%AMROUNDEDRECTD72*
21,1,0.6858,2.6492,0,0,180.0*
21,1,0.6172,2.7178,0,0,180.0*
1,1,0.0686,-0.3086,1.3246*
1,1,0.0686,0.3086,1.3246*
1,1,0.0686,0.3086,-1.3246*
1,1,0.0686,-0.3086,-1.3246*
%
%ADD72ROUNDEDRECTD72*%
%ADD73C,2.8956*%
%ADD74C,1.3970*%
%ADD75C,2.2098*%
%ADD76C,3.2512*%
%ADD77C,3.2004*%
%ADD78C,0.6000*%
D13*
X193040Y1211580D02*
X193868Y1210752D01*
X187092Y1199690D02*
X188115D01*
X188943Y1198862D02*
X198793D01*
X188115Y1199690D02*
X188943Y1198862D01*
X200170Y1208142D02*
Y1208355D01*
X190100Y1201656D02*
X197636D01*
X189272Y1202484D02*
X190100Y1201656D01*
X198464Y1202484D02*
X202486D01*
X196478Y1204450D02*
X200170Y1208142D01*
X199621Y1199690D02*
X209344D01*
X191258Y1204450D02*
X196478D01*
X197636Y1201656D02*
X198464Y1202484D01*
X189690Y1205278D02*
X190430D01*
X198793Y1198862D02*
X199621Y1199690D01*
X193040Y1211580D02*
Y1224788D01*
X190430Y1205278D02*
X191258Y1204450D01*
X188249Y1202484D02*
X189272D01*
X200170Y1208355D02*
X202184Y1210369D01*
Y1211580D01*
X155448Y1239520D02*
X189690Y1205278D01*
X209344Y1199690D02*
X221056Y1211402D01*
X221145D01*
X168148Y1249680D02*
X193040Y1224788D01*
X240792Y983488D02*
Y1074674D01*
X230886Y954532D02*
X249174Y972820D01*
Y1064768D01*
X243078Y942340D02*
X269494Y968756D01*
Y1043940D01*
X283972Y958596D02*
Y1032002D01*
X256032Y930656D02*
X283972Y958596D01*
X255524Y930656D02*
X256032D01*
X132842Y1403096D02*
X161544Y1431798D01*
X180340D01*
X148082Y1403096D02*
X164084Y1419098D01*
X193294D01*
X142748Y1287526D02*
X143208D01*
X129032Y1273810D02*
X142748Y1287526D01*
X129032Y1203960D02*
Y1273810D01*
Y1203960D02*
X147574Y1185418D01*
X133096Y1265936D02*
X141478Y1274318D01*
X133096Y1208786D02*
Y1265936D01*
Y1208786D02*
X146812Y1195070D01*
X148082Y1383284D02*
Y1403096D01*
X132842Y1384554D02*
Y1403096D01*
X221234Y963930D02*
X240792Y983488D01*
X146812Y1195070D02*
X176784D01*
X147574Y1185418D02*
X176784D01*
X161373Y1229360D02*
X188249Y1202484D01*
X202486D02*
X211582Y1211580D01*
X160772Y1226010D02*
X187092Y1199690D01*
X153854Y1226010D02*
X160772D01*
X147044Y1219200D02*
X153854Y1226010D01*
X141478Y1219200D02*
X147044D01*
X141478Y1239520D02*
X155448D01*
X141478Y1229360D02*
X161373D01*
X141478Y1249680D02*
X168148D01*
X840232Y770636D02*
X846328Y776732D01*
X836168Y770636D02*
X840232D01*
X835914Y770382D02*
X836168Y770636D01*
X834644Y770382D02*
X835914D01*
X834595Y770333D02*
X834644Y770382D01*
X781050Y747522D02*
X781304D01*
X785114Y743712D01*
X801624D01*
X820166Y717633D02*
X822452Y715347D01*
X820166Y717633D02*
Y746451D01*
X822452Y714502D02*
Y715347D01*
X817531Y749086D02*
X820166Y746451D01*
X817531Y749086D02*
Y749582D01*
X838962Y1582166D02*
X845058Y1588262D01*
X834898Y1582166D02*
X838962D01*
X834644Y1581912D02*
X834898Y1582166D01*
X833374Y1581912D02*
X834644D01*
X833325Y1581863D02*
X833374Y1581912D01*
X779780Y1559052D02*
X780034D01*
X783844Y1555242D01*
X800354D01*
X818896Y1529163D02*
X821182Y1526877D01*
X818896Y1529163D02*
Y1557981D01*
X821182Y1526032D02*
Y1526877D01*
X816261Y1560616D02*
X818896Y1557981D01*
X816261Y1560616D02*
Y1561111D01*
X840994Y1188720D02*
X847090Y1194816D01*
X836930Y1188720D02*
X840994D01*
X836676Y1188466D02*
X836930Y1188720D01*
X835406Y1188466D02*
X836676D01*
X835357Y1188417D02*
X835406Y1188466D01*
X781812Y1165606D02*
X782066D01*
X785876Y1161796D02*
X802386D01*
X782066Y1165606D02*
X785876Y1161796D01*
X818292Y1167170D02*
Y1167665D01*
X820928Y1135717D02*
X823214Y1133431D01*
X820928Y1135717D02*
Y1164535D01*
X823214Y1132586D02*
Y1133431D01*
X818292Y1167170D02*
X820928Y1164535D01*
D68*
X99822Y1506728D02*
D03*
Y1531620D02*
D03*
X119888Y1506728D02*
D03*
Y1531620D02*
D03*
X1333246Y77470D02*
D03*
Y102870D02*
D03*
Y189230D02*
D03*
Y214630D02*
D03*
X1267206Y190500D02*
D03*
X1292606Y177800D02*
D03*
X1267206Y165100D02*
D03*
X1292606Y152400D02*
D03*
X1267206Y139700D02*
D03*
X1292606Y127000D02*
D03*
X1267206Y114300D02*
D03*
X1292606Y101600D02*
D03*
X1165606Y77470D02*
D03*
X1230376Y101600D02*
D03*
X1165606Y189230D02*
D03*
Y214630D02*
D03*
Y102870D02*
D03*
X1204976Y114300D02*
D03*
X1230376Y152400D02*
D03*
X1204976Y165100D02*
D03*
X1230376Y127000D02*
D03*
X1204976Y139700D02*
D03*
X1230376Y177800D02*
D03*
X1204976Y190500D02*
D03*
X1333246Y335026D02*
D03*
Y360426D02*
D03*
Y446786D02*
D03*
Y472186D02*
D03*
X1267206Y448056D02*
D03*
X1292606Y435356D02*
D03*
X1267206Y422656D02*
D03*
X1292606Y409956D02*
D03*
X1267206Y397256D02*
D03*
X1292606Y384556D02*
D03*
X1267206Y371856D02*
D03*
X1292606Y359156D02*
D03*
X1165606Y335026D02*
D03*
X1230376Y359156D02*
D03*
X1165606Y446786D02*
D03*
Y472186D02*
D03*
Y360426D02*
D03*
X1204976Y371856D02*
D03*
X1230376Y409956D02*
D03*
X1204976Y422656D02*
D03*
X1230376Y384556D02*
D03*
X1204976Y397256D02*
D03*
X1230376Y435356D02*
D03*
X1204976Y448056D02*
D03*
X1333246Y592582D02*
D03*
Y617982D02*
D03*
Y704342D02*
D03*
Y729742D02*
D03*
X1267206Y705612D02*
D03*
X1292606Y692912D02*
D03*
X1267206Y680212D02*
D03*
X1292606Y667512D02*
D03*
X1267206Y654812D02*
D03*
X1292606Y642112D02*
D03*
X1267206Y629412D02*
D03*
X1292606Y616712D02*
D03*
X1165606Y592582D02*
D03*
X1230376Y616712D02*
D03*
X1165606Y704342D02*
D03*
Y729742D02*
D03*
Y617982D02*
D03*
X1204976Y629412D02*
D03*
X1230376Y667512D02*
D03*
X1204976Y680212D02*
D03*
X1230376Y642112D02*
D03*
X1204976Y654812D02*
D03*
X1230376Y692912D02*
D03*
X1204976Y705612D02*
D03*
X1333246Y850138D02*
D03*
Y875538D02*
D03*
Y961898D02*
D03*
Y987298D02*
D03*
X1267206Y963168D02*
D03*
X1292606Y950468D02*
D03*
X1267206Y937768D02*
D03*
X1292606Y925068D02*
D03*
X1267206Y912368D02*
D03*
X1292606Y899668D02*
D03*
X1267206Y886968D02*
D03*
X1292606Y874268D02*
D03*
X1165606Y850138D02*
D03*
X1230376Y874268D02*
D03*
X1165606Y961898D02*
D03*
Y987298D02*
D03*
Y875538D02*
D03*
X1204976Y886968D02*
D03*
X1230376Y925068D02*
D03*
X1204976Y937768D02*
D03*
X1230376Y899668D02*
D03*
X1204976Y912368D02*
D03*
X1230376Y950468D02*
D03*
X1204976Y963168D02*
D03*
X1333246Y1107694D02*
D03*
Y1133094D02*
D03*
Y1219454D02*
D03*
Y1244854D02*
D03*
X1267206Y1220724D02*
D03*
X1292606Y1208024D02*
D03*
X1267206Y1195324D02*
D03*
X1292606Y1182624D02*
D03*
X1267206Y1169924D02*
D03*
X1292606Y1157224D02*
D03*
X1267206Y1144524D02*
D03*
X1292606Y1131824D02*
D03*
X1165606Y1107694D02*
D03*
X1230376Y1131824D02*
D03*
X1165606Y1219454D02*
D03*
Y1244854D02*
D03*
Y1133094D02*
D03*
X1204976Y1144524D02*
D03*
X1230376Y1182624D02*
D03*
X1204976Y1195324D02*
D03*
X1230376Y1157224D02*
D03*
X1204976Y1169924D02*
D03*
X1230376Y1208024D02*
D03*
X1204976Y1220724D02*
D03*
X1333246Y1365250D02*
D03*
Y1390650D02*
D03*
Y1477010D02*
D03*
Y1502410D02*
D03*
X1267206Y1478280D02*
D03*
X1292606Y1465580D02*
D03*
X1267206Y1452880D02*
D03*
X1292606Y1440180D02*
D03*
X1267206Y1427480D02*
D03*
X1292606Y1414780D02*
D03*
X1267206Y1402080D02*
D03*
X1292606Y1389380D02*
D03*
X1165606Y1365250D02*
D03*
X1230376Y1389380D02*
D03*
X1165606Y1477010D02*
D03*
Y1502410D02*
D03*
Y1390650D02*
D03*
X1204976Y1402080D02*
D03*
X1230376Y1440180D02*
D03*
X1204976Y1452880D02*
D03*
X1230376Y1414780D02*
D03*
X1204976Y1427480D02*
D03*
X1230376Y1465580D02*
D03*
X1204976Y1478280D02*
D03*
X1333246Y1622806D02*
D03*
Y1648206D02*
D03*
Y1734566D02*
D03*
Y1759966D02*
D03*
X1267206Y1735836D02*
D03*
X1292606Y1723136D02*
D03*
X1267206Y1710436D02*
D03*
X1292606Y1697736D02*
D03*
X1267206Y1685036D02*
D03*
X1292606Y1672336D02*
D03*
X1267206Y1659636D02*
D03*
X1292606Y1646936D02*
D03*
X1165606Y1622806D02*
D03*
X1230376Y1646936D02*
D03*
X1165606Y1734566D02*
D03*
Y1759966D02*
D03*
Y1648206D02*
D03*
X1204976Y1659636D02*
D03*
X1230376Y1697736D02*
D03*
X1204976Y1710436D02*
D03*
X1230376Y1672336D02*
D03*
X1204976Y1685036D02*
D03*
X1230376Y1723136D02*
D03*
X1204976Y1735836D02*
D03*
X1333246Y1880362D02*
D03*
Y1905762D02*
D03*
Y1992122D02*
D03*
Y2017522D02*
D03*
X1267206Y1993392D02*
D03*
X1292606Y1980692D02*
D03*
X1267206Y1967992D02*
D03*
X1292606Y1955292D02*
D03*
X1267206Y1942592D02*
D03*
X1292606Y1929892D02*
D03*
X1267206Y1917192D02*
D03*
X1292606Y1904492D02*
D03*
X1165606Y1880362D02*
D03*
X1230376Y1904492D02*
D03*
X1165606Y1992122D02*
D03*
Y2017522D02*
D03*
Y1905762D02*
D03*
X1204976Y1917192D02*
D03*
X1230376Y1955292D02*
D03*
X1204976Y1967992D02*
D03*
X1230376Y1929892D02*
D03*
X1204976Y1942592D02*
D03*
X1230376Y1980692D02*
D03*
X1204976Y1993392D02*
D03*
X1333246Y2137918D02*
D03*
Y2163318D02*
D03*
Y2249678D02*
D03*
Y2275078D02*
D03*
X1267206Y2250948D02*
D03*
X1292606Y2238248D02*
D03*
X1267206Y2225548D02*
D03*
X1292606Y2212848D02*
D03*
X1267206Y2200148D02*
D03*
X1292606Y2187448D02*
D03*
X1267206Y2174748D02*
D03*
X1292606Y2162048D02*
D03*
X1165606Y2137918D02*
D03*
X1230376Y2162048D02*
D03*
X1165606Y2249678D02*
D03*
Y2275078D02*
D03*
Y2163318D02*
D03*
X1204976Y2174748D02*
D03*
X1230376Y2212848D02*
D03*
X1204976Y2225548D02*
D03*
X1230376Y2187448D02*
D03*
X1204976Y2200148D02*
D03*
X1230376Y2238248D02*
D03*
X1204976Y2250948D02*
D03*
X669036Y119888D02*
D03*
X691896D02*
D03*
X783336D02*
D03*
X806196D02*
D03*
X701802Y71628D02*
D03*
X712026Y53848D02*
D03*
X722186Y71628D02*
D03*
X732409Y53848D02*
D03*
X742505Y71628D02*
D03*
X752793Y53848D02*
D03*
X762952Y71628D02*
D03*
X773176Y53848D02*
D03*
X410464Y119888D02*
D03*
X433324D02*
D03*
X524764D02*
D03*
X547624D02*
D03*
X443230Y71628D02*
D03*
X453453Y53848D02*
D03*
X463614Y71628D02*
D03*
X473837Y53848D02*
D03*
X483933Y71628D02*
D03*
X494221Y53848D02*
D03*
X504380Y71628D02*
D03*
X514604Y53848D02*
D03*
X151892Y119888D02*
D03*
X174752D02*
D03*
X266192D02*
D03*
X289052D02*
D03*
X184658Y71628D02*
D03*
X194881Y53848D02*
D03*
X205042Y71628D02*
D03*
X215265Y53848D02*
D03*
X225361Y71628D02*
D03*
X235648Y53848D02*
D03*
X245809Y71628D02*
D03*
X256032Y53848D02*
D03*
D69*
X72644Y1579372D02*
D03*
Y1458976D02*
D03*
D70*
X338582Y1880108D02*
D03*
D71*
X366522Y1940052D02*
D03*
D72*
X391668Y1903222D02*
D03*
D73*
X609346Y624078D02*
D03*
X656336D02*
D03*
X703326D02*
D03*
X399034D02*
D03*
X446024D02*
D03*
X493014D02*
D03*
X609346Y759968D02*
D03*
X656336D02*
D03*
X703326D02*
D03*
X399034D02*
D03*
X446024D02*
D03*
X493014D02*
D03*
X609346Y895858D02*
D03*
X656336D02*
D03*
X703326D02*
D03*
X399034D02*
D03*
X446024D02*
D03*
X493014D02*
D03*
X609346Y1031748D02*
D03*
X656336D02*
D03*
X703326D02*
D03*
X399034D02*
D03*
X446024D02*
D03*
X493014D02*
D03*
X609346Y1167638D02*
D03*
X656336D02*
D03*
X703326D02*
D03*
X399034D02*
D03*
X446024D02*
D03*
X493014D02*
D03*
X609346Y1303528D02*
D03*
X656336D02*
D03*
X703326D02*
D03*
X399034D02*
D03*
X446024D02*
D03*
X493014D02*
D03*
X609346Y1439418D02*
D03*
X656336D02*
D03*
X703326D02*
D03*
X399034D02*
D03*
X446024D02*
D03*
X493014D02*
D03*
X609346Y1575308D02*
D03*
X656336D02*
D03*
X703326D02*
D03*
X399034D02*
D03*
X446024D02*
D03*
X493014D02*
D03*
X609346Y1711198D02*
D03*
X656336D02*
D03*
X703326D02*
D03*
X399034D02*
D03*
X446024D02*
D03*
X493014D02*
D03*
D74*
X177800Y1719580D02*
D03*
Y1694180D02*
D03*
X152400Y1719580D02*
D03*
Y1694180D02*
D03*
X127000Y1719580D02*
D03*
Y1694180D02*
D03*
X101600Y1719580D02*
D03*
Y1694180D02*
D03*
X76200Y1719580D02*
D03*
Y1694180D02*
D03*
X50800Y1719580D02*
D03*
Y1694180D02*
D03*
X203200Y1719580D02*
D03*
Y1694180D02*
D03*
X228600Y1719580D02*
D03*
Y1694180D02*
D03*
X37846Y1282192D02*
D03*
X63246D02*
D03*
X37846Y1256792D02*
D03*
X63246D02*
D03*
X37846Y1231392D02*
D03*
X63246D02*
D03*
X37846Y1205992D02*
D03*
X63246D02*
D03*
X37846Y1180592D02*
D03*
X63246D02*
D03*
X37846Y1155192D02*
D03*
X63246D02*
D03*
X37846Y1129792D02*
D03*
X63246D02*
D03*
D75*
X1304036Y227203D02*
D03*
Y64897D02*
D03*
X1220216Y227203D02*
D03*
Y64897D02*
D03*
X1304036Y484759D02*
D03*
Y322453D02*
D03*
X1220216Y484759D02*
D03*
Y322453D02*
D03*
X1304036Y742315D02*
D03*
Y580009D02*
D03*
X1220216Y742315D02*
D03*
Y580009D02*
D03*
X1304036Y999871D02*
D03*
Y837565D02*
D03*
X1220216Y999871D02*
D03*
Y837565D02*
D03*
X1304036Y1257427D02*
D03*
Y1095121D02*
D03*
X1220216Y1257427D02*
D03*
Y1095121D02*
D03*
X1304036Y1514983D02*
D03*
Y1352677D02*
D03*
X1220216Y1514983D02*
D03*
Y1352677D02*
D03*
X1304036Y1772539D02*
D03*
Y1610233D02*
D03*
X1220216Y1772539D02*
D03*
Y1610233D02*
D03*
X1304036Y2030095D02*
D03*
Y1867789D02*
D03*
X1220216Y2030095D02*
D03*
Y1867789D02*
D03*
X1304036Y2287651D02*
D03*
Y2125345D02*
D03*
X1220216Y2287651D02*
D03*
Y2125345D02*
D03*
X818896Y62738D02*
D03*
X656336D02*
D03*
X560324D02*
D03*
X397764D02*
D03*
X301752D02*
D03*
X139192D02*
D03*
D76*
X1375156Y209550D02*
D03*
Y82550D02*
D03*
Y467106D02*
D03*
Y340106D02*
D03*
Y724662D02*
D03*
Y597662D02*
D03*
Y982218D02*
D03*
Y855218D02*
D03*
Y1239774D02*
D03*
Y1112774D02*
D03*
Y1497330D02*
D03*
Y1370330D02*
D03*
Y1754886D02*
D03*
Y1627886D02*
D03*
Y2012442D02*
D03*
Y1885442D02*
D03*
Y2269998D02*
D03*
Y2142998D02*
D03*
X939800Y2311400D02*
D03*
X50800D02*
D03*
X939800Y25400D02*
D03*
X50800D02*
D03*
D77*
X801116Y28448D02*
D03*
X674116D02*
D03*
X542544D02*
D03*
X415544D02*
D03*
X283972D02*
D03*
X156972D02*
D03*
D78*
X179989Y1103533D02*
D03*
X283718Y1295400D02*
D03*
X255270Y1294892D02*
D03*
X179578Y1345946D02*
D03*
X88646Y1357884D02*
D03*
X79096Y1359286D02*
D03*
X234037Y1547493D02*
D03*
X206859D02*
D03*
X34555Y1347735D02*
D03*
X243586Y1253490D02*
D03*
X193868Y1210752D02*
D03*
X221145Y1211402D02*
D03*
X213868Y1254760D02*
D03*
X232421Y1079511D02*
D03*
X240792Y1074674D02*
D03*
X249174Y1064768D02*
D03*
X269494Y1043940D02*
D03*
X283972Y1032002D02*
D03*
X204470Y1111758D02*
D03*
X172974Y1271270D02*
D03*
X186866Y1265604D02*
D03*
X180340Y1431798D02*
D03*
X193294Y1419098D02*
D03*
X143208Y1287526D02*
D03*
X141478Y1274318D02*
D03*
X67480Y1359822D02*
D03*
X129286Y1635760D02*
D03*
X195580Y1368552D02*
D03*
X232651Y1617438D02*
D03*
X205473D02*
D03*
X169164Y1405128D02*
D03*
X132842Y1384554D02*
D03*
X94742Y1405636D02*
D03*
X147828Y1370330D02*
D03*
X148082Y1383284D02*
D03*
X751586Y172974D02*
D03*
X669036D02*
D03*
X493014D02*
D03*
X410464D02*
D03*
X1075944Y32766D02*
D03*
X1077468Y129032D02*
D03*
X1075944Y290322D02*
D03*
X1077468Y386588D02*
D03*
X1075944Y547878D02*
D03*
X1077468Y644144D02*
D03*
X1075944Y805434D02*
D03*
X1077468Y901700D02*
D03*
X1075944Y1062990D02*
D03*
X1077468Y1159256D02*
D03*
X1075944Y1320546D02*
D03*
X1077468Y1416812D02*
D03*
X1075944Y1578102D02*
D03*
X1077468Y1674368D02*
D03*
X1075944Y1835658D02*
D03*
X1077468Y1931924D02*
D03*
X1075944Y2093214D02*
D03*
X1077468Y2189480D02*
D03*
X347726Y198882D02*
D03*
X295216Y1078230D02*
D03*
X259402D02*
D03*
X50546Y1015746D02*
D03*
X433324Y1933194D02*
D03*
X459753Y1933482D02*
D03*
X255524Y930656D02*
D03*
X243078Y942340D02*
D03*
X230886Y954532D02*
D03*
X221234Y963930D02*
D03*
X230124Y1195832D02*
D03*
X156464Y1219708D02*
D03*
X141478Y1219200D02*
D03*
Y1249680D02*
D03*
Y1239520D02*
D03*
X126492Y1194054D02*
D03*
X119888Y1155954D02*
D03*
X733298Y571754D02*
D03*
X808228Y317500D02*
D03*
X927608Y1687322D02*
D03*
X667258Y1843024D02*
D03*
X176802Y1176783D02*
D03*
X231092Y1178673D02*
D03*
X878858Y1588263D02*
D03*
X795800Y1614679D02*
D03*
X878078Y1529842D02*
D03*
X881144Y1194817D02*
D03*
X797832Y1221741D02*
D03*
X880306Y1136434D02*
D03*
X796816Y805689D02*
D03*
X880110Y718058D02*
D03*
X879758Y777007D02*
D03*
X611886Y1828800D02*
D03*
X848233Y847979D02*
D03*
X849249Y1266063D02*
D03*
X847217Y1659509D02*
D03*
X459499Y1864394D02*
D03*
X432321D02*
D03*
X828040Y666242D02*
D03*
Y682244D02*
D03*
X932942Y771652D02*
D03*
X896112Y770636D02*
D03*
X828040Y707390D02*
D03*
X827786Y696468D02*
D03*
X880110Y751078D02*
D03*
X846483Y743359D02*
D03*
X894588Y866902D02*
D03*
X931418Y867156D02*
D03*
X901517Y659953D02*
D03*
X846328Y776732D02*
D03*
X834595Y770333D02*
D03*
X801624Y743712D02*
D03*
X781050Y747522D02*
D03*
X822452Y714502D02*
D03*
X817531Y749582D02*
D03*
X826770Y1477772D02*
D03*
Y1493774D02*
D03*
X931672Y1583182D02*
D03*
X894842Y1582166D02*
D03*
X826770Y1518920D02*
D03*
X826516Y1507998D02*
D03*
X878840Y1562608D02*
D03*
X845213Y1554889D02*
D03*
X893318Y1678432D02*
D03*
X900247Y1471483D02*
D03*
X845058Y1588262D02*
D03*
X833325Y1581863D02*
D03*
X800354Y1555242D02*
D03*
X779780Y1559052D02*
D03*
X821182Y1526032D02*
D03*
X816261Y1561111D02*
D03*
X902280Y1078037D02*
D03*
X621792Y1862836D02*
D03*
X674370Y1882902D02*
D03*
X671068Y1895094D02*
D03*
X429768Y350266D02*
D03*
X904507Y75980D02*
D03*
X931685D02*
D03*
X932447Y145068D02*
D03*
X906018Y144780D02*
D03*
X600456Y1892554D02*
D03*
X637540Y1916176D02*
D03*
X611378Y1926590D02*
D03*
X481584Y319024D02*
D03*
X409194Y379730D02*
D03*
X419354Y414782D02*
D03*
X448818Y403860D02*
D03*
X479806Y382524D02*
D03*
X483108Y370332D02*
D03*
X492760Y282194D02*
D03*
X500888Y318008D02*
D03*
X549910Y282194D02*
D03*
X828802Y1084326D02*
D03*
Y1100328D02*
D03*
X933704Y1189736D02*
D03*
X896874Y1188720D02*
D03*
X828802Y1125474D02*
D03*
X828548Y1114552D02*
D03*
X880872Y1169162D02*
D03*
X847245Y1161443D02*
D03*
X895350Y1284986D02*
D03*
X932180Y1285240D02*
D03*
X847090Y1194816D02*
D03*
X835357Y1188417D02*
D03*
X802386Y1161796D02*
D03*
X781812Y1165606D02*
D03*
X823214Y1132586D02*
D03*
X818292Y1167665D02*
D03*
X868172Y441706D02*
D03*
X852932Y352552D02*
D03*
X795020Y353568D02*
D03*
X734822Y355092D02*
D03*
X1095780Y2277295D02*
D03*
Y2019739D02*
D03*
Y1762183D02*
D03*
X1096034Y1504627D02*
D03*
Y1247071D02*
D03*
Y989515D02*
D03*
X1095780Y731959D02*
D03*
Y474403D02*
D03*
X1096010Y216662D02*
D03*
X151892Y172974D02*
D03*
X234442D02*
D03*
X145542Y1152652D02*
D03*
X169164Y1235710D02*
D03*
X283972Y1172718D02*
D03*
X267970Y1172464D02*
D03*
X257302Y1122426D02*
D03*
X112776Y1302258D02*
D03*
X113030Y1240790D02*
D03*
X176784Y1185418D02*
D03*
Y1195070D02*
D03*
X211582Y1211580D02*
D03*
X202184D02*
D03*
X141478Y1229360D02*
D03*
M02*
