G04*
G04 #@! TF.GenerationSoftware,Altium Limited,Altium Designer,23.10.1 (27)*
G04*
G04 Layer_Color=32896*
%FSLAX44Y44*%
%MOMM*%
G71*
G04*
G04 #@! TF.SameCoordinates,DF195826-C762-4DAA-97BD-B22AA121C3D6*
G04*
G04*
G04 #@! TF.FilePolarity,Positive*
G04*
G01*
G75*
%ADD11C,0.2032*%
%ADD12C,0.2540*%
%ADD15C,0.5080*%
D11*
X557848Y301244D02*
G03*
X557848Y301244I-7620J0D01*
G01*
X578231D02*
G03*
X578231Y301244I-7620J0D01*
G01*
X598615D02*
G03*
X598615Y301244I-7620J0D01*
G01*
X618998D02*
G03*
X618998Y301244I-7620J0D01*
G01*
X608774Y319024D02*
G03*
X608774Y319024I-7620J0D01*
G01*
X588327D02*
G03*
X588327Y319024I-7620J0D01*
G01*
X568008D02*
G03*
X568008Y319024I-7620J0D01*
G01*
X547624D02*
G03*
X547624Y319024I-7620J0D01*
G01*
X514858Y367284D02*
G03*
X514858Y367284I-7620J0D01*
G01*
X537718D02*
G03*
X537718Y367284I-7620J0D01*
G01*
X629158D02*
G03*
X629158Y367284I-7620J0D01*
G01*
X652018D02*
G03*
X652018Y367284I-7620J0D01*
G01*
X666496Y1973326D02*
G03*
X666496Y1973326I-7620J0D01*
G01*
Y1998726D02*
G03*
X666496Y1998726I-7620J0D01*
G01*
Y2110486D02*
G03*
X666496Y2110486I-7620J0D01*
G01*
Y2085086D02*
G03*
X666496Y2085086I-7620J0D01*
G01*
X705866Y2086356D02*
G03*
X705866Y2086356I-7620J0D01*
G01*
Y2060956D02*
G03*
X705866Y2060956I-7620J0D01*
G01*
X731266Y2073656D02*
G03*
X731266Y2073656I-7620J0D01*
G01*
Y2048256D02*
G03*
X731266Y2048256I-7620J0D01*
G01*
X705866Y2035556D02*
G03*
X705866Y2035556I-7620J0D01*
G01*
Y2010156D02*
G03*
X705866Y2010156I-7620J0D01*
G01*
X731266Y2022856D02*
G03*
X731266Y2022856I-7620J0D01*
G01*
Y1997456D02*
G03*
X731266Y1997456I-7620J0D01*
G01*
X768096Y2010156D02*
G03*
X768096Y2010156I-7620J0D01*
G01*
X793496Y1997456D02*
G03*
X793496Y1997456I-7620J0D01*
G01*
Y2022856D02*
G03*
X793496Y2022856I-7620J0D01*
G01*
Y2048256D02*
G03*
X793496Y2048256I-7620J0D01*
G01*
X768096Y2035556D02*
G03*
X768096Y2035556I-7620J0D01*
G01*
Y2060956D02*
G03*
X768096Y2060956I-7620J0D01*
G01*
Y2086356D02*
G03*
X768096Y2086356I-7620J0D01*
G01*
X793496Y2073656D02*
G03*
X793496Y2073656I-7620J0D01*
G01*
X834136Y1973326D02*
G03*
X834136Y1973326I-7620J0D01*
G01*
Y1998726D02*
G03*
X834136Y1998726I-7620J0D01*
G01*
Y2085086D02*
G03*
X834136Y2085086I-7620J0D01*
G01*
Y2110486D02*
G03*
X834136Y2110486I-7620J0D01*
G01*
X469392Y237236D02*
X675386D01*
X469392Y391922D02*
X675386D01*
Y237236D02*
Y391922D01*
X469392Y237236D02*
Y391922D01*
X595122Y1924304D02*
X932180D01*
X595122Y2164080D02*
X932180D01*
Y1924304D02*
Y2164080D01*
X595122Y1924304D02*
Y2164080D01*
X583438Y332486D02*
X593344Y330200D01*
X595122Y338582D01*
X579120Y346710D02*
X593344Y330200D01*
X664972Y250444D02*
Y276606D01*
Y250444D02*
X669544Y257048D01*
X660654D02*
X664972Y250444D01*
X476250Y257048D02*
X480568Y250444D01*
X485140Y257048D01*
X480568Y250444D02*
Y276606D01*
X524002Y328930D02*
X532384Y328422D01*
X535432Y335534D01*
X526288Y336042D02*
X532384Y328422D01*
X534670Y293624D02*
X538988Y299466D01*
X533146Y304546D02*
X538988Y299466D01*
X522478Y297688D02*
X538988Y299466D01*
X623570Y310388D02*
X632460Y309880D01*
X623570Y310388D02*
X624078Y320802D01*
X623570Y310388D02*
X643128Y329438D01*
X896366Y1949958D02*
X922528D01*
X915924Y1954530D02*
X922528Y1949958D01*
X915924Y1945640D02*
X922528Y1949958D01*
X915924Y2130044D02*
X922528Y2134362D01*
X915924Y2138934D02*
X922528Y2134362D01*
X896366D02*
X922528D01*
X678688Y2011934D02*
X686562Y2015236D01*
X687832Y2023364D01*
X670814Y2025904D02*
X686562Y2015236D01*
X705866Y1993392D02*
X714248Y1990090D01*
X714502Y1981962D01*
X699770Y1980438D02*
X714248Y1990090D01*
X768604Y2101342D02*
X779780Y2101596D01*
X766064Y2110994D02*
X768604Y2101342D01*
X782320Y2119376D01*
X798068Y2068068D02*
X799592Y2058162D01*
X798068Y2068068D02*
X808990Y2069592D01*
X798068Y2068068D02*
X824992Y2052320D01*
X721360Y2094230D02*
X726948Y2087626D01*
X734822Y2091690D01*
X726948Y2087626D02*
X731012Y2109724D01*
X689356Y2107184D02*
X697230Y2101088D01*
X704596Y2108708D01*
X695198Y2121916D02*
X697230Y2101088D01*
X748538Y1996186D02*
X756666Y1997202D01*
X760476Y1989836D01*
X744982Y1970278D02*
X756666Y1997202D01*
X781558Y1978406D02*
X787654Y1984756D01*
X795528Y1979930D01*
X787654Y1984756D02*
X790448Y1963674D01*
X105664Y1475822D02*
X103971Y1477515D01*
X100586D01*
X98893Y1475822D01*
Y1474129D01*
X100586Y1472436D01*
X102278D01*
X100586D01*
X98893Y1470744D01*
Y1469051D01*
X100586Y1467358D01*
X103971D01*
X105664Y1469051D01*
X95507Y1477515D02*
Y1470744D01*
X92122Y1467358D01*
X88736Y1470744D01*
Y1477515D01*
X85351Y1475822D02*
X83658Y1477515D01*
X80272D01*
X78579Y1475822D01*
Y1474129D01*
X80272Y1472436D01*
X81965D01*
X80272D01*
X78579Y1470744D01*
Y1469051D01*
X80272Y1467358D01*
X83658D01*
X85351Y1469051D01*
X404963Y1851488D02*
X406656Y1853181D01*
X410041D01*
X411734Y1851488D01*
Y1844717D01*
X410041Y1843024D01*
X406656D01*
X404963Y1844717D01*
Y1848102D01*
X408348D01*
X401577Y1843024D02*
Y1853181D01*
X394806Y1843024D01*
Y1853181D01*
X391421D02*
Y1843024D01*
X386342D01*
X384649Y1844717D01*
Y1851488D01*
X386342Y1853181D01*
X391421D01*
X318516Y1843532D02*
X315130D01*
X316823D01*
Y1853689D01*
X318516Y1851996D01*
X303281Y1843532D02*
X310052D01*
X303281Y1850303D01*
Y1851996D01*
X304974Y1853689D01*
X308359D01*
X310052Y1851996D01*
X289739Y1853689D02*
Y1846918D01*
X286353Y1843532D01*
X282967Y1846918D01*
Y1853689D01*
X639066Y266526D02*
X642451D01*
X644144Y264834D01*
Y258062D01*
X642451Y256370D01*
X639066D01*
X637373Y258062D01*
Y264834D01*
X639066Y266526D01*
X633987Y263141D02*
Y258062D01*
X632295Y256370D01*
X627216D01*
Y263141D01*
X622138Y264834D02*
Y263141D01*
X623831D01*
X620445D01*
X622138D01*
Y258062D01*
X620445Y256370D01*
X615367Y252984D02*
Y263141D01*
X610288D01*
X608596Y261448D01*
Y258062D01*
X610288Y256370D01*
X615367D01*
X605210Y263141D02*
Y258062D01*
X603517Y256370D01*
X598439D01*
Y263141D01*
X593360Y264834D02*
Y263141D01*
X595053D01*
X591668D01*
X593360D01*
Y258062D01*
X591668Y256370D01*
X576432Y266526D02*
X569661D01*
X573047D01*
Y256370D01*
X566276Y266526D02*
Y256370D01*
Y261448D01*
X564583Y263141D01*
X561197D01*
X559505Y261448D01*
Y256370D01*
X556119D02*
X552733D01*
X554426D01*
Y263141D01*
X556119D01*
X547655Y256370D02*
X542577D01*
X540884Y258062D01*
X542577Y259755D01*
X545962D01*
X547655Y261448D01*
X545962Y263141D01*
X540884D01*
X527342Y266526D02*
Y256370D01*
X523956Y259755D01*
X520570Y256370D01*
Y266526D01*
X515492Y263141D02*
X512107D01*
X510414Y261448D01*
Y256370D01*
X515492D01*
X517185Y258062D01*
X515492Y259755D01*
X510414D01*
X507028Y263141D02*
Y258062D01*
X505335Y256370D01*
X500257D01*
Y254677D01*
X501950Y252984D01*
X503643D01*
X500257Y256370D02*
Y263141D01*
X651597Y343998D02*
X653290Y345691D01*
X656675D01*
X658368Y343998D01*
Y342305D01*
X656675Y340612D01*
X653290D01*
X651597Y338920D01*
Y337227D01*
X653290Y335534D01*
X656675D01*
X658368Y337227D01*
X641440Y345691D02*
X648211D01*
Y335534D01*
X641440D01*
X648211Y340612D02*
X644826D01*
X638055Y335534D02*
Y345691D01*
X631283Y335534D01*
Y345691D01*
X621127Y343998D02*
X622820Y345691D01*
X626205D01*
X627898Y343998D01*
Y342305D01*
X626205Y340612D01*
X622820D01*
X621127Y338920D01*
Y337227D01*
X622820Y335534D01*
X626205D01*
X627898Y337227D01*
X610970Y345691D02*
X617741D01*
Y335534D01*
X610970D01*
X617741Y340612D02*
X614356D01*
X516215Y344506D02*
X517908Y346199D01*
X521293D01*
X522986Y344506D01*
Y337735D01*
X521293Y336042D01*
X517908D01*
X516215Y337735D01*
Y341120D01*
X519600D01*
X512829Y336042D02*
Y346199D01*
X506058Y336042D01*
Y346199D01*
X502673D02*
Y336042D01*
X497594D01*
X495901Y337735D01*
Y344506D01*
X497594Y346199D01*
X502673D01*
X593090Y362709D02*
Y355938D01*
X589704Y352552D01*
X586319Y355938D01*
Y362709D01*
X582933Y352552D02*
Y362709D01*
X577855D01*
X576162Y361016D01*
Y357630D01*
X577855Y355938D01*
X582933D01*
X579548D02*
X576162Y352552D01*
X566005Y362709D02*
X572777D01*
Y352552D01*
X566005D01*
X572777Y357630D02*
X569391D01*
X555849Y362709D02*
X562620D01*
Y357630D01*
X559234D01*
X562620D01*
Y352552D01*
X509865Y302003D02*
X516636D01*
Y296924D01*
X513250Y298617D01*
X511558D01*
X509865Y296924D01*
Y293539D01*
X511558Y291846D01*
X514943D01*
X516636Y293539D01*
X506479Y302003D02*
Y295232D01*
X503094Y291846D01*
X499708Y295232D01*
Y302003D01*
X906446Y2108456D02*
Y2111841D01*
X908139Y2113534D01*
X914910D01*
X916602Y2111841D01*
Y2108456D01*
X914910Y2106763D01*
X908139D01*
X906446Y2108456D01*
X909831Y2103377D02*
X914910D01*
X916602Y2101685D01*
Y2096606D01*
X909831D01*
X908139Y2091528D02*
X909831D01*
Y2093221D01*
Y2089835D01*
Y2091528D01*
X914910D01*
X916602Y2089835D01*
X919988Y2084757D02*
X909831D01*
Y2079678D01*
X911524Y2077986D01*
X914910D01*
X916602Y2079678D01*
Y2084757D01*
X909831Y2074600D02*
X914910D01*
X916602Y2072907D01*
Y2067829D01*
X909831D01*
X908139Y2062750D02*
X909831D01*
Y2064443D01*
Y2061058D01*
Y2062750D01*
X914910D01*
X916602Y2061058D01*
X906446Y2045822D02*
Y2039051D01*
Y2042437D01*
X916602D01*
X906446Y2035666D02*
X916602D01*
X911524D01*
X909831Y2033973D01*
Y2030587D01*
X911524Y2028895D01*
X916602D01*
Y2025509D02*
Y2022124D01*
Y2023816D01*
X909831D01*
Y2025509D01*
X916602Y2017045D02*
Y2011967D01*
X914910Y2010274D01*
X913217Y2011967D01*
Y2015352D01*
X911524Y2017045D01*
X909831Y2015352D01*
Y2010274D01*
X906446Y1996732D02*
X916602D01*
X913217Y1993346D01*
X916602Y1989960D01*
X906446D01*
X909831Y1984882D02*
Y1981497D01*
X911524Y1979804D01*
X916602D01*
Y1984882D01*
X914910Y1986575D01*
X913217Y1984882D01*
Y1979804D01*
X909831Y1976418D02*
X914910D01*
X916602Y1974725D01*
Y1969647D01*
X918295D01*
X919988Y1971340D01*
Y1973033D01*
X916602Y1969647D02*
X909831D01*
X701194Y1971789D02*
X702887Y1973482D01*
X706273D01*
X707965Y1971789D01*
Y1965018D01*
X706273Y1963325D01*
X702887D01*
X701194Y1965018D01*
Y1968403D01*
X704580D01*
X697809Y1963325D02*
Y1973482D01*
X691037Y1963325D01*
Y1973482D01*
X687652D02*
Y1963325D01*
X682573D01*
X680881Y1965018D01*
Y1971789D01*
X682573Y1973482D01*
X687652D01*
X666496Y2023872D02*
X663110D01*
X664803D01*
Y2034029D01*
X666496Y2032336D01*
X651261Y2023872D02*
X658032D01*
X651261Y2030643D01*
Y2032336D01*
X652954Y2034029D01*
X656339D01*
X658032Y2032336D01*
X647875Y2034029D02*
Y2027258D01*
X644490Y2023872D01*
X641104Y2027258D01*
Y2034029D01*
X855218Y2036826D02*
X851832D01*
X853525D01*
Y2046983D01*
X855218Y2045290D01*
X839983Y2036826D02*
X846754D01*
X839983Y2043597D01*
Y2045290D01*
X841676Y2046983D01*
X845061D01*
X846754Y2045290D01*
X836597Y2046983D02*
Y2040212D01*
X833212Y2036826D01*
X829826Y2040212D01*
Y2046983D01*
X797901Y1954612D02*
X799594Y1956305D01*
X802979D01*
X804672Y1954612D01*
Y1952919D01*
X802979Y1951226D01*
X799594D01*
X797901Y1949534D01*
Y1947841D01*
X799594Y1946148D01*
X802979D01*
X804672Y1947841D01*
X794515Y1956305D02*
Y1946148D01*
X791130Y1949534D01*
X787744Y1946148D01*
Y1956305D01*
X777587Y1946148D02*
X784359D01*
X777587Y1952919D01*
Y1954612D01*
X779280Y1956305D01*
X782666D01*
X784359Y1954612D01*
X761238Y1961470D02*
X759545Y1963163D01*
X756160D01*
X754467Y1964855D01*
X744310Y1961470D02*
X746003Y1963163D01*
X749389D01*
X751081Y1961470D01*
Y1959777D01*
X749389Y1958084D01*
X746003D01*
X744310Y1956392D01*
Y1954699D01*
X746003Y1953006D01*
X749389D01*
X751081Y1954699D01*
X740925Y1963163D02*
Y1953006D01*
X737539Y1956392D01*
X734153Y1953006D01*
Y1963163D01*
X723997Y1953006D02*
X730768D01*
X723997Y1959777D01*
Y1961470D01*
X725689Y1963163D01*
X729075D01*
X730768Y1961470D01*
X754126Y2124792D02*
X752433Y2126485D01*
X749048D01*
X747355Y2128177D01*
X737198Y2124792D02*
X738891Y2126485D01*
X742277D01*
X743969Y2124792D01*
Y2123099D01*
X742277Y2121406D01*
X738891D01*
X737198Y2119714D01*
Y2118021D01*
X738891Y2116328D01*
X742277D01*
X743969Y2118021D01*
X733813Y2126485D02*
Y2116328D01*
X730427Y2119714D01*
X727041Y2116328D01*
Y2126485D01*
X723656Y2116328D02*
X720270D01*
X721963D01*
Y2126485D01*
X723656Y2124792D01*
X701635Y2137238D02*
X703328Y2138931D01*
X706713D01*
X708406Y2137238D01*
Y2135545D01*
X706713Y2133852D01*
X703328D01*
X701635Y2132160D01*
Y2130467D01*
X703328Y2128774D01*
X706713D01*
X708406Y2130467D01*
X698249Y2138931D02*
Y2128774D01*
X694864Y2132160D01*
X691478Y2128774D01*
Y2138931D01*
X688093Y2128774D02*
X684707D01*
X686400D01*
Y2138931D01*
X688093Y2137238D01*
X792313Y2134698D02*
X794006Y2136391D01*
X797391D01*
X799084Y2134698D01*
Y2127927D01*
X797391Y2126234D01*
X794006D01*
X792313Y2127927D01*
Y2131312D01*
X795698D01*
X788927Y2126234D02*
Y2136391D01*
X782156Y2126234D01*
Y2136391D01*
X778771D02*
Y2126234D01*
X773692D01*
X771999Y2127927D01*
Y2134698D01*
X773692Y2136391D01*
X778771D01*
D12*
X79502Y1432560D02*
X89662Y1422400D01*
X100330Y1431798D01*
X89662Y1422400D02*
X92710Y1463802D01*
X319278Y1865376D02*
X330708Y1872488D01*
X338074Y1863344D01*
X327660Y1847850D02*
X330708Y1872488D01*
X384810Y1875028D02*
X392684Y1884680D01*
X403606Y1877060D01*
X392684Y1884680D02*
X397256Y1859026D01*
D15*
X839306Y481916D02*
X843538Y486148D01*
X852002D01*
X856234Y481916D01*
Y464988D01*
X852002Y460756D01*
X843538D01*
X839306Y464988D01*
X830842Y477684D02*
Y464988D01*
X826610Y460756D01*
X813914D01*
Y477684D01*
X805450D02*
Y460756D01*
Y469220D01*
X801218Y473452D01*
X796986Y477684D01*
X792755D01*
X780059D02*
Y460756D01*
Y469220D01*
X775827Y473452D01*
X771595Y477684D01*
X767363D01*
X741971Y460756D02*
X750435D01*
X754667Y464988D01*
Y473452D01*
X750435Y477684D01*
X741971D01*
X737739Y473452D01*
Y469220D01*
X754667D01*
X729275Y460756D02*
Y477684D01*
X716579D01*
X712347Y473452D01*
Y460756D01*
X699651Y481916D02*
Y477684D01*
X703883D01*
X695419D01*
X699651D01*
Y464988D01*
X695419Y460756D01*
X640404Y481916D02*
X644636Y486148D01*
X653100D01*
X657332Y481916D01*
Y477684D01*
X653100Y473452D01*
X644636D01*
X640404Y469220D01*
Y464988D01*
X644636Y460756D01*
X653100D01*
X657332Y464988D01*
X619244Y460756D02*
X627708D01*
X631940Y464988D01*
Y473452D01*
X627708Y477684D01*
X619244D01*
X615012Y473452D01*
Y469220D01*
X631940D01*
X606548Y460756D02*
Y477684D01*
X593852D01*
X589620Y473452D01*
Y460756D01*
X581156D02*
X568460D01*
X564228Y464988D01*
X568460Y469220D01*
X576924D01*
X581156Y473452D01*
X576924Y477684D01*
X564228D01*
X543069Y460756D02*
X551533D01*
X555764Y464988D01*
Y473452D01*
X551533Y477684D01*
X543069D01*
X538837Y473452D01*
Y469220D01*
X555764D01*
X488053Y486148D02*
X496517D01*
X492285D01*
Y464988D01*
X496517Y460756D01*
X500749D01*
X504981Y464988D01*
X475357Y477684D02*
X466893D01*
X462661Y473452D01*
Y460756D01*
X475357D01*
X479589Y464988D01*
X475357Y469220D01*
X462661D01*
X437269Y477684D02*
X449965D01*
X454197Y473452D01*
Y464988D01*
X449965Y460756D01*
X437269D01*
X428805D02*
Y486148D01*
Y469220D02*
X416110Y477684D01*
X428805Y469220D02*
X416110Y460756D01*
X378022D02*
Y486148D01*
X365326D01*
X361094Y481916D01*
Y473452D01*
X365326Y469220D01*
X378022D01*
X352630Y460756D02*
X344166D01*
X348398D01*
Y477684D01*
X352630D01*
X331470Y460756D02*
Y477684D01*
X318774D01*
X314542Y473452D01*
Y460756D01*
X301847D02*
X293382D01*
X289151Y464988D01*
Y473452D01*
X293382Y477684D01*
X301847D01*
X306078Y473452D01*
Y464988D01*
X301847Y460756D01*
X280687Y477684D02*
Y464988D01*
X276455Y460756D01*
X263759D01*
Y477684D01*
X251063Y481916D02*
Y477684D01*
X255295D01*
X246831D01*
X251063D01*
Y464988D01*
X246831Y460756D01*
X710762Y438094D02*
X727690D01*
Y425398D01*
X719226D01*
X727690D01*
Y412702D01*
X698066D02*
X689602D01*
X685370Y416934D01*
Y425398D01*
X689602Y429630D01*
X698066D01*
X702298Y425398D01*
Y416934D01*
X698066Y412702D01*
X676907Y429630D02*
Y412702D01*
Y421166D01*
X672674Y425398D01*
X668443Y429630D01*
X664211D01*
X626123Y438094D02*
Y412702D01*
X613427D01*
X609195Y416934D01*
Y433862D01*
X613427Y438094D01*
X626123D01*
X588035Y412702D02*
X596499D01*
X600731Y416934D01*
Y425398D01*
X596499Y429630D01*
X588035D01*
X583803Y425398D01*
Y421166D01*
X600731D01*
X575339Y438094D02*
Y412702D01*
X562643D01*
X558411Y416934D01*
Y421166D01*
Y425398D01*
X562643Y429630D01*
X575339D01*
X549948D02*
Y416934D01*
X545715Y412702D01*
X533020D01*
Y429630D01*
X516092Y404238D02*
X511860D01*
X507628Y408470D01*
Y429630D01*
X520324D01*
X524556Y425398D01*
Y416934D01*
X520324Y412702D01*
X507628D01*
X490700Y404238D02*
X486468D01*
X482236Y408470D01*
Y429630D01*
X494932D01*
X499164Y425398D01*
Y416934D01*
X494932Y412702D01*
X482236D01*
X473772D02*
X465308D01*
X469540D01*
Y429630D01*
X473772D01*
X452612Y412702D02*
Y429630D01*
X439916D01*
X435684Y425398D01*
Y412702D01*
X418757Y404238D02*
X414525D01*
X410293Y408470D01*
Y429630D01*
X422989D01*
X427220Y425398D01*
Y416934D01*
X422989Y412702D01*
X410293D01*
X902044Y2211652D02*
X918972D01*
Y2198956D01*
X910508D01*
X918972D01*
Y2186260D01*
X889348D02*
X880884D01*
X876652Y2190492D01*
Y2198956D01*
X880884Y2203188D01*
X889348D01*
X893580Y2198956D01*
Y2190492D01*
X889348Y2186260D01*
X868188Y2203188D02*
Y2186260D01*
Y2194724D01*
X863956Y2198956D01*
X859725Y2203188D01*
X855492D01*
X817405Y2211652D02*
Y2186260D01*
X804709D01*
X800477Y2190492D01*
Y2207420D01*
X804709Y2211652D01*
X817405D01*
X779317Y2186260D02*
X787781D01*
X792013Y2190492D01*
Y2198956D01*
X787781Y2203188D01*
X779317D01*
X775085Y2198956D01*
Y2194724D01*
X792013D01*
X766621Y2211652D02*
Y2186260D01*
X753925D01*
X749693Y2190492D01*
Y2194724D01*
Y2198956D01*
X753925Y2203188D01*
X766621D01*
X741229D02*
Y2190492D01*
X736998Y2186260D01*
X724302D01*
Y2203188D01*
X707374Y2177796D02*
X703142D01*
X698910Y2182028D01*
Y2203188D01*
X711606D01*
X715838Y2198956D01*
Y2190492D01*
X711606Y2186260D01*
X698910D01*
X681982Y2177796D02*
X677750D01*
X673518Y2182028D01*
Y2203188D01*
X686214D01*
X690446Y2198956D01*
Y2190492D01*
X686214Y2186260D01*
X673518D01*
X665054D02*
X656590D01*
X660822D01*
Y2203188D01*
X665054D01*
X643894Y2186260D02*
Y2203188D01*
X631198D01*
X626966Y2198956D01*
Y2186260D01*
X610038Y2177796D02*
X605807D01*
X601575Y2182028D01*
Y2203188D01*
X614271D01*
X618502Y2198956D01*
Y2190492D01*
X614271Y2186260D01*
X601575D01*
X1022440Y2261522D02*
X1026672Y2265754D01*
X1035136D01*
X1039368Y2261522D01*
Y2257290D01*
X1035136Y2253058D01*
X1026672D01*
X1022440Y2248826D01*
Y2244594D01*
X1026672Y2240362D01*
X1035136D01*
X1039368Y2244594D01*
X1013976Y2257290D02*
Y2244594D01*
X1009744Y2240362D01*
X1005512Y2244594D01*
X1001280Y2240362D01*
X997048Y2244594D01*
Y2257290D01*
X988584Y2240362D02*
X980120D01*
X984352D01*
Y2257290D01*
X988584D01*
X963193Y2261522D02*
Y2257290D01*
X967425D01*
X958961D01*
X963193D01*
Y2244594D01*
X958961Y2240362D01*
X929337Y2257290D02*
X942033D01*
X946265Y2253058D01*
Y2244594D01*
X942033Y2240362D01*
X929337D01*
X920873Y2265754D02*
Y2240362D01*
Y2253058D01*
X916641Y2257290D01*
X908177D01*
X903945Y2253058D01*
Y2240362D01*
X857393Y2265754D02*
X865857D01*
X870089Y2261522D01*
Y2244594D01*
X865857Y2240362D01*
X857393D01*
X853161Y2244594D01*
Y2261522D01*
X857393Y2265754D01*
X844698Y2257290D02*
Y2244594D01*
X840466Y2240362D01*
X827770D01*
Y2257290D01*
X815074Y2261522D02*
Y2257290D01*
X819306D01*
X810842D01*
X815074D01*
Y2244594D01*
X810842Y2240362D01*
X798146Y2231898D02*
Y2257290D01*
X785450D01*
X781218Y2253058D01*
Y2244594D01*
X785450Y2240362D01*
X798146D01*
X772754Y2257290D02*
Y2244594D01*
X768522Y2240362D01*
X755826D01*
Y2257290D01*
X743130Y2261522D02*
Y2257290D01*
X747362D01*
X738898D01*
X743130D01*
Y2244594D01*
X738898Y2240362D01*
X683883Y2265754D02*
X692347D01*
X688115D01*
Y2244594D01*
X692347Y2240362D01*
X696579D01*
X700811Y2244594D01*
X671187Y2257290D02*
X662723D01*
X658491Y2253058D01*
Y2240362D01*
X671187D01*
X675419Y2244594D01*
X671187Y2248826D01*
X658491D01*
X633099Y2257290D02*
X645795D01*
X650027Y2253058D01*
Y2244594D01*
X645795Y2240362D01*
X633099D01*
X624635D02*
Y2265754D01*
Y2248826D02*
X611940Y2257290D01*
X624635Y2248826D02*
X611940Y2240362D01*
X573852D02*
Y2265754D01*
X561156D01*
X556924Y2261522D01*
Y2253058D01*
X561156Y2248826D01*
X573852D01*
X548460Y2240362D02*
X539996D01*
X544228D01*
Y2257290D01*
X548460D01*
X527300Y2240362D02*
Y2257290D01*
X514604D01*
X510372Y2253058D01*
Y2240362D01*
X497676D02*
X489212D01*
X484981Y2244594D01*
Y2253058D01*
X489212Y2257290D01*
X497676D01*
X501908Y2253058D01*
Y2244594D01*
X497676Y2240362D01*
X476516Y2257290D02*
Y2244594D01*
X472285Y2240362D01*
X459589D01*
Y2257290D01*
X446893Y2261522D02*
Y2257290D01*
X451125D01*
X442661D01*
X446893D01*
Y2244594D01*
X442661Y2240362D01*
M02*
