M48
;Layer_Color=9474304
;FILE_FORMAT=4:4
METRIC,LZ
;TYPE=PLATED
T01F00S00C0.3000
T03F00S00C0.8890
T04F00S00C0.9144
T05F00S00C1.0160
T06F00S00C1.6002
T07F00S00C2.2860
T08F00S00C2.3114
;TYPE=NON_PLATED
T09F00S00C3.2004
T10F00S00C3.2512
%
T01
X00904507Y0007598
X00931685
X01075944Y00032766
X01077468Y00129032
X0109601Y00216662
X01075944Y00290322
X01077468Y00386588
X0109578Y00474403
X00868172Y00441706
X00852932Y00352552
X0079502Y00353568
X00808228Y003175
X00906018Y0014478
X00932447Y00145068
X00751586Y00172974
X00669036
X00493014
X00410464
X0049276Y00282194
X00500888Y00318008
X00481584Y00319024
X00483108Y00370332
X00479806Y00382524
X00448818Y0040386
X00419354Y00414782
X00409194Y0037973
X00429768Y00350266
X0054991Y00282194
X00734822Y00355092
X00347726Y00198882
X00234442Y00172974
X00151892
X00255524Y00930656
X0078105Y00747522
X00733298Y00571754
X0082804Y00666242
Y00682244
X00827786Y00696468
X0082804Y0070739
X00822452Y00714502
X00817531Y00749582
X00801624Y00743712
X00846483Y00743359
X00846328Y00776732
X00834595Y00770333
X00879758Y00777007
X00896112Y00770636
X0088011Y00751078
Y00718058
X00901517Y00659953
X00932942Y00771652
X00931418Y00867156
X00894588Y00866902
X00848233Y00847979
X00796816Y00805689
X01075944Y00805434
X0109578Y00731959
X01077468Y00644144
X01075944Y00547878
X01077468Y009017
X01096034Y00989515
X01075944Y0106299
X01077468Y01159256
X01096034Y01247071
X01075944Y01320546
X0093218Y0128524
X0089535Y01284986
X00849249Y01266063
X0084709Y01194816
X00835357Y01188417
X00818292Y01167665
X00802386Y01161796
X00847245Y01161443
X00880872Y01169162
X00881144Y01194817
X00896874Y0118872
X00933704Y01189736
X00880306Y01136434
X00823214Y01132586
X00828802Y01125474
X00828548Y01114552
X00828802Y01100328
Y01084326
X0090228Y01078037
X00797832Y01221741
X00781812Y01165606
X00283972Y01172718
X0026797Y01172464
X00231092Y01178673
X00230124Y01195832
X00221145Y01211402
X00211582Y0121158
X00202184
X00193868Y01210752
X00176784Y0119507
Y01185418
X00176802Y01176783
X00145542Y01152652
X00119888Y01155954
X00126492Y01194054
X00141478Y012192
Y0122936
Y0123952
Y0124968
Y01274318
X00143208Y01287526
X00112776Y01302258
X0011303Y0124079
X00169164Y0123571
X00156464Y01219708
X00172974Y0127127
X00186866Y01265604
X00213868Y0125476
X00243586Y0125349
X0025527Y01294892
X00283718Y012954
X00257302Y01122426
X00259402Y0107823
X00240792Y01074674
X00232421Y01079511
X00249174Y01064768
X00269494Y0104394
X00283972Y01032002
X00295216Y0107823
X0020447Y01111758
X00179989Y01103533
X00221234Y0096393
X00230886Y00954532
X00243078Y0094234
X00050546Y01015746
X00034555Y01347735
X0006748Y01359822
X00079096Y01359286
X00088646Y01357884
X00094742Y01405636
X00132842Y01384554
X00148082Y01383284
X00147828Y0137033
X0019558Y01368552
X00179578Y01345946
X00169164Y01405128
X0018034Y01431798
X00193294Y01419098
X00206859Y01547493
X00234037
X00232651Y01617438
X00205473
X00129286Y0163576
X0077978Y01559052
X00800354Y01555242
X00816261Y01561111
X00845213Y01554889
X00845058Y01588262
X00833325Y01581863
X00878858Y01588263
X00894842Y01582166
X0087884Y01562608
X00878078Y01529842
X00821182Y01526032
X0082677Y0151892
X00826516Y01507998
X0082677Y01493774
Y01477772
X00900247Y01471483
X00931672Y01583182
X00927608Y01687322
X00893318Y01678432
X00847217Y01659509
X007958Y01614679
X01075944Y01578102
X01096034Y01504627
X01077468Y01416812
Y01674368
X0109578Y01762183
X01075944Y01835658
X01077468Y01931924
X0109578Y02019739
X01075944Y02093214
X00671068Y01895094
X0067437Y01882902
X00667258Y01843024
X00621792Y01862836
X00611886Y018288
X00600456Y01892554
X00611378Y0192659
X0063754Y01916176
X00459753Y01933482
X00433324Y01933194
X00432321Y01864394
X00459499
X01077468Y0218948
X0109578Y02277295
T03
X00194881Y00053848
X00215265
X00235648
X00256032
X00245809Y00071628
X00225361
X00205042
X00184658
X00174752Y00119888
X00151892
X00266192
X00289052
X00410464
X00433324
X0044323Y00071628
X00463614
X00483933
X0050438
X00494221Y00053848
X00473837
X00453453
X00514604
X00524764Y00119888
X00547624
X00669036
X00691896
X00701802Y00071628
X00722186
X00742505
X00762952
X00752793Y00053848
X00732409
X00712026
X00773176
X00783336Y00119888
X00806196
X01165606Y0010287
Y0007747
X01204976Y001143
Y001397
X01230376Y00127
Y001016
X01267206Y001143
Y001397
X01292606Y00127
Y001016
X01333246Y0010287
Y0007747
Y0018923
Y0021463
X01292606Y001778
Y001524
X01267206Y001651
Y001905
X01230376Y001778
Y001524
X01204976Y001651
Y001905
Y00371856
Y00397256
Y00422656
Y00448056
X01230376Y00435356
Y00409956
Y00384556
Y00359156
X01267206Y00371856
Y00397256
Y00422656
Y00448056
X01292606Y00435356
Y00409956
Y00384556
Y00359156
X01333246Y00360426
Y00335026
Y00446786
Y00472186
X01165606
Y00446786
Y00360426
Y00335026
Y0021463
Y0018923
Y00592582
Y00617982
Y00704342
Y00729742
Y00850138
Y00875538
X01204976Y00886968
Y00912368
X01230376Y00925068
Y00899668
Y00874268
X01267206Y00886968
Y00912368
X01292606Y00925068
Y00899668
Y00874268
X01333246Y00875538
Y00850138
Y00729742
Y00704342
X01292606Y00692912
Y00667512
Y00642112
Y00616712
X01267206Y00629412
Y00654812
Y00680212
Y00705612
X01230376Y00692912
Y00667512
Y00642112
Y00616712
X01204976Y00629412
Y00654812
Y00680212
Y00705612
X01333246Y00617982
Y00592582
Y00961898
Y00987298
X01292606Y00950468
X01267206Y00963168
Y00937768
X01230376Y00950468
X01204976Y00937768
Y00963168
Y01144524
Y01169924
Y01195324
Y01220724
X01230376Y01208024
Y01182624
Y01157224
Y01131824
X01267206Y01144524
Y01169924
Y01195324
Y01220724
X01292606Y01208024
Y01182624
Y01157224
Y01131824
X01333246Y01133094
Y01107694
Y01219454
Y01244854
X01165606
Y01219454
Y01133094
Y01107694
Y00987298
Y00961898
Y0136525
Y0139065
Y0147701
Y0150241
Y01622806
Y01648206
X01204976Y01659636
Y01685036
Y01710436
X01230376Y01697736
Y01672336
Y01646936
X01267206Y01659636
Y01685036
Y01710436
X01292606Y01723136
Y01697736
Y01672336
Y01646936
X01333246Y01648206
Y01622806
Y0150241
Y0147701
X01292606Y0146558
Y0144018
Y0141478
Y0138938
X01267206Y0140208
Y0142748
Y0145288
Y0147828
X01230376Y0146558
Y0144018
Y0141478
Y0138938
X01204976Y0140208
Y0142748
Y0145288
Y0147828
X01333246Y0139065
Y0136525
X01230376Y01723136
X01204976Y01735836
X01267206
X01333246Y01734566
Y01759966
Y01880362
Y01905762
X01292606Y01904492
Y01929892
Y01955292
Y01980692
X01267206Y01993392
Y01967992
Y01942592
Y01917192
X01230376Y01904492
Y01929892
Y01955292
Y01980692
X01204976Y01967992
Y01942592
Y01917192
Y01993392
X01333246Y01992122
Y02017522
X01165606
Y01992122
Y01905762
Y01880362
Y01759966
Y01734566
Y02137918
Y02163318
Y02249678
Y02275078
X01204976Y02250948
Y02225548
Y02200148
Y02174748
X01230376Y02162048
Y02187448
Y02212848
Y02238248
X01267206Y02250948
Y02225548
Y02200148
Y02174748
X01292606Y02187448
Y02212848
Y02238248
X01333246Y02249678
Y02275078
Y02163318
Y02137918
X01292606Y02162048
T04
X00099822Y01506728
X00119888
Y0153162
X00099822
T05
X00037846Y01129792
Y01155192
Y01180592
Y01205992
Y01231392
Y01256792
Y01282192
X00063246
Y01256792
Y01231392
Y01205992
Y01180592
Y01155192
Y01129792
X000508Y0169418
X000762
X001016
X00127
X001524
X001778
Y0171958
X001524
X00127
X001016
X000762
X000508
X002032
Y0169418
X002286
Y0171958
T06
X00139192Y00062738
X00301752
X00397764
X00560324
X00656336
X00818896
X01220216Y00064897
X01304036
Y00227203
X01220216
Y00322453
X01304036
Y00484759
X01220216
Y00580009
X01304036
Y00742315
X01220216
Y00837565
X01304036
Y00999871
X01220216
Y01095121
X01304036
Y01257427
X01220216
Y01352677
X01304036
Y01514983
X01220216
Y01610233
X01304036
Y01772539
X01220216
Y01867789
X01304036
Y02030095
X01220216
Y02125345
X01304036
Y02287651
X01220216
T07
X00399034Y00624078
X00446024
X00493014
X00609346
X00656336
X00703326
Y00759968
X00656336
X00609346
X00493014
X00446024
X00399034
Y00895858
X00446024
X00493014
X00609346
X00656336
X00703326
Y01031748
X00656336
X00609346
X00493014
X00446024
X00399034
Y01167638
X00446024
X00493014
X00609346
X00656336
X00703326
Y01303528
X00656336
X00609346
X00493014
X00446024
X00399034
Y01439418
X00446024
X00493014
X00609346
X00656336
X00703326
Y01575308
X00656336
X00609346
X00493014
X00446024
X00399034
Y01711198
X00446024
X00493014
X00609346
X00656336
X00703326
T08
X00072644Y01458976
Y01579372
T09
X00156972Y00028448
X00283972
X00415544
X00542544
X00674116
X00801116
T10
X000508Y000254
X009398
X01375156Y0008255
Y0020955
Y00340106
Y00467106
Y00597662
Y00724662
Y00855218
Y00982218
Y01112774
Y01239774
Y0137033
Y0149733
Y01627886
Y01754886
Y01885442
Y02012442
X000508Y023114
X009398
X01375156Y02269998
Y02142998
M30
