M48
;Layer_Color=9474304
;FILE_FORMAT=4:4
METRIC,LZ
;TYPE=PLATED
T02F00S00C0.3048
T06F00S00C1.2700
;TYPE=NON_PLATED
%
G90
G05
T02
G00X00352679Y01880108
M15
G01X00324485
M16
G00X00391668Y01913382
M15
G01Y01893062
M16
G00X00366522Y01951101
M15
G01Y01929003
M16
T06
G00X00396494Y00625348
M15
G01Y00622808
M16
G00X00444754Y00625348
M15
G01Y00622808
M16
G00X00493014Y00625348
M15
G01Y00622808
M16
G00X00606806Y00625348
M15
G01Y00622808
M16
G00X00655066Y00625348
M15
G01Y00622808
M16
G00X00703326Y00625348
M15
G01Y00622808
M16
G00X00703326Y00761238
M15
G01Y00758698
M16
G00X00655066Y00761238
M15
G01Y00758698
M16
G00X00606806Y00761238
M15
G01Y00758698
M16
G00X00493014Y00761238
M15
G01Y00758698
M16
G00X00444754Y00761238
M15
G01Y00758698
M16
G00X00396494Y00761238
M15
G01Y00758698
M16
G00X00396494Y00897128
M15
G01Y00894588
M16
G00X00444754Y00897128
M15
G01Y00894588
M16
G00X00493014Y00897128
M15
G01Y00894588
M16
G00X00606806Y00897128
M15
G01Y00894588
M16
G00X00655066Y00897128
M15
G01Y00894588
M16
G00X00703326Y00897128
M15
G01Y00894588
M16
G00X00703326Y01033018
M15
G01Y01030478
M16
G00X00655066Y01033018
M15
G01Y01030478
M16
G00X00606806Y01033018
M15
G01Y01030478
M16
G00X00493014Y01033018
M15
G01Y01030478
M16
G00X00444754Y01033018
M15
G01Y01030478
M16
G00X00396494Y01033018
M15
G01Y01030478
M16
G00X00396494Y01168908
M15
G01Y01166368
M16
G00X00444754Y01168908
M15
G01Y01166368
M16
G00X00493014Y01168908
M15
G01Y01166368
M16
G00X00606806Y01168908
M15
G01Y01166368
M16
G00X00655066Y01168908
M15
G01Y01166368
M16
G00X00703326Y01168908
M15
G01Y01166368
M16
G00X00703326Y01304798
M15
G01Y01302258
M16
G00X00655066Y01304798
M15
G01Y01302258
M16
G00X00606806Y01304798
M15
G01Y01302258
M16
G00X00493014Y01304798
M15
G01Y01302258
M16
G00X00444754Y01304798
M15
G01Y01302258
M16
G00X00396494Y01304798
M15
G01Y01302258
M16
G00X00396494Y01440688
M15
G01Y01438148
M16
G00X00444754Y01440688
M15
G01Y01438148
M16
G00X00493014Y01440688
M15
G01Y01438148
M16
G00X00606806Y01440688
M15
G01Y01438148
M16
G00X00655066Y01440688
M15
G01Y01438148
M16
G00X00703326Y01440688
M15
G01Y01438148
M16
G00X00703326Y01576578
M15
G01Y01574038
M16
G00X00655066Y01576578
M15
G01Y01574038
M16
G00X00606806Y01576578
M15
G01Y01574038
M16
G00X00493014Y01576578
M15
G01Y01574038
M16
G00X00444754Y01576578
M15
G01Y01574038
M16
G00X00396494Y01576578
M15
G01Y01574038
M16
G00X00396494Y01712468
M15
G01Y01709928
M16
G00X00444754Y01712468
M15
G01Y01709928
M16
G00X00493014Y01712468
M15
G01Y01709928
M16
G00X00606806Y01712468
M15
G01Y01709928
M16
G00X00655066Y01712468
M15
G01Y01709928
M16
G00X00703326Y01712468
M15
G01Y01709928
M16
M30
