G04*
G04 #@! TF.GenerationSoftware,Altium Limited,Altium Designer,23.10.1 (27)*
G04*
G04 Layer_Color=8388736*
%FSLAX44Y44*%
%MOMM*%
G71*
G04*
G04 #@! TF.SameCoordinates,2E78A80F-BD86-4490-A529-E194FF2111EF*
G04*
G04*
G04 #@! TF.FilePolarity,Negative*
G04*
G01*
G75*
G04:AMPARAMS|DCode=36|XSize=1.143mm|YSize=1.1938mm|CornerRadius=0.1486mm|HoleSize=0mm|Usage=FLASHONLY|Rotation=90.000|XOffset=0mm|YOffset=0mm|HoleType=Round|Shape=RoundedRectangle|*
%AMROUNDEDRECTD36*
21,1,1.1430,0.8966,0,0,90.0*
21,1,0.8458,1.1938,0,0,90.0*
1,1,0.2972,0.4483,0.4229*
1,1,0.2972,0.4483,-0.4229*
1,1,0.2972,-0.4483,-0.4229*
1,1,0.2972,-0.4483,0.4229*
%
%ADD36ROUNDEDRECTD36*%
G04:AMPARAMS|DCode=37|XSize=1.143mm|YSize=1.1938mm|CornerRadius=0.1486mm|HoleSize=0mm|Usage=FLASHONLY|Rotation=0.000|XOffset=0mm|YOffset=0mm|HoleType=Round|Shape=RoundedRectangle|*
%AMROUNDEDRECTD37*
21,1,1.1430,0.8966,0,0,0.0*
21,1,0.8458,1.1938,0,0,0.0*
1,1,0.2972,0.4229,-0.4483*
1,1,0.2972,-0.4229,-0.4483*
1,1,0.2972,-0.4229,0.4483*
1,1,0.2972,0.4229,0.4483*
%
%ADD37ROUNDEDRECTD37*%
G04:AMPARAMS|DCode=38|XSize=0.9906mm|YSize=0.9144mm|CornerRadius=0.1372mm|HoleSize=0mm|Usage=FLASHONLY|Rotation=0.000|XOffset=0mm|YOffset=0mm|HoleType=Round|Shape=RoundedRectangle|*
%AMROUNDEDRECTD38*
21,1,0.9906,0.6401,0,0,0.0*
21,1,0.7163,0.9144,0,0,0.0*
1,1,0.2743,0.3581,-0.3200*
1,1,0.2743,-0.3581,-0.3200*
1,1,0.2743,-0.3581,0.3200*
1,1,0.2743,0.3581,0.3200*
%
%ADD38ROUNDEDRECTD38*%
G04:AMPARAMS|DCode=39|XSize=1.7018mm|YSize=0.508mm|CornerRadius=0.094mm|HoleSize=0mm|Usage=FLASHONLY|Rotation=270.000|XOffset=0mm|YOffset=0mm|HoleType=Round|Shape=RoundedRectangle|*
%AMROUNDEDRECTD39*
21,1,1.7018,0.3200,0,0,270.0*
21,1,1.5138,0.5080,0,0,270.0*
1,1,0.1880,-0.1600,-0.7569*
1,1,0.1880,-0.1600,0.7569*
1,1,0.1880,0.1600,0.7569*
1,1,0.1880,0.1600,-0.7569*
%
%ADD39ROUNDEDRECTD39*%
G04:AMPARAMS|DCode=40|XSize=0.8128mm|YSize=1.2446mm|CornerRadius=0.1321mm|HoleSize=0mm|Usage=FLASHONLY|Rotation=270.000|XOffset=0mm|YOffset=0mm|HoleType=Round|Shape=RoundedRectangle|*
%AMROUNDEDRECTD40*
21,1,0.8128,0.9804,0,0,270.0*
21,1,0.5486,1.2446,0,0,270.0*
1,1,0.2642,-0.4902,-0.2743*
1,1,0.2642,-0.4902,0.2743*
1,1,0.2642,0.4902,0.2743*
1,1,0.2642,0.4902,-0.2743*
%
%ADD40ROUNDEDRECTD40*%
G04:AMPARAMS|DCode=41|XSize=1.7018mm|YSize=0.508mm|CornerRadius=0.094mm|HoleSize=0mm|Usage=FLASHONLY|Rotation=180.000|XOffset=0mm|YOffset=0mm|HoleType=Round|Shape=RoundedRectangle|*
%AMROUNDEDRECTD41*
21,1,1.7018,0.3200,0,0,180.0*
21,1,1.5138,0.5080,0,0,180.0*
1,1,0.1880,-0.7569,0.1600*
1,1,0.1880,0.7569,0.1600*
1,1,0.1880,0.7569,-0.1600*
1,1,0.1880,-0.7569,-0.1600*
%
%ADD41ROUNDEDRECTD41*%
G04:AMPARAMS|DCode=42|XSize=0.4532mm|YSize=0.9032mm|CornerRadius=0.1141mm|HoleSize=0mm|Usage=FLASHONLY|Rotation=0.000|XOffset=0mm|YOffset=0mm|HoleType=Round|Shape=RoundedRectangle|*
%AMROUNDEDRECTD42*
21,1,0.4532,0.6750,0,0,0.0*
21,1,0.2250,0.9032,0,0,0.0*
1,1,0.2282,0.1125,-0.3375*
1,1,0.2282,-0.1125,-0.3375*
1,1,0.2282,-0.1125,0.3375*
1,1,0.2282,0.1125,0.3375*
%
%ADD42ROUNDEDRECTD42*%
G04:AMPARAMS|DCode=43|XSize=0.4532mm|YSize=1.3032mm|CornerRadius=0.1141mm|HoleSize=0mm|Usage=FLASHONLY|Rotation=0.000|XOffset=0mm|YOffset=0mm|HoleType=Round|Shape=RoundedRectangle|*
%AMROUNDEDRECTD43*
21,1,0.4532,1.0750,0,0,0.0*
21,1,0.2250,1.3032,0,0,0.0*
1,1,0.2282,0.1125,-0.5375*
1,1,0.2282,-0.1125,-0.5375*
1,1,0.2282,-0.1125,0.5375*
1,1,0.2282,0.1125,0.5375*
%
%ADD43ROUNDEDRECTD43*%
G04:AMPARAMS|DCode=44|XSize=0.4532mm|YSize=0.9032mm|CornerRadius=0.1141mm|HoleSize=0mm|Usage=FLASHONLY|Rotation=90.000|XOffset=0mm|YOffset=0mm|HoleType=Round|Shape=RoundedRectangle|*
%AMROUNDEDRECTD44*
21,1,0.4532,0.6750,0,0,90.0*
21,1,0.2250,0.9032,0,0,90.0*
1,1,0.2282,0.3375,0.1125*
1,1,0.2282,0.3375,-0.1125*
1,1,0.2282,-0.3375,-0.1125*
1,1,0.2282,-0.3375,0.1125*
%
%ADD44ROUNDEDRECTD44*%
G04:AMPARAMS|DCode=45|XSize=0.4532mm|YSize=1.3032mm|CornerRadius=0.1141mm|HoleSize=0mm|Usage=FLASHONLY|Rotation=90.000|XOffset=0mm|YOffset=0mm|HoleType=Round|Shape=RoundedRectangle|*
%AMROUNDEDRECTD45*
21,1,0.4532,1.0750,0,0,90.0*
21,1,0.2250,1.3032,0,0,90.0*
1,1,0.2282,0.5375,0.1125*
1,1,0.2282,0.5375,-0.1125*
1,1,0.2282,-0.5375,-0.1125*
1,1,0.2282,-0.5375,0.1125*
%
%ADD45ROUNDEDRECTD45*%
G04:AMPARAMS|DCode=46|XSize=0.4532mm|YSize=1.0032mm|CornerRadius=0.1141mm|HoleSize=0mm|Usage=FLASHONLY|Rotation=90.000|XOffset=0mm|YOffset=0mm|HoleType=Round|Shape=RoundedRectangle|*
%AMROUNDEDRECTD46*
21,1,0.4532,0.7750,0,0,90.0*
21,1,0.2250,1.0032,0,0,90.0*
1,1,0.2282,0.3875,0.1125*
1,1,0.2282,0.3875,-0.1125*
1,1,0.2282,-0.3875,-0.1125*
1,1,0.2282,-0.3875,0.1125*
%
%ADD46ROUNDEDRECTD46*%
G04:AMPARAMS|DCode=47|XSize=1.7018mm|YSize=0.4013mm|CornerRadius=0.0658mm|HoleSize=0mm|Usage=FLASHONLY|Rotation=90.000|XOffset=0mm|YOffset=0mm|HoleType=Round|Shape=RoundedRectangle|*
%AMROUNDEDRECTD47*
21,1,1.7018,0.2697,0,0,90.0*
21,1,1.5702,0.4013,0,0,90.0*
1,1,0.1316,0.1349,0.7851*
1,1,0.1316,0.1349,-0.7851*
1,1,0.1316,-0.1349,-0.7851*
1,1,0.1316,-0.1349,0.7851*
%
%ADD47ROUNDEDRECTD47*%
G04:AMPARAMS|DCode=48|XSize=1.7018mm|YSize=0.4013mm|CornerRadius=0.0658mm|HoleSize=0mm|Usage=FLASHONLY|Rotation=180.000|XOffset=0mm|YOffset=0mm|HoleType=Round|Shape=RoundedRectangle|*
%AMROUNDEDRECTD48*
21,1,1.7018,0.2697,0,0,180.0*
21,1,1.5702,0.4013,0,0,180.0*
1,1,0.1316,-0.7851,0.1349*
1,1,0.1316,0.7851,0.1349*
1,1,0.1316,0.7851,-0.1349*
1,1,0.1316,-0.7851,-0.1349*
%
%ADD48ROUNDEDRECTD48*%
G04:AMPARAMS|DCode=49|XSize=0.9906mm|YSize=1.0922mm|CornerRadius=0.141mm|HoleSize=0mm|Usage=FLASHONLY|Rotation=90.000|XOffset=0mm|YOffset=0mm|HoleType=Round|Shape=RoundedRectangle|*
%AMROUNDEDRECTD49*
21,1,0.9906,0.8103,0,0,90.0*
21,1,0.7087,1.0922,0,0,90.0*
1,1,0.2819,0.4051,0.3543*
1,1,0.2819,0.4051,-0.3543*
1,1,0.2819,-0.4051,-0.3543*
1,1,0.2819,-0.4051,0.3543*
%
%ADD49ROUNDEDRECTD49*%
G04:AMPARAMS|DCode=50|XSize=1.8034mm|YSize=2.794mm|CornerRadius=0.3016mm|HoleSize=0mm|Usage=FLASHONLY|Rotation=0.000|XOffset=0mm|YOffset=0mm|HoleType=Round|Shape=RoundedRectangle|*
%AMROUNDEDRECTD50*
21,1,1.8034,2.1908,0,0,0.0*
21,1,1.2002,2.7940,0,0,0.0*
1,1,0.6033,0.6001,-1.0954*
1,1,0.6033,-0.6001,-1.0954*
1,1,0.6033,-0.6001,1.0954*
1,1,0.6033,0.6001,1.0954*
%
%ADD50ROUNDEDRECTD50*%
G04:AMPARAMS|DCode=51|XSize=1.1938mm|YSize=1.651mm|CornerRadius=0.1511mm|HoleSize=0mm|Usage=FLASHONLY|Rotation=180.000|XOffset=0mm|YOffset=0mm|HoleType=Round|Shape=RoundedRectangle|*
%AMROUNDEDRECTD51*
21,1,1.1938,1.3487,0,0,180.0*
21,1,0.8915,1.6510,0,0,180.0*
1,1,0.3023,-0.4458,0.6744*
1,1,0.3023,0.4458,0.6744*
1,1,0.3023,0.4458,-0.6744*
1,1,0.3023,-0.4458,-0.6744*
%
%ADD51ROUNDEDRECTD51*%
G04:AMPARAMS|DCode=52|XSize=1.0922mm|YSize=1.8034mm|CornerRadius=0.1461mm|HoleSize=0mm|Usage=FLASHONLY|Rotation=270.000|XOffset=0mm|YOffset=0mm|HoleType=Round|Shape=RoundedRectangle|*
%AMROUNDEDRECTD52*
21,1,1.0922,1.5113,0,0,270.0*
21,1,0.8001,1.8034,0,0,270.0*
1,1,0.2921,-0.7557,-0.4001*
1,1,0.2921,-0.7557,0.4001*
1,1,0.2921,0.7557,0.4001*
1,1,0.2921,0.7557,-0.4001*
%
%ADD52ROUNDEDRECTD52*%
G04:AMPARAMS|DCode=53|XSize=1.1938mm|YSize=1.651mm|CornerRadius=0.1511mm|HoleSize=0mm|Usage=FLASHONLY|Rotation=90.000|XOffset=0mm|YOffset=0mm|HoleType=Round|Shape=RoundedRectangle|*
%AMROUNDEDRECTD53*
21,1,1.1938,1.3487,0,0,90.0*
21,1,0.8915,1.6510,0,0,90.0*
1,1,0.3023,0.6744,0.4458*
1,1,0.3023,0.6744,-0.4458*
1,1,0.3023,-0.6744,-0.4458*
1,1,0.3023,-0.6744,0.4458*
%
%ADD53ROUNDEDRECTD53*%
%ADD54C,1.7272*%
%ADD55C,3.1242*%
G04:AMPARAMS|DCode=56|XSize=0.889mm|YSize=3.7084mm|CornerRadius=0.1359mm|HoleSize=0mm|Usage=FLASHONLY|Rotation=90.000|XOffset=0mm|YOffset=0mm|HoleType=Round|Shape=RoundedRectangle|*
%AMROUNDEDRECTD56*
21,1,0.8890,3.4366,0,0,90.0*
21,1,0.6172,3.7084,0,0,90.0*
1,1,0.2718,1.7183,0.3086*
1,1,0.2718,1.7183,-0.3086*
1,1,0.2718,-1.7183,-0.3086*
1,1,0.2718,-1.7183,0.3086*
%
%ADD56ROUNDEDRECTD56*%
G04:AMPARAMS|DCode=57|XSize=0.889mm|YSize=3.0988mm|CornerRadius=0.1359mm|HoleSize=0mm|Usage=FLASHONLY|Rotation=180.000|XOffset=0mm|YOffset=0mm|HoleType=Round|Shape=RoundedRectangle|*
%AMROUNDEDRECTD57*
21,1,0.8890,2.8270,0,0,180.0*
21,1,0.6172,3.0988,0,0,180.0*
1,1,0.2718,-0.3086,1.4135*
1,1,0.2718,0.3086,1.4135*
1,1,0.2718,0.3086,-1.4135*
1,1,0.2718,-0.3086,-1.4135*
%
%ADD57ROUNDEDRECTD57*%
G04:AMPARAMS|DCode=58|XSize=0.889mm|YSize=2.921mm|CornerRadius=0.1359mm|HoleSize=0mm|Usage=FLASHONLY|Rotation=180.000|XOffset=0mm|YOffset=0mm|HoleType=Round|Shape=RoundedRectangle|*
%AMROUNDEDRECTD58*
21,1,0.8890,2.6492,0,0,180.0*
21,1,0.6172,2.9210,0,0,180.0*
1,1,0.2718,-0.3086,1.3246*
1,1,0.2718,0.3086,1.3246*
1,1,0.2718,0.3086,-1.3246*
1,1,0.2718,-0.3086,-1.3246*
%
%ADD58ROUNDEDRECTD58*%
%ADD59C,3.0988*%
%ADD60C,1.6002*%
%ADD61C,2.4130*%
%ADD62C,3.4544*%
%ADD63C,3.4036*%
%ADD64C,0.8032*%
G36*
X446882Y324984D02*
X433882D01*
Y329484D01*
X438882D01*
Y333484D01*
X433882D01*
Y337984D01*
X438882D01*
Y341984D01*
X433882D01*
Y346234D01*
Y346484D01*
X446882D01*
Y324984D01*
D02*
G37*
G36*
X471882Y346234D02*
Y341984D01*
X466882D01*
Y337984D01*
X471882D01*
Y333484D01*
X466882D01*
Y329484D01*
X471882D01*
Y324984D01*
X458882D01*
Y346484D01*
X471882D01*
Y346234D01*
D02*
G37*
G36*
X638652Y1837300D02*
X625652D01*
Y1841800D01*
X630652D01*
Y1845800D01*
X625652D01*
Y1850300D01*
X630652D01*
Y1854300D01*
X625652D01*
Y1858550D01*
Y1858800D01*
X638652D01*
Y1837300D01*
D02*
G37*
G36*
X663652Y1858550D02*
Y1854300D01*
X658652D01*
Y1850300D01*
X663652D01*
Y1845800D01*
X658652D01*
Y1841800D01*
X663652D01*
Y1837300D01*
X650652D01*
Y1858800D01*
X663652D01*
Y1858550D01*
D02*
G37*
D36*
X20574Y1386840D02*
D03*
Y1370838D02*
D03*
X283718Y1267206D02*
D03*
Y1283208D02*
D03*
X250952Y1266698D02*
D03*
Y1282700D02*
D03*
X232410Y1490726D02*
D03*
Y1506728D02*
D03*
X208534Y1490472D02*
D03*
Y1506474D02*
D03*
X1106170Y240030D02*
D03*
Y224028D02*
D03*
Y497586D02*
D03*
Y481584D02*
D03*
Y755142D02*
D03*
Y739140D02*
D03*
Y1012698D02*
D03*
Y996696D02*
D03*
Y1270254D02*
D03*
Y1254252D02*
D03*
Y1527810D02*
D03*
Y1511808D02*
D03*
Y1785366D02*
D03*
Y1769364D02*
D03*
Y2042922D02*
D03*
Y2026920D02*
D03*
Y2300478D02*
D03*
Y2284476D02*
D03*
X1105916Y193548D02*
D03*
Y209550D02*
D03*
Y451104D02*
D03*
Y467106D02*
D03*
Y708660D02*
D03*
Y724662D02*
D03*
Y966216D02*
D03*
Y982218D02*
D03*
Y1223772D02*
D03*
Y1239774D02*
D03*
Y1481328D02*
D03*
Y1497330D02*
D03*
Y1738884D02*
D03*
Y1754886D02*
D03*
Y1996440D02*
D03*
Y2012442D02*
D03*
Y2253996D02*
D03*
Y2269998D02*
D03*
X1064260Y161798D02*
D03*
Y145796D02*
D03*
Y419354D02*
D03*
Y403352D02*
D03*
Y676910D02*
D03*
Y660908D02*
D03*
Y934466D02*
D03*
Y918464D02*
D03*
Y1192022D02*
D03*
Y1176020D02*
D03*
Y1449578D02*
D03*
Y1433576D02*
D03*
Y1707134D02*
D03*
Y1691132D02*
D03*
Y1964690D02*
D03*
Y1948688D02*
D03*
Y2222246D02*
D03*
Y2206244D02*
D03*
X1064514Y69088D02*
D03*
Y53086D02*
D03*
Y326644D02*
D03*
Y310642D02*
D03*
Y584200D02*
D03*
Y568198D02*
D03*
Y841756D02*
D03*
Y825754D02*
D03*
Y1099312D02*
D03*
Y1083310D02*
D03*
Y1356868D02*
D03*
Y1340866D02*
D03*
Y1614424D02*
D03*
Y1598422D02*
D03*
Y1871980D02*
D03*
Y1855978D02*
D03*
Y2129536D02*
D03*
Y2113534D02*
D03*
X550672Y621284D02*
D03*
Y637286D02*
D03*
X340360Y621284D02*
D03*
Y637286D02*
D03*
X550672Y757174D02*
D03*
Y773176D02*
D03*
X340360Y757174D02*
D03*
Y773176D02*
D03*
X550672Y893064D02*
D03*
Y909066D02*
D03*
X340360Y893064D02*
D03*
Y909066D02*
D03*
X550672Y1028954D02*
D03*
Y1044956D02*
D03*
X340360Y1028954D02*
D03*
Y1044956D02*
D03*
X550672Y1164844D02*
D03*
Y1180846D02*
D03*
X340360Y1164844D02*
D03*
Y1180846D02*
D03*
X550672Y1300734D02*
D03*
Y1316736D02*
D03*
X340360Y1300734D02*
D03*
Y1316736D02*
D03*
X550672Y1436624D02*
D03*
Y1452626D02*
D03*
X340360Y1436624D02*
D03*
Y1452626D02*
D03*
X550672Y1572514D02*
D03*
Y1588516D02*
D03*
X340360Y1572514D02*
D03*
Y1588516D02*
D03*
X550672Y1708404D02*
D03*
Y1724406D02*
D03*
X340360Y1708404D02*
D03*
Y1724406D02*
D03*
X347726Y226060D02*
D03*
Y210058D02*
D03*
X122682Y1248156D02*
D03*
Y1264158D02*
D03*
X794766Y379984D02*
D03*
Y363982D02*
D03*
X852932Y378968D02*
D03*
Y362966D02*
D03*
X735076Y381508D02*
D03*
Y365506D02*
D03*
X122682Y1233424D02*
D03*
Y1217422D02*
D03*
X332232Y226060D02*
D03*
Y210058D02*
D03*
X122682Y1309370D02*
D03*
Y1325372D02*
D03*
Y1294892D02*
D03*
Y1278890D02*
D03*
X208280Y1450848D02*
D03*
Y1434846D02*
D03*
X232156Y1450848D02*
D03*
Y1434846D02*
D03*
X611378Y1899920D02*
D03*
Y1915922D02*
D03*
Y1869440D02*
D03*
Y1885442D02*
D03*
X626872Y1899920D02*
D03*
Y1915922D02*
D03*
X611378Y1854962D02*
D03*
Y1838960D02*
D03*
X173228Y1112012D02*
D03*
Y1128014D02*
D03*
X419608Y388366D02*
D03*
Y404368D02*
D03*
Y357632D02*
D03*
Y373634D02*
D03*
X434848Y388366D02*
D03*
Y404368D02*
D03*
X419608Y327152D02*
D03*
Y343154D02*
D03*
X838708Y682498D02*
D03*
Y666496D02*
D03*
X839470Y1100582D02*
D03*
Y1084580D02*
D03*
X837438Y1494028D02*
D03*
Y1478026D02*
D03*
X838454Y696976D02*
D03*
Y712978D02*
D03*
X839216Y1115060D02*
D03*
Y1131062D02*
D03*
X837184Y1508506D02*
D03*
Y1524508D02*
D03*
X295402Y1104392D02*
D03*
Y1088390D02*
D03*
X258826Y1104392D02*
D03*
Y1088390D02*
D03*
X230886Y1104392D02*
D03*
Y1088390D02*
D03*
X493014Y308610D02*
D03*
Y292608D02*
D03*
X550164Y308610D02*
D03*
Y292608D02*
D03*
X188722Y1128014D02*
D03*
Y1112012D02*
D03*
X176530Y1260348D02*
D03*
Y1244346D02*
D03*
X853440Y425704D02*
D03*
Y441706D02*
D03*
X793750Y425704D02*
D03*
Y441706D02*
D03*
X734822Y426466D02*
D03*
Y442468D02*
D03*
D37*
X60452Y1347470D02*
D03*
X44450D02*
D03*
X219202Y1244600D02*
D03*
X235204D02*
D03*
X102870Y1635760D02*
D03*
X118872D02*
D03*
X57912Y1635506D02*
D03*
X41910D02*
D03*
X72390Y1635760D02*
D03*
X88392D02*
D03*
X1106678Y27686D02*
D03*
X1090676D02*
D03*
X1106678Y285242D02*
D03*
X1090676D02*
D03*
X1106678Y542798D02*
D03*
X1090676D02*
D03*
X1106678Y800354D02*
D03*
X1090676D02*
D03*
X1106678Y1057910D02*
D03*
X1090676D02*
D03*
X1106678Y1315466D02*
D03*
X1090676D02*
D03*
X1106678Y1573022D02*
D03*
X1090676D02*
D03*
X1106678Y1830578D02*
D03*
X1090676D02*
D03*
X1106678Y2088134D02*
D03*
X1090676D02*
D03*
X1106678Y120396D02*
D03*
X1090676D02*
D03*
X1106678Y377952D02*
D03*
X1090676D02*
D03*
X1106678Y635508D02*
D03*
X1090676D02*
D03*
X1106678Y893064D02*
D03*
X1090676D02*
D03*
X1106678Y1150620D02*
D03*
X1090676D02*
D03*
X1106678Y1408176D02*
D03*
X1090676D02*
D03*
X1106678Y1665732D02*
D03*
X1090676D02*
D03*
X1106678Y1923288D02*
D03*
X1090676D02*
D03*
X1106678Y2180844D02*
D03*
X1090676D02*
D03*
X695960Y172974D02*
D03*
X679958D02*
D03*
X437388D02*
D03*
X421386D02*
D03*
X178816D02*
D03*
X162814D02*
D03*
X778256Y172720D02*
D03*
X762254D02*
D03*
X519684D02*
D03*
X503682D02*
D03*
X261112D02*
D03*
X245110D02*
D03*
X792734Y172974D02*
D03*
X808736D02*
D03*
X534162D02*
D03*
X550164D02*
D03*
X275590D02*
D03*
X291592D02*
D03*
X57912Y1025906D02*
D03*
X73914D02*
D03*
X43180Y1025652D02*
D03*
X27178D02*
D03*
X179578Y1390142D02*
D03*
X195580D02*
D03*
X170180Y1311402D02*
D03*
X154178D02*
D03*
X83820Y1390142D02*
D03*
X67818D02*
D03*
X170180Y1326642D02*
D03*
X154178D02*
D03*
X906526Y771906D02*
D03*
X922528D02*
D03*
X907288Y1189990D02*
D03*
X923290D02*
D03*
X905256Y1583436D02*
D03*
X921258D02*
D03*
X921004Y867410D02*
D03*
X905002D02*
D03*
X921766Y1285494D02*
D03*
X905764D02*
D03*
X919734Y1678940D02*
D03*
X903732D02*
D03*
X853694Y750824D02*
D03*
X869696D02*
D03*
X854456Y1168908D02*
D03*
X870458D02*
D03*
X852424Y1562354D02*
D03*
X868426D02*
D03*
X179578Y1357630D02*
D03*
X195580D02*
D03*
Y1405128D02*
D03*
X179578D02*
D03*
X83820Y1370330D02*
D03*
X67818D02*
D03*
Y1405636D02*
D03*
X83820D02*
D03*
X261874Y1183132D02*
D03*
X277876D02*
D03*
X241046Y1133348D02*
D03*
X257048D02*
D03*
X130048Y1163320D02*
D03*
X146050D02*
D03*
D38*
X191516Y1254252D02*
D03*
X204724D02*
D03*
Y1244244D02*
D03*
X191516D02*
D03*
D39*
X856386Y849376D02*
D03*
Y790448D02*
D03*
X895401Y849376D02*
D03*
X888898D02*
D03*
X882396D02*
D03*
X875894D02*
D03*
X869391D02*
D03*
X862889D02*
D03*
X901903Y790448D02*
D03*
X895401D02*
D03*
X888898D02*
D03*
X882396D02*
D03*
X875894D02*
D03*
X869391D02*
D03*
X862889D02*
D03*
X901903Y849376D02*
D03*
X857148Y1267460D02*
D03*
Y1208532D02*
D03*
X896163Y1267460D02*
D03*
X889660D02*
D03*
X883158D02*
D03*
X876656D02*
D03*
X870153D02*
D03*
X863651D02*
D03*
X902665Y1208532D02*
D03*
X896163D02*
D03*
X889660D02*
D03*
X883158D02*
D03*
X876656D02*
D03*
X870153D02*
D03*
X863651D02*
D03*
X902665Y1267460D02*
D03*
X855116Y1660906D02*
D03*
Y1601978D02*
D03*
X894131Y1660906D02*
D03*
X887628D02*
D03*
X881126D02*
D03*
X874624D02*
D03*
X868121D02*
D03*
X861619D02*
D03*
X900633Y1601978D02*
D03*
X894131D02*
D03*
X887628D02*
D03*
X881126D02*
D03*
X874624D02*
D03*
X868121D02*
D03*
X861619D02*
D03*
X900633Y1660906D02*
D03*
X829869Y789940D02*
D03*
X823366D02*
D03*
X816864D02*
D03*
X810362D02*
D03*
X803859D02*
D03*
X797357D02*
D03*
X836371Y731012D02*
D03*
X829869D02*
D03*
X823366D02*
D03*
X816864D02*
D03*
X810362D02*
D03*
X803859D02*
D03*
X797357D02*
D03*
X836371Y789940D02*
D03*
X830631Y1208024D02*
D03*
X824128D02*
D03*
X817626D02*
D03*
X811124D02*
D03*
X804621D02*
D03*
X798119D02*
D03*
X837133Y1149096D02*
D03*
X830631D02*
D03*
X824128D02*
D03*
X817626D02*
D03*
X811124D02*
D03*
X804621D02*
D03*
X798119D02*
D03*
X837133Y1208024D02*
D03*
X828599Y1601470D02*
D03*
X822096D02*
D03*
X815594D02*
D03*
X809092D02*
D03*
X802589D02*
D03*
X796087D02*
D03*
X835101Y1542542D02*
D03*
X828599D02*
D03*
X822096D02*
D03*
X815594D02*
D03*
X809092D02*
D03*
X802589D02*
D03*
X796087D02*
D03*
X835101Y1601470D02*
D03*
X901802Y672592D02*
D03*
Y731520D02*
D03*
X862787Y672592D02*
D03*
X869290D02*
D03*
X875792D02*
D03*
X882294D02*
D03*
X888797D02*
D03*
X895299D02*
D03*
X856285Y731520D02*
D03*
X862787D02*
D03*
X869290D02*
D03*
X875792D02*
D03*
X882294D02*
D03*
X888797D02*
D03*
X895299D02*
D03*
X856285Y672592D02*
D03*
X902564Y1090676D02*
D03*
Y1149604D02*
D03*
X863549Y1090676D02*
D03*
X870052D02*
D03*
X876554D02*
D03*
X883056D02*
D03*
X889559D02*
D03*
X896061D02*
D03*
X857047Y1149604D02*
D03*
X863549D02*
D03*
X870052D02*
D03*
X876554D02*
D03*
X883056D02*
D03*
X889559D02*
D03*
X896061D02*
D03*
X857047Y1090676D02*
D03*
X900532Y1484122D02*
D03*
Y1543050D02*
D03*
X861517Y1484122D02*
D03*
X868020D02*
D03*
X874522D02*
D03*
X881024D02*
D03*
X887527D02*
D03*
X894029D02*
D03*
X855015Y1543050D02*
D03*
X861517D02*
D03*
X868020D02*
D03*
X874522D02*
D03*
X881024D02*
D03*
X887527D02*
D03*
X894029D02*
D03*
X855015Y1484122D02*
D03*
D40*
X534924Y309372D02*
D03*
Y290373D02*
D03*
X508000D02*
D03*
Y299872D02*
D03*
Y309372D02*
D03*
D41*
X161798Y1389990D02*
D03*
X102870D02*
D03*
X161798Y1350975D02*
D03*
Y1357478D02*
D03*
Y1363980D02*
D03*
Y1370482D02*
D03*
Y1376985D02*
D03*
Y1383487D02*
D03*
X102870Y1344473D02*
D03*
Y1350975D02*
D03*
Y1357478D02*
D03*
Y1363980D02*
D03*
Y1370482D02*
D03*
Y1376985D02*
D03*
Y1383487D02*
D03*
X161798Y1344473D02*
D03*
D42*
X632152Y1885050D02*
D03*
X637152D02*
D03*
X652152D02*
D03*
X657152D02*
D03*
X440382Y372734D02*
D03*
X445382D02*
D03*
X460382D02*
D03*
X465382D02*
D03*
D43*
X642152Y1883050D02*
D03*
X647152D02*
D03*
X450382Y370734D02*
D03*
X455382D02*
D03*
D44*
X659152Y1876050D02*
D03*
X467382Y363734D02*
D03*
D45*
X657152Y1869550D02*
D03*
Y1863050D02*
D03*
X632152D02*
D03*
Y1869550D02*
D03*
X465382Y357234D02*
D03*
Y350734D02*
D03*
X440382D02*
D03*
Y357234D02*
D03*
D46*
X630652Y1876050D02*
D03*
X438882Y363734D02*
D03*
D47*
X231216Y1227074D02*
D03*
X226212D02*
D03*
X221209D02*
D03*
X216205D02*
D03*
X211201D02*
D03*
X206197D02*
D03*
X201219D02*
D03*
X196215D02*
D03*
X191211D02*
D03*
X186207D02*
D03*
X181204D02*
D03*
X176200D02*
D03*
X231216Y1145286D02*
D03*
X226212D02*
D03*
X221209D02*
D03*
X216205D02*
D03*
X211201D02*
D03*
X206197D02*
D03*
X201219D02*
D03*
X196215D02*
D03*
X191211D02*
D03*
X186207D02*
D03*
X181204D02*
D03*
X176200D02*
D03*
D48*
X162814Y1158672D02*
D03*
Y1163676D02*
D03*
Y1168679D02*
D03*
Y1173683D02*
D03*
Y1178687D02*
D03*
Y1183691D02*
D03*
Y1188669D02*
D03*
Y1193673D02*
D03*
Y1198677D02*
D03*
Y1203681D02*
D03*
Y1208684D02*
D03*
Y1213688D02*
D03*
X244602Y1158672D02*
D03*
Y1163676D02*
D03*
Y1168679D02*
D03*
Y1173683D02*
D03*
Y1178687D02*
D03*
Y1183691D02*
D03*
Y1188669D02*
D03*
Y1193673D02*
D03*
Y1198677D02*
D03*
Y1203681D02*
D03*
Y1208684D02*
D03*
Y1213688D02*
D03*
D49*
X1082040Y139700D02*
D03*
Y158496D02*
D03*
X1102106Y149098D02*
D03*
X1082040Y397256D02*
D03*
Y416052D02*
D03*
X1102106Y406654D02*
D03*
X1082040Y654812D02*
D03*
Y673608D02*
D03*
X1102106Y664210D02*
D03*
X1082040Y912368D02*
D03*
Y931164D02*
D03*
X1102106Y921766D02*
D03*
X1082040Y1169924D02*
D03*
Y1188720D02*
D03*
X1102106Y1179322D02*
D03*
X1082040Y1427480D02*
D03*
Y1446276D02*
D03*
X1102106Y1436878D02*
D03*
X1082040Y1685036D02*
D03*
Y1703832D02*
D03*
X1102106Y1694434D02*
D03*
X1082040Y1942592D02*
D03*
Y1961388D02*
D03*
X1102106Y1951990D02*
D03*
X1082040Y2200148D02*
D03*
Y2218944D02*
D03*
X1102106Y2209546D02*
D03*
X1082294Y46990D02*
D03*
Y65786D02*
D03*
X1102360Y56388D02*
D03*
X1082294Y304546D02*
D03*
Y323342D02*
D03*
X1102360Y313944D02*
D03*
X1082294Y562102D02*
D03*
Y580898D02*
D03*
X1102360Y571500D02*
D03*
X1082294Y819658D02*
D03*
Y838454D02*
D03*
X1102360Y829056D02*
D03*
X1082294Y1077214D02*
D03*
Y1096010D02*
D03*
X1102360Y1086612D02*
D03*
X1082294Y1334770D02*
D03*
Y1353566D02*
D03*
X1102360Y1344168D02*
D03*
X1082294Y1592326D02*
D03*
Y1611122D02*
D03*
X1102360Y1601724D02*
D03*
X1082294Y1849882D02*
D03*
Y1868678D02*
D03*
X1102360Y1859280D02*
D03*
X1082294Y2107438D02*
D03*
Y2126234D02*
D03*
X1102360Y2116836D02*
D03*
D50*
X219710Y1600454D02*
D03*
Y1564386D02*
D03*
X917448Y92964D02*
D03*
Y129032D02*
D03*
X445262Y1881378D02*
D03*
Y1917446D02*
D03*
D51*
X642620Y1903222D02*
D03*
X661670D02*
D03*
X450342Y390906D02*
D03*
X469392D02*
D03*
X126238Y1180846D02*
D03*
X145288D02*
D03*
D52*
X680974Y1841500D02*
D03*
Y1872488D02*
D03*
X489712Y329184D02*
D03*
Y360172D02*
D03*
D53*
X158496Y1263904D02*
D03*
Y1244854D02*
D03*
D54*
X99822Y1506728D02*
D03*
Y1531620D02*
D03*
X119888Y1506728D02*
D03*
Y1531620D02*
D03*
X1333246Y77470D02*
D03*
Y102870D02*
D03*
Y189230D02*
D03*
Y214630D02*
D03*
X1267206Y190500D02*
D03*
X1292606Y177800D02*
D03*
X1267206Y165100D02*
D03*
X1292606Y152400D02*
D03*
X1267206Y139700D02*
D03*
X1292606Y127000D02*
D03*
X1267206Y114300D02*
D03*
X1292606Y101600D02*
D03*
X1165606Y77470D02*
D03*
X1230376Y101600D02*
D03*
X1165606Y189230D02*
D03*
Y214630D02*
D03*
Y102870D02*
D03*
X1204976Y114300D02*
D03*
X1230376Y152400D02*
D03*
X1204976Y165100D02*
D03*
X1230376Y127000D02*
D03*
X1204976Y139700D02*
D03*
X1230376Y177800D02*
D03*
X1204976Y190500D02*
D03*
X1333246Y335026D02*
D03*
Y360426D02*
D03*
Y446786D02*
D03*
Y472186D02*
D03*
X1267206Y448056D02*
D03*
X1292606Y435356D02*
D03*
X1267206Y422656D02*
D03*
X1292606Y409956D02*
D03*
X1267206Y397256D02*
D03*
X1292606Y384556D02*
D03*
X1267206Y371856D02*
D03*
X1292606Y359156D02*
D03*
X1165606Y335026D02*
D03*
X1230376Y359156D02*
D03*
X1165606Y446786D02*
D03*
Y472186D02*
D03*
Y360426D02*
D03*
X1204976Y371856D02*
D03*
X1230376Y409956D02*
D03*
X1204976Y422656D02*
D03*
X1230376Y384556D02*
D03*
X1204976Y397256D02*
D03*
X1230376Y435356D02*
D03*
X1204976Y448056D02*
D03*
X1333246Y592582D02*
D03*
Y617982D02*
D03*
Y704342D02*
D03*
Y729742D02*
D03*
X1267206Y705612D02*
D03*
X1292606Y692912D02*
D03*
X1267206Y680212D02*
D03*
X1292606Y667512D02*
D03*
X1267206Y654812D02*
D03*
X1292606Y642112D02*
D03*
X1267206Y629412D02*
D03*
X1292606Y616712D02*
D03*
X1165606Y592582D02*
D03*
X1230376Y616712D02*
D03*
X1165606Y704342D02*
D03*
Y729742D02*
D03*
Y617982D02*
D03*
X1204976Y629412D02*
D03*
X1230376Y667512D02*
D03*
X1204976Y680212D02*
D03*
X1230376Y642112D02*
D03*
X1204976Y654812D02*
D03*
X1230376Y692912D02*
D03*
X1204976Y705612D02*
D03*
X1333246Y850138D02*
D03*
Y875538D02*
D03*
Y961898D02*
D03*
Y987298D02*
D03*
X1267206Y963168D02*
D03*
X1292606Y950468D02*
D03*
X1267206Y937768D02*
D03*
X1292606Y925068D02*
D03*
X1267206Y912368D02*
D03*
X1292606Y899668D02*
D03*
X1267206Y886968D02*
D03*
X1292606Y874268D02*
D03*
X1165606Y850138D02*
D03*
X1230376Y874268D02*
D03*
X1165606Y961898D02*
D03*
Y987298D02*
D03*
Y875538D02*
D03*
X1204976Y886968D02*
D03*
X1230376Y925068D02*
D03*
X1204976Y937768D02*
D03*
X1230376Y899668D02*
D03*
X1204976Y912368D02*
D03*
X1230376Y950468D02*
D03*
X1204976Y963168D02*
D03*
X1333246Y1107694D02*
D03*
Y1133094D02*
D03*
Y1219454D02*
D03*
Y1244854D02*
D03*
X1267206Y1220724D02*
D03*
X1292606Y1208024D02*
D03*
X1267206Y1195324D02*
D03*
X1292606Y1182624D02*
D03*
X1267206Y1169924D02*
D03*
X1292606Y1157224D02*
D03*
X1267206Y1144524D02*
D03*
X1292606Y1131824D02*
D03*
X1165606Y1107694D02*
D03*
X1230376Y1131824D02*
D03*
X1165606Y1219454D02*
D03*
Y1244854D02*
D03*
Y1133094D02*
D03*
X1204976Y1144524D02*
D03*
X1230376Y1182624D02*
D03*
X1204976Y1195324D02*
D03*
X1230376Y1157224D02*
D03*
X1204976Y1169924D02*
D03*
X1230376Y1208024D02*
D03*
X1204976Y1220724D02*
D03*
X1333246Y1365250D02*
D03*
Y1390650D02*
D03*
Y1477010D02*
D03*
Y1502410D02*
D03*
X1267206Y1478280D02*
D03*
X1292606Y1465580D02*
D03*
X1267206Y1452880D02*
D03*
X1292606Y1440180D02*
D03*
X1267206Y1427480D02*
D03*
X1292606Y1414780D02*
D03*
X1267206Y1402080D02*
D03*
X1292606Y1389380D02*
D03*
X1165606Y1365250D02*
D03*
X1230376Y1389380D02*
D03*
X1165606Y1477010D02*
D03*
Y1502410D02*
D03*
Y1390650D02*
D03*
X1204976Y1402080D02*
D03*
X1230376Y1440180D02*
D03*
X1204976Y1452880D02*
D03*
X1230376Y1414780D02*
D03*
X1204976Y1427480D02*
D03*
X1230376Y1465580D02*
D03*
X1204976Y1478280D02*
D03*
X1333246Y1622806D02*
D03*
Y1648206D02*
D03*
Y1734566D02*
D03*
Y1759966D02*
D03*
X1267206Y1735836D02*
D03*
X1292606Y1723136D02*
D03*
X1267206Y1710436D02*
D03*
X1292606Y1697736D02*
D03*
X1267206Y1685036D02*
D03*
X1292606Y1672336D02*
D03*
X1267206Y1659636D02*
D03*
X1292606Y1646936D02*
D03*
X1165606Y1622806D02*
D03*
X1230376Y1646936D02*
D03*
X1165606Y1734566D02*
D03*
Y1759966D02*
D03*
Y1648206D02*
D03*
X1204976Y1659636D02*
D03*
X1230376Y1697736D02*
D03*
X1204976Y1710436D02*
D03*
X1230376Y1672336D02*
D03*
X1204976Y1685036D02*
D03*
X1230376Y1723136D02*
D03*
X1204976Y1735836D02*
D03*
X1333246Y1880362D02*
D03*
Y1905762D02*
D03*
Y1992122D02*
D03*
Y2017522D02*
D03*
X1267206Y1993392D02*
D03*
X1292606Y1980692D02*
D03*
X1267206Y1967992D02*
D03*
X1292606Y1955292D02*
D03*
X1267206Y1942592D02*
D03*
X1292606Y1929892D02*
D03*
X1267206Y1917192D02*
D03*
X1292606Y1904492D02*
D03*
X1165606Y1880362D02*
D03*
X1230376Y1904492D02*
D03*
X1165606Y1992122D02*
D03*
Y2017522D02*
D03*
Y1905762D02*
D03*
X1204976Y1917192D02*
D03*
X1230376Y1955292D02*
D03*
X1204976Y1967992D02*
D03*
X1230376Y1929892D02*
D03*
X1204976Y1942592D02*
D03*
X1230376Y1980692D02*
D03*
X1204976Y1993392D02*
D03*
X1333246Y2137918D02*
D03*
Y2163318D02*
D03*
Y2249678D02*
D03*
Y2275078D02*
D03*
X1267206Y2250948D02*
D03*
X1292606Y2238248D02*
D03*
X1267206Y2225548D02*
D03*
X1292606Y2212848D02*
D03*
X1267206Y2200148D02*
D03*
X1292606Y2187448D02*
D03*
X1267206Y2174748D02*
D03*
X1292606Y2162048D02*
D03*
X1165606Y2137918D02*
D03*
X1230376Y2162048D02*
D03*
X1165606Y2249678D02*
D03*
Y2275078D02*
D03*
Y2163318D02*
D03*
X1204976Y2174748D02*
D03*
X1230376Y2212848D02*
D03*
X1204976Y2225548D02*
D03*
X1230376Y2187448D02*
D03*
X1204976Y2200148D02*
D03*
X1230376Y2238248D02*
D03*
X1204976Y2250948D02*
D03*
X669036Y119888D02*
D03*
X691896D02*
D03*
X783336D02*
D03*
X806196D02*
D03*
X701802Y71628D02*
D03*
X712026Y53848D02*
D03*
X722186Y71628D02*
D03*
X732409Y53848D02*
D03*
X742505Y71628D02*
D03*
X752793Y53848D02*
D03*
X762952Y71628D02*
D03*
X773176Y53848D02*
D03*
X410464Y119888D02*
D03*
X433324D02*
D03*
X524764D02*
D03*
X547624D02*
D03*
X443230Y71628D02*
D03*
X453453Y53848D02*
D03*
X463614Y71628D02*
D03*
X473837Y53848D02*
D03*
X483933Y71628D02*
D03*
X494221Y53848D02*
D03*
X504380Y71628D02*
D03*
X514604Y53848D02*
D03*
X151892Y119888D02*
D03*
X174752D02*
D03*
X266192D02*
D03*
X289052D02*
D03*
X184658Y71628D02*
D03*
X194881Y53848D02*
D03*
X205042Y71628D02*
D03*
X215265Y53848D02*
D03*
X225361Y71628D02*
D03*
X235648Y53848D02*
D03*
X245809Y71628D02*
D03*
X256032Y53848D02*
D03*
D55*
X72644Y1579372D02*
D03*
Y1458976D02*
D03*
D56*
X338582Y1880108D02*
D03*
D57*
X366522Y1940052D02*
D03*
D58*
X391668Y1903222D02*
D03*
D59*
X609346Y624078D02*
D03*
X656336D02*
D03*
X703326D02*
D03*
X399034D02*
D03*
X446024D02*
D03*
X493014D02*
D03*
X609346Y759968D02*
D03*
X656336D02*
D03*
X703326D02*
D03*
X399034D02*
D03*
X446024D02*
D03*
X493014D02*
D03*
X609346Y895858D02*
D03*
X656336D02*
D03*
X703326D02*
D03*
X399034D02*
D03*
X446024D02*
D03*
X493014D02*
D03*
X609346Y1031748D02*
D03*
X656336D02*
D03*
X703326D02*
D03*
X399034D02*
D03*
X446024D02*
D03*
X493014D02*
D03*
X609346Y1167638D02*
D03*
X656336D02*
D03*
X703326D02*
D03*
X399034D02*
D03*
X446024D02*
D03*
X493014D02*
D03*
X609346Y1303528D02*
D03*
X656336D02*
D03*
X703326D02*
D03*
X399034D02*
D03*
X446024D02*
D03*
X493014D02*
D03*
X609346Y1439418D02*
D03*
X656336D02*
D03*
X703326D02*
D03*
X399034D02*
D03*
X446024D02*
D03*
X493014D02*
D03*
X609346Y1575308D02*
D03*
X656336D02*
D03*
X703326D02*
D03*
X399034D02*
D03*
X446024D02*
D03*
X493014D02*
D03*
X609346Y1711198D02*
D03*
X656336D02*
D03*
X703326D02*
D03*
X399034D02*
D03*
X446024D02*
D03*
X493014D02*
D03*
D60*
X177800Y1719580D02*
D03*
Y1694180D02*
D03*
X152400Y1719580D02*
D03*
Y1694180D02*
D03*
X127000Y1719580D02*
D03*
Y1694180D02*
D03*
X101600Y1719580D02*
D03*
Y1694180D02*
D03*
X76200Y1719580D02*
D03*
Y1694180D02*
D03*
X50800Y1719580D02*
D03*
Y1694180D02*
D03*
X203200Y1719580D02*
D03*
Y1694180D02*
D03*
X228600Y1719580D02*
D03*
Y1694180D02*
D03*
X37846Y1282192D02*
D03*
X63246D02*
D03*
X37846Y1256792D02*
D03*
X63246D02*
D03*
X37846Y1231392D02*
D03*
X63246D02*
D03*
X37846Y1205992D02*
D03*
X63246D02*
D03*
X37846Y1180592D02*
D03*
X63246D02*
D03*
X37846Y1155192D02*
D03*
X63246D02*
D03*
X37846Y1129792D02*
D03*
X63246D02*
D03*
D61*
X1304036Y227203D02*
D03*
Y64897D02*
D03*
X1220216Y227203D02*
D03*
Y64897D02*
D03*
X1304036Y484759D02*
D03*
Y322453D02*
D03*
X1220216Y484759D02*
D03*
Y322453D02*
D03*
X1304036Y742315D02*
D03*
Y580009D02*
D03*
X1220216Y742315D02*
D03*
Y580009D02*
D03*
X1304036Y999871D02*
D03*
Y837565D02*
D03*
X1220216Y999871D02*
D03*
Y837565D02*
D03*
X1304036Y1257427D02*
D03*
Y1095121D02*
D03*
X1220216Y1257427D02*
D03*
Y1095121D02*
D03*
X1304036Y1514983D02*
D03*
Y1352677D02*
D03*
X1220216Y1514983D02*
D03*
Y1352677D02*
D03*
X1304036Y1772539D02*
D03*
Y1610233D02*
D03*
X1220216Y1772539D02*
D03*
Y1610233D02*
D03*
X1304036Y2030095D02*
D03*
Y1867789D02*
D03*
X1220216Y2030095D02*
D03*
Y1867789D02*
D03*
X1304036Y2287651D02*
D03*
Y2125345D02*
D03*
X1220216Y2287651D02*
D03*
Y2125345D02*
D03*
X818896Y62738D02*
D03*
X656336D02*
D03*
X560324D02*
D03*
X397764D02*
D03*
X301752D02*
D03*
X139192D02*
D03*
D62*
X1375156Y209550D02*
D03*
Y82550D02*
D03*
Y467106D02*
D03*
Y340106D02*
D03*
Y724662D02*
D03*
Y597662D02*
D03*
Y982218D02*
D03*
Y855218D02*
D03*
Y1239774D02*
D03*
Y1112774D02*
D03*
Y1497330D02*
D03*
Y1370330D02*
D03*
Y1754886D02*
D03*
Y1627886D02*
D03*
Y2012442D02*
D03*
Y1885442D02*
D03*
Y2269998D02*
D03*
Y2142998D02*
D03*
X939800Y2311400D02*
D03*
X50800D02*
D03*
X939800Y25400D02*
D03*
X50800D02*
D03*
D63*
X801116Y28448D02*
D03*
X674116D02*
D03*
X542544D02*
D03*
X415544D02*
D03*
X283972D02*
D03*
X156972D02*
D03*
D64*
X179989Y1103533D02*
D03*
X283718Y1295400D02*
D03*
X255270Y1294892D02*
D03*
X179578Y1345946D02*
D03*
X88646Y1357884D02*
D03*
X79096Y1359286D02*
D03*
X234037Y1547493D02*
D03*
X206859D02*
D03*
X34555Y1347735D02*
D03*
X243586Y1253490D02*
D03*
X193868Y1210752D02*
D03*
X221145Y1211402D02*
D03*
X213868Y1254760D02*
D03*
X232421Y1079511D02*
D03*
X240792Y1074674D02*
D03*
X249174Y1064768D02*
D03*
X269494Y1043940D02*
D03*
X283972Y1032002D02*
D03*
X204470Y1111758D02*
D03*
X172974Y1271270D02*
D03*
X186866Y1265604D02*
D03*
X180340Y1431798D02*
D03*
X193294Y1419098D02*
D03*
X143208Y1287526D02*
D03*
X141478Y1274318D02*
D03*
X67480Y1359822D02*
D03*
X129286Y1635760D02*
D03*
X195580Y1368552D02*
D03*
X232651Y1617438D02*
D03*
X205473D02*
D03*
X169164Y1405128D02*
D03*
X132842Y1384554D02*
D03*
X94742Y1405636D02*
D03*
X147828Y1370330D02*
D03*
X148082Y1383284D02*
D03*
X751586Y172974D02*
D03*
X669036D02*
D03*
X493014D02*
D03*
X410464D02*
D03*
X1075944Y32766D02*
D03*
X1077468Y129032D02*
D03*
X1075944Y290322D02*
D03*
X1077468Y386588D02*
D03*
X1075944Y547878D02*
D03*
X1077468Y644144D02*
D03*
X1075944Y805434D02*
D03*
X1077468Y901700D02*
D03*
X1075944Y1062990D02*
D03*
X1077468Y1159256D02*
D03*
X1075944Y1320546D02*
D03*
X1077468Y1416812D02*
D03*
X1075944Y1578102D02*
D03*
X1077468Y1674368D02*
D03*
X1075944Y1835658D02*
D03*
X1077468Y1931924D02*
D03*
X1075944Y2093214D02*
D03*
X1077468Y2189480D02*
D03*
X347726Y198882D02*
D03*
X295216Y1078230D02*
D03*
X259402D02*
D03*
X50546Y1015746D02*
D03*
X433324Y1933194D02*
D03*
X459753Y1933482D02*
D03*
X255524Y930656D02*
D03*
X243078Y942340D02*
D03*
X230886Y954532D02*
D03*
X221234Y963930D02*
D03*
X230124Y1195832D02*
D03*
X156464Y1219708D02*
D03*
X141478Y1219200D02*
D03*
Y1249680D02*
D03*
Y1239520D02*
D03*
X126492Y1194054D02*
D03*
X119888Y1155954D02*
D03*
X733298Y571754D02*
D03*
X808228Y317500D02*
D03*
X927608Y1687322D02*
D03*
X667258Y1843024D02*
D03*
X176802Y1176783D02*
D03*
X231092Y1178673D02*
D03*
X878858Y1588263D02*
D03*
X795800Y1614679D02*
D03*
X878078Y1529842D02*
D03*
X881144Y1194817D02*
D03*
X797832Y1221741D02*
D03*
X880306Y1136434D02*
D03*
X796816Y805689D02*
D03*
X880110Y718058D02*
D03*
X879758Y777007D02*
D03*
X611886Y1828800D02*
D03*
X848233Y847979D02*
D03*
X849249Y1266063D02*
D03*
X847217Y1659509D02*
D03*
X459499Y1864394D02*
D03*
X432321D02*
D03*
X828040Y666242D02*
D03*
Y682244D02*
D03*
X932942Y771652D02*
D03*
X896112Y770636D02*
D03*
X828040Y707390D02*
D03*
X827786Y696468D02*
D03*
X880110Y751078D02*
D03*
X846483Y743359D02*
D03*
X894588Y866902D02*
D03*
X931418Y867156D02*
D03*
X901517Y659953D02*
D03*
X846328Y776732D02*
D03*
X834595Y770333D02*
D03*
X801624Y743712D02*
D03*
X781050Y747522D02*
D03*
X822452Y714502D02*
D03*
X817531Y749582D02*
D03*
X826770Y1477772D02*
D03*
Y1493774D02*
D03*
X931672Y1583182D02*
D03*
X894842Y1582166D02*
D03*
X826770Y1518920D02*
D03*
X826516Y1507998D02*
D03*
X878840Y1562608D02*
D03*
X845213Y1554889D02*
D03*
X893318Y1678432D02*
D03*
X900247Y1471483D02*
D03*
X845058Y1588262D02*
D03*
X833325Y1581863D02*
D03*
X800354Y1555242D02*
D03*
X779780Y1559052D02*
D03*
X821182Y1526032D02*
D03*
X816261Y1561111D02*
D03*
X902280Y1078037D02*
D03*
X621792Y1862836D02*
D03*
X674370Y1882902D02*
D03*
X671068Y1895094D02*
D03*
X429768Y350266D02*
D03*
X904507Y75980D02*
D03*
X931685D02*
D03*
X932447Y145068D02*
D03*
X906018Y144780D02*
D03*
X600456Y1892554D02*
D03*
X637540Y1916176D02*
D03*
X611378Y1926590D02*
D03*
X481584Y319024D02*
D03*
X409194Y379730D02*
D03*
X419354Y414782D02*
D03*
X448818Y403860D02*
D03*
X479806Y382524D02*
D03*
X483108Y370332D02*
D03*
X492760Y282194D02*
D03*
X500888Y318008D02*
D03*
X549910Y282194D02*
D03*
X828802Y1084326D02*
D03*
Y1100328D02*
D03*
X933704Y1189736D02*
D03*
X896874Y1188720D02*
D03*
X828802Y1125474D02*
D03*
X828548Y1114552D02*
D03*
X880872Y1169162D02*
D03*
X847245Y1161443D02*
D03*
X895350Y1284986D02*
D03*
X932180Y1285240D02*
D03*
X847090Y1194816D02*
D03*
X835357Y1188417D02*
D03*
X802386Y1161796D02*
D03*
X781812Y1165606D02*
D03*
X823214Y1132586D02*
D03*
X818292Y1167665D02*
D03*
X868172Y441706D02*
D03*
X852932Y352552D02*
D03*
X795020Y353568D02*
D03*
X734822Y355092D02*
D03*
X1095780Y2277295D02*
D03*
Y2019739D02*
D03*
Y1762183D02*
D03*
X1096034Y1504627D02*
D03*
Y1247071D02*
D03*
Y989515D02*
D03*
X1095780Y731959D02*
D03*
Y474403D02*
D03*
X1096010Y216662D02*
D03*
X151892Y172974D02*
D03*
X234442D02*
D03*
X145542Y1152652D02*
D03*
X169164Y1235710D02*
D03*
X283972Y1172718D02*
D03*
X267970Y1172464D02*
D03*
X257302Y1122426D02*
D03*
X112776Y1302258D02*
D03*
X113030Y1240790D02*
D03*
X176784Y1185418D02*
D03*
Y1195070D02*
D03*
X211582Y1211580D02*
D03*
X202184D02*
D03*
X141478Y1229360D02*
D03*
M02*
