G04*
G04 #@! TF.GenerationSoftware,Altium Limited,Altium Designer,23.10.1 (27)*
G04*
G04 Layer_Physical_Order=1*
G04 Layer_Color=255*
%FSLAX44Y44*%
%MOMM*%
G71*
G04*
G04 #@! TF.SameCoordinates,2E78A80F-BD86-4490-A529-E194FF2111EF*
G04*
G04*
G04 #@! TF.FilePolarity,Positive*
G04*
G01*
G75*
%ADD12C,0.2540*%
%ADD13C,0.1524*%
%ADD14C,1.2700*%
%ADD15C,0.3810*%
%ADD16C,0.5080*%
G04:AMPARAMS|DCode=18|XSize=0.9398mm|YSize=0.9906mm|CornerRadius=0.047mm|HoleSize=0mm|Usage=FLASHONLY|Rotation=90.000|XOffset=0mm|YOffset=0mm|HoleType=Round|Shape=RoundedRectangle|*
%AMROUNDEDRECTD18*
21,1,0.9398,0.8966,0,0,90.0*
21,1,0.8458,0.9906,0,0,90.0*
1,1,0.0940,0.4483,0.4229*
1,1,0.0940,0.4483,-0.4229*
1,1,0.0940,-0.4483,-0.4229*
1,1,0.0940,-0.4483,0.4229*
%
%ADD18ROUNDEDRECTD18*%
G04:AMPARAMS|DCode=19|XSize=0.9398mm|YSize=0.9906mm|CornerRadius=0.047mm|HoleSize=0mm|Usage=FLASHONLY|Rotation=0.000|XOffset=0mm|YOffset=0mm|HoleType=Round|Shape=RoundedRectangle|*
%AMROUNDEDRECTD19*
21,1,0.9398,0.8966,0,0,0.0*
21,1,0.8458,0.9906,0,0,0.0*
1,1,0.0940,0.4229,-0.4483*
1,1,0.0940,-0.4229,-0.4483*
1,1,0.0940,-0.4229,0.4483*
1,1,0.0940,0.4229,0.4483*
%
%ADD19ROUNDEDRECTD19*%
G04:AMPARAMS|DCode=20|XSize=0.7874mm|YSize=0.7112mm|CornerRadius=0.0356mm|HoleSize=0mm|Usage=FLASHONLY|Rotation=0.000|XOffset=0mm|YOffset=0mm|HoleType=Round|Shape=RoundedRectangle|*
%AMROUNDEDRECTD20*
21,1,0.7874,0.6401,0,0,0.0*
21,1,0.7163,0.7112,0,0,0.0*
1,1,0.0711,0.3581,-0.3200*
1,1,0.0711,-0.3581,-0.3200*
1,1,0.0711,-0.3581,0.3200*
1,1,0.0711,0.3581,0.3200*
%
%ADD20ROUNDEDRECTD20*%
G04:AMPARAMS|DCode=21|XSize=1.5494mm|YSize=0.3556mm|CornerRadius=0.0178mm|HoleSize=0mm|Usage=FLASHONLY|Rotation=270.000|XOffset=0mm|YOffset=0mm|HoleType=Round|Shape=RoundedRectangle|*
%AMROUNDEDRECTD21*
21,1,1.5494,0.3200,0,0,270.0*
21,1,1.5138,0.3556,0,0,270.0*
1,1,0.0356,-0.1600,-0.7569*
1,1,0.0356,-0.1600,0.7569*
1,1,0.0356,0.1600,0.7569*
1,1,0.0356,0.1600,-0.7569*
%
%ADD21ROUNDEDRECTD21*%
G04:AMPARAMS|DCode=22|XSize=0.6096mm|YSize=1.0414mm|CornerRadius=0.0305mm|HoleSize=0mm|Usage=FLASHONLY|Rotation=270.000|XOffset=0mm|YOffset=0mm|HoleType=Round|Shape=RoundedRectangle|*
%AMROUNDEDRECTD22*
21,1,0.6096,0.9804,0,0,270.0*
21,1,0.5486,1.0414,0,0,270.0*
1,1,0.0610,-0.4902,-0.2743*
1,1,0.0610,-0.4902,0.2743*
1,1,0.0610,0.4902,0.2743*
1,1,0.0610,0.4902,-0.2743*
%
%ADD22ROUNDEDRECTD22*%
G04:AMPARAMS|DCode=23|XSize=1.5494mm|YSize=0.3556mm|CornerRadius=0.0178mm|HoleSize=0mm|Usage=FLASHONLY|Rotation=180.000|XOffset=0mm|YOffset=0mm|HoleType=Round|Shape=RoundedRectangle|*
%AMROUNDEDRECTD23*
21,1,1.5494,0.3200,0,0,180.0*
21,1,1.5138,0.3556,0,0,180.0*
1,1,0.0356,-0.7569,0.1600*
1,1,0.0356,0.7569,0.1600*
1,1,0.0356,0.7569,-0.1600*
1,1,0.0356,-0.7569,-0.1600*
%
%ADD23ROUNDEDRECTD23*%
G04:AMPARAMS|DCode=24|XSize=0.25mm|YSize=0.7mm|CornerRadius=0.0125mm|HoleSize=0mm|Usage=FLASHONLY|Rotation=0.000|XOffset=0mm|YOffset=0mm|HoleType=Round|Shape=RoundedRectangle|*
%AMROUNDEDRECTD24*
21,1,0.2500,0.6750,0,0,0.0*
21,1,0.2250,0.7000,0,0,0.0*
1,1,0.0250,0.1125,-0.3375*
1,1,0.0250,-0.1125,-0.3375*
1,1,0.0250,-0.1125,0.3375*
1,1,0.0250,0.1125,0.3375*
%
%ADD24ROUNDEDRECTD24*%
G04:AMPARAMS|DCode=25|XSize=0.25mm|YSize=1.1mm|CornerRadius=0.0125mm|HoleSize=0mm|Usage=FLASHONLY|Rotation=0.000|XOffset=0mm|YOffset=0mm|HoleType=Round|Shape=RoundedRectangle|*
%AMROUNDEDRECTD25*
21,1,0.2500,1.0750,0,0,0.0*
21,1,0.2250,1.1000,0,0,0.0*
1,1,0.0250,0.1125,-0.5375*
1,1,0.0250,-0.1125,-0.5375*
1,1,0.0250,-0.1125,0.5375*
1,1,0.0250,0.1125,0.5375*
%
%ADD25ROUNDEDRECTD25*%
G04:AMPARAMS|DCode=26|XSize=0.25mm|YSize=0.7mm|CornerRadius=0.0125mm|HoleSize=0mm|Usage=FLASHONLY|Rotation=90.000|XOffset=0mm|YOffset=0mm|HoleType=Round|Shape=RoundedRectangle|*
%AMROUNDEDRECTD26*
21,1,0.2500,0.6750,0,0,90.0*
21,1,0.2250,0.7000,0,0,90.0*
1,1,0.0250,0.3375,0.1125*
1,1,0.0250,0.3375,-0.1125*
1,1,0.0250,-0.3375,-0.1125*
1,1,0.0250,-0.3375,0.1125*
%
%ADD26ROUNDEDRECTD26*%
G04:AMPARAMS|DCode=27|XSize=0.25mm|YSize=1.1mm|CornerRadius=0.0125mm|HoleSize=0mm|Usage=FLASHONLY|Rotation=90.000|XOffset=0mm|YOffset=0mm|HoleType=Round|Shape=RoundedRectangle|*
%AMROUNDEDRECTD27*
21,1,0.2500,1.0750,0,0,90.0*
21,1,0.2250,1.1000,0,0,90.0*
1,1,0.0250,0.5375,0.1125*
1,1,0.0250,0.5375,-0.1125*
1,1,0.0250,-0.5375,-0.1125*
1,1,0.0250,-0.5375,0.1125*
%
%ADD27ROUNDEDRECTD27*%
G04:AMPARAMS|DCode=28|XSize=0.25mm|YSize=0.8mm|CornerRadius=0.0125mm|HoleSize=0mm|Usage=FLASHONLY|Rotation=90.000|XOffset=0mm|YOffset=0mm|HoleType=Round|Shape=RoundedRectangle|*
%AMROUNDEDRECTD28*
21,1,0.2500,0.7750,0,0,90.0*
21,1,0.2250,0.8000,0,0,90.0*
1,1,0.0250,0.3875,0.1125*
1,1,0.0250,0.3875,-0.1125*
1,1,0.0250,-0.3875,-0.1125*
1,1,0.0250,-0.3875,0.1125*
%
%ADD28ROUNDEDRECTD28*%
G04:AMPARAMS|DCode=29|XSize=1.6002mm|YSize=0.2997mm|CornerRadius=0.015mm|HoleSize=0mm|Usage=FLASHONLY|Rotation=90.000|XOffset=0mm|YOffset=0mm|HoleType=Round|Shape=RoundedRectangle|*
%AMROUNDEDRECTD29*
21,1,1.6002,0.2697,0,0,90.0*
21,1,1.5702,0.2997,0,0,90.0*
1,1,0.0300,0.1349,0.7851*
1,1,0.0300,0.1349,-0.7851*
1,1,0.0300,-0.1349,-0.7851*
1,1,0.0300,-0.1349,0.7851*
%
%ADD29ROUNDEDRECTD29*%
G04:AMPARAMS|DCode=30|XSize=1.6002mm|YSize=0.2997mm|CornerRadius=0.015mm|HoleSize=0mm|Usage=FLASHONLY|Rotation=180.000|XOffset=0mm|YOffset=0mm|HoleType=Round|Shape=RoundedRectangle|*
%AMROUNDEDRECTD30*
21,1,1.6002,0.2697,0,0,180.0*
21,1,1.5702,0.2997,0,0,180.0*
1,1,0.0300,-0.7851,0.1349*
1,1,0.0300,0.7851,0.1349*
1,1,0.0300,0.7851,-0.1349*
1,1,0.0300,-0.7851,-0.1349*
%
%ADD30ROUNDEDRECTD30*%
G04:AMPARAMS|DCode=31|XSize=0.7874mm|YSize=0.889mm|CornerRadius=0.0394mm|HoleSize=0mm|Usage=FLASHONLY|Rotation=90.000|XOffset=0mm|YOffset=0mm|HoleType=Round|Shape=RoundedRectangle|*
%AMROUNDEDRECTD31*
21,1,0.7874,0.8103,0,0,90.0*
21,1,0.7087,0.8890,0,0,90.0*
1,1,0.0787,0.4051,0.3543*
1,1,0.0787,0.4051,-0.3543*
1,1,0.0787,-0.4051,-0.3543*
1,1,0.0787,-0.4051,0.3543*
%
%ADD31ROUNDEDRECTD31*%
G04:AMPARAMS|DCode=32|XSize=1.6002mm|YSize=2.5908mm|CornerRadius=0.2mm|HoleSize=0mm|Usage=FLASHONLY|Rotation=0.000|XOffset=0mm|YOffset=0mm|HoleType=Round|Shape=RoundedRectangle|*
%AMROUNDEDRECTD32*
21,1,1.6002,2.1908,0,0,0.0*
21,1,1.2002,2.5908,0,0,0.0*
1,1,0.4001,0.6001,-1.0954*
1,1,0.4001,-0.6001,-1.0954*
1,1,0.4001,-0.6001,1.0954*
1,1,0.4001,0.6001,1.0954*
%
%ADD32ROUNDEDRECTD32*%
G04:AMPARAMS|DCode=33|XSize=0.9906mm|YSize=1.4478mm|CornerRadius=0.0495mm|HoleSize=0mm|Usage=FLASHONLY|Rotation=180.000|XOffset=0mm|YOffset=0mm|HoleType=Round|Shape=RoundedRectangle|*
%AMROUNDEDRECTD33*
21,1,0.9906,1.3487,0,0,180.0*
21,1,0.8915,1.4478,0,0,180.0*
1,1,0.0991,-0.4458,0.6744*
1,1,0.0991,0.4458,0.6744*
1,1,0.0991,0.4458,-0.6744*
1,1,0.0991,-0.4458,-0.6744*
%
%ADD33ROUNDEDRECTD33*%
G04:AMPARAMS|DCode=34|XSize=0.889mm|YSize=1.6002mm|CornerRadius=0.0445mm|HoleSize=0mm|Usage=FLASHONLY|Rotation=270.000|XOffset=0mm|YOffset=0mm|HoleType=Round|Shape=RoundedRectangle|*
%AMROUNDEDRECTD34*
21,1,0.8890,1.5113,0,0,270.0*
21,1,0.8001,1.6002,0,0,270.0*
1,1,0.0889,-0.7557,-0.4001*
1,1,0.0889,-0.7557,0.4001*
1,1,0.0889,0.7557,0.4001*
1,1,0.0889,0.7557,-0.4001*
%
%ADD34ROUNDEDRECTD34*%
G04:AMPARAMS|DCode=35|XSize=0.9906mm|YSize=1.4478mm|CornerRadius=0.0495mm|HoleSize=0mm|Usage=FLASHONLY|Rotation=90.000|XOffset=0mm|YOffset=0mm|HoleType=Round|Shape=RoundedRectangle|*
%AMROUNDEDRECTD35*
21,1,0.9906,1.3487,0,0,90.0*
21,1,0.8915,1.4478,0,0,90.0*
1,1,0.0991,0.6744,0.4458*
1,1,0.0991,0.6744,-0.4458*
1,1,0.0991,-0.6744,-0.4458*
1,1,0.0991,-0.6744,0.4458*
%
%ADD35ROUNDEDRECTD35*%
%ADD65R,0.5000X0.5000*%
%ADD66C,0.3048*%
%ADD67C,0.3302*%
%ADD68C,1.5240*%
%ADD69C,2.9210*%
G04:AMPARAMS|DCode=70|XSize=0.6858mm|YSize=3.5052mm|CornerRadius=0.0343mm|HoleSize=0mm|Usage=FLASHONLY|Rotation=90.000|XOffset=0mm|YOffset=0mm|HoleType=Round|Shape=RoundedRectangle|*
%AMROUNDEDRECTD70*
21,1,0.6858,3.4366,0,0,90.0*
21,1,0.6172,3.5052,0,0,90.0*
1,1,0.0686,1.7183,0.3086*
1,1,0.0686,1.7183,-0.3086*
1,1,0.0686,-1.7183,-0.3086*
1,1,0.0686,-1.7183,0.3086*
%
%ADD70ROUNDEDRECTD70*%
G04:AMPARAMS|DCode=71|XSize=0.6858mm|YSize=2.8956mm|CornerRadius=0.0343mm|HoleSize=0mm|Usage=FLASHONLY|Rotation=180.000|XOffset=0mm|YOffset=0mm|HoleType=Round|Shape=RoundedRectangle|*
%AMROUNDEDRECTD71*
21,1,0.6858,2.8270,0,0,180.0*
21,1,0.6172,2.8956,0,0,180.0*
1,1,0.0686,-0.3086,1.4135*
1,1,0.0686,0.3086,1.4135*
1,1,0.0686,0.3086,-1.4135*
1,1,0.0686,-0.3086,-1.4135*
%
%ADD71ROUNDEDRECTD71*%
G04:AMPARAMS|DCode=72|XSize=0.6858mm|YSize=2.7178mm|CornerRadius=0.0343mm|HoleSize=0mm|Usage=FLASHONLY|Rotation=180.000|XOffset=0mm|YOffset=0mm|HoleType=Round|Shape=RoundedRectangle|*
%AMROUNDEDRECTD72*
21,1,0.6858,2.6492,0,0,180.0*
21,1,0.6172,2.7178,0,0,180.0*
1,1,0.0686,-0.3086,1.3246*
1,1,0.0686,0.3086,1.3246*
1,1,0.0686,0.3086,-1.3246*
1,1,0.0686,-0.3086,-1.3246*
%
%ADD72ROUNDEDRECTD72*%
%ADD73C,2.8956*%
%ADD74C,1.3970*%
%ADD75C,2.2098*%
%ADD76C,3.2512*%
%ADD77C,3.2004*%
%ADD78C,0.6000*%
G36*
X1110004Y2289233D02*
X1110156D01*
X1110436Y2289117D01*
X1110650Y2288902D01*
X1110766Y2288622D01*
Y2265560D01*
X1110728Y2265467D01*
X1110656Y2265395D01*
X1110563Y2265357D01*
X1101521D01*
X1101335Y2265434D01*
X1101192Y2265577D01*
X1101114Y2265764D01*
Y2269929D01*
X1101051Y2270573D01*
X1100558Y2271763D01*
X1099647Y2272674D01*
X1098457Y2273167D01*
X1097812Y2273231D01*
X1094769D01*
X1093368Y2273811D01*
X1092296Y2274883D01*
X1091716Y2276283D01*
Y2278307D01*
X1092296Y2279707D01*
X1093368Y2280779D01*
X1094769Y2281359D01*
X1095526D01*
X1096567Y2281461D01*
X1098490Y2282258D01*
X1099961Y2283729D01*
X1100758Y2285652D01*
X1100860Y2286693D01*
Y2288286D01*
X1101850Y2289225D01*
X1101948Y2289274D01*
X1110004Y2289233D01*
D02*
G37*
G36*
Y2031677D02*
X1110156D01*
X1110436Y2031561D01*
X1110650Y2031346D01*
X1110766Y2031066D01*
Y2008004D01*
X1110728Y2007911D01*
X1110656Y2007839D01*
X1110563Y2007801D01*
X1101521D01*
X1101335Y2007878D01*
X1101192Y2008021D01*
X1101114Y2008208D01*
Y2012373D01*
X1101051Y2013017D01*
X1100558Y2014207D01*
X1099647Y2015118D01*
X1098457Y2015611D01*
X1097812Y2015675D01*
X1094769D01*
X1093368Y2016255D01*
X1092296Y2017327D01*
X1091716Y2018727D01*
Y2020751D01*
X1092296Y2022151D01*
X1093368Y2023223D01*
X1094769Y2023803D01*
X1095526D01*
X1096567Y2023905D01*
X1098490Y2024702D01*
X1099961Y2026173D01*
X1100758Y2028096D01*
X1100860Y2029137D01*
Y2030730D01*
X1101850Y2031669D01*
X1101948Y2031718D01*
X1110004Y2031677D01*
D02*
G37*
G36*
X462152Y1936932D02*
X463224Y1935860D01*
X463804Y1934460D01*
Y1932436D01*
X463224Y1931036D01*
X462152Y1929964D01*
X460752Y1929384D01*
X459994D01*
X459322Y1929351D01*
X458003Y1929089D01*
X456761Y1928574D01*
X455643Y1927827D01*
X454693Y1926877D01*
X453946Y1925759D01*
X453431Y1924517D01*
X453269Y1923701D01*
X451955Y1923344D01*
X451941Y1923345D01*
X451602Y1923786D01*
X449745Y1925211D01*
X447583Y1926107D01*
X445262Y1926413D01*
X436339D01*
X436313Y1926677D01*
X435858Y1927775D01*
X435017Y1928616D01*
X433919Y1929071D01*
X433324Y1929130D01*
X432312D01*
X430912Y1929710D01*
X429840Y1930782D01*
X429260Y1932182D01*
Y1933849D01*
X429956Y1935530D01*
X431242Y1936816D01*
X432923Y1937512D01*
X460752D01*
X462152Y1936932D01*
D02*
G37*
G36*
X453390Y1875281D02*
Y1874520D01*
X453497Y1873430D01*
X454332Y1871416D01*
X455873Y1869874D01*
X457888Y1869039D01*
X458978Y1868932D01*
X460189D01*
X460691Y1868832D01*
X461165Y1868636D01*
X461591Y1868351D01*
X462113Y1867829D01*
Y1867829D01*
X462455Y1867487D01*
X462992Y1866684D01*
X463362Y1865791D01*
X463550Y1864843D01*
Y1863677D01*
X463417Y1863007D01*
X463155Y1862376D01*
X462776Y1861808D01*
X462534Y1861566D01*
X461949Y1860981D01*
X461446Y1860645D01*
X460888Y1860414D01*
X460296Y1860296D01*
X431038D01*
X429755Y1861579D01*
Y1861579D01*
X429013Y1862541D01*
X428987Y1862581D01*
X428663Y1863362D01*
X428498Y1864191D01*
Y1865422D01*
X429117Y1866916D01*
X430260Y1868059D01*
X431754Y1868678D01*
X432562D01*
X433454Y1868766D01*
X435102Y1869449D01*
X436363Y1870710D01*
X437046Y1872358D01*
X437134Y1873250D01*
Y1873681D01*
X440689D01*
X440779Y1873613D01*
X442941Y1872717D01*
X445262Y1872411D01*
X447583Y1872717D01*
X449745Y1873613D01*
X451602Y1875038D01*
X452120Y1875712D01*
X453390Y1875281D01*
D02*
G37*
G36*
X665979Y1910317D02*
X666479Y1909817D01*
X666750Y1909164D01*
Y1908810D01*
Y1903476D01*
X666833Y1902634D01*
X667478Y1901077D01*
X668669Y1899886D01*
X670226Y1899241D01*
X671068Y1899158D01*
X671818D01*
X673291Y1898865D01*
X674677Y1898291D01*
X675925Y1897457D01*
X676987Y1896395D01*
X677821Y1895147D01*
X678395Y1893761D01*
X678688Y1892289D01*
Y1891538D01*
Y1882648D01*
X678771Y1881806D01*
X679416Y1880249D01*
X680607Y1879058D01*
X682164Y1878413D01*
X683006Y1878330D01*
X688134D01*
X689161Y1877905D01*
X689947Y1877119D01*
X690372Y1876092D01*
Y1875536D01*
Y1868932D01*
Y1868578D01*
X690101Y1867925D01*
X689601Y1867425D01*
X688948Y1867154D01*
X673712D01*
X672965Y1867463D01*
X672393Y1868035D01*
X672084Y1868782D01*
Y1869186D01*
Y1872488D01*
X672050Y1872835D01*
X671784Y1873476D01*
X671294Y1873966D01*
X670653Y1874232D01*
X670306Y1874266D01*
X657364D01*
X655891Y1874559D01*
X654505Y1875133D01*
X653257Y1875967D01*
X652195Y1877029D01*
X651361Y1878277D01*
X650787Y1879663D01*
X650494Y1881136D01*
Y1881886D01*
Y1888998D01*
Y1889251D01*
X650687Y1889717D01*
X651045Y1890075D01*
X651511Y1890268D01*
X652526D01*
X653121Y1890327D01*
X654219Y1890782D01*
X655060Y1891623D01*
X655515Y1892721D01*
X655574Y1893316D01*
Y1909572D01*
Y1909774D01*
X655729Y1910148D01*
X656014Y1910433D01*
X656388Y1910588D01*
X665326D01*
X665979Y1910317D01*
D02*
G37*
G36*
X637652Y1838300D02*
X626652D01*
Y1840800D01*
X631652D01*
Y1846800D01*
X626652D01*
Y1849300D01*
X631652D01*
Y1855300D01*
X626652D01*
Y1857800D01*
X637652D01*
Y1838300D01*
D02*
G37*
G36*
X664588Y1857545D02*
X665796Y1857045D01*
X666883Y1856318D01*
X667808Y1855393D01*
X668534Y1854306D01*
X669035Y1853098D01*
X669290Y1851816D01*
Y1851162D01*
Y1850136D01*
X669373Y1849294D01*
X670018Y1847737D01*
X671209Y1846546D01*
X672766Y1845901D01*
X673608Y1845818D01*
X688034D01*
X688408Y1845663D01*
X688693Y1845378D01*
X688848Y1845004D01*
Y1844802D01*
Y1837182D01*
Y1837132D01*
X688809Y1837038D01*
X688738Y1836967D01*
X688644Y1836928D01*
X652751D01*
X652247Y1837137D01*
X651861Y1837523D01*
X651652Y1838027D01*
Y1838300D01*
Y1857800D01*
X663306D01*
X664588Y1857545D01*
D02*
G37*
G36*
X1110004Y1774121D02*
X1110156D01*
X1110436Y1774005D01*
X1110650Y1773790D01*
X1110766Y1773510D01*
Y1750448D01*
X1110728Y1750355D01*
X1110656Y1750283D01*
X1110563Y1750245D01*
X1101521D01*
X1101335Y1750322D01*
X1101192Y1750465D01*
X1101114Y1750652D01*
Y1754817D01*
X1101051Y1755461D01*
X1100558Y1756651D01*
X1099647Y1757562D01*
X1098457Y1758055D01*
X1097812Y1758119D01*
X1094769D01*
X1093368Y1758699D01*
X1092296Y1759771D01*
X1091716Y1761171D01*
Y1763195D01*
X1092296Y1764595D01*
X1093368Y1765667D01*
X1094769Y1766247D01*
X1095526D01*
X1096567Y1766349D01*
X1098490Y1767146D01*
X1099961Y1768617D01*
X1100758Y1770540D01*
X1100860Y1771581D01*
Y1773174D01*
X1101850Y1774113D01*
X1101948Y1774162D01*
X1110004Y1774121D01*
D02*
G37*
G36*
X235217Y1620253D02*
X235217Y1620253D01*
X235217D01*
X235959Y1619291D01*
X235986Y1619251D01*
X236309Y1618470D01*
X236474Y1617641D01*
Y1616410D01*
X235855Y1614916D01*
X234712Y1613773D01*
X233218Y1613154D01*
X232410D01*
X231518Y1613066D01*
X229870Y1612384D01*
X228608Y1611122D01*
X227926Y1609474D01*
X227838Y1608582D01*
Y1589331D01*
X227490Y1588491D01*
X226847Y1587848D01*
X226007Y1587500D01*
X213617D01*
X212683Y1587887D01*
X211969Y1588601D01*
X211582Y1589535D01*
Y1607312D01*
X211475Y1608402D01*
X210640Y1610417D01*
X209098Y1611958D01*
X207084Y1612793D01*
X205994Y1612900D01*
X204783D01*
X204281Y1613000D01*
X203807Y1613196D01*
X203381Y1613481D01*
X203200Y1613662D01*
X202859Y1614003D01*
X202859D01*
X202517Y1614345D01*
X201980Y1615148D01*
X201611Y1616041D01*
X201422Y1616989D01*
Y1618155D01*
X201555Y1618825D01*
X201817Y1619456D01*
X202196Y1620024D01*
X202438Y1620266D01*
X203023Y1620851D01*
X203526Y1621187D01*
X204084Y1621418D01*
X204676Y1621536D01*
X233934D01*
X235217Y1620253D01*
D02*
G37*
G36*
X226827Y1577045D02*
X227542Y1576330D01*
X227928Y1575397D01*
Y1557619D01*
X228036Y1556529D01*
X228870Y1554515D01*
X230412Y1552973D01*
X232426Y1552139D01*
X233516Y1552031D01*
X234727D01*
X235230Y1551931D01*
X235703Y1551735D01*
X236129Y1551450D01*
X236652Y1550928D01*
Y1550928D01*
X236993Y1550586D01*
X237530Y1549783D01*
X237900Y1548890D01*
X238088Y1547942D01*
Y1546776D01*
X237955Y1546106D01*
X237694Y1545475D01*
X237314Y1544907D01*
X237072Y1544665D01*
X236487Y1544080D01*
X235985Y1543744D01*
X235427Y1543513D01*
X234834Y1543395D01*
X205576D01*
X204294Y1544678D01*
Y1544678D01*
X203551Y1545641D01*
X203525Y1545680D01*
X203201Y1546461D01*
X203036Y1547290D01*
Y1548522D01*
X203655Y1550015D01*
X204798Y1551158D01*
X206292Y1551777D01*
X207100D01*
X207992Y1551865D01*
X209641Y1552548D01*
X210902Y1553809D01*
X211585Y1555457D01*
X211672Y1556349D01*
Y1575600D01*
X212020Y1576440D01*
X212663Y1577083D01*
X213504Y1577431D01*
X225894D01*
X226827Y1577045D01*
D02*
G37*
G36*
X1110258Y1516565D02*
X1110410D01*
X1110690Y1516449D01*
X1110904Y1516234D01*
X1111020Y1515954D01*
Y1492892D01*
X1110982Y1492799D01*
X1110910Y1492727D01*
X1110817Y1492689D01*
X1101775D01*
X1101589Y1492766D01*
X1101446Y1492909D01*
X1101368Y1493096D01*
Y1497261D01*
X1101305Y1497905D01*
X1100812Y1499095D01*
X1099901Y1500006D01*
X1098711Y1500499D01*
X1098066Y1500563D01*
X1095023D01*
X1093622Y1501143D01*
X1092550Y1502215D01*
X1091970Y1503615D01*
Y1505639D01*
X1092550Y1507039D01*
X1093622Y1508111D01*
X1095023Y1508691D01*
X1095780D01*
X1096821Y1508793D01*
X1098744Y1509590D01*
X1100215Y1511061D01*
X1101012Y1512984D01*
X1101114Y1514025D01*
Y1515618D01*
X1102104Y1516557D01*
X1102202Y1516606D01*
X1110258Y1516565D01*
D02*
G37*
G36*
X127000Y1314196D02*
X127152D01*
X127432Y1314080D01*
X127646Y1313866D01*
X127762Y1313586D01*
Y1290524D01*
X127723Y1290430D01*
X127652Y1290359D01*
X127558Y1290320D01*
X118517D01*
X118330Y1290397D01*
X118187Y1290540D01*
X118110Y1290727D01*
Y1294892D01*
X118047Y1295536D01*
X117554Y1296727D01*
X116643Y1297637D01*
X115452Y1298131D01*
X114808Y1298194D01*
X111764D01*
X110364Y1298774D01*
X109292Y1299846D01*
X108712Y1301246D01*
Y1303270D01*
X109292Y1304670D01*
X110364Y1305742D01*
X111764Y1306322D01*
X112522D01*
X113563Y1306425D01*
X115485Y1307221D01*
X116957Y1308693D01*
X117753Y1310615D01*
X117856Y1311656D01*
Y1313250D01*
X118846Y1314188D01*
X118944Y1314238D01*
X127000Y1314196D01*
D02*
G37*
G36*
X180287Y1274504D02*
X184217Y1272877D01*
X187753Y1270514D01*
X190760Y1267507D01*
X193123Y1263971D01*
X194750Y1260042D01*
X194822Y1259679D01*
X194753Y1259332D01*
Y1250298D01*
X194699Y1250243D01*
X193952Y1249934D01*
X187406D01*
X185912Y1250553D01*
X184769Y1251696D01*
X184150Y1253190D01*
Y1253998D01*
X184116Y1254345D01*
X183850Y1254986D01*
X183360Y1255476D01*
X182719Y1255742D01*
X182372Y1255776D01*
X170538D01*
X169791Y1256085D01*
X169219Y1256657D01*
X168910Y1257404D01*
Y1257808D01*
X168890Y1258006D01*
X168739Y1258372D01*
X168458Y1258653D01*
X168092Y1258804D01*
X167894Y1258824D01*
X162814D01*
X151384Y1259332D01*
Y1268222D01*
Y1268923D01*
X151657Y1270296D01*
X152193Y1271591D01*
X152972Y1272756D01*
X153962Y1273746D01*
X155127Y1274525D01*
X156421Y1275061D01*
X157795Y1275334D01*
X176116D01*
X180287Y1274504D01*
D02*
G37*
G36*
X217012Y1257427D02*
X218814Y1256681D01*
X220437Y1255596D01*
X221817Y1254217D01*
X222901Y1252594D01*
X223647Y1250791D01*
X224028Y1248878D01*
Y1247902D01*
Y1242060D01*
Y1241937D01*
X222913Y1240821D01*
X201496D01*
X201487Y1240837D01*
Y1256254D01*
X202422Y1257189D01*
X203916Y1257808D01*
X215098D01*
X217012Y1257427D01*
D02*
G37*
G36*
X1110258Y1259009D02*
X1110410D01*
X1110690Y1258893D01*
X1110904Y1258678D01*
X1111020Y1258398D01*
Y1235336D01*
X1110982Y1235243D01*
X1110910Y1235171D01*
X1110817Y1235133D01*
X1101775D01*
X1101589Y1235210D01*
X1101446Y1235353D01*
X1101368Y1235540D01*
Y1239705D01*
X1101305Y1240349D01*
X1100812Y1241539D01*
X1099901Y1242450D01*
X1098711Y1242943D01*
X1098066Y1243007D01*
X1095023D01*
X1093622Y1243587D01*
X1092550Y1244659D01*
X1091970Y1246059D01*
Y1248083D01*
X1092550Y1249483D01*
X1093622Y1250555D01*
X1095023Y1251135D01*
X1095780D01*
X1096821Y1251237D01*
X1098744Y1252034D01*
X1100215Y1253505D01*
X1101012Y1255428D01*
X1101114Y1256469D01*
Y1258062D01*
X1102104Y1259001D01*
X1102202Y1259050D01*
X1110258Y1259009D01*
D02*
G37*
G36*
X127254Y1252728D02*
X127406D01*
X127686Y1252612D01*
X127900Y1252398D01*
X127951Y1252274D01*
Y1239520D01*
X128016Y1239195D01*
Y1229055D01*
X127977Y1228962D01*
X127906Y1228891D01*
X127812Y1228852D01*
X118771D01*
X118584Y1228929D01*
X118441Y1229072D01*
X118364Y1229259D01*
Y1233424D01*
X118301Y1234068D01*
X117808Y1235258D01*
X116896Y1236170D01*
X115706Y1236663D01*
X115062Y1236726D01*
X112018D01*
X110618Y1237306D01*
X109546Y1238378D01*
X108966Y1239778D01*
Y1241802D01*
X109546Y1243202D01*
X110618Y1244274D01*
X112018Y1244854D01*
X112776D01*
X113817Y1244957D01*
X115739Y1245753D01*
X117211Y1247225D01*
X118007Y1249147D01*
X118110Y1250188D01*
Y1251782D01*
X119100Y1252720D01*
X119198Y1252770D01*
X127254Y1252728D01*
D02*
G37*
G36*
X62374Y1030693D02*
X62445Y1030622D01*
X62484Y1030528D01*
Y1021487D01*
X62407Y1021300D01*
X62264Y1021157D01*
X62077Y1021080D01*
X57912D01*
X57268Y1021017D01*
X56077Y1020524D01*
X55167Y1019613D01*
X54673Y1018422D01*
X54610Y1017778D01*
Y1014734D01*
X54030Y1013334D01*
X52958Y1012262D01*
X51558Y1011682D01*
X49534D01*
X48134Y1012262D01*
X47062Y1013334D01*
X46482Y1014734D01*
Y1015492D01*
X46379Y1016533D01*
X45583Y1018455D01*
X44111Y1019927D01*
X42189Y1020723D01*
X41148Y1020826D01*
X39554D01*
X38566Y1021914D01*
X38608Y1029970D01*
Y1030122D01*
X38724Y1030402D01*
X38938Y1030616D01*
X39218Y1030732D01*
X62281D01*
X62374Y1030693D01*
D02*
G37*
G36*
X1110258Y1001453D02*
X1110410D01*
X1110690Y1001337D01*
X1110904Y1001122D01*
X1111020Y1000842D01*
Y977780D01*
X1110982Y977687D01*
X1110910Y977615D01*
X1110817Y977577D01*
X1101775D01*
X1101589Y977654D01*
X1101446Y977797D01*
X1101368Y977984D01*
Y982149D01*
X1101305Y982793D01*
X1100812Y983983D01*
X1099901Y984894D01*
X1098711Y985387D01*
X1098066Y985451D01*
X1095023D01*
X1093622Y986031D01*
X1092550Y987103D01*
X1091970Y988503D01*
Y990527D01*
X1092550Y991927D01*
X1093622Y992999D01*
X1095023Y993579D01*
X1095780D01*
X1096821Y993681D01*
X1098744Y994478D01*
X1100215Y995949D01*
X1101012Y997872D01*
X1101114Y998913D01*
Y1000506D01*
X1102104Y1001445D01*
X1102202Y1001494D01*
X1110258Y1001453D01*
D02*
G37*
G36*
X1110004Y743897D02*
X1110156D01*
X1110436Y743781D01*
X1110650Y743566D01*
X1110766Y743286D01*
Y720224D01*
X1110728Y720131D01*
X1110656Y720059D01*
X1110563Y720021D01*
X1101521D01*
X1101335Y720098D01*
X1101192Y720241D01*
X1101114Y720428D01*
Y724593D01*
X1101051Y725237D01*
X1100558Y726427D01*
X1099647Y727338D01*
X1098457Y727831D01*
X1097812Y727895D01*
X1094769D01*
X1093368Y728475D01*
X1092296Y729547D01*
X1091716Y730947D01*
Y732971D01*
X1092296Y734371D01*
X1093368Y735443D01*
X1094769Y736023D01*
X1095526D01*
X1096567Y736125D01*
X1098490Y736922D01*
X1099961Y738393D01*
X1100758Y740316D01*
X1100860Y741357D01*
Y742950D01*
X1101850Y743889D01*
X1101948Y743938D01*
X1110004Y743897D01*
D02*
G37*
G36*
Y486341D02*
X1110156D01*
X1110436Y486225D01*
X1110650Y486010D01*
X1110766Y485730D01*
Y462668D01*
X1110728Y462575D01*
X1110656Y462503D01*
X1110563Y462465D01*
X1101521D01*
X1101335Y462542D01*
X1101192Y462685D01*
X1101114Y462872D01*
Y467037D01*
X1101051Y467681D01*
X1100558Y468871D01*
X1099647Y469782D01*
X1098457Y470275D01*
X1097812Y470339D01*
X1094769D01*
X1093368Y470919D01*
X1092296Y471991D01*
X1091716Y473391D01*
Y475415D01*
X1092296Y476815D01*
X1093368Y477887D01*
X1094769Y478467D01*
X1095526D01*
X1096567Y478569D01*
X1098490Y479366D01*
X1099961Y480837D01*
X1100758Y482760D01*
X1100860Y483801D01*
Y485394D01*
X1101850Y486333D01*
X1101948Y486382D01*
X1110004Y486341D01*
D02*
G37*
G36*
X474717Y397747D02*
X475217Y397247D01*
X475488Y396594D01*
Y396240D01*
Y390906D01*
X475571Y390064D01*
X476216Y388507D01*
X477407Y387316D01*
X478964Y386671D01*
X479806Y386588D01*
X480556D01*
X482029Y386295D01*
X483415Y385721D01*
X484663Y384887D01*
X485725Y383825D01*
X486559Y382577D01*
X487133Y381191D01*
X487426Y379719D01*
Y378968D01*
Y370078D01*
X487509Y369236D01*
X488154Y367679D01*
X489345Y366488D01*
X490902Y365843D01*
X491744Y365760D01*
X496872D01*
X497899Y365335D01*
X498685Y364549D01*
X499110Y363522D01*
Y362966D01*
Y356362D01*
Y356008D01*
X498839Y355355D01*
X498339Y354855D01*
X497686Y354584D01*
X482450D01*
X481703Y354893D01*
X481131Y355465D01*
X480822Y356212D01*
Y356616D01*
Y359918D01*
X480788Y360265D01*
X480522Y360906D01*
X480032Y361396D01*
X479391Y361662D01*
X479044Y361696D01*
X466101D01*
X464629Y361989D01*
X463243Y362563D01*
X461995Y363397D01*
X460933Y364459D01*
X460099Y365707D01*
X459525Y367093D01*
X459232Y368565D01*
Y369316D01*
Y376428D01*
Y376681D01*
X459425Y377147D01*
X459783Y377505D01*
X460249Y377698D01*
X461264D01*
X461859Y377757D01*
X462957Y378212D01*
X463798Y379053D01*
X464253Y380151D01*
X464312Y380746D01*
Y397002D01*
Y397204D01*
X464467Y397578D01*
X464753Y397863D01*
X465126Y398018D01*
X474064D01*
X474717Y397747D01*
D02*
G37*
G36*
X445882Y325984D02*
X434882D01*
Y328484D01*
X439882D01*
Y334484D01*
X434882D01*
Y336984D01*
X439882D01*
Y342984D01*
X434882D01*
Y345484D01*
X445882D01*
Y325984D01*
D02*
G37*
G36*
X470882Y342984D02*
D01*
X470882Y336984D01*
X470882D01*
Y336984D01*
X471683Y336258D01*
X473480Y335057D01*
X475476Y334230D01*
X477595Y333809D01*
X478675Y333756D01*
X496530D01*
X496866Y333689D01*
X497181Y333559D01*
X497465Y333369D01*
X497586Y333248D01*
X497707Y333127D01*
X497897Y332843D01*
X498027Y332528D01*
X498094Y332192D01*
Y332022D01*
Y325287D01*
X498111Y324947D01*
X498243Y324280D01*
X498504Y323652D01*
X498881Y323086D01*
X499110Y322834D01*
X499154Y322790D01*
X499332Y322629D01*
X499732Y322362D01*
X500176Y322178D01*
X500648Y322084D01*
X500888Y322072D01*
X510739D01*
X512046Y321531D01*
X513047Y320530D01*
X513588Y319223D01*
Y318516D01*
Y308864D01*
Y308359D01*
X513201Y307425D01*
X512487Y306711D01*
X511553Y306324D01*
X488546D01*
X487799Y306633D01*
X487227Y307205D01*
X486918Y307952D01*
Y308356D01*
Y312166D01*
X486864Y312711D01*
X486447Y313718D01*
X485676Y314489D01*
X484669Y314906D01*
X484124Y314960D01*
X480776D01*
X479282Y315579D01*
X478139Y316722D01*
X477520Y318216D01*
Y319024D01*
Y319346D01*
X477488Y319997D01*
X477234Y321273D01*
X476736Y322475D01*
X476013Y323557D01*
X475093Y324477D01*
X474011Y325200D01*
X472809Y325698D01*
X471533Y325952D01*
X470882Y325984D01*
X459882D01*
Y345484D01*
X470882D01*
Y342984D01*
D02*
G37*
G36*
X1110234Y228600D02*
X1110386D01*
X1110666Y228484D01*
X1110880Y228270D01*
X1110996Y227990D01*
Y204928D01*
X1110957Y204834D01*
X1110886Y204763D01*
X1110792Y204724D01*
X1101751D01*
X1101564Y204801D01*
X1101421Y204944D01*
X1101344Y205131D01*
Y209296D01*
X1101281Y209940D01*
X1100788Y211131D01*
X1099876Y212041D01*
X1098686Y212535D01*
X1098042Y212598D01*
X1094998D01*
X1093598Y213178D01*
X1092526Y214250D01*
X1091946Y215650D01*
Y217674D01*
X1092526Y219074D01*
X1093598Y220146D01*
X1094998Y220726D01*
X1095756D01*
X1096797Y220828D01*
X1098719Y221625D01*
X1100191Y223097D01*
X1100987Y225019D01*
X1101090Y226060D01*
Y227654D01*
X1102080Y228592D01*
X1102178Y228642D01*
X1110234Y228600D01*
D02*
G37*
G36*
X934846Y148518D02*
X935918Y147446D01*
X936498Y146046D01*
Y145288D01*
Y144780D01*
Y144022D01*
X935918Y142622D01*
X934846Y141550D01*
X933446Y140970D01*
X932688D01*
X932016Y140937D01*
X930697Y140675D01*
X929455Y140160D01*
X928337Y139413D01*
X927387Y138463D01*
X926640Y137345D01*
X926125Y136103D01*
X925863Y134784D01*
X925830Y134112D01*
Y118110D01*
Y117706D01*
X925521Y116959D01*
X924949Y116387D01*
X924202Y116078D01*
X910897D01*
X910057Y116426D01*
X909414Y117069D01*
X909066Y117909D01*
Y118364D01*
Y137668D01*
X909007Y138263D01*
X908552Y139361D01*
X907711Y140202D01*
X906613Y140657D01*
X906018Y140716D01*
X905006D01*
X903606Y141296D01*
X902534Y142368D01*
X901954Y143768D01*
Y144526D01*
Y145435D01*
X902650Y147116D01*
X903936Y148402D01*
X905617Y149098D01*
X933446D01*
X934846Y148518D01*
D02*
G37*
G36*
X924475Y105531D02*
X925189Y104817D01*
X925576Y103883D01*
Y86106D01*
X925683Y85016D01*
X926518Y83001D01*
X928059Y81460D01*
X930074Y80625D01*
X931164Y80518D01*
X932375D01*
X932877Y80418D01*
X933351Y80222D01*
X933777Y79937D01*
X934299Y79415D01*
Y79415D01*
X934641Y79073D01*
X935178Y78270D01*
X935547Y77377D01*
X935736Y76429D01*
Y75263D01*
X935603Y74593D01*
X935341Y73962D01*
X934962Y73394D01*
X934720Y73152D01*
X934135Y72566D01*
X933632Y72231D01*
X933074Y72000D01*
X932482Y71882D01*
X903224D01*
X901941Y73165D01*
Y73165D01*
X901199Y74127D01*
X901172Y74167D01*
X900849Y74948D01*
X900684Y75777D01*
Y77008D01*
X901303Y78502D01*
X902446Y79645D01*
X903940Y80264D01*
X904748D01*
X905640Y80352D01*
X907288Y81034D01*
X908549Y82296D01*
X909232Y83944D01*
X909320Y84836D01*
Y104087D01*
X909668Y104927D01*
X910311Y105570D01*
X911151Y105918D01*
X923541D01*
X924475Y105531D01*
D02*
G37*
D12*
X102870Y1370482D02*
Y1376985D01*
X188341Y1370330D02*
Y1394348D01*
Y1366647D02*
Y1370330D01*
X179578Y1357884D02*
X188341Y1366647D01*
X185054Y1397635D02*
X188341Y1394348D01*
X179578Y1357630D02*
Y1357884D01*
X115341Y1383487D02*
X129489Y1397635D01*
X185054D01*
X102870Y1383487D02*
X115341D01*
X108839Y1376985D02*
X115341Y1383487D01*
X102870Y1376985D02*
X108839D01*
D13*
X230886Y1104138D02*
G03*
X231140Y1104245I0J356D01*
G01*
D02*
G03*
X231242Y1104494I-254J249D01*
G01*
X751586Y172974D02*
G03*
X751840Y172720I254J0D01*
G01*
X493014Y172974D02*
G03*
X493268Y172720I254J0D01*
G01*
X234442Y172974D02*
G03*
X234696Y172720I254J0D01*
G01*
X155448Y1129284D02*
X164361Y1138197D01*
X155448Y1105662D02*
Y1129284D01*
Y1105662D02*
X340360Y920750D01*
X162814Y1129850D02*
X168217Y1135253D01*
X162814Y1109472D02*
Y1129850D01*
Y1109472D02*
X269748Y1002538D01*
X148590Y1099566D02*
X329438Y918718D01*
X148590Y1134618D02*
X162814Y1148842D01*
X148590Y1099566D02*
Y1134618D01*
X138430Y1093788D02*
Y1134872D01*
X152781Y1149223D02*
Y1161542D01*
X138430Y1134872D02*
X152781Y1149223D01*
X138430Y1093788D02*
X323120Y909098D01*
X269748Y1002538D02*
X508000D01*
X283718Y1283208D02*
Y1295400D01*
X255270Y1287018D02*
Y1294892D01*
X251206Y1282700D02*
X255143Y1286637D01*
Y1286891D01*
X250952Y1282700D02*
X251206D01*
X255143Y1286891D02*
X255270Y1287018D01*
X186055Y1145134D02*
X186944Y1144245D01*
Y1136777D02*
X188722Y1134999D01*
Y1128014D02*
Y1134999D01*
X186944Y1136777D02*
Y1144245D01*
X173228Y1128014D02*
X188722D01*
X44185Y1347735D02*
X44450Y1347470D01*
X34555Y1347735D02*
X44185D01*
X60452Y1347470D02*
X79756D01*
X83261Y1350975D02*
X102870D01*
X79756Y1347470D02*
X83261Y1350975D01*
X20828Y1370838D02*
X32385Y1359281D01*
X48895D01*
X20574Y1370838D02*
X20828D01*
X48895Y1359281D02*
X60452Y1347724D01*
Y1347470D02*
Y1347724D01*
X75438Y1414526D02*
X119888Y1458976D01*
Y1506728D01*
X75438Y1385512D02*
Y1414526D01*
X70162Y1380236D02*
X75438Y1385512D01*
X27178Y1380236D02*
X70162D01*
X20574Y1386840D02*
X27178Y1380236D01*
X11176Y1362202D02*
Y1574292D01*
Y1362202D02*
X35306Y1338072D01*
X11176Y1574292D02*
X72390Y1635506D01*
X6350Y1357376D02*
Y1583690D01*
Y1357376D02*
X29210Y1334516D01*
X6350Y1583690D02*
X57912Y1635252D01*
X35306Y1338072D02*
X126184D01*
X29210Y1334516D02*
X125788D01*
X238849Y1263231D02*
X247485D01*
X227724Y1240871D02*
Y1252106D01*
X238849Y1263231D01*
X247485D02*
X250952Y1266698D01*
X261709Y1245451D02*
X283464Y1267206D01*
X283718D01*
X261709Y1245281D02*
Y1245451D01*
X231953Y1234163D02*
X244325D01*
X268478Y1258316D01*
Y1299464D01*
X263652Y1260798D02*
Y1305306D01*
X240309Y1237455D02*
X263652Y1260798D01*
Y1305306D02*
X266192Y1307846D01*
X268478Y1299464D02*
X271018Y1302004D01*
Y1450340D01*
X199314Y1237455D02*
X224307D01*
X197688Y1235829D02*
X199314Y1237455D01*
X197688Y1235050D02*
Y1235829D01*
X196215Y1233576D02*
X197688Y1235050D01*
X224307Y1237455D02*
X227724Y1240871D01*
X196215Y1227074D02*
Y1233576D01*
X229312Y1237455D02*
X240309D01*
X227686Y1235829D02*
X229312Y1237455D01*
X227686Y1235050D02*
Y1235829D01*
X226212Y1233576D02*
X227686Y1235050D01*
X226212Y1227074D02*
Y1233576D01*
X233469Y1217041D02*
X261709Y1245281D01*
X223960Y1217041D02*
X233469D01*
X193868Y1211963D02*
X195882Y1213977D01*
Y1214422D01*
X193868Y1210752D02*
Y1211963D01*
X195882Y1214422D02*
X200482Y1219022D01*
Y1226337D01*
X216205Y1216609D02*
X221145Y1211669D01*
X221209Y1220572D02*
Y1227074D01*
X222682Y1218319D02*
Y1219098D01*
Y1218319D02*
X223960Y1217041D01*
X221145Y1211402D02*
Y1211669D01*
X221209Y1220572D02*
X222682Y1219098D01*
X251841Y1215771D02*
X300990Y1264920D01*
X251841Y1214425D02*
Y1215771D01*
X251104Y1213688D02*
X251841Y1214425D01*
X244602Y1213688D02*
X251104D01*
X300990Y1264920D02*
Y1413256D01*
X231216Y1227074D02*
Y1233427D01*
X231953Y1234163D01*
X300990Y1413256D02*
X336169Y1448435D01*
X252620Y1209421D02*
X308610Y1265411D01*
Y1322578D01*
X357124Y1371092D01*
X255321Y1198677D02*
X320548Y1263904D01*
Y1296924D02*
X336169Y1312545D01*
X320548Y1263904D02*
Y1296924D01*
X180467Y1137268D02*
Y1144549D01*
X168217Y1135253D02*
X178452D01*
X180467Y1144549D02*
X181204Y1145286D01*
X178452Y1135253D02*
X180467Y1137268D01*
X164361Y1138197D02*
X175463D01*
X334014Y1179834D02*
X339348D01*
X311376Y1045667D02*
Y1157196D01*
X339348Y1179834D02*
X340360Y1180846D01*
X311376Y1157196D02*
X334014Y1179834D01*
X275844Y1018540D02*
X298958D01*
X218694Y1075690D02*
X275844Y1018540D01*
X290344Y1024636D02*
X311376Y1045667D01*
X223215Y1079805D02*
X278384Y1024636D01*
X290344D01*
X223215Y1079805D02*
Y1114955D01*
X240792Y1074674D02*
Y1110691D01*
X249174Y1064768D02*
Y1140714D01*
X232664Y1157224D02*
X249174Y1140714D01*
X269240Y1044194D02*
Y1119632D01*
Y1044194D02*
X269494Y1043940D01*
X283972Y1032002D02*
X284480Y1032510D01*
Y1122426D01*
X201955Y1136215D02*
X223215Y1114955D01*
X218694Y1075690D02*
Y1115525D01*
X213868Y1071626D02*
X273812Y1011682D01*
X213868Y1071626D02*
Y1115348D01*
X273812Y1011682D02*
X307086D01*
X197688Y1136531D02*
X218694Y1115525D01*
X201219Y1145286D02*
X201955Y1144549D01*
Y1136215D02*
Y1144549D01*
X191948Y1137268D02*
X213868Y1115348D01*
X191211Y1145286D02*
X191948Y1144549D01*
X197688Y1136531D02*
Y1137310D01*
X191948Y1137268D02*
Y1144549D01*
X196215Y1138784D02*
X197688Y1137310D01*
X196215Y1138784D02*
Y1145286D01*
X231140Y1100582D02*
Y1104245D01*
X216230Y1135253D02*
X231242Y1120242D01*
X208949Y1135253D02*
X216230D01*
X207670Y1136531D02*
Y1137154D01*
X207670Y1137154D02*
X207670Y1137154D01*
Y1136531D02*
X208949Y1135253D01*
X207670Y1137154D02*
Y1137310D01*
X206197Y1138784D02*
X207670Y1137310D01*
X307086Y1011682D02*
X340360Y1044956D01*
X244602Y1193673D02*
X259969D01*
X244602Y1198677D02*
X255321D01*
X297942Y1231646D02*
X465328D01*
X259969Y1193673D02*
X297942Y1231646D01*
X245339Y1209421D02*
X252620D01*
X244602Y1208684D02*
X245339Y1209421D01*
X186207Y1227074D02*
X186944Y1227811D01*
X266192Y1307846D02*
Y1514348D01*
X193730Y1237996D02*
X195426D01*
X198120Y1240690D01*
X191948Y1236214D02*
X193730Y1237996D01*
X191948Y1227811D02*
Y1236214D01*
X191211Y1227074D02*
X191948Y1227811D01*
X198120Y1240690D02*
Y1259332D01*
X204470Y1265682D02*
X216408D01*
X198120Y1259332D02*
X204470Y1265682D01*
X216408D02*
X259588Y1308862D01*
Y1557782D01*
X222758Y1281938D02*
X253492Y1312672D01*
Y1637538D01*
X156210Y1281938D02*
X222758D01*
X159004Y1284732D02*
X170180Y1295908D01*
Y1311402D01*
Y1326388D02*
Y1326642D01*
X162018Y1318226D02*
X170180Y1326388D01*
X162018Y1291751D02*
Y1318226D01*
X157792Y1287526D02*
X162018Y1291751D01*
X154178Y1326896D02*
X161798Y1334516D01*
Y1344473D01*
X154178Y1326642D02*
Y1326896D01*
Y1311402D02*
Y1311656D01*
X146939Y1318895D02*
Y1355090D01*
Y1318895D02*
X154178Y1311656D01*
X73914Y1025906D02*
X74168Y1026160D01*
X27178Y1025652D02*
X27432Y1025906D01*
X519430Y685800D02*
X691642D01*
X444754Y624078D02*
X457708D01*
X519430Y685800D01*
X737616Y740410D02*
X753364Y756158D01*
X687070Y740410D02*
X737616D01*
X676275Y751205D02*
X687070Y740410D01*
X725932Y809244D02*
Y902208D01*
X487426Y919226D02*
X708914D01*
X725932Y902208D01*
X545338Y1123188D02*
X711708D01*
X446528Y1033522D02*
X455672D01*
X439768Y1026762D02*
X446528Y1033522D01*
X455672D02*
X545338Y1123188D01*
X693420Y1146810D02*
X726694D01*
X672592Y1167638D02*
X693420Y1146810D01*
X655066Y1167638D02*
X672592D01*
X726694Y1146810D02*
X754126Y1174242D01*
X444754Y1167638D02*
X460248D01*
X480187Y1187577D02*
X749173D01*
X460248Y1167638D02*
X480187Y1187577D01*
X444754Y1439418D02*
X457708D01*
X554990Y1536700D01*
X729742D01*
X451612Y1584071D02*
X466471D01*
X479298Y1596898D02*
X731266D01*
X466471Y1584071D02*
X479298Y1596898D01*
X312928Y1492250D02*
X445770D01*
X542036Y1588516D01*
X550672D01*
X675259Y1553210D02*
X737616D01*
X655066Y1573403D02*
X675259Y1553210D01*
X737616D02*
X752094Y1567688D01*
X680720Y1695450D02*
X720090Y1656080D01*
Y1625346D02*
Y1656080D01*
X680720Y1695450D02*
Y1718310D01*
X667893Y1731137D02*
X680720Y1718310D01*
X482727Y1731137D02*
X667893D01*
X542036Y1724406D02*
X550672D01*
X441706Y1624076D02*
X542036Y1724406D01*
X325882Y1624076D02*
X441706D01*
X462788Y1711198D02*
X482727Y1731137D01*
X444754Y1711198D02*
X462788D01*
X743204Y1210818D02*
Y1296416D01*
X716153Y1323467D02*
X743204Y1296416D01*
X481965Y1323467D02*
X716153D01*
X145288Y1455674D02*
X195580Y1405382D01*
X145288Y1455674D02*
Y1500632D01*
X126492Y1519428D02*
X145288Y1500632D01*
X53594Y1520444D02*
X78232Y1545082D01*
X106426D01*
X53594Y1420114D02*
Y1520444D01*
X106426Y1545082D02*
X119888Y1531620D01*
X232283Y1490599D02*
X232410Y1490726D01*
X232283Y1450975D02*
Y1490599D01*
X232156Y1450848D02*
X232283Y1450975D01*
X208407D02*
Y1490345D01*
X208534Y1490472D01*
X208280Y1450848D02*
X208407Y1450975D01*
X208661Y1506601D02*
X232283D01*
X232410Y1506728D01*
X208534Y1506474D02*
X208661Y1506601D01*
X240030Y1506728D02*
X244856Y1501902D01*
X232410Y1506728D02*
X240030D01*
X216154Y1419098D02*
X231902Y1434846D01*
X193294Y1419098D02*
X216154D01*
X231902Y1434846D02*
X232156D01*
X205232Y1431798D02*
X208280Y1434846D01*
X180340Y1431798D02*
X205232D01*
X195580Y1405128D02*
Y1405382D01*
X232029Y1450975D02*
X232156Y1450848D01*
X112014Y1519428D02*
X126492D01*
X99822Y1531620D02*
X112014Y1519428D01*
X102870Y1357478D02*
X123038D01*
X132842Y1367282D02*
Y1384554D01*
X123038Y1357478D02*
X132842Y1367282D01*
X336169Y1312545D02*
Y1312799D01*
X50800Y1719580D02*
X62738Y1707642D01*
Y1684592D02*
X88392Y1658938D01*
X62738Y1684592D02*
Y1707642D01*
X88392Y1635760D02*
Y1658938D01*
X41910Y1685290D02*
X50800Y1694180D01*
X41910Y1635506D02*
Y1685290D01*
X57912Y1635252D02*
Y1635506D01*
X72390D02*
Y1635760D01*
X142748Y1287526D02*
Y1321508D01*
X143208Y1287526D02*
X157792D01*
X142748D02*
X143208D01*
X173787Y1188669D02*
X177038Y1185418D01*
X136906Y1278890D02*
X141478Y1274318D01*
X125788Y1334516D02*
X136906Y1323398D01*
Y1278890D02*
Y1323398D01*
X126873Y1321181D02*
X131318Y1316736D01*
X122428Y1325372D02*
X122936D01*
X131318Y1274826D02*
Y1316736D01*
X122936Y1325372D02*
X126873Y1321435D01*
Y1321181D02*
Y1321435D01*
X126184Y1338072D02*
X142748Y1321508D01*
X131318Y1274826D02*
X137668Y1268476D01*
X141478Y1274318D02*
X151892Y1284732D01*
X159004D01*
X147828Y1273556D02*
X156210Y1281938D01*
X147828Y1214628D02*
Y1273556D01*
X146939Y1355090D02*
X155829Y1363980D01*
X161798D01*
X33966Y1292860D02*
X89916D01*
X122428Y1325372D01*
X24638Y1283532D02*
X33966Y1292860D01*
X472567Y768731D02*
X485648Y781812D01*
X451612Y768731D02*
X472567D01*
X485648Y781812D02*
X736092D01*
X661924Y751205D02*
X676275D01*
X472821Y904621D02*
X487426Y919226D01*
X451612Y904621D02*
X472821D01*
X470789Y1312291D02*
X481965Y1323467D01*
X451612Y1312291D02*
X470789D01*
X244856Y1426845D02*
Y1501902D01*
X188341Y1370330D02*
X244856Y1426845D01*
X67818Y1405636D02*
Y1405890D01*
X53594Y1420114D02*
X67818Y1405890D01*
X148184Y1383386D02*
X161696D01*
X161798Y1383487D01*
X148082Y1383284D02*
X148184Y1383386D01*
X195580Y1390142D02*
Y1405128D01*
X179426Y1389990D02*
X179578Y1390142D01*
X161798Y1389990D02*
X179426D01*
X67818Y1390142D02*
Y1405636D01*
X83972Y1389990D02*
X102870D01*
X83820Y1390142D02*
X83972Y1389990D01*
X332232Y49276D02*
X374650Y6858D01*
X332232Y49276D02*
Y210058D01*
X374650Y6858D02*
X474218D01*
X215646D02*
X374650D01*
X181102Y94996D02*
X222440D01*
X245809Y71628D01*
X163068Y76962D02*
X181102Y94996D01*
X163068Y59436D02*
Y76962D01*
Y59436D02*
X215646Y6858D01*
X438404Y101346D02*
X474663D01*
X504380Y71628D01*
X426974Y89916D02*
X438404Y101346D01*
X426974Y54102D02*
Y89916D01*
Y54102D02*
X474218Y6858D01*
X575056D01*
X601218Y33020D01*
Y126238D01*
X739585Y94996D02*
X762952Y71628D01*
X632460Y94996D02*
X739585D01*
X601218Y126238D02*
X632460Y94996D01*
X601218Y126238D02*
Y172720D01*
X523748Y250190D02*
X601218Y172720D01*
X523748Y250190D02*
Y292862D01*
X534924Y304038D01*
X469265Y481965D02*
X774319Y176911D01*
X774319D01*
X393065Y481965D02*
X469265D01*
X774319Y176911D02*
X778256Y172974D01*
Y172720D02*
Y172974D01*
X445008Y247396D02*
X515493Y176911D01*
X343408Y247396D02*
X445008D01*
X519684Y172720D02*
Y172974D01*
X515747Y176911D02*
X519684Y172974D01*
X515493Y176911D02*
X515747D01*
X242316Y348488D02*
X343408Y247396D01*
X261112Y172720D02*
Y172974D01*
X173990Y260096D02*
X261112Y172974D01*
X173990Y260096D02*
Y916686D01*
X812673Y168783D02*
X812927D01*
X808736Y172720D02*
X812673Y168783D01*
X820928Y101600D02*
Y160782D01*
X812927Y168783D02*
X820928Y160782D01*
X808736Y172720D02*
Y172974D01*
X773176Y53848D02*
X820928Y101600D01*
X792607Y172847D02*
X792734Y172974D01*
X778383Y172847D02*
X792607D01*
X751840Y172720D02*
X762254D01*
X692194Y169208D02*
X695960Y172974D01*
X692194Y120186D02*
Y169208D01*
X691896Y119888D02*
X692194Y120186D01*
X669036Y172974D02*
X679958D01*
X554101Y168783D02*
X554355D01*
X550164Y172720D02*
X554101Y168783D01*
X562356Y101600D02*
Y160782D01*
X554355Y168783D02*
X562356Y160782D01*
X550164Y172720D02*
Y172974D01*
X514604Y53848D02*
X562356Y101600D01*
X534035Y172847D02*
X534162Y172974D01*
X519811Y172847D02*
X534035D01*
X493268Y172720D02*
X503682D01*
X433622Y169208D02*
X437388Y172974D01*
X433622Y120186D02*
Y169208D01*
X433324Y119888D02*
X433622Y120186D01*
X410464Y172974D02*
X421386D01*
X291592Y172720D02*
Y172974D01*
X295529Y168783D02*
X295783D01*
X303784Y101600D02*
Y160782D01*
X291592Y172720D02*
X295529Y168783D01*
X295783D02*
X303784Y160782D01*
X256032Y53848D02*
X303784Y101600D01*
X174752Y119888D02*
X175050Y120186D01*
Y169208D02*
X178816Y172974D01*
X175050Y120186D02*
Y169208D01*
X1043686Y1634744D02*
X1158147D01*
X1044589Y1631696D02*
X1054862D01*
X1032256Y1623314D02*
X1043686Y1634744D01*
X1032256Y1575957D02*
Y1623314D01*
X1035050Y1622157D02*
X1044589Y1631696D01*
X1035050Y1574800D02*
Y1622157D01*
X931559Y831342D02*
X990092D01*
X1042670Y689356D02*
X1182511D01*
X1039114Y692912D02*
X1042670Y689356D01*
X1039114Y692912D02*
Y782320D01*
X904672Y834136D02*
X991362D01*
X1044843Y692150D02*
X1181354D01*
X1042106Y694888D02*
X1044335Y692658D01*
X956945Y1100455D02*
X990854Y1066546D01*
X1043686Y862076D02*
X1158147D01*
X993648Y912114D02*
Y1068719D01*
X990854Y910957D02*
X1042783Y859028D01*
X1054862D01*
X990854Y910957D02*
Y1066546D01*
X993648Y912114D02*
X1043686Y862076D01*
X1291721Y178685D02*
X1292606Y177800D01*
X1182511Y174244D02*
X1186067Y177800D01*
X1230376D01*
X1044843Y174244D02*
X1182511D01*
X1333246Y102870D02*
X1351788Y84328D01*
Y66802D02*
Y84328D01*
X1312672Y27686D02*
X1351788Y66802D01*
X1106678Y27686D02*
X1312672D01*
X1267206Y99060D02*
Y114300D01*
X1160687Y91948D02*
X1199473D01*
X1200743Y90678D01*
X1258824D02*
X1267206Y99060D01*
X1200743Y90678D02*
X1258824D01*
X1158147Y89408D02*
X1160687Y91948D01*
X1043545Y89408D02*
X1158147D01*
X1181354Y177038D02*
X1194816Y190500D01*
X1204976D01*
X1043686Y177038D02*
X1181354D01*
X1102360Y39624D02*
Y56388D01*
X1090676Y27686D02*
Y27940D01*
X1102360Y39624D01*
X1082294Y39116D02*
Y46990D01*
X1075944Y32766D02*
X1082294Y39116D01*
X1082040Y133604D02*
Y139700D01*
X1077468Y129032D02*
X1082040Y133604D01*
X1101598Y149098D02*
X1102106D01*
X1090676Y138176D02*
X1101598Y149098D01*
X1090676Y120396D02*
Y138176D01*
X1148080Y120396D02*
X1165606Y102870D01*
X1106678Y120396D02*
X1148080D01*
X1165181Y189655D02*
X1165606Y189230D01*
X1109809Y189655D02*
X1165181D01*
X1105916Y193548D02*
X1109809Y189655D01*
X1349502Y205486D02*
Y228346D01*
X1322324Y255524D02*
X1349502Y228346D01*
X1333246Y189230D02*
X1349502Y205486D01*
X1138174Y255524D02*
X1322324D01*
X1106170Y240030D02*
X1122680D01*
X1138174Y255524D01*
X1278890Y87884D02*
X1292606Y101600D01*
X1199586Y87884D02*
X1278890D01*
X1161844Y89154D02*
X1198316D01*
X1199586Y87884D01*
X1159050Y86360D02*
X1161844Y89154D01*
X1054862Y86360D02*
X1159050D01*
X1064514Y69088D02*
Y76708D01*
X1044448Y86360D02*
X1054862D01*
X1064514Y76708D01*
X1081786Y65786D02*
X1082294D01*
X1072553Y56553D02*
X1081786Y65786D01*
X1067981Y56553D02*
X1072553D01*
X1064514Y53086D02*
X1067981Y56553D01*
X1240028Y190500D02*
X1246886Y183642D01*
X1204976Y190500D02*
X1240028D01*
X1246886Y176022D02*
Y183642D01*
X1234186Y163322D02*
X1246886Y176022D01*
X1213866Y153162D02*
X1224026Y163322D01*
X1234186D01*
X1106932Y166370D02*
X1120140Y153162D01*
X1076262Y166370D02*
X1106932D01*
X1120140Y153162D02*
X1213866D01*
X1071690Y161798D02*
X1076262Y166370D01*
X1064260Y161798D02*
X1071690D01*
X1081532Y158496D02*
X1082040D01*
X1072299Y149263D02*
X1081532Y158496D01*
X1067727Y149263D02*
X1072299D01*
X1064260Y145796D02*
X1067727Y149263D01*
X1291721Y436241D02*
X1292606Y435356D01*
X1182511Y431800D02*
X1186067Y435356D01*
X1230376D01*
X1044843Y431800D02*
X1182511D01*
X1333246Y360426D02*
X1351788Y341884D01*
Y324358D02*
Y341884D01*
X1312672Y285242D02*
X1351788Y324358D01*
X1106678Y285242D02*
X1312672D01*
X1267206Y356616D02*
Y371856D01*
X1160687Y349504D02*
X1199473D01*
X1200743Y348234D01*
X1258824D02*
X1267206Y356616D01*
X1200743Y348234D02*
X1258824D01*
X1158147Y346964D02*
X1160687Y349504D01*
X1043545Y346964D02*
X1158147D01*
X1181354Y434594D02*
X1194816Y448056D01*
X1204976D01*
X1043686Y434594D02*
X1181354D01*
X1102360Y297180D02*
Y313944D01*
X1090676Y285242D02*
Y285496D01*
X1102360Y297180D01*
X1082294Y296672D02*
Y304546D01*
X1075944Y290322D02*
X1082294Y296672D01*
X1082040Y391160D02*
Y397256D01*
X1077468Y386588D02*
X1082040Y391160D01*
X1101598Y406654D02*
X1102106D01*
X1090676Y395732D02*
X1101598Y406654D01*
X1090676Y377952D02*
Y395732D01*
X1148080Y377952D02*
X1165606Y360426D01*
X1106678Y377952D02*
X1148080D01*
X1165181Y447211D02*
X1165606Y446786D01*
X1109809Y447211D02*
X1165181D01*
X1105916Y451104D02*
X1109809Y447211D01*
X1349502Y463042D02*
Y485902D01*
X1322324Y513080D02*
X1349502Y485902D01*
X1333246Y446786D02*
X1349502Y463042D01*
X1138174Y513080D02*
X1322324D01*
X1106170Y497586D02*
X1122680D01*
X1138174Y513080D01*
X1278890Y345440D02*
X1292606Y359156D01*
X1199586Y345440D02*
X1278890D01*
X1161844Y346710D02*
X1198316D01*
X1199586Y345440D01*
X1159050Y343916D02*
X1161844Y346710D01*
X1054862Y343916D02*
X1159050D01*
X1064514Y326644D02*
Y334264D01*
X1044448Y343916D02*
X1054862D01*
X1064514Y334264D01*
X1081786Y323342D02*
X1082294D01*
X1072553Y314109D02*
X1081786Y323342D01*
X1067981Y314109D02*
X1072553D01*
X1064514Y310642D02*
X1067981Y314109D01*
X1240028Y448056D02*
X1246886Y441198D01*
X1204976Y448056D02*
X1240028D01*
X1246886Y433578D02*
Y441198D01*
X1234186Y420878D02*
X1246886Y433578D01*
X1213866Y410718D02*
X1224026Y420878D01*
X1234186D01*
X1106932Y423926D02*
X1120140Y410718D01*
X1076262Y423926D02*
X1106932D01*
X1120140Y410718D02*
X1213866D01*
X1071690Y419354D02*
X1076262Y423926D01*
X1064260Y419354D02*
X1071690D01*
X1081532Y416052D02*
X1082040D01*
X1072299Y406819D02*
X1081532Y416052D01*
X1067727Y406819D02*
X1072299D01*
X1064260Y403352D02*
X1067727Y406819D01*
X1291721Y693797D02*
X1292606Y692912D01*
X1182511Y689356D02*
X1186067Y692912D01*
X1230376D01*
X1333246Y617982D02*
X1351788Y599440D01*
Y581914D02*
Y599440D01*
X1312672Y542798D02*
X1351788Y581914D01*
X1106678Y542798D02*
X1312672D01*
X1267206Y614172D02*
Y629412D01*
X1160687Y607060D02*
X1199473D01*
X1200743Y605790D01*
X1258824D02*
X1267206Y614172D01*
X1200743Y605790D02*
X1258824D01*
X1158147Y604520D02*
X1160687Y607060D01*
X1043545Y604520D02*
X1158147D01*
X1181354Y692150D02*
X1194816Y705612D01*
X1204976D01*
X1102360Y554736D02*
Y571500D01*
X1090676Y542798D02*
Y543052D01*
X1102360Y554736D01*
X1082294Y554228D02*
Y562102D01*
X1075944Y547878D02*
X1082294Y554228D01*
X1082040Y648716D02*
Y654812D01*
X1077468Y644144D02*
X1082040Y648716D01*
X1101598Y664210D02*
X1102106D01*
X1090676Y653288D02*
X1101598Y664210D01*
X1090676Y635508D02*
Y653288D01*
X1148080Y635508D02*
X1165606Y617982D01*
X1106678Y635508D02*
X1148080D01*
X1165181Y704767D02*
X1165606Y704342D01*
X1109809Y704767D02*
X1165181D01*
X1105916Y708660D02*
X1109809Y704767D01*
X1349502Y720598D02*
Y743458D01*
X1322324Y770636D02*
X1349502Y743458D01*
X1333246Y704342D02*
X1349502Y720598D01*
X1138174Y770636D02*
X1322324D01*
X1106170Y755142D02*
X1122680D01*
X1138174Y770636D01*
X1278890Y602996D02*
X1292606Y616712D01*
X1199586Y602996D02*
X1278890D01*
X1161844Y604266D02*
X1198316D01*
X1199586Y602996D01*
X1159050Y601472D02*
X1161844Y604266D01*
X1054862Y601472D02*
X1159050D01*
X1064514Y584200D02*
Y591820D01*
X1044448Y601472D02*
X1054862D01*
X1064514Y591820D01*
X1081786Y580898D02*
X1082294D01*
X1072553Y571665D02*
X1081786Y580898D01*
X1067981Y571665D02*
X1072553D01*
X1064514Y568198D02*
X1067981Y571665D01*
X1240028Y705612D02*
X1246886Y698754D01*
X1204976Y705612D02*
X1240028D01*
X1246886Y691134D02*
Y698754D01*
X1234186Y678434D02*
X1246886Y691134D01*
X1213866Y668274D02*
X1224026Y678434D01*
X1234186D01*
X1106932Y681482D02*
X1120140Y668274D01*
X1076262Y681482D02*
X1106932D01*
X1120140Y668274D02*
X1213866D01*
X1071690Y676910D02*
X1076262Y681482D01*
X1064260Y676910D02*
X1071690D01*
X1081532Y673608D02*
X1082040D01*
X1072299Y664375D02*
X1081532Y673608D01*
X1067727Y664375D02*
X1072299D01*
X1064260Y660908D02*
X1067727Y664375D01*
X1291721Y951353D02*
X1292606Y950468D01*
X1182511Y946912D02*
X1186067Y950468D01*
X1230376D01*
X1044843Y946912D02*
X1182511D01*
X1333246Y875538D02*
X1351788Y856996D01*
Y839470D02*
Y856996D01*
X1312672Y800354D02*
X1351788Y839470D01*
X1106678Y800354D02*
X1312672D01*
X1267206Y871728D02*
Y886968D01*
X1160687Y864616D02*
X1199473D01*
X1200743Y863346D01*
X1258824D02*
X1267206Y871728D01*
X1200743Y863346D02*
X1258824D01*
X1158147Y862076D02*
X1160687Y864616D01*
X1181354Y949706D02*
X1194816Y963168D01*
X1204976D01*
X1043686Y949706D02*
X1181354D01*
X1102360Y812292D02*
Y829056D01*
X1090676Y800354D02*
Y800608D01*
X1102360Y812292D01*
X1082294Y811784D02*
Y819658D01*
X1075944Y805434D02*
X1082294Y811784D01*
X1082040Y906272D02*
Y912368D01*
X1077468Y901700D02*
X1082040Y906272D01*
X1101598Y921766D02*
X1102106D01*
X1090676Y910844D02*
X1101598Y921766D01*
X1090676Y893064D02*
Y910844D01*
X1148080Y893064D02*
X1165606Y875538D01*
X1106678Y893064D02*
X1148080D01*
X1165181Y962323D02*
X1165606Y961898D01*
X1109809Y962323D02*
X1165181D01*
X1105916Y966216D02*
X1109809Y962323D01*
X1349502Y978154D02*
Y1001014D01*
X1322324Y1028192D02*
X1349502Y1001014D01*
X1333246Y961898D02*
X1349502Y978154D01*
X1138174Y1028192D02*
X1322324D01*
X1106170Y1012698D02*
X1122680D01*
X1138174Y1028192D01*
X1278890Y860552D02*
X1292606Y874268D01*
X1199586Y860552D02*
X1278890D01*
X1161844Y861822D02*
X1198316D01*
X1199586Y860552D01*
X1159050Y859028D02*
X1161844Y861822D01*
X1054862Y859028D02*
X1159050D01*
X1064514Y841756D02*
Y849376D01*
X1054862Y859028D02*
X1064514Y849376D01*
X1081786Y838454D02*
X1082294D01*
X1072553Y829221D02*
X1081786Y838454D01*
X1067981Y829221D02*
X1072553D01*
X1064514Y825754D02*
X1067981Y829221D01*
X1240028Y963168D02*
X1246886Y956310D01*
X1204976Y963168D02*
X1240028D01*
X1246886Y948690D02*
Y956310D01*
X1234186Y935990D02*
X1246886Y948690D01*
X1213866Y925830D02*
X1224026Y935990D01*
X1234186D01*
X1106932Y939038D02*
X1120140Y925830D01*
X1076262Y939038D02*
X1106932D01*
X1120140Y925830D02*
X1213866D01*
X1071690Y934466D02*
X1076262Y939038D01*
X1064260Y934466D02*
X1071690D01*
X1081532Y931164D02*
X1082040D01*
X1072299Y921931D02*
X1081532Y931164D01*
X1067727Y921931D02*
X1072299D01*
X1064260Y918464D02*
X1067727Y921931D01*
X1291721Y1208909D02*
X1292606Y1208024D01*
X1182511Y1204468D02*
X1186067Y1208024D01*
X1230376D01*
X1044843Y1204468D02*
X1182511D01*
X1333246Y1133094D02*
X1351788Y1114552D01*
Y1097026D02*
Y1114552D01*
X1312672Y1057910D02*
X1351788Y1097026D01*
X1106678Y1057910D02*
X1312672D01*
X1267206Y1129284D02*
Y1144524D01*
X1160687Y1122172D02*
X1199473D01*
X1200743Y1120902D01*
X1258824D02*
X1267206Y1129284D01*
X1200743Y1120902D02*
X1258824D01*
X1158147Y1119632D02*
X1160687Y1122172D01*
X1043545Y1119632D02*
X1158147D01*
X1181354Y1207262D02*
X1194816Y1220724D01*
X1204976D01*
X1043686Y1207262D02*
X1181354D01*
X1102360Y1069848D02*
Y1086612D01*
X1090676Y1057910D02*
Y1058164D01*
X1102360Y1069848D01*
X1082294Y1069340D02*
Y1077214D01*
X1075944Y1062990D02*
X1082294Y1069340D01*
X1082040Y1163828D02*
Y1169924D01*
X1077468Y1159256D02*
X1082040Y1163828D01*
X1101598Y1179322D02*
X1102106D01*
X1090676Y1168400D02*
X1101598Y1179322D01*
X1090676Y1150620D02*
Y1168400D01*
X1148080Y1150620D02*
X1165606Y1133094D01*
X1106678Y1150620D02*
X1148080D01*
X1165181Y1219879D02*
X1165606Y1219454D01*
X1109809Y1219879D02*
X1165181D01*
X1105916Y1223772D02*
X1109809Y1219879D01*
X1349502Y1235710D02*
Y1258570D01*
X1322324Y1285748D02*
X1349502Y1258570D01*
X1333246Y1219454D02*
X1349502Y1235710D01*
X1138174Y1285748D02*
X1322324D01*
X1106170Y1270254D02*
X1122680D01*
X1138174Y1285748D01*
X1278890Y1118108D02*
X1292606Y1131824D01*
X1199586Y1118108D02*
X1278890D01*
X1161844Y1119378D02*
X1198316D01*
X1199586Y1118108D01*
X1159050Y1116584D02*
X1161844Y1119378D01*
X1054862Y1116584D02*
X1159050D01*
X1064514Y1099312D02*
Y1106932D01*
X1044448Y1116584D02*
X1054862D01*
X1064514Y1106932D01*
X1081786Y1096010D02*
X1082294D01*
X1072553Y1086777D02*
X1081786Y1096010D01*
X1067981Y1086777D02*
X1072553D01*
X1064514Y1083310D02*
X1067981Y1086777D01*
X1240028Y1220724D02*
X1246886Y1213866D01*
X1204976Y1220724D02*
X1240028D01*
X1246886Y1206246D02*
Y1213866D01*
X1234186Y1193546D02*
X1246886Y1206246D01*
X1213866Y1183386D02*
X1224026Y1193546D01*
X1234186D01*
X1106932Y1196594D02*
X1120140Y1183386D01*
X1076262Y1196594D02*
X1106932D01*
X1120140Y1183386D02*
X1213866D01*
X1071690Y1192022D02*
X1076262Y1196594D01*
X1064260Y1192022D02*
X1071690D01*
X1081532Y1188720D02*
X1082040D01*
X1072299Y1179487D02*
X1081532Y1188720D01*
X1067727Y1179487D02*
X1072299D01*
X1064260Y1176020D02*
X1067727Y1179487D01*
X1291721Y1466465D02*
X1292606Y1465580D01*
X1182511Y1462024D02*
X1186067Y1465580D01*
X1230376D01*
X1044843Y1462024D02*
X1182511D01*
X1333246Y1390650D02*
X1351788Y1372108D01*
Y1354582D02*
Y1372108D01*
X1312672Y1315466D02*
X1351788Y1354582D01*
X1106678Y1315466D02*
X1312672D01*
X1267206Y1386840D02*
Y1402080D01*
X1160687Y1379728D02*
X1199473D01*
X1200743Y1378458D01*
X1258824D02*
X1267206Y1386840D01*
X1200743Y1378458D02*
X1258824D01*
X1158147Y1377188D02*
X1160687Y1379728D01*
X1043545Y1377188D02*
X1158147D01*
X1181354Y1464818D02*
X1194816Y1478280D01*
X1204976D01*
X1043686Y1464818D02*
X1181354D01*
X1102360Y1327404D02*
Y1344168D01*
X1090676Y1315466D02*
Y1315720D01*
X1102360Y1327404D01*
X1082294Y1326896D02*
Y1334770D01*
X1075944Y1320546D02*
X1082294Y1326896D01*
X1082040Y1421384D02*
Y1427480D01*
X1077468Y1416812D02*
X1082040Y1421384D01*
X1101598Y1436878D02*
X1102106D01*
X1090676Y1425956D02*
X1101598Y1436878D01*
X1090676Y1408176D02*
Y1425956D01*
X1148080Y1408176D02*
X1165606Y1390650D01*
X1106678Y1408176D02*
X1148080D01*
X1165181Y1477435D02*
X1165606Y1477010D01*
X1109809Y1477435D02*
X1165181D01*
X1105916Y1481328D02*
X1109809Y1477435D01*
X1349502Y1493266D02*
Y1516126D01*
X1322324Y1543304D02*
X1349502Y1516126D01*
X1333246Y1477010D02*
X1349502Y1493266D01*
X1138174Y1543304D02*
X1322324D01*
X1106170Y1527810D02*
X1122680D01*
X1138174Y1543304D01*
X1278890Y1375664D02*
X1292606Y1389380D01*
X1199586Y1375664D02*
X1278890D01*
X1161844Y1376934D02*
X1198316D01*
X1199586Y1375664D01*
X1159050Y1374140D02*
X1161844Y1376934D01*
X1054862Y1374140D02*
X1159050D01*
X1064514Y1356868D02*
Y1364488D01*
X1044448Y1374140D02*
X1054862D01*
X1064514Y1364488D01*
X1081786Y1353566D02*
X1082294D01*
X1072553Y1344333D02*
X1081786Y1353566D01*
X1067981Y1344333D02*
X1072553D01*
X1064514Y1340866D02*
X1067981Y1344333D01*
X1240028Y1478280D02*
X1246886Y1471422D01*
X1204976Y1478280D02*
X1240028D01*
X1246886Y1463802D02*
Y1471422D01*
X1234186Y1451102D02*
X1246886Y1463802D01*
X1213866Y1440942D02*
X1224026Y1451102D01*
X1234186D01*
X1106932Y1454150D02*
X1120140Y1440942D01*
X1076262Y1454150D02*
X1106932D01*
X1120140Y1440942D02*
X1213866D01*
X1071690Y1449578D02*
X1076262Y1454150D01*
X1064260Y1449578D02*
X1071690D01*
X1081532Y1446276D02*
X1082040D01*
X1072299Y1437043D02*
X1081532Y1446276D01*
X1067727Y1437043D02*
X1072299D01*
X1064260Y1433576D02*
X1067727Y1437043D01*
X1291721Y1724021D02*
X1292606Y1723136D01*
X1182511Y1719580D02*
X1186067Y1723136D01*
X1230376D01*
X1044843Y1719580D02*
X1182511D01*
X1333246Y1648206D02*
X1351788Y1629664D01*
Y1612138D02*
Y1629664D01*
X1312672Y1573022D02*
X1351788Y1612138D01*
X1106678Y1573022D02*
X1312672D01*
X1267206Y1644396D02*
Y1659636D01*
X1160687Y1637284D02*
X1199473D01*
X1200743Y1636014D01*
X1258824D02*
X1267206Y1644396D01*
X1200743Y1636014D02*
X1258824D01*
X1158147Y1634744D02*
X1160687Y1637284D01*
X1181354Y1722374D02*
X1194816Y1735836D01*
X1204976D01*
X1043686Y1722374D02*
X1181354D01*
X1102360Y1584960D02*
Y1601724D01*
X1090676Y1573022D02*
Y1573276D01*
X1102360Y1584960D01*
X1082294Y1584452D02*
Y1592326D01*
X1075944Y1578102D02*
X1082294Y1584452D01*
X1082040Y1678940D02*
Y1685036D01*
X1077468Y1674368D02*
X1082040Y1678940D01*
X1101598Y1694434D02*
X1102106D01*
X1090676Y1683512D02*
X1101598Y1694434D01*
X1090676Y1665732D02*
Y1683512D01*
X1148080Y1665732D02*
X1165606Y1648206D01*
X1106678Y1665732D02*
X1148080D01*
X1165181Y1734991D02*
X1165606Y1734566D01*
X1109809Y1734991D02*
X1165181D01*
X1105916Y1738884D02*
X1109809Y1734991D01*
X1349502Y1750822D02*
Y1773682D01*
X1322324Y1800860D02*
X1349502Y1773682D01*
X1333246Y1734566D02*
X1349502Y1750822D01*
X1138174Y1800860D02*
X1322324D01*
X1106170Y1785366D02*
X1122680D01*
X1138174Y1800860D01*
X1278890Y1633220D02*
X1292606Y1646936D01*
X1199586Y1633220D02*
X1278890D01*
X1161844Y1634490D02*
X1198316D01*
X1199586Y1633220D01*
X1159050Y1631696D02*
X1161844Y1634490D01*
X1054862Y1631696D02*
X1159050D01*
X1064514Y1614424D02*
Y1622044D01*
X1054862Y1631696D02*
X1064514Y1622044D01*
X1081786Y1611122D02*
X1082294D01*
X1072553Y1601889D02*
X1081786Y1611122D01*
X1067981Y1601889D02*
X1072553D01*
X1064514Y1598422D02*
X1067981Y1601889D01*
X1240028Y1735836D02*
X1246886Y1728978D01*
X1204976Y1735836D02*
X1240028D01*
X1246886Y1721358D02*
Y1728978D01*
X1234186Y1708658D02*
X1246886Y1721358D01*
X1213866Y1698498D02*
X1224026Y1708658D01*
X1234186D01*
X1106932Y1711706D02*
X1120140Y1698498D01*
X1076262Y1711706D02*
X1106932D01*
X1120140Y1698498D02*
X1213866D01*
X1071690Y1707134D02*
X1076262Y1711706D01*
X1064260Y1707134D02*
X1071690D01*
X1081532Y1703832D02*
X1082040D01*
X1072299Y1694599D02*
X1081532Y1703832D01*
X1067727Y1694599D02*
X1072299D01*
X1064260Y1691132D02*
X1067727Y1694599D01*
X1291721Y1981577D02*
X1292606Y1980692D01*
X1182511Y1977136D02*
X1186067Y1980692D01*
X1230376D01*
X1044843Y1977136D02*
X1182511D01*
X1333246Y1905762D02*
X1351788Y1887220D01*
Y1869694D02*
Y1887220D01*
X1312672Y1830578D02*
X1351788Y1869694D01*
X1106678Y1830578D02*
X1312672D01*
X1267206Y1901952D02*
Y1917192D01*
X1160687Y1894840D02*
X1199473D01*
X1200743Y1893570D01*
X1258824D02*
X1267206Y1901952D01*
X1200743Y1893570D02*
X1258824D01*
X1158147Y1892300D02*
X1160687Y1894840D01*
X1043545Y1892300D02*
X1158147D01*
X1181354Y1979930D02*
X1194816Y1993392D01*
X1204976D01*
X1043686Y1979930D02*
X1181354D01*
X1102360Y1842516D02*
Y1859280D01*
X1090676Y1830578D02*
Y1830832D01*
X1102360Y1842516D01*
X1082294Y1842008D02*
Y1849882D01*
X1075944Y1835658D02*
X1082294Y1842008D01*
X1082040Y1936496D02*
Y1942592D01*
X1077468Y1931924D02*
X1082040Y1936496D01*
X1101598Y1951990D02*
X1102106D01*
X1090676Y1941068D02*
X1101598Y1951990D01*
X1090676Y1923288D02*
Y1941068D01*
X1148080Y1923288D02*
X1165606Y1905762D01*
X1106678Y1923288D02*
X1148080D01*
X1165181Y1992547D02*
X1165606Y1992122D01*
X1109809Y1992547D02*
X1165181D01*
X1105916Y1996440D02*
X1109809Y1992547D01*
X1349502Y2008378D02*
Y2031238D01*
X1322324Y2058416D02*
X1349502Y2031238D01*
X1333246Y1992122D02*
X1349502Y2008378D01*
X1138174Y2058416D02*
X1322324D01*
X1106170Y2042922D02*
X1122680D01*
X1138174Y2058416D01*
X1278890Y1890776D02*
X1292606Y1904492D01*
X1199586Y1890776D02*
X1278890D01*
X1161844Y1892046D02*
X1198316D01*
X1199586Y1890776D01*
X1159050Y1889252D02*
X1161844Y1892046D01*
X1054862Y1889252D02*
X1159050D01*
X1064514Y1871980D02*
Y1879600D01*
X1044448Y1889252D02*
X1054862D01*
X1064514Y1879600D01*
X1081786Y1868678D02*
X1082294D01*
X1072553Y1859445D02*
X1081786Y1868678D01*
X1067981Y1859445D02*
X1072553D01*
X1064514Y1855978D02*
X1067981Y1859445D01*
X1240028Y1993392D02*
X1246886Y1986534D01*
X1204976Y1993392D02*
X1240028D01*
X1246886Y1978914D02*
Y1986534D01*
X1234186Y1966214D02*
X1246886Y1978914D01*
X1213866Y1956054D02*
X1224026Y1966214D01*
X1234186D01*
X1106932Y1969262D02*
X1120140Y1956054D01*
X1076262Y1969262D02*
X1106932D01*
X1120140Y1956054D02*
X1213866D01*
X1071690Y1964690D02*
X1076262Y1969262D01*
X1064260Y1964690D02*
X1071690D01*
X1081532Y1961388D02*
X1082040D01*
X1072299Y1952155D02*
X1081532Y1961388D01*
X1067727Y1952155D02*
X1072299D01*
X1064260Y1948688D02*
X1067727Y1952155D01*
X1067981Y2117001D02*
X1072553D01*
X1064514Y2113534D02*
X1067981Y2117001D01*
X1072553D02*
X1081786Y2126234D01*
X1082294D01*
X1044448Y2146808D02*
X1054862D01*
X1064514Y2137156D01*
Y2129536D02*
Y2137156D01*
X1075944Y2093214D02*
X1082294Y2099564D01*
Y2107438D01*
X1067727Y2209711D02*
X1072299D01*
X1081532Y2218944D01*
X1064260Y2206244D02*
X1067727Y2209711D01*
X1081532Y2218944D02*
X1082040D01*
X1106932Y2226818D02*
X1120140Y2213610D01*
X1076262Y2226818D02*
X1106932D01*
X1064260Y2222246D02*
X1071690D01*
X1076262Y2226818D01*
X1120140Y2213610D02*
X1213866D01*
X1077468Y2189480D02*
X1082040Y2194052D01*
Y2200148D01*
X137668Y1253490D02*
Y1268476D01*
Y1253490D02*
X141478Y1249680D01*
X147828Y1214628D02*
X153035Y1209421D01*
X222250Y335788D02*
Y945896D01*
Y335788D02*
X331978Y226060D01*
X332232D01*
X347726D01*
X255524Y619506D02*
Y930656D01*
Y619506D02*
X393065Y481965D01*
X284480Y1122426D02*
Y1146302D01*
Y1122426D02*
X295402Y1111504D01*
Y1101598D02*
Y1111504D01*
X269240Y1119632D02*
Y1155700D01*
X258826Y1109218D02*
X269240Y1119632D01*
X258826Y1102868D02*
Y1109218D01*
X231242Y1104494D02*
Y1120242D01*
X240792Y1110691D01*
X206197Y1138784D02*
Y1145286D01*
X63246Y1078992D02*
X74168Y1068070D01*
Y1026160D02*
Y1068070D01*
X27432Y1025906D02*
Y1074928D01*
X37846Y1085342D01*
X253492Y1637538D02*
X336169Y1720215D01*
X341376Y586232D02*
X499364D01*
X275844Y651764D02*
X341376Y586232D01*
X275844Y651764D02*
Y922782D01*
X499364Y586232D02*
X550418Y637286D01*
X389382Y604774D02*
X431383D01*
X439768Y613160D02*
Y619092D01*
X444754Y624078D01*
X431383Y604774D02*
X439768Y613160D01*
X372872Y621284D02*
X389382Y604774D01*
X530784Y307086D02*
X533070Y309372D01*
X530784Y311658D02*
X533070Y309372D01*
X534924D01*
Y304038D02*
Y309372D01*
X242316Y348488D02*
Y941578D01*
X243078Y942340D01*
X222250Y945896D02*
X230886Y954532D01*
X173990Y916686D02*
X221234Y963930D01*
X257099Y1173683D02*
X284480Y1146302D01*
X256261Y1168679D02*
X269240Y1155700D01*
X234696Y172720D02*
X245110D01*
X163512Y1194371D02*
X176085D01*
X162814Y1193673D02*
X163512Y1194371D01*
X176085D02*
X176784Y1195070D01*
X232664Y1160780D02*
X234823Y1162939D01*
X243865D02*
X244602Y1163676D01*
X234823Y1162939D02*
X243865D01*
X244602Y1168679D02*
X256261D01*
X232664Y1157224D02*
Y1160780D01*
X224790Y1165098D02*
X232664Y1157224D01*
X216941Y1146023D02*
Y1153304D01*
X216205Y1145286D02*
X216941Y1146023D01*
Y1153304D02*
X217678Y1154041D01*
Y1154041D01*
X220861Y1157224D01*
X232664D01*
X395986Y1115568D02*
X485140D01*
X298958Y1018540D02*
X395986Y1115568D01*
X329438Y864870D02*
Y918718D01*
Y864870D02*
X349250Y845058D01*
X336169Y777113D02*
X340106Y773176D01*
X336169Y777113D02*
Y777367D01*
X323120Y790416D02*
X336169Y777367D01*
X340106Y773176D02*
X340360D01*
X323120Y790416D02*
Y909098D01*
X108966Y1112774D02*
Y1188212D01*
X293116Y669036D02*
Y916686D01*
X308864Y751332D02*
Y912876D01*
X96774Y1101852D02*
X275844Y922782D01*
X102108Y1107694D02*
X293116Y916686D01*
X96774Y1101852D02*
Y1189736D01*
X349250Y845058D02*
X486410D01*
X108966Y1112774D02*
X308864Y912876D01*
X340360Y909066D02*
Y920750D01*
X102108Y1107694D02*
Y1188720D01*
X228881Y1188669D02*
X244602D01*
X224790Y1184578D02*
X228881Y1188669D01*
X126873Y1259967D02*
X131318Y1255522D01*
Y1239520D02*
X141478Y1229360D01*
X131318Y1239520D02*
Y1255522D01*
X122682Y1264158D02*
X122936D01*
X107188D02*
X122682D01*
X122936D02*
X126873Y1260221D01*
Y1259967D02*
Y1260221D01*
X134620Y1246378D02*
Y1267206D01*
Y1246378D02*
X141478Y1239520D01*
X122936Y1278890D02*
X134620Y1267206D01*
X122682Y1278890D02*
X122936D01*
X92329Y1218946D02*
X98679Y1225296D01*
X59690Y1218946D02*
X92329D01*
X52324Y1211580D02*
X59690Y1218946D01*
X37846Y1180592D02*
X52324Y1195070D01*
Y1211580D01*
X48133Y1200023D02*
Y1210253D01*
X37846Y1220540D02*
X48133Y1210253D01*
X37846Y1220540D02*
Y1231392D01*
X41529Y1193419D02*
X48133Y1200023D01*
X27559Y1193419D02*
X41529D01*
X22606Y1188466D02*
X27559Y1193419D01*
X22606Y1149350D02*
X30226Y1141730D01*
X22606Y1149350D02*
Y1188466D01*
X30226Y1141730D02*
X75692D01*
X79756Y1145794D01*
Y1192530D01*
X104648Y1217422D01*
X122682D01*
X98679Y1225296D02*
X135382D01*
X141478Y1219200D01*
X89154Y1246124D02*
X107188Y1264158D01*
X38030Y1246124D02*
X89154D01*
X27559Y1235653D02*
X38030Y1246124D01*
X37846Y1155192D02*
Y1180592D01*
X27559Y1216279D02*
Y1235653D01*
Y1216279D02*
X37846Y1205992D01*
X96266Y1278890D02*
X122682D01*
X87376Y1270000D02*
X96266Y1278890D01*
X48698Y1282192D02*
X60890Y1270000D01*
X87376D01*
X37846Y1282192D02*
X48698D01*
X24638Y1270000D02*
Y1283532D01*
Y1270000D02*
X37846Y1256792D01*
X162077Y1209421D02*
X162814Y1208684D01*
X153035Y1209421D02*
X162077D01*
X63246Y1078992D02*
Y1129792D01*
X37846Y1085342D02*
Y1129792D01*
X146050Y1200404D02*
X152527Y1193927D01*
X146812Y1205738D02*
X153137Y1199413D01*
X108966Y1188212D02*
X121158Y1200404D01*
X146050D01*
X119126Y1205738D02*
X146812D01*
X102108Y1188720D02*
X119126Y1205738D01*
X96774Y1189736D02*
X117602Y1210564D01*
X733298Y571754D02*
X748792Y556260D01*
Y441960D02*
Y556260D01*
X808228Y317500D02*
Y441452D01*
X224790Y1165098D02*
Y1184578D01*
X863549Y1143635D02*
X884504Y1122680D01*
X965708D01*
X886790Y1119886D02*
X964551D01*
X863549Y1096645D02*
X886790Y1119886D01*
X964551D02*
X1020826Y1063611D01*
X965708Y1122680D02*
X1023620Y1064768D01*
X894105Y1132586D02*
X994523D01*
X883056Y1143635D02*
X894105Y1132586D01*
X883056Y1143635D02*
Y1149604D01*
X863549Y1143635D02*
Y1149604D01*
X862787Y725551D02*
X883742Y704596D01*
X734822Y355092D02*
Y365252D01*
X735076Y365506D01*
X852932Y352552D02*
Y362966D01*
X795020Y353568D02*
Y363728D01*
X794766Y363982D02*
X795020Y363728D01*
X853440Y441706D02*
X868172D01*
X793750D02*
X794004Y441452D01*
X808228D01*
X735330Y441960D02*
X748792D01*
X734822Y442468D02*
X735330Y441960D01*
X618750Y1876050D02*
X630652D01*
X617982Y1875282D02*
X618750Y1876050D01*
X611378Y1869440D02*
X611632D01*
X617474Y1875282D01*
X617982D01*
X611378Y1854962D02*
Y1869440D01*
X1016000Y86360D02*
X1069848D01*
X913638Y188722D02*
X1016000Y86360D01*
X916432Y189879D02*
Y674207D01*
Y189879D02*
X1016903Y89408D01*
X1158147D01*
X913638Y188722D02*
Y673050D01*
X883742Y704596D02*
X901333D01*
X886028Y701802D02*
X900176D01*
X862787Y678561D02*
X886028Y701802D01*
X901333Y704596D02*
X942340Y663589D01*
X900176Y701802D02*
X939546Y662432D01*
X939546Y228600D02*
Y662432D01*
X939546D02*
X939546D01*
X892607Y682371D02*
X904317D01*
X913638Y673050D01*
X882396Y685165D02*
X905474D01*
X916432Y674207D01*
X888797Y678561D02*
X892607Y682371D01*
X898677Y709168D02*
X933563D01*
X882294Y725551D02*
X898677Y709168D01*
X908888Y711962D02*
X934720D01*
X895299Y725551D02*
X908888Y711962D01*
X899211Y800227D02*
X916559D01*
X881304Y814832D02*
X955802D01*
X881126Y1654937D02*
X890651Y1645412D01*
X900646Y1648422D02*
X906996D01*
X894131Y1654937D02*
X900646Y1648422D01*
X890651Y1645412D02*
X908050D01*
X906996Y1648422D02*
X950722Y1692148D01*
X880034Y1626362D02*
X928116D01*
X893902Y1629156D02*
X926959D01*
X897941Y1611757D02*
X937133D01*
X894029Y1537081D02*
Y1543050D01*
Y1537081D02*
X902284Y1528826D01*
X909828D01*
X892073Y1526032D02*
X911352D01*
X882472Y1516126D02*
X922133D01*
X884758Y1513332D02*
X923290D01*
X881507Y1497076D02*
X953375D01*
X874522Y1490091D02*
X881507Y1497076D01*
X891337Y1493901D02*
X954151D01*
X895401Y843407D02*
X904672Y834136D01*
X895401Y843407D02*
Y849376D01*
X882396Y843407D02*
X894461Y831342D01*
X882396Y843407D02*
Y849376D01*
X894461Y831342D02*
X931559D01*
X869391Y843407D02*
Y849376D01*
X895172Y817626D02*
X945134D01*
X869391Y843407D02*
X895172Y817626D01*
X895401Y796417D02*
X899211Y800227D01*
X895401Y790448D02*
Y796417D01*
X882498Y803021D02*
X918083D01*
X875894Y796417D02*
X882498Y803021D01*
X875894Y790448D02*
Y796417D01*
X862889D02*
X881304Y814832D01*
X862889Y790448D02*
Y796417D01*
X862787Y672592D02*
Y678561D01*
X875792D02*
X882396Y685165D01*
X875792Y672592D02*
Y678561D01*
X888797Y672592D02*
Y678561D01*
X862787Y725551D02*
Y731520D01*
X882294Y725551D02*
Y731520D01*
X895299Y725551D02*
Y731520D01*
X869188Y790245D02*
X869391Y790448D01*
X869188Y779272D02*
Y790245D01*
X847039Y783133D02*
X855218Y774954D01*
X837387Y783133D02*
X847039D01*
X836371Y783971D02*
X842754Y777588D01*
X836371Y783971D02*
Y789940D01*
X845472Y777588D02*
X846328Y776732D01*
X842754Y777588D02*
X845472D01*
X864870Y774954D02*
X869188Y779272D01*
X855218Y774954D02*
X864870D01*
X828802Y764540D02*
X834595Y770333D01*
X753364Y764540D02*
X828802D01*
X868274Y671576D02*
X869290Y672592D01*
X858012Y654050D02*
X868274Y664312D01*
Y671576D01*
X797357Y681431D02*
Y731012D01*
X824738Y654050D02*
X858012D01*
X797357Y681431D02*
X824738Y654050D01*
X883412Y758952D02*
X886714Y755650D01*
Y745490D02*
Y755650D01*
X847090Y758952D02*
X883412D01*
X873277Y741299D02*
X882523D01*
X886714Y745490D01*
X871982Y740005D02*
X873277Y741299D01*
X871982Y739398D02*
Y740005D01*
X840181Y733668D02*
Y752043D01*
X847090Y758952D01*
X870306Y738505D02*
X871089D01*
X871982Y739398D01*
X869290Y737489D02*
X870306Y738505D01*
X869290Y731520D02*
Y737489D01*
X843026Y720656D02*
X845439Y718243D01*
Y691711D02*
Y718243D01*
X843846Y690118D02*
X845439Y691711D01*
X825500Y690118D02*
X843846D01*
X840181Y733668D02*
X843026Y730823D01*
Y720656D02*
Y730823D01*
X821484Y693858D02*
Y694134D01*
X825176Y690166D02*
X825452D01*
X825500Y690118D01*
X821484Y693858D02*
X825176Y690166D01*
X801624Y742987D02*
Y743712D01*
Y742987D02*
X803859Y740752D01*
Y731012D02*
Y740752D01*
Y711759D02*
Y731012D01*
X753364Y747522D02*
X781050D01*
X803859Y711759D02*
X821484Y694134D01*
X881278Y671576D02*
X882294Y672592D01*
X810362Y731012D02*
Y743887D01*
X881278Y664108D02*
Y671576D01*
X865632Y648462D02*
X881278Y664108D01*
X821436Y648462D02*
X865632D01*
X797490Y750014D02*
X804234D01*
X810362Y743887D01*
X788416Y740940D02*
X797490Y750014D01*
X788416Y681482D02*
X821436Y648462D01*
X788416Y681482D02*
Y740940D01*
X816864Y731012D02*
Y741336D01*
X805392Y752808D02*
X816864Y741336D01*
X895299Y672592D02*
X895858Y672033D01*
X795734Y752808D02*
X805392D01*
X781812Y738886D02*
X795734Y752808D01*
X781812Y679450D02*
Y731266D01*
X894283Y670458D02*
X895858Y672033D01*
X872490Y642874D02*
X894283Y664667D01*
Y670458D01*
X781812Y679450D02*
X818388Y642874D01*
X872490D01*
X753364Y738886D02*
X774192D01*
X781812Y731266D01*
X774192Y738886D02*
X781812D01*
X839978Y765048D02*
X890524D01*
X901802Y753770D01*
X823832Y743683D02*
Y748903D01*
X901802Y731520D02*
Y753770D01*
X823832Y748903D02*
X839978Y765048D01*
X823366Y743217D02*
X823832Y743683D01*
X823366Y731012D02*
Y743217D01*
X890524Y739216D02*
Y757682D01*
X885952Y762254D02*
X890524Y757682D01*
X888797Y731520D02*
Y737489D01*
X890524Y739216D01*
X843788Y762254D02*
X885952D01*
X829869Y748335D02*
X843788Y762254D01*
X829869Y731012D02*
Y748335D01*
Y721157D02*
Y731012D01*
X824230Y715518D02*
X829869Y721157D01*
X823468Y715518D02*
X824230D01*
X822452Y714502D02*
X823468Y715518D01*
X810954Y756158D02*
X817531Y749582D01*
X753364Y756158D02*
X810954D01*
X867893Y863346D02*
X875894Y855345D01*
X854202Y863346D02*
X867893D01*
X875894Y849376D02*
Y855345D01*
X803859Y813003D02*
X854202Y863346D01*
X803859Y789940D02*
Y813003D01*
X874039Y870204D02*
X888898Y855345D01*
X849630Y870204D02*
X874039D01*
X888898Y849376D02*
Y855345D01*
X789432Y810006D02*
X849630Y870204D01*
X810362Y783971D02*
Y789940D01*
X805155Y778764D02*
X810362Y783971D01*
X792480Y778764D02*
X805155D01*
X789432Y781812D02*
X792480Y778764D01*
X789432Y781812D02*
Y810006D01*
X753364Y781812D02*
X789432D01*
X862889Y836473D02*
Y849376D01*
X859028Y832612D02*
X862889Y836473D01*
X849503Y832612D02*
X859028D01*
X816864Y799973D02*
X849503Y832612D01*
X816864Y789940D02*
Y799973D01*
X853084Y799719D02*
X856386Y796417D01*
X827176Y799719D02*
X853084D01*
X856386Y790448D02*
Y796417D01*
X823366Y795909D02*
X827176Y799719D01*
X823366Y789940D02*
Y795909D01*
X812063Y772668D02*
X823366Y783971D01*
Y789940D01*
X753364Y772668D02*
X812063D01*
X888898Y790448D02*
X889000Y790346D01*
X883920Y770382D02*
X889000Y775462D01*
Y790346D01*
X829869Y783971D02*
Y789940D01*
X843458Y770382D02*
X883920D01*
X829869Y783971D02*
X843458Y770382D01*
X894131Y1654937D02*
Y1660906D01*
X881126Y1654937D02*
Y1660906D01*
X868121Y1654937D02*
Y1660906D01*
Y1654937D02*
X893902Y1629156D01*
X894131Y1607947D02*
X897941Y1611757D01*
X894131Y1601978D02*
Y1607947D01*
X881228Y1614551D02*
X935976D01*
X874624Y1607947D02*
X881228Y1614551D01*
X874624Y1601978D02*
Y1607947D01*
X861619D02*
X880034Y1626362D01*
X861619Y1601978D02*
Y1607947D01*
X861517Y1490091D02*
X884758Y1513332D01*
X861517Y1484122D02*
Y1490091D01*
X874522Y1484122D02*
Y1490091D01*
X887527D02*
X891337Y1493901D01*
X887527Y1484122D02*
Y1490091D01*
X861517Y1537081D02*
Y1543050D01*
Y1537081D02*
X882472Y1516126D01*
X881024Y1537081D02*
X892073Y1526032D01*
X881024Y1537081D02*
Y1543050D01*
X867918Y1601775D02*
X868121Y1601978D01*
X867918Y1590802D02*
Y1601775D01*
X845769Y1594663D02*
X853948Y1586484D01*
X836117Y1594663D02*
X845769D01*
X835101Y1595501D02*
X841484Y1589118D01*
X835101Y1595501D02*
Y1601470D01*
X844202Y1589118D02*
X845058Y1588262D01*
X841484Y1589118D02*
X844202D01*
X863600Y1586484D02*
X867918Y1590802D01*
X853948Y1586484D02*
X863600D01*
X827532Y1576070D02*
X833325Y1581863D01*
X752094Y1576070D02*
X827532D01*
X867004Y1483106D02*
X868020Y1484122D01*
X856742Y1465580D02*
X867004Y1475842D01*
Y1483106D01*
X796087Y1492961D02*
Y1542542D01*
X823468Y1465580D02*
X856742D01*
X796087Y1492961D02*
X823468Y1465580D01*
X882142Y1570482D02*
X885444Y1567180D01*
Y1557020D02*
Y1567180D01*
X845820Y1570482D02*
X882142D01*
X872007Y1552829D02*
X881253D01*
X885444Y1557020D01*
X870712Y1551534D02*
X872007Y1552829D01*
X870712Y1550928D02*
Y1551534D01*
X838911Y1545198D02*
Y1563573D01*
X845820Y1570482D01*
X869036Y1550035D02*
X869819D01*
X870712Y1550928D01*
X868020Y1549019D02*
X869036Y1550035D01*
X868020Y1543050D02*
Y1549019D01*
X841756Y1532186D02*
X844169Y1529773D01*
Y1503241D02*
Y1529773D01*
X842576Y1501648D02*
X844169Y1503241D01*
X824230Y1501648D02*
X842576D01*
X838911Y1545198D02*
X841756Y1542353D01*
Y1532186D02*
Y1542353D01*
X820214Y1505388D02*
Y1505664D01*
X823906Y1501696D02*
X824182D01*
X824230Y1501648D01*
X820214Y1505388D02*
X823906Y1501696D01*
X800354Y1554517D02*
Y1555242D01*
Y1554517D02*
X802589Y1552282D01*
Y1542542D02*
Y1552282D01*
Y1523289D02*
Y1542542D01*
X752094Y1559052D02*
X779780D01*
X802589Y1523289D02*
X820214Y1505664D01*
X880008Y1483106D02*
X881024Y1484122D01*
X809092Y1542542D02*
Y1555417D01*
X880008Y1475638D02*
Y1483106D01*
X864362Y1459992D02*
X880008Y1475638D01*
X820166Y1459992D02*
X864362D01*
X796220Y1561544D02*
X802964D01*
X809092Y1555417D01*
X787146Y1552470D02*
X796220Y1561544D01*
X787146Y1493012D02*
X820166Y1459992D01*
X787146Y1493012D02*
Y1552470D01*
X815594Y1542542D02*
Y1552866D01*
X804122Y1564338D02*
X815594Y1552866D01*
X894029Y1484122D02*
X894588Y1483563D01*
X794464Y1564338D02*
X804122D01*
X780542Y1550416D02*
X794464Y1564338D01*
X780542Y1490980D02*
Y1542796D01*
X893013Y1481988D02*
X894588Y1483563D01*
X871220Y1454404D02*
X893013Y1476197D01*
Y1481988D01*
X780542Y1490980D02*
X817118Y1454404D01*
X871220D01*
X752094Y1550416D02*
X772922D01*
X780542Y1542796D01*
X772922Y1550416D02*
X780542D01*
X838708Y1576578D02*
X889254D01*
X900532Y1565300D01*
X822562Y1555213D02*
Y1560432D01*
X900532Y1543050D02*
Y1565300D01*
X822562Y1560432D02*
X838708Y1576578D01*
X822096Y1554747D02*
X822562Y1555213D01*
X822096Y1542542D02*
Y1554747D01*
X889254Y1550746D02*
Y1569212D01*
X884682Y1573784D02*
X889254Y1569212D01*
X887527Y1543050D02*
Y1549019D01*
X889254Y1550746D01*
X842518Y1573784D02*
X884682D01*
X828599Y1559865D02*
X842518Y1573784D01*
X828599Y1542542D02*
Y1559865D01*
Y1532687D02*
Y1542542D01*
X822960Y1527048D02*
X828599Y1532687D01*
X822198Y1527048D02*
X822960D01*
X821182Y1526032D02*
X822198Y1527048D01*
X809684Y1567688D02*
X816261Y1561111D01*
X752094Y1567688D02*
X809684D01*
X866623Y1674876D02*
X874624Y1666875D01*
X852932Y1674876D02*
X866623D01*
X874624Y1660906D02*
Y1666875D01*
X802589Y1624533D02*
X852932Y1674876D01*
X802589Y1601470D02*
Y1624533D01*
X872769Y1681734D02*
X887628Y1666875D01*
X848360Y1681734D02*
X872769D01*
X887628Y1660906D02*
Y1666875D01*
X788162Y1621536D02*
X848360Y1681734D01*
X809092Y1595501D02*
Y1601470D01*
X803885Y1590294D02*
X809092Y1595501D01*
X791210Y1590294D02*
X803885D01*
X788162Y1593342D02*
X791210Y1590294D01*
X788162Y1593342D02*
Y1621536D01*
X752094Y1593342D02*
X788162D01*
X861619Y1648003D02*
Y1660906D01*
X857758Y1644142D02*
X861619Y1648003D01*
X848233Y1644142D02*
X857758D01*
X815594Y1611503D02*
X848233Y1644142D01*
X815594Y1601470D02*
Y1611503D01*
X851814Y1611249D02*
X855116Y1607947D01*
X825906Y1611249D02*
X851814D01*
X855116Y1601978D02*
Y1607947D01*
X822096Y1607439D02*
X825906Y1611249D01*
X822096Y1601470D02*
Y1607439D01*
X810793Y1584198D02*
X822096Y1595501D01*
Y1601470D01*
X752094Y1584198D02*
X810793D01*
X887628Y1601978D02*
X887730Y1601876D01*
X882650Y1581912D02*
X887730Y1586992D01*
Y1601876D01*
X828599Y1595501D02*
Y1601470D01*
X842188Y1581912D02*
X882650D01*
X828599Y1595501D02*
X842188Y1581912D01*
X638429Y1909204D02*
X640207Y1907426D01*
X442633Y400901D02*
X449237Y394297D01*
X151892Y172974D02*
X162814D01*
X893369Y1100455D02*
X956945D01*
X863549Y1090676D02*
Y1096645D01*
X1020826Y968248D02*
Y1063611D01*
X1023620Y969405D02*
Y1064768D01*
X1020826Y968248D02*
X1042162Y946912D01*
X1182511D01*
X1023620Y969405D02*
X1043319Y949706D01*
X889559Y1096645D02*
X893369Y1100455D01*
X899973Y1218311D02*
X995412D01*
X995539Y1218438D01*
X896163Y1208532D02*
Y1214501D01*
X899973Y1218311D01*
X895223Y1249426D02*
X932321D01*
X931164Y1252220D02*
X973328Y1294384D01*
X905434Y1252220D02*
X931164D01*
X973328Y1294384D02*
Y1444385D01*
X896163Y1261491D02*
X905434Y1252220D01*
X895934Y1235710D02*
X945896D01*
X882066Y1232916D02*
X947053D01*
X896061Y1143635D02*
Y1149604D01*
Y1143635D02*
X904316Y1135380D01*
X896163Y1261491D02*
Y1267460D01*
X883158Y1261491D02*
X895223Y1249426D01*
X883158Y1261491D02*
Y1267460D01*
X870153Y1261491D02*
X895934Y1235710D01*
X870153Y1261491D02*
Y1267460D01*
X883260Y1221105D02*
X918845D01*
X876656Y1214501D02*
X883260Y1221105D01*
X876656Y1208532D02*
Y1214501D01*
X863651D02*
X882066Y1232916D01*
X863651Y1208532D02*
Y1214501D01*
X876554Y1096645D02*
X883158Y1103249D01*
X876554Y1090676D02*
Y1096645D01*
X889559Y1090676D02*
Y1096645D01*
X869950Y1208329D02*
X870153Y1208532D01*
X869950Y1197356D02*
Y1208329D01*
X846234Y1195672D02*
X847090Y1194816D01*
X838149Y1201217D02*
X847801D01*
X837133Y1202055D02*
Y1208024D01*
X843516Y1195672D02*
X846234D01*
X837133Y1202055D02*
X843516Y1195672D01*
X847801Y1201217D02*
X855980Y1193038D01*
X865632D02*
X869950Y1197356D01*
X855980Y1193038D02*
X865632D01*
X829564Y1182624D02*
X835357Y1188417D01*
X754126Y1182624D02*
X829564D01*
X869036Y1089660D02*
X870052Y1090676D01*
X858774Y1072134D02*
X869036Y1082396D01*
Y1089660D01*
X798119Y1099515D02*
Y1149096D01*
X825500Y1072134D02*
X858774D01*
X798119Y1099515D02*
X825500Y1072134D01*
X884174Y1177036D02*
X887476Y1173734D01*
Y1163574D02*
Y1173734D01*
X847852Y1177036D02*
X884174D01*
X874038Y1159383D02*
X883285D01*
X887476Y1163574D01*
X872744Y1158089D02*
X874038Y1159383D01*
X872744Y1157482D02*
Y1158089D01*
X840943Y1151752D02*
Y1170127D01*
X847852Y1177036D01*
X871068Y1156589D02*
X871851D01*
X872744Y1157482D01*
X870052Y1155573D02*
X871068Y1156589D01*
X870052Y1149604D02*
Y1155573D01*
X843788Y1138740D02*
X846201Y1136327D01*
Y1109795D02*
Y1136327D01*
X844608Y1108202D02*
X846201Y1109795D01*
X826262Y1108202D02*
X844608D01*
X840943Y1151752D02*
X843788Y1148907D01*
Y1138740D02*
Y1148907D01*
X822246Y1111942D02*
Y1112218D01*
X825938Y1108250D02*
X826214D01*
X826262Y1108202D01*
X822246Y1111942D02*
X825938Y1108250D01*
X802386Y1161071D02*
X804621Y1158836D01*
Y1149096D02*
Y1158836D01*
Y1129843D02*
Y1149096D01*
Y1129843D02*
X822246Y1112218D01*
X754126Y1165606D02*
X781812D01*
X802386Y1161071D02*
Y1161796D01*
X882040Y1089660D02*
X883056Y1090676D01*
X811124Y1149096D02*
Y1161971D01*
X882040Y1082192D02*
Y1089660D01*
X866394Y1066546D02*
X882040Y1082192D01*
X822198Y1066546D02*
X866394D01*
X798252Y1168098D02*
X804996D01*
X811124Y1161971D01*
X789178Y1159024D02*
X798252Y1168098D01*
X789178Y1099566D02*
X822198Y1066546D01*
X789178Y1099566D02*
Y1159024D01*
X817626Y1149096D02*
Y1159420D01*
X806154Y1170892D02*
X817626Y1159420D01*
X896061Y1090676D02*
X896620Y1090117D01*
X796496Y1170892D02*
X806154D01*
X782574Y1156970D02*
X796496Y1170892D01*
X782574Y1097534D02*
Y1149350D01*
X895045Y1088542D02*
X896620Y1090117D01*
X873252Y1060958D02*
X895045Y1082751D01*
Y1088542D01*
X782574Y1097534D02*
X819150Y1060958D01*
X873252D01*
X754126Y1156970D02*
X774954D01*
X782574Y1149350D01*
X774954Y1156970D02*
X782574D01*
X840740Y1183132D02*
X891286D01*
X902564Y1171854D01*
X824594Y1166986D02*
X840740Y1183132D01*
X902564Y1149604D02*
Y1171854D01*
X824128Y1161301D02*
X824594Y1161767D01*
Y1166986D01*
X824128Y1149096D02*
Y1161301D01*
X891286Y1157300D02*
Y1175766D01*
X886714Y1180338D02*
X891286Y1175766D01*
X889559Y1149604D02*
Y1155573D01*
X891286Y1157300D01*
X844550Y1180338D02*
X886714D01*
X830631Y1166419D02*
X844550Y1180338D01*
X830631Y1149096D02*
Y1166419D01*
Y1139241D02*
Y1149096D01*
X824992Y1133602D02*
X830631Y1139241D01*
X824230Y1133602D02*
X824992D01*
X823214Y1132586D02*
X824230Y1133602D01*
X754126Y1174242D02*
X811716D01*
X818292Y1167665D01*
X868655Y1281430D02*
X876656Y1273429D01*
X854964Y1281430D02*
X868655D01*
X876656Y1267460D02*
Y1273429D01*
X804621Y1231087D02*
X854964Y1281430D01*
X804621Y1208024D02*
Y1231087D01*
X874801Y1288288D02*
X889660Y1273429D01*
X850392Y1288288D02*
X874801D01*
X889660Y1267460D02*
Y1273429D01*
X790194Y1228090D02*
X850392Y1288288D01*
X811124Y1202055D02*
Y1208024D01*
X805917Y1196848D02*
X811124Y1202055D01*
X793242Y1196848D02*
X805917D01*
X790194Y1199896D02*
X793242Y1196848D01*
X790194Y1199896D02*
Y1228090D01*
X754126Y1199896D02*
X790194D01*
X863651Y1254557D02*
Y1267460D01*
X859790Y1250696D02*
X863651Y1254557D01*
X850265Y1250696D02*
X859790D01*
X817626Y1218057D02*
X850265Y1250696D01*
X817626Y1208024D02*
Y1218057D01*
X853846Y1217803D02*
X857148Y1214501D01*
X827938Y1217803D02*
X853846D01*
X857148Y1208532D02*
Y1214501D01*
X824128Y1213993D02*
X827938Y1217803D01*
X824128Y1208024D02*
Y1213993D01*
X812825Y1190752D02*
X824128Y1202055D01*
Y1208024D01*
X754126Y1190752D02*
X812825D01*
X889660Y1208532D02*
X889762Y1208430D01*
X884682Y1188466D02*
X889762Y1193546D01*
Y1208430D01*
X830631Y1202055D02*
Y1208024D01*
X844220Y1188466D02*
X884682D01*
X830631Y1202055D02*
X844220Y1188466D01*
X1043686Y2237486D02*
X1181354D01*
X1044843Y2234692D02*
X1182511D01*
X1043545Y2149856D02*
X1158147D01*
X1022604Y1612646D02*
Y1697341D01*
X1044843Y1719580D01*
X1181354Y2237486D02*
X1194816Y2250948D01*
X1204976D01*
X1267206Y2159508D02*
Y2174748D01*
X1160687Y2152396D02*
X1199473D01*
X1200743Y2151126D01*
X1258824D02*
X1267206Y2159508D01*
X1200743Y2151126D02*
X1258824D01*
X1158147Y2149856D02*
X1160687Y2152396D01*
X1186067Y2238248D02*
X1230376D01*
X1182511Y2234692D02*
X1186067Y2238248D01*
X1291721Y2239133D02*
X1292606Y2238248D01*
X1278890Y2148332D02*
X1292606Y2162048D01*
X1199586Y2148332D02*
X1278890D01*
X1161844Y2149602D02*
X1198316D01*
X1199586Y2148332D01*
X1159050Y2146808D02*
X1161844Y2149602D01*
X1054862Y2146808D02*
X1159050D01*
X1240028Y2250948D02*
X1246886Y2244090D01*
X1204976Y2250948D02*
X1240028D01*
X1246886Y2236470D02*
Y2244090D01*
X1234186Y2223770D02*
X1246886Y2236470D01*
X1213866Y2213610D02*
X1224026Y2223770D01*
X1234186D01*
X1333246Y2163318D02*
X1351788Y2144776D01*
Y2127250D02*
Y2144776D01*
X1312672Y2088134D02*
X1351788Y2127250D01*
X1106678Y2088134D02*
X1312672D01*
X1102360Y2100072D02*
Y2116836D01*
X1090676Y2088388D02*
X1102360Y2100072D01*
X1090676Y2088134D02*
Y2088388D01*
X1148080Y2180844D02*
X1165606Y2163318D01*
X1106678Y2180844D02*
X1148080D01*
X1101598Y2209546D02*
X1102106D01*
X1090676Y2198624D02*
X1101598Y2209546D01*
X1090676Y2180844D02*
Y2198624D01*
X1165181Y2250103D02*
X1165606Y2249678D01*
X1109809Y2250103D02*
X1165181D01*
X1105916Y2253996D02*
X1109809Y2250103D01*
X1349502Y2265934D02*
Y2288794D01*
X1322324Y2315972D02*
X1349502Y2288794D01*
X1333246Y2249678D02*
X1349502Y2265934D01*
X1138174Y2315972D02*
X1322324D01*
X1106170Y2300478D02*
X1122680D01*
X1138174Y2315972D01*
X152527Y1185799D02*
Y1193927D01*
X153137Y1199413D02*
X162077D01*
X162814Y1198677D01*
X154087Y1204417D02*
X162077D01*
X162814Y1203681D01*
X147941Y1210564D02*
X154087Y1204417D01*
X117602Y1210564D02*
X147941D01*
X485140Y1115568D02*
X550418Y1180846D01*
X852932Y378968D02*
X853186Y379222D01*
Y425450D02*
X853440Y425704D01*
X853186Y379222D02*
Y425450D01*
X794258Y380492D02*
Y425196D01*
X793750Y425704D02*
X794258Y425196D01*
Y380492D02*
X794766Y379984D01*
X734949Y381635D02*
Y426339D01*
Y381635D02*
X735076Y381508D01*
X734822Y426466D02*
X734949Y426339D01*
X633844Y1909204D02*
X638429D01*
X626872Y1915922D02*
X627126D01*
X633844Y1909204D01*
X636664Y1885538D02*
Y1890382D01*
Y1885538D02*
X637152Y1885050D01*
X626872Y1899920D02*
X627126D01*
X636664Y1890382D01*
X611632Y1899920D02*
X626502Y1885050D01*
X632152D01*
X611378Y1899920D02*
X611632D01*
X275463Y172847D02*
X275590Y172974D01*
X430030Y357632D02*
X436132Y363734D01*
X438882D01*
X419608Y357632D02*
X430030D01*
X434848Y404368D02*
X438315Y400901D01*
X442633D01*
X444948Y373168D02*
X445382Y372734D01*
X434848Y388366D02*
X435102D01*
X444948Y378520D01*
Y373168D02*
Y378520D01*
X435494Y372734D02*
X440382D01*
X419608Y388366D02*
X419862D01*
X435494Y372734D01*
X419608Y343154D02*
Y357632D01*
Y327152D02*
X429044D01*
X433514Y322682D01*
X450330D01*
X462882Y335234D01*
X244602Y1173683D02*
X257099D01*
X261239Y172847D02*
X275463D01*
X162814Y1188669D02*
X173787D01*
X550418Y637286D02*
X550672D01*
X324866D02*
X340360D01*
X293116Y669036D02*
X324866Y637286D01*
X308864Y751332D02*
X348996Y711200D01*
X488442D02*
X550418Y773176D01*
X348996Y711200D02*
X488442D01*
X550418Y773176D02*
X550672D01*
X156461Y1158672D02*
X162814D01*
X155725Y1157935D02*
X156461Y1158672D01*
X550418Y909066D02*
X550672D01*
X486410Y845058D02*
X550418Y909066D01*
X162814Y1148842D02*
Y1158672D01*
X175463Y1138197D02*
X176200Y1138933D01*
Y1145286D01*
X508000Y1002538D02*
X550418Y1044956D01*
X550672D01*
X372872Y1028954D02*
X389382Y1012444D01*
X431383D01*
X439768Y1020830D01*
X550418Y1180846D02*
X550672D01*
X465328Y1231646D02*
X550418Y1316736D01*
X550672D01*
X340106D02*
X340360D01*
X336169Y1312799D02*
X340106Y1316736D01*
X550418Y1452626D02*
X550672D01*
X468884Y1371092D02*
X550418Y1452626D01*
X357124Y1371092D02*
X468884D01*
X336169Y1448689D02*
X340106Y1452626D01*
X336169Y1448435D02*
Y1448689D01*
X340106Y1452626D02*
X340360D01*
X271018Y1450340D02*
X312928Y1492250D01*
X336169Y1584579D02*
X340106Y1588516D01*
X336169Y1584325D02*
Y1584579D01*
X340106Y1588516D02*
X340360D01*
X266192Y1514348D02*
X336169Y1584325D01*
X259588Y1557782D02*
X325882Y1624076D01*
X336169Y1720215D02*
Y1720469D01*
X340106Y1724406D02*
X340360D01*
X336169Y1720469D02*
X340106Y1724406D01*
X152527Y1185799D02*
X154178Y1184148D01*
X162357D02*
X162814Y1183691D01*
X154178Y1184148D02*
X162357D01*
X162077Y1162939D02*
X162814Y1163676D01*
X154178Y1162939D02*
X162077D01*
X152781Y1161542D02*
X154178Y1162939D01*
X216205Y1216609D02*
Y1227074D01*
X211201Y1212215D02*
Y1227074D01*
Y1212215D02*
X211582Y1211834D01*
X206197Y1216120D02*
Y1227074D01*
X202184Y1212107D02*
X206197Y1216120D01*
X202184Y1211580D02*
Y1212107D01*
X200482Y1226337D02*
X201219Y1227074D01*
X508000Y290373D02*
X510159D01*
X515239Y295453D01*
Y304292D01*
X510159Y309372D02*
X515239Y304292D01*
X508000Y309372D02*
X510159D01*
X655066Y624078D02*
Y640588D01*
X753364Y738886D01*
X650080Y619092D02*
X655066Y624078D01*
X691642Y685800D02*
X753364Y747522D01*
X599694Y740664D02*
X641695D01*
X583184Y757174D02*
X599694Y740664D01*
X641695D02*
X650080Y749050D01*
X655066Y758063D02*
X661924Y751205D01*
X655066Y758063D02*
Y759968D01*
X736092Y781812D02*
X753364Y764540D01*
X444754Y761873D02*
X451612Y768731D01*
X444754Y759968D02*
Y761873D01*
X655066Y870966D02*
Y895858D01*
Y870966D02*
X753364Y772668D01*
X725932Y809244D02*
X753364Y781812D01*
X444754Y895858D02*
Y897763D01*
X451612Y904621D01*
X655066Y1057910D02*
X754126Y1156970D01*
X655066Y1031748D02*
Y1057910D01*
X650080Y1026762D02*
X655066Y1031748D01*
X711708Y1123188D02*
X754126Y1165606D01*
X749173Y1187577D02*
X754126Y1182624D01*
X655066Y1289812D02*
Y1303528D01*
Y1289812D02*
X754126Y1190752D01*
X743204Y1210818D02*
X754126Y1199896D01*
X444754Y1303528D02*
Y1305433D01*
X451612Y1312291D01*
X655066Y1453388D02*
X752094Y1550416D01*
X655066Y1439418D02*
Y1453388D01*
X650080Y1434433D02*
X655066Y1439418D01*
X729742Y1536700D02*
X752094Y1559052D01*
X655066Y1573403D02*
Y1575308D01*
X731266Y1596898D02*
X752094Y1576070D01*
X444754Y1577213D02*
X451612Y1584071D01*
X444754Y1575308D02*
Y1577213D01*
X655066Y1681226D02*
X752094Y1584198D01*
X655066Y1681226D02*
Y1711198D01*
X720090Y1625346D02*
X752094Y1593342D01*
X1042106Y694888D02*
Y783392D01*
X990092Y831342D02*
X1039114Y782320D01*
X991362Y834136D02*
X1042106Y783392D01*
X1034683Y604520D02*
X1158147D01*
X1017016Y622187D02*
X1034683Y604520D01*
X1017016Y622187D02*
Y757682D01*
X955802Y814832D02*
X1013968Y756666D01*
Y621284D02*
Y756666D01*
X957072Y817626D02*
X1017016Y757682D01*
X1013968Y621284D02*
X1033780Y601472D01*
X1069848D01*
X1017665Y434594D02*
X1018928D01*
X1018928Y434594D01*
X991362Y460897D02*
X1017665Y434594D01*
X988568Y459740D02*
X1016508Y431800D01*
X1182511D01*
X988568Y459740D02*
Y728218D01*
X991362Y460897D02*
Y729742D01*
X916559Y800227D02*
X988568Y728218D01*
X918083Y803021D02*
X991362Y729742D01*
X966216Y395873D02*
X1015125Y346964D01*
X1158147D01*
X966216Y395873D02*
Y680466D01*
X934720Y711962D02*
X966216Y680466D01*
X963422Y394716D02*
Y679309D01*
X933563Y709168D02*
X963422Y679309D01*
X1014222Y343916D02*
X1069848D01*
X963422Y394716D02*
X1014222Y343916D01*
X942340Y229757D02*
X995059Y177038D01*
X1181354D01*
X993902Y174244D02*
X1182511D01*
X939546Y228600D02*
X993902Y174244D01*
X942340Y229757D02*
Y663589D01*
X883539Y1103630D02*
X958737D01*
X993648Y1068719D01*
X1010525Y1116584D02*
X1069848D01*
X995680Y1135380D02*
X1011428Y1119632D01*
X1158147D01*
X994523Y1132586D02*
X1010525Y1116584D01*
X904316Y1135380D02*
X995680D01*
X1009509Y1204468D02*
X1182511D01*
X996696Y1221232D02*
X1010666Y1207262D01*
X1181354D01*
X995539Y1218438D02*
X1009509Y1204468D01*
X883387Y1221232D02*
X996696D01*
X998982Y1352917D02*
X1020205Y1374140D01*
X1069848D01*
X998982Y1284845D02*
Y1352917D01*
X947053Y1232916D02*
X998982Y1284845D01*
X945896Y1235710D02*
X996188Y1286002D01*
Y1354074D01*
X1019302Y1377188D01*
X1158147D01*
X976122Y1443228D02*
X994918Y1462024D01*
X993761Y1464818D02*
X1181354D01*
X976122Y1293227D02*
Y1443228D01*
X973328Y1444385D02*
X993761Y1464818D01*
X932321Y1249426D02*
X976122Y1293227D01*
X953375Y1497076D02*
X1032256Y1575957D01*
X954151Y1493901D02*
X1035050Y1574800D01*
X923290Y1513332D02*
X1022604Y1612646D01*
X922133Y1516126D02*
X1019810Y1613803D01*
Y1698498D01*
X1043686Y1722374D01*
X1006348Y1621028D02*
Y1857615D01*
X911352Y1526032D02*
X1006348Y1621028D01*
X909828Y1528826D02*
X1002792Y1621790D01*
Y1858010D01*
X1006348Y1857615D02*
X1038239Y1889506D01*
X1002792Y1858010D02*
X1037082Y1892300D01*
X989584Y1921877D02*
X1044843Y1977136D01*
X937133Y1611757D02*
X989584Y1664208D01*
Y1921877D01*
X935976Y1614551D02*
X986536Y1665111D01*
Y1922780D02*
X1043686Y1979930D01*
X986536Y1665111D02*
Y1922780D01*
X972058Y2074418D02*
X1044448Y2146808D01*
X972058Y1670304D02*
Y2074418D01*
X928116Y1626362D02*
X972058Y1670304D01*
X969010Y2075321D02*
X1043545Y2149856D01*
X926959Y1629156D02*
X969010Y1671207D01*
Y2075321D01*
X908050Y1645412D02*
X953516Y1690878D01*
Y2143365D02*
X1044843Y2234692D01*
X953516Y1690878D02*
Y2143365D01*
X950722Y1692148D02*
Y2144522D01*
X1043686Y2237486D01*
X1038239Y1889506D02*
X1069594D01*
X1037082Y1892300D02*
X1158147D01*
X650080Y1700280D02*
Y1706212D01*
X655066Y1711198D01*
X641695Y1691894D02*
X650080Y1700280D01*
Y1428500D02*
Y1434433D01*
X641695Y1556004D02*
X650080Y1564390D01*
Y1570323D02*
X655066Y1575308D01*
X650080Y1564390D02*
Y1570323D01*
Y1156720D02*
Y1162653D01*
X641695Y1148334D02*
X650080Y1156720D01*
X583184Y1164844D02*
X599694Y1148334D01*
X650080Y1162653D02*
X655066Y1167638D01*
X599694Y1148334D02*
X641695D01*
X439768Y1020830D02*
Y1026762D01*
X599694Y1284224D02*
X641695D01*
X650080Y1298542D02*
X655066Y1303528D01*
X550672Y1300734D02*
X583184D01*
X599694Y1284224D01*
X650080Y1292610D02*
Y1298542D01*
X641695Y1284224D02*
X650080Y1292610D01*
X439768D02*
Y1298542D01*
X444754Y1303528D01*
X431383Y1284224D02*
X439768Y1292610D01*
X599694Y1420114D02*
X641695D01*
X650080Y1428500D01*
X583184Y1436624D02*
X599694Y1420114D01*
X550672Y1436624D02*
X583184D01*
X641695Y1012444D02*
X650080Y1020830D01*
X583184Y1028954D02*
X599694Y1012444D01*
X650080Y1020830D02*
Y1026762D01*
X550672Y1028954D02*
X583184D01*
X599694Y1012444D02*
X641695D01*
X431383Y1420114D02*
X439768Y1428500D01*
Y1434433D01*
X444754Y1439418D01*
X439768Y1156720D02*
Y1162653D01*
X550672Y1164844D02*
X583184D01*
X439768Y1162653D02*
X444754Y1167638D01*
X431383Y1148334D02*
X439768Y1156720D01*
X389382Y1284224D02*
X431383D01*
X372872Y1300734D02*
X389382Y1284224D01*
X340360Y1300734D02*
X372872D01*
X599694Y1691894D02*
X641695D01*
X431383Y1556004D02*
X439768Y1564390D01*
X372872Y1708404D02*
X389382Y1691894D01*
X431383D02*
X439768Y1700280D01*
Y1564390D02*
Y1570323D01*
X340360Y1708404D02*
X372872D01*
X389382Y1691894D02*
X431383D01*
X372872Y1572514D02*
X389382Y1556004D01*
X431383D01*
X340360Y1572514D02*
X372872D01*
X439768Y1570323D02*
X444754Y1575308D01*
X583184Y1572514D02*
X599694Y1556004D01*
X641695D01*
X550672Y1572514D02*
X583184D01*
X340360Y893064D02*
X372872D01*
X340360Y757174D02*
X372872D01*
Y893064D02*
X389382Y876554D01*
X439768Y1706212D02*
X444754Y1711198D01*
X550672Y1708404D02*
X583184D01*
X439768Y1700280D02*
Y1706212D01*
X583184Y1708404D02*
X599694Y1691894D01*
X372872Y1436624D02*
X389382Y1420114D01*
X340360Y1436624D02*
X372872D01*
X389382Y1420114D02*
X431383D01*
X340360Y1164844D02*
X372872D01*
X389382Y1148334D02*
X431383D01*
X372872Y1164844D02*
X389382Y1148334D01*
X372872Y757174D02*
X389382Y740664D01*
X431383D01*
X340360Y621284D02*
X372872D01*
X389382Y876554D02*
X431383D01*
X340360Y1028954D02*
X372872D01*
X550672Y757174D02*
X583184D01*
X550672Y621284D02*
X583184D01*
X641695Y604774D02*
X650080Y613160D01*
X599694Y604774D02*
X641695D01*
X650080Y613160D02*
Y619092D01*
X583184Y621284D02*
X599694Y604774D01*
X439768Y749050D02*
Y754983D01*
X444754Y759968D01*
X431383Y740664D02*
X439768Y749050D01*
X431383Y876554D02*
X439768Y884940D01*
Y890872D02*
X444754Y895858D01*
X439768Y884940D02*
Y890872D01*
X550672Y893064D02*
X583184D01*
X599694Y876554D01*
X641695D01*
X895172Y817626D02*
X957072D01*
X650080Y890872D02*
X655066Y895858D01*
X650080Y884940D02*
Y890872D01*
X641695Y876554D02*
X650080Y884940D01*
Y749050D02*
Y754983D01*
X655066Y759968D01*
X1018928Y434594D02*
X1181354D01*
X994918Y1462024D02*
X1182511D01*
D14*
X430022Y1882648D02*
X443992D01*
X445262Y1881378D01*
X409448Y1903222D02*
X430022Y1882648D01*
X391668Y1903222D02*
X409448D01*
X387678Y1928622D02*
X410718D01*
X368629Y1909572D02*
X387678Y1928622D01*
X355600Y1909572D02*
X368629D01*
X410718Y1928622D02*
X421894Y1917446D01*
X445262D01*
X338328Y1892300D02*
X355600Y1909572D01*
X338328Y1880362D02*
Y1892300D01*
Y1880362D02*
X338582Y1880108D01*
D15*
X186207Y1239317D02*
X191135Y1244244D01*
X191516D01*
X186207Y1227074D02*
Y1239317D01*
X150165Y1173683D02*
X162814D01*
X145288Y1178560D02*
X150165Y1173683D01*
X235374Y1203350D02*
X244272D01*
X230543Y1196251D02*
Y1198520D01*
X244272Y1203350D02*
X244602Y1203681D01*
X230543Y1198520D02*
X235374Y1203350D01*
X230124Y1195832D02*
X230543Y1196251D01*
X157124Y1213688D02*
X162814D01*
X156718Y1214095D02*
X157124Y1213688D01*
X156718Y1214095D02*
Y1219454D01*
X156464Y1219708D02*
X156718Y1219454D01*
X161719Y1232626D02*
Y1241806D01*
Y1232626D02*
X167271Y1227074D01*
X176200D01*
X880999Y1590997D02*
Y1601851D01*
X878858Y1588856D02*
X880999Y1590997D01*
X878858Y1588263D02*
Y1588856D01*
X880999Y1601851D02*
X881126Y1601978D01*
X795960Y1601597D02*
X796087Y1601470D01*
X795960Y1601597D02*
Y1614519D01*
X795800Y1614679D02*
X795960Y1614519D01*
X878078Y1529842D02*
Y1530435D01*
X874522Y1543050D02*
X874649Y1542923D01*
Y1533864D02*
Y1542923D01*
Y1533864D02*
X878078Y1530435D01*
X881144Y1194817D02*
Y1195410D01*
X883031Y1208405D02*
X883158Y1208532D01*
X883031Y1197297D02*
Y1208405D01*
X881144Y1195410D02*
X883031Y1197297D01*
X797992Y1208151D02*
Y1214120D01*
X797832Y1214280D02*
X797992Y1214120D01*
X797832Y1214280D02*
Y1221741D01*
X797992Y1208151D02*
X798119Y1208024D01*
X876681Y1142068D02*
X879887Y1138862D01*
Y1136853D02*
X880306Y1136434D01*
X876681Y1142068D02*
Y1149477D01*
X879887Y1136853D02*
Y1138862D01*
X876554Y1149604D02*
X876681Y1149477D01*
X797230Y790067D02*
Y796560D01*
X796816Y796974D02*
Y805689D01*
X797230Y790067D02*
X797357Y789940D01*
X796816Y796974D02*
X797230Y796560D01*
X876088Y721487D02*
X879517Y718058D01*
X880110D01*
X875919Y721487D02*
X876088D01*
X875792Y731520D02*
X875919Y731393D01*
Y721487D02*
Y731393D01*
X882269Y780110D02*
Y790321D01*
X879758Y777599D02*
X882269Y780110D01*
X879758Y777007D02*
Y777599D01*
X882269Y790321D02*
X882396Y790448D01*
X449237Y394297D02*
Y403441D01*
Y392011D02*
Y394297D01*
X448818Y403860D02*
X449237Y403441D01*
Y392011D02*
X450342Y390906D01*
X158496Y1244854D02*
X158671D01*
X161719Y1241806D01*
X642386Y1902988D02*
X642620Y1903222D01*
X642386Y1883284D02*
Y1902988D01*
X642152Y1883050D02*
X642386Y1883284D01*
X450362Y370754D02*
X450382Y370734D01*
X450342Y390906D02*
X450362Y390886D01*
Y370754D02*
Y390886D01*
X145288Y1178560D02*
Y1180846D01*
X250292Y1158672D02*
X257048Y1151915D01*
X244602Y1158672D02*
X250292D01*
X257048Y1133348D02*
Y1151915D01*
X235458Y1139190D02*
X241046Y1133602D01*
X231216Y1139596D02*
X231623Y1139190D01*
X231216Y1139596D02*
Y1145286D01*
X241046Y1133348D02*
Y1133602D01*
X231623Y1139190D02*
X235458D01*
X244881Y1183411D02*
X261595D01*
X176784Y1244346D02*
X179578Y1241552D01*
Y1237598D02*
X180873Y1236302D01*
X179578Y1237598D02*
Y1241552D01*
X180873Y1233170D02*
Y1236302D01*
D16*
X173482Y1112012D02*
X179813Y1105681D01*
Y1103709D02*
X179989Y1103533D01*
X179813Y1103709D02*
Y1105681D01*
X173228Y1112012D02*
X173482D01*
X188722D02*
X188849Y1111885D01*
X204343D01*
X204470Y1111758D01*
X179578Y1345946D02*
Y1357630D01*
X81661Y1362099D02*
Y1368171D01*
X79096Y1359286D02*
Y1359535D01*
X81661Y1368171D02*
X83820Y1370330D01*
X79096Y1359535D02*
X81661Y1362099D01*
X88646Y1358063D02*
X93801Y1363218D01*
X88646Y1357884D02*
Y1358063D01*
X102794Y1370406D02*
X102870Y1370482D01*
X83820Y1370330D02*
X83896Y1370406D01*
X102794D01*
X243410Y1253314D02*
X243586Y1253490D01*
X235204Y1244854D02*
X243410Y1253060D01*
Y1253314D01*
X235204Y1244600D02*
Y1244854D01*
X158496Y1263904D02*
X160782D01*
X118872Y1635760D02*
X129286D01*
X89535Y1678309D02*
X102870Y1664974D01*
Y1635760D02*
Y1664974D01*
X89535Y1678309D02*
Y1707515D01*
X101600Y1719580D01*
X67480Y1359822D02*
X67649Y1359991D01*
X195580Y1357630D02*
Y1368552D01*
X67649Y1370161D02*
X67818Y1370330D01*
X67649Y1359991D02*
Y1370161D01*
X102108Y1363218D02*
X102870Y1363980D01*
X93801Y1363218D02*
X102108D01*
X83820Y1405636D02*
X94742D01*
X147904Y1370406D02*
X161722D01*
X161798Y1370482D01*
X147828Y1370330D02*
X147904Y1370406D01*
X169164Y1405128D02*
X179578D01*
X161798Y1357478D02*
X161874Y1357554D01*
X179502D01*
X179578Y1357630D01*
X900298Y1471534D02*
Y1484641D01*
X902330Y1078088D02*
Y1091195D01*
X901568Y660004D02*
Y673111D01*
X126365Y1193927D02*
X126492Y1194054D01*
X126238Y1180846D02*
X126365Y1180973D01*
Y1193927D01*
X123112Y1156130D02*
X130048Y1163066D01*
X120064Y1156130D02*
X123112D01*
X119888Y1155954D02*
X120064Y1156130D01*
X919734Y1678940D02*
Y1679194D01*
X927432Y1686892D02*
Y1687146D01*
X927608Y1687322D01*
X919734Y1679194D02*
X927432Y1686892D01*
X176530Y1244346D02*
X176784D01*
X176276D02*
X176530D01*
X169340Y1235886D02*
Y1237410D01*
X169164Y1235710D02*
X169340Y1235886D01*
Y1237410D02*
X176276Y1244346D01*
X277876Y1182878D02*
X283796Y1176958D01*
Y1172894D02*
Y1176958D01*
X277876Y1182878D02*
Y1183132D01*
X283796Y1172894D02*
X283972Y1172718D01*
X261595Y1183157D02*
X267794Y1176958D01*
Y1172640D02*
X267970Y1172464D01*
X261595Y1183157D02*
Y1183411D01*
X267794Y1172640D02*
Y1176958D01*
X241046Y1133348D02*
X241378Y1133016D01*
X257175Y1122553D02*
Y1133221D01*
X257048Y1133348D02*
X257175Y1133221D01*
X145718Y1152828D02*
Y1162988D01*
X145542Y1152652D02*
X145718Y1152828D01*
Y1162988D02*
X146050Y1163320D01*
X130048Y1163066D02*
Y1163320D01*
X611378Y1838960D02*
X611710Y1838628D01*
Y1828976D02*
Y1838628D01*
Y1828976D02*
X611886Y1828800D01*
X600705Y1892554D02*
X605658Y1887601D01*
X609219D02*
X611378Y1885442D01*
X605658Y1887601D02*
X609219D01*
X600456Y1892554D02*
X600705D01*
X855624Y848155D02*
X856386Y848917D01*
Y849376D01*
X848409Y848155D02*
X855624D01*
X848233Y847979D02*
X848409Y848155D01*
X856386Y1266239D02*
X857148Y1267001D01*
Y1267460D01*
X849425Y1266239D02*
X856386D01*
X849249Y1266063D02*
X849425Y1266239D01*
X854354Y1659685D02*
X855116Y1660447D01*
X847393Y1659685D02*
X854354D01*
X855116Y1660447D02*
Y1660906D01*
X847217Y1659509D02*
X847393Y1659685D01*
X838708Y666496D02*
X838962D01*
X838581Y666369D02*
X838708Y666496D01*
X828167Y666369D02*
X838581D01*
X828040Y666242D02*
X828167Y666369D01*
X838581Y682371D02*
X838708Y682498D01*
X828167Y682371D02*
X838581D01*
X828040Y682244D02*
X828167Y682371D01*
X932815Y771779D02*
X932942Y771652D01*
X922655Y771779D02*
X932815D01*
X922528Y771906D02*
X922655Y771779D01*
X906526Y771906D02*
Y772160D01*
X905432Y770812D02*
X906526Y771906D01*
X896288Y770812D02*
X905432D01*
X896112Y770636D02*
X896288Y770812D01*
X838200Y712978D02*
X838454D01*
X832788Y707566D02*
X838200Y712978D01*
X828216Y707566D02*
X832788D01*
X828040Y707390D02*
X828216Y707566D01*
X838122Y696644D02*
X838454Y696976D01*
X827962Y696644D02*
X838122D01*
X827786Y696468D02*
X827962Y696644D01*
X879983Y750951D02*
X880110Y751078D01*
X869823Y750951D02*
X879983D01*
X869696Y750824D02*
X869823Y750951D01*
X853694Y750570D02*
Y750824D01*
X846483Y743359D02*
X853694Y750570D01*
X904670Y867078D02*
X905002Y867410D01*
X894764Y867078D02*
X904670D01*
X894588Y866902D02*
X894764Y867078D01*
X931291Y867283D02*
X931418Y867156D01*
X921131Y867283D02*
X931291D01*
X921004Y867410D02*
X921131Y867283D01*
X901903Y776783D02*
X906526Y772160D01*
X901903Y776783D02*
Y790448D01*
X905002Y856920D02*
Y867410D01*
X901903Y849376D02*
Y853821D01*
X905002Y856920D01*
X853694Y738556D02*
X856285Y735965D01*
Y731520D02*
Y735965D01*
X853694Y738556D02*
Y750570D01*
X845058Y672592D02*
X856285D01*
X838962Y666496D02*
X845058Y672592D01*
X838454Y712978D02*
Y724484D01*
X836371Y726567D02*
X838454Y724484D01*
X836371Y726567D02*
Y731012D01*
X837438Y1478026D02*
X837692D01*
X837311Y1477899D02*
X837438Y1478026D01*
X826897Y1477899D02*
X837311D01*
X826770Y1477772D02*
X826897Y1477899D01*
X837311Y1493901D02*
X837438Y1494028D01*
X826897Y1493901D02*
X837311D01*
X826770Y1493774D02*
X826897Y1493901D01*
X931545Y1583309D02*
X931672Y1583182D01*
X921385Y1583309D02*
X931545D01*
X921258Y1583436D02*
X921385Y1583309D01*
X905256Y1583436D02*
Y1583690D01*
X904162Y1582342D02*
X905256Y1583436D01*
X895018Y1582342D02*
X904162D01*
X894842Y1582166D02*
X895018Y1582342D01*
X836930Y1524508D02*
X837184D01*
X831518Y1519096D02*
X836930Y1524508D01*
X826946Y1519096D02*
X831518D01*
X826770Y1518920D02*
X826946Y1519096D01*
X836852Y1508174D02*
X837184Y1508506D01*
X826692Y1508174D02*
X836852D01*
X826516Y1507998D02*
X826692Y1508174D01*
X878713Y1562481D02*
X878840Y1562608D01*
X868553Y1562481D02*
X878713D01*
X868426Y1562354D02*
X868553Y1562481D01*
X852424Y1562100D02*
Y1562354D01*
X845213Y1554889D02*
X852424Y1562100D01*
X903400Y1678608D02*
X903732Y1678940D01*
X893494Y1678608D02*
X903400D01*
X893318Y1678432D02*
X893494Y1678608D01*
X900633Y1588313D02*
X905256Y1583690D01*
X900633Y1588313D02*
Y1601978D01*
X903732Y1668450D02*
Y1678940D01*
X900633Y1660906D02*
Y1665351D01*
X903732Y1668450D01*
X852424Y1550086D02*
X855015Y1547495D01*
Y1543050D02*
Y1547495D01*
X852424Y1550086D02*
Y1562100D01*
X843788Y1484122D02*
X855015D01*
X837692Y1478026D02*
X843788Y1484122D01*
X837184Y1524508D02*
Y1536014D01*
X835101Y1538097D02*
X837184Y1536014D01*
X835101Y1538097D02*
Y1542542D01*
X632045Y1862943D02*
X632152Y1863050D01*
X621899Y1862943D02*
X632045D01*
X621792Y1862836D02*
X621899Y1862943D01*
X611378Y1915922D02*
Y1926590D01*
X640207Y1907426D02*
Y1913260D01*
Y1905635D02*
Y1907426D01*
X637540Y1915927D02*
X640207Y1913260D01*
X637540Y1915927D02*
Y1916176D01*
X640207Y1905635D02*
X642620Y1903222D01*
X432778Y350564D02*
X440212D01*
X429944Y350442D02*
X432656D01*
X432778Y350564D01*
X429768Y350266D02*
X429944Y350442D01*
X440212Y350564D02*
X440382Y350734D01*
X419481Y404495D02*
X419608Y404368D01*
X419354Y414782D02*
X419481Y414655D01*
Y404495D02*
Y414655D01*
X409370Y379554D02*
X413434D01*
X419354Y373634D02*
X419608D01*
X413434Y379554D02*
X419354Y373634D01*
X409194Y379730D02*
X409370Y379554D01*
X493268Y292608D02*
X500024Y299364D01*
X507492D01*
X493014Y292608D02*
X493268D01*
X507492Y299364D02*
X508000Y299872D01*
X492887Y282321D02*
Y292481D01*
X492760Y282194D02*
X492887Y282321D01*
Y292481D02*
X493014Y292608D01*
X550037Y292481D02*
X550164Y292608D01*
X550037Y282321D02*
Y292481D01*
X549910Y282194D02*
X550037Y282321D01*
X839470Y1084580D02*
X839724D01*
X839343Y1084453D02*
X839470Y1084580D01*
X828929Y1084453D02*
X839343D01*
X828802Y1084326D02*
X828929Y1084453D01*
Y1100455D02*
X839343D01*
X839470Y1100582D01*
X828802Y1100328D02*
X828929Y1100455D01*
X933577Y1189863D02*
X933704Y1189736D01*
X923290Y1189990D02*
X923417Y1189863D01*
X933577D01*
X906194Y1188896D02*
X907288Y1189990D01*
Y1190244D01*
X896874Y1188720D02*
X897050Y1188896D01*
X906194D01*
X838962Y1131062D02*
X839216D01*
X833550Y1125650D02*
X838962Y1131062D01*
X828802Y1125474D02*
X828978Y1125650D01*
X833550D01*
X838884Y1114728D02*
X839216Y1115060D01*
X828724Y1114728D02*
X838884D01*
X828548Y1114552D02*
X828724Y1114728D01*
X880745Y1169035D02*
X880872Y1169162D01*
X870585Y1169035D02*
X880745D01*
X870458Y1168908D02*
X870585Y1169035D01*
X847245Y1161443D02*
X854456Y1168654D01*
X905432Y1285162D02*
X905764Y1285494D01*
X895526Y1285162D02*
X905432D01*
X895350Y1284986D02*
X895526Y1285162D01*
X921893Y1285367D02*
X932053D01*
X921766Y1285494D02*
X921893Y1285367D01*
X932053D02*
X932180Y1285240D01*
X902665Y1194867D02*
Y1208532D01*
Y1194867D02*
X907288Y1190244D01*
X905764Y1275004D02*
Y1285494D01*
X902665Y1267460D02*
Y1271905D01*
X905764Y1275004D01*
X857047Y1149604D02*
Y1154049D01*
X854456Y1156640D02*
X857047Y1154049D01*
X854456Y1168654D02*
Y1168908D01*
Y1156640D02*
Y1168654D01*
X845820Y1090676D02*
X857047D01*
X839724Y1084580D02*
X845820Y1090676D01*
X837133Y1144651D02*
Y1149096D01*
X839216Y1131062D02*
Y1142568D01*
X837133Y1144651D02*
X839216Y1142568D01*
X492760Y308610D02*
X493014D01*
X535305Y308991D02*
X549783D01*
X550164Y308610D01*
X534924Y309372D02*
X535305Y308991D01*
D18*
X20574Y1386840D02*
D03*
Y1370838D02*
D03*
X283718Y1267206D02*
D03*
Y1283208D02*
D03*
X250952Y1266698D02*
D03*
Y1282700D02*
D03*
X232410Y1490726D02*
D03*
Y1506728D02*
D03*
X208534Y1490472D02*
D03*
Y1506474D02*
D03*
X1106170Y240030D02*
D03*
Y224028D02*
D03*
Y497586D02*
D03*
Y481584D02*
D03*
Y755142D02*
D03*
Y739140D02*
D03*
Y1012698D02*
D03*
Y996696D02*
D03*
Y1270254D02*
D03*
Y1254252D02*
D03*
Y1527810D02*
D03*
Y1511808D02*
D03*
Y1785366D02*
D03*
Y1769364D02*
D03*
Y2042922D02*
D03*
Y2026920D02*
D03*
Y2300478D02*
D03*
Y2284476D02*
D03*
X1105916Y193548D02*
D03*
Y209550D02*
D03*
Y451104D02*
D03*
Y467106D02*
D03*
Y708660D02*
D03*
Y724662D02*
D03*
Y966216D02*
D03*
Y982218D02*
D03*
Y1223772D02*
D03*
Y1239774D02*
D03*
Y1481328D02*
D03*
Y1497330D02*
D03*
Y1738884D02*
D03*
Y1754886D02*
D03*
Y1996440D02*
D03*
Y2012442D02*
D03*
Y2253996D02*
D03*
Y2269998D02*
D03*
X1064260Y161798D02*
D03*
Y145796D02*
D03*
Y419354D02*
D03*
Y403352D02*
D03*
Y676910D02*
D03*
Y660908D02*
D03*
Y934466D02*
D03*
Y918464D02*
D03*
Y1192022D02*
D03*
Y1176020D02*
D03*
Y1449578D02*
D03*
Y1433576D02*
D03*
Y1707134D02*
D03*
Y1691132D02*
D03*
Y1964690D02*
D03*
Y1948688D02*
D03*
Y2222246D02*
D03*
Y2206244D02*
D03*
X1064514Y69088D02*
D03*
Y53086D02*
D03*
Y326644D02*
D03*
Y310642D02*
D03*
Y584200D02*
D03*
Y568198D02*
D03*
Y841756D02*
D03*
Y825754D02*
D03*
Y1099312D02*
D03*
Y1083310D02*
D03*
Y1356868D02*
D03*
Y1340866D02*
D03*
Y1614424D02*
D03*
Y1598422D02*
D03*
Y1871980D02*
D03*
Y1855978D02*
D03*
Y2129536D02*
D03*
Y2113534D02*
D03*
X550672Y621284D02*
D03*
Y637286D02*
D03*
X340360Y621284D02*
D03*
Y637286D02*
D03*
X550672Y757174D02*
D03*
Y773176D02*
D03*
X340360Y757174D02*
D03*
Y773176D02*
D03*
X550672Y893064D02*
D03*
Y909066D02*
D03*
X340360Y893064D02*
D03*
Y909066D02*
D03*
X550672Y1028954D02*
D03*
Y1044956D02*
D03*
X340360Y1028954D02*
D03*
Y1044956D02*
D03*
X550672Y1164844D02*
D03*
Y1180846D02*
D03*
X340360Y1164844D02*
D03*
Y1180846D02*
D03*
X550672Y1300734D02*
D03*
Y1316736D02*
D03*
X340360Y1300734D02*
D03*
Y1316736D02*
D03*
X550672Y1436624D02*
D03*
Y1452626D02*
D03*
X340360Y1436624D02*
D03*
Y1452626D02*
D03*
X550672Y1572514D02*
D03*
Y1588516D02*
D03*
X340360Y1572514D02*
D03*
Y1588516D02*
D03*
X550672Y1708404D02*
D03*
Y1724406D02*
D03*
X340360Y1708404D02*
D03*
Y1724406D02*
D03*
X347726Y226060D02*
D03*
Y210058D02*
D03*
X122682Y1248156D02*
D03*
Y1264158D02*
D03*
X794766Y379984D02*
D03*
Y363982D02*
D03*
X852932Y378968D02*
D03*
Y362966D02*
D03*
X735076Y381508D02*
D03*
Y365506D02*
D03*
X122682Y1233424D02*
D03*
Y1217422D02*
D03*
X332232Y226060D02*
D03*
Y210058D02*
D03*
X122682Y1309370D02*
D03*
Y1325372D02*
D03*
Y1294892D02*
D03*
Y1278890D02*
D03*
X208280Y1450848D02*
D03*
Y1434846D02*
D03*
X232156Y1450848D02*
D03*
Y1434846D02*
D03*
X611378Y1899920D02*
D03*
Y1915922D02*
D03*
Y1869440D02*
D03*
Y1885442D02*
D03*
X626872Y1899920D02*
D03*
Y1915922D02*
D03*
X611378Y1854962D02*
D03*
Y1838960D02*
D03*
X173228Y1112012D02*
D03*
Y1128014D02*
D03*
X419608Y388366D02*
D03*
Y404368D02*
D03*
Y357632D02*
D03*
Y373634D02*
D03*
X434848Y388366D02*
D03*
Y404368D02*
D03*
X419608Y327152D02*
D03*
Y343154D02*
D03*
X838708Y682498D02*
D03*
Y666496D02*
D03*
X839470Y1100582D02*
D03*
Y1084580D02*
D03*
X837438Y1494028D02*
D03*
Y1478026D02*
D03*
X838454Y696976D02*
D03*
Y712978D02*
D03*
X839216Y1115060D02*
D03*
Y1131062D02*
D03*
X837184Y1508506D02*
D03*
Y1524508D02*
D03*
X295402Y1104392D02*
D03*
Y1088390D02*
D03*
X258826Y1104392D02*
D03*
Y1088390D02*
D03*
X230886Y1104392D02*
D03*
Y1088390D02*
D03*
X493014Y308610D02*
D03*
Y292608D02*
D03*
X550164Y308610D02*
D03*
Y292608D02*
D03*
X188722Y1128014D02*
D03*
Y1112012D02*
D03*
X176530Y1260348D02*
D03*
Y1244346D02*
D03*
X853440Y425704D02*
D03*
Y441706D02*
D03*
X793750Y425704D02*
D03*
Y441706D02*
D03*
X734822Y426466D02*
D03*
Y442468D02*
D03*
D19*
X60452Y1347470D02*
D03*
X44450D02*
D03*
X219202Y1244600D02*
D03*
X235204D02*
D03*
X102870Y1635760D02*
D03*
X118872D02*
D03*
X57912Y1635506D02*
D03*
X41910D02*
D03*
X72390Y1635760D02*
D03*
X88392D02*
D03*
X1106678Y27686D02*
D03*
X1090676D02*
D03*
X1106678Y285242D02*
D03*
X1090676D02*
D03*
X1106678Y542798D02*
D03*
X1090676D02*
D03*
X1106678Y800354D02*
D03*
X1090676D02*
D03*
X1106678Y1057910D02*
D03*
X1090676D02*
D03*
X1106678Y1315466D02*
D03*
X1090676D02*
D03*
X1106678Y1573022D02*
D03*
X1090676D02*
D03*
X1106678Y1830578D02*
D03*
X1090676D02*
D03*
X1106678Y2088134D02*
D03*
X1090676D02*
D03*
X1106678Y120396D02*
D03*
X1090676D02*
D03*
X1106678Y377952D02*
D03*
X1090676D02*
D03*
X1106678Y635508D02*
D03*
X1090676D02*
D03*
X1106678Y893064D02*
D03*
X1090676D02*
D03*
X1106678Y1150620D02*
D03*
X1090676D02*
D03*
X1106678Y1408176D02*
D03*
X1090676D02*
D03*
X1106678Y1665732D02*
D03*
X1090676D02*
D03*
X1106678Y1923288D02*
D03*
X1090676D02*
D03*
X1106678Y2180844D02*
D03*
X1090676D02*
D03*
X695960Y172974D02*
D03*
X679958D02*
D03*
X437388D02*
D03*
X421386D02*
D03*
X178816D02*
D03*
X162814D02*
D03*
X778256Y172720D02*
D03*
X762254D02*
D03*
X519684D02*
D03*
X503682D02*
D03*
X261112D02*
D03*
X245110D02*
D03*
X792734Y172974D02*
D03*
X808736D02*
D03*
X534162D02*
D03*
X550164D02*
D03*
X275590D02*
D03*
X291592D02*
D03*
X57912Y1025906D02*
D03*
X73914D02*
D03*
X43180Y1025652D02*
D03*
X27178D02*
D03*
X179578Y1390142D02*
D03*
X195580D02*
D03*
X170180Y1311402D02*
D03*
X154178D02*
D03*
X83820Y1390142D02*
D03*
X67818D02*
D03*
X170180Y1326642D02*
D03*
X154178D02*
D03*
X906526Y771906D02*
D03*
X922528D02*
D03*
X907288Y1189990D02*
D03*
X923290D02*
D03*
X905256Y1583436D02*
D03*
X921258D02*
D03*
X921004Y867410D02*
D03*
X905002D02*
D03*
X921766Y1285494D02*
D03*
X905764D02*
D03*
X919734Y1678940D02*
D03*
X903732D02*
D03*
X853694Y750824D02*
D03*
X869696D02*
D03*
X854456Y1168908D02*
D03*
X870458D02*
D03*
X852424Y1562354D02*
D03*
X868426D02*
D03*
X179578Y1357630D02*
D03*
X195580D02*
D03*
Y1405128D02*
D03*
X179578D02*
D03*
X83820Y1370330D02*
D03*
X67818D02*
D03*
Y1405636D02*
D03*
X83820D02*
D03*
X261874Y1183132D02*
D03*
X277876D02*
D03*
X241046Y1133348D02*
D03*
X257048D02*
D03*
X130048Y1163320D02*
D03*
X146050D02*
D03*
D20*
X191516Y1254252D02*
D03*
X204724D02*
D03*
Y1244244D02*
D03*
X191516D02*
D03*
D21*
X856386Y849376D02*
D03*
Y790448D02*
D03*
X895401Y849376D02*
D03*
X888898D02*
D03*
X882396D02*
D03*
X875894D02*
D03*
X869391D02*
D03*
X862889D02*
D03*
X901903Y790448D02*
D03*
X895401D02*
D03*
X888898D02*
D03*
X882396D02*
D03*
X875894D02*
D03*
X869391D02*
D03*
X862889D02*
D03*
X901903Y849376D02*
D03*
X857148Y1267460D02*
D03*
Y1208532D02*
D03*
X896163Y1267460D02*
D03*
X889660D02*
D03*
X883158D02*
D03*
X876656D02*
D03*
X870153D02*
D03*
X863651D02*
D03*
X902665Y1208532D02*
D03*
X896163D02*
D03*
X889660D02*
D03*
X883158D02*
D03*
X876656D02*
D03*
X870153D02*
D03*
X863651D02*
D03*
X902665Y1267460D02*
D03*
X855116Y1660906D02*
D03*
Y1601978D02*
D03*
X894131Y1660906D02*
D03*
X887628D02*
D03*
X881126D02*
D03*
X874624D02*
D03*
X868121D02*
D03*
X861619D02*
D03*
X900633Y1601978D02*
D03*
X894131D02*
D03*
X887628D02*
D03*
X881126D02*
D03*
X874624D02*
D03*
X868121D02*
D03*
X861619D02*
D03*
X900633Y1660906D02*
D03*
X829869Y789940D02*
D03*
X823366D02*
D03*
X816864D02*
D03*
X810362D02*
D03*
X803859D02*
D03*
X797357D02*
D03*
X836371Y731012D02*
D03*
X829869D02*
D03*
X823366D02*
D03*
X816864D02*
D03*
X810362D02*
D03*
X803859D02*
D03*
X797357D02*
D03*
X836371Y789940D02*
D03*
X830631Y1208024D02*
D03*
X824128D02*
D03*
X817626D02*
D03*
X811124D02*
D03*
X804621D02*
D03*
X798119D02*
D03*
X837133Y1149096D02*
D03*
X830631D02*
D03*
X824128D02*
D03*
X817626D02*
D03*
X811124D02*
D03*
X804621D02*
D03*
X798119D02*
D03*
X837133Y1208024D02*
D03*
X828599Y1601470D02*
D03*
X822096D02*
D03*
X815594D02*
D03*
X809092D02*
D03*
X802589D02*
D03*
X796087D02*
D03*
X835101Y1542542D02*
D03*
X828599D02*
D03*
X822096D02*
D03*
X815594D02*
D03*
X809092D02*
D03*
X802589D02*
D03*
X796087D02*
D03*
X835101Y1601470D02*
D03*
X901802Y672592D02*
D03*
Y731520D02*
D03*
X862787Y672592D02*
D03*
X869290D02*
D03*
X875792D02*
D03*
X882294D02*
D03*
X888797D02*
D03*
X895299D02*
D03*
X856285Y731520D02*
D03*
X862787D02*
D03*
X869290D02*
D03*
X875792D02*
D03*
X882294D02*
D03*
X888797D02*
D03*
X895299D02*
D03*
X856285Y672592D02*
D03*
X902564Y1090676D02*
D03*
Y1149604D02*
D03*
X863549Y1090676D02*
D03*
X870052D02*
D03*
X876554D02*
D03*
X883056D02*
D03*
X889559D02*
D03*
X896061D02*
D03*
X857047Y1149604D02*
D03*
X863549D02*
D03*
X870052D02*
D03*
X876554D02*
D03*
X883056D02*
D03*
X889559D02*
D03*
X896061D02*
D03*
X857047Y1090676D02*
D03*
X900532Y1484122D02*
D03*
Y1543050D02*
D03*
X861517Y1484122D02*
D03*
X868020D02*
D03*
X874522D02*
D03*
X881024D02*
D03*
X887527D02*
D03*
X894029D02*
D03*
X855015Y1543050D02*
D03*
X861517D02*
D03*
X868020D02*
D03*
X874522D02*
D03*
X881024D02*
D03*
X887527D02*
D03*
X894029D02*
D03*
X855015Y1484122D02*
D03*
D22*
X534924Y309372D02*
D03*
Y290373D02*
D03*
X508000D02*
D03*
Y299872D02*
D03*
Y309372D02*
D03*
D23*
X161798Y1389990D02*
D03*
X102870D02*
D03*
X161798Y1350975D02*
D03*
Y1357478D02*
D03*
Y1363980D02*
D03*
Y1370482D02*
D03*
Y1376985D02*
D03*
Y1383487D02*
D03*
X102870Y1344473D02*
D03*
Y1350975D02*
D03*
Y1357478D02*
D03*
Y1363980D02*
D03*
Y1370482D02*
D03*
Y1376985D02*
D03*
Y1383487D02*
D03*
X161798Y1344473D02*
D03*
D24*
X632152Y1885050D02*
D03*
X637152D02*
D03*
X652152D02*
D03*
X657152D02*
D03*
X440382Y372734D02*
D03*
X445382D02*
D03*
X460382D02*
D03*
X465382D02*
D03*
D25*
X642152Y1883050D02*
D03*
X647152D02*
D03*
X450382Y370734D02*
D03*
X455382D02*
D03*
D26*
X659152Y1876050D02*
D03*
X467382Y363734D02*
D03*
D27*
X657152Y1869550D02*
D03*
Y1863050D02*
D03*
X632152D02*
D03*
Y1869550D02*
D03*
X465382Y357234D02*
D03*
Y350734D02*
D03*
X440382D02*
D03*
Y357234D02*
D03*
D28*
X630652Y1876050D02*
D03*
X438882Y363734D02*
D03*
D29*
X231216Y1227074D02*
D03*
X226212D02*
D03*
X221209D02*
D03*
X216205D02*
D03*
X211201D02*
D03*
X206197D02*
D03*
X201219D02*
D03*
X196215D02*
D03*
X191211D02*
D03*
X186207D02*
D03*
X181204D02*
D03*
X176200D02*
D03*
X231216Y1145286D02*
D03*
X226212D02*
D03*
X221209D02*
D03*
X216205D02*
D03*
X211201D02*
D03*
X206197D02*
D03*
X201219D02*
D03*
X196215D02*
D03*
X191211D02*
D03*
X186207D02*
D03*
X181204D02*
D03*
X176200D02*
D03*
D30*
X162814Y1158672D02*
D03*
Y1163676D02*
D03*
Y1168679D02*
D03*
Y1173683D02*
D03*
Y1178687D02*
D03*
Y1183691D02*
D03*
Y1188669D02*
D03*
Y1193673D02*
D03*
Y1198677D02*
D03*
Y1203681D02*
D03*
Y1208684D02*
D03*
Y1213688D02*
D03*
X244602Y1158672D02*
D03*
Y1163676D02*
D03*
Y1168679D02*
D03*
Y1173683D02*
D03*
Y1178687D02*
D03*
Y1183691D02*
D03*
Y1188669D02*
D03*
Y1193673D02*
D03*
Y1198677D02*
D03*
Y1203681D02*
D03*
Y1208684D02*
D03*
Y1213688D02*
D03*
D31*
X1082040Y139700D02*
D03*
Y158496D02*
D03*
X1102106Y149098D02*
D03*
X1082040Y397256D02*
D03*
Y416052D02*
D03*
X1102106Y406654D02*
D03*
X1082040Y654812D02*
D03*
Y673608D02*
D03*
X1102106Y664210D02*
D03*
X1082040Y912368D02*
D03*
Y931164D02*
D03*
X1102106Y921766D02*
D03*
X1082040Y1169924D02*
D03*
Y1188720D02*
D03*
X1102106Y1179322D02*
D03*
X1082040Y1427480D02*
D03*
Y1446276D02*
D03*
X1102106Y1436878D02*
D03*
X1082040Y1685036D02*
D03*
Y1703832D02*
D03*
X1102106Y1694434D02*
D03*
X1082040Y1942592D02*
D03*
Y1961388D02*
D03*
X1102106Y1951990D02*
D03*
X1082040Y2200148D02*
D03*
Y2218944D02*
D03*
X1102106Y2209546D02*
D03*
X1082294Y46990D02*
D03*
Y65786D02*
D03*
X1102360Y56388D02*
D03*
X1082294Y304546D02*
D03*
Y323342D02*
D03*
X1102360Y313944D02*
D03*
X1082294Y562102D02*
D03*
Y580898D02*
D03*
X1102360Y571500D02*
D03*
X1082294Y819658D02*
D03*
Y838454D02*
D03*
X1102360Y829056D02*
D03*
X1082294Y1077214D02*
D03*
Y1096010D02*
D03*
X1102360Y1086612D02*
D03*
X1082294Y1334770D02*
D03*
Y1353566D02*
D03*
X1102360Y1344168D02*
D03*
X1082294Y1592326D02*
D03*
Y1611122D02*
D03*
X1102360Y1601724D02*
D03*
X1082294Y1849882D02*
D03*
Y1868678D02*
D03*
X1102360Y1859280D02*
D03*
X1082294Y2107438D02*
D03*
Y2126234D02*
D03*
X1102360Y2116836D02*
D03*
D32*
X219710Y1600454D02*
D03*
Y1564386D02*
D03*
X917448Y92964D02*
D03*
Y129032D02*
D03*
X445262Y1881378D02*
D03*
Y1917446D02*
D03*
D33*
X642620Y1903222D02*
D03*
X661670D02*
D03*
X450342Y390906D02*
D03*
X469392D02*
D03*
X126238Y1180846D02*
D03*
X145288D02*
D03*
D34*
X680974Y1841500D02*
D03*
Y1872488D02*
D03*
X489712Y329184D02*
D03*
Y360172D02*
D03*
D35*
X158496Y1263904D02*
D03*
Y1244854D02*
D03*
D65*
X654652Y1847550D02*
D03*
X634652D02*
D03*
X462882Y335234D02*
D03*
X442882D02*
D03*
D66*
X231856Y1080076D02*
Y1087166D01*
Y1080076D02*
X232421Y1079511D01*
X230886Y1088136D02*
X231856Y1087166D01*
X347726Y198882D02*
Y210058D01*
X295309Y1078323D02*
Y1088297D01*
X295402Y1088390D01*
X295216Y1078230D02*
X295309Y1078323D01*
X259114Y1078518D02*
Y1088102D01*
Y1078518D02*
X259402Y1078230D01*
X258826Y1088390D02*
X259114Y1088102D01*
X231099Y1178680D02*
X244595D01*
X244602Y1178687D01*
X231092Y1178673D02*
X231099Y1178680D01*
X238150Y1178687D02*
X244602D01*
X174125Y1178662D02*
X176003Y1176783D01*
X176802D01*
X162814Y1178687D02*
X162839Y1178662D01*
X174125D01*
D67*
X146050Y1163320D02*
Y1163574D01*
X151003Y1168527D01*
X162662D01*
X162814Y1168679D01*
D68*
X99822Y1506728D02*
D03*
Y1531620D02*
D03*
X119888Y1506728D02*
D03*
Y1531620D02*
D03*
X1333246Y77470D02*
D03*
Y102870D02*
D03*
Y189230D02*
D03*
Y214630D02*
D03*
X1267206Y190500D02*
D03*
X1292606Y177800D02*
D03*
X1267206Y165100D02*
D03*
X1292606Y152400D02*
D03*
X1267206Y139700D02*
D03*
X1292606Y127000D02*
D03*
X1267206Y114300D02*
D03*
X1292606Y101600D02*
D03*
X1165606Y77470D02*
D03*
X1230376Y101600D02*
D03*
X1165606Y189230D02*
D03*
Y214630D02*
D03*
Y102870D02*
D03*
X1204976Y114300D02*
D03*
X1230376Y152400D02*
D03*
X1204976Y165100D02*
D03*
X1230376Y127000D02*
D03*
X1204976Y139700D02*
D03*
X1230376Y177800D02*
D03*
X1204976Y190500D02*
D03*
X1333246Y335026D02*
D03*
Y360426D02*
D03*
Y446786D02*
D03*
Y472186D02*
D03*
X1267206Y448056D02*
D03*
X1292606Y435356D02*
D03*
X1267206Y422656D02*
D03*
X1292606Y409956D02*
D03*
X1267206Y397256D02*
D03*
X1292606Y384556D02*
D03*
X1267206Y371856D02*
D03*
X1292606Y359156D02*
D03*
X1165606Y335026D02*
D03*
X1230376Y359156D02*
D03*
X1165606Y446786D02*
D03*
Y472186D02*
D03*
Y360426D02*
D03*
X1204976Y371856D02*
D03*
X1230376Y409956D02*
D03*
X1204976Y422656D02*
D03*
X1230376Y384556D02*
D03*
X1204976Y397256D02*
D03*
X1230376Y435356D02*
D03*
X1204976Y448056D02*
D03*
X1333246Y592582D02*
D03*
Y617982D02*
D03*
Y704342D02*
D03*
Y729742D02*
D03*
X1267206Y705612D02*
D03*
X1292606Y692912D02*
D03*
X1267206Y680212D02*
D03*
X1292606Y667512D02*
D03*
X1267206Y654812D02*
D03*
X1292606Y642112D02*
D03*
X1267206Y629412D02*
D03*
X1292606Y616712D02*
D03*
X1165606Y592582D02*
D03*
X1230376Y616712D02*
D03*
X1165606Y704342D02*
D03*
Y729742D02*
D03*
Y617982D02*
D03*
X1204976Y629412D02*
D03*
X1230376Y667512D02*
D03*
X1204976Y680212D02*
D03*
X1230376Y642112D02*
D03*
X1204976Y654812D02*
D03*
X1230376Y692912D02*
D03*
X1204976Y705612D02*
D03*
X1333246Y850138D02*
D03*
Y875538D02*
D03*
Y961898D02*
D03*
Y987298D02*
D03*
X1267206Y963168D02*
D03*
X1292606Y950468D02*
D03*
X1267206Y937768D02*
D03*
X1292606Y925068D02*
D03*
X1267206Y912368D02*
D03*
X1292606Y899668D02*
D03*
X1267206Y886968D02*
D03*
X1292606Y874268D02*
D03*
X1165606Y850138D02*
D03*
X1230376Y874268D02*
D03*
X1165606Y961898D02*
D03*
Y987298D02*
D03*
Y875538D02*
D03*
X1204976Y886968D02*
D03*
X1230376Y925068D02*
D03*
X1204976Y937768D02*
D03*
X1230376Y899668D02*
D03*
X1204976Y912368D02*
D03*
X1230376Y950468D02*
D03*
X1204976Y963168D02*
D03*
X1333246Y1107694D02*
D03*
Y1133094D02*
D03*
Y1219454D02*
D03*
Y1244854D02*
D03*
X1267206Y1220724D02*
D03*
X1292606Y1208024D02*
D03*
X1267206Y1195324D02*
D03*
X1292606Y1182624D02*
D03*
X1267206Y1169924D02*
D03*
X1292606Y1157224D02*
D03*
X1267206Y1144524D02*
D03*
X1292606Y1131824D02*
D03*
X1165606Y1107694D02*
D03*
X1230376Y1131824D02*
D03*
X1165606Y1219454D02*
D03*
Y1244854D02*
D03*
Y1133094D02*
D03*
X1204976Y1144524D02*
D03*
X1230376Y1182624D02*
D03*
X1204976Y1195324D02*
D03*
X1230376Y1157224D02*
D03*
X1204976Y1169924D02*
D03*
X1230376Y1208024D02*
D03*
X1204976Y1220724D02*
D03*
X1333246Y1365250D02*
D03*
Y1390650D02*
D03*
Y1477010D02*
D03*
Y1502410D02*
D03*
X1267206Y1478280D02*
D03*
X1292606Y1465580D02*
D03*
X1267206Y1452880D02*
D03*
X1292606Y1440180D02*
D03*
X1267206Y1427480D02*
D03*
X1292606Y1414780D02*
D03*
X1267206Y1402080D02*
D03*
X1292606Y1389380D02*
D03*
X1165606Y1365250D02*
D03*
X1230376Y1389380D02*
D03*
X1165606Y1477010D02*
D03*
Y1502410D02*
D03*
Y1390650D02*
D03*
X1204976Y1402080D02*
D03*
X1230376Y1440180D02*
D03*
X1204976Y1452880D02*
D03*
X1230376Y1414780D02*
D03*
X1204976Y1427480D02*
D03*
X1230376Y1465580D02*
D03*
X1204976Y1478280D02*
D03*
X1333246Y1622806D02*
D03*
Y1648206D02*
D03*
Y1734566D02*
D03*
Y1759966D02*
D03*
X1267206Y1735836D02*
D03*
X1292606Y1723136D02*
D03*
X1267206Y1710436D02*
D03*
X1292606Y1697736D02*
D03*
X1267206Y1685036D02*
D03*
X1292606Y1672336D02*
D03*
X1267206Y1659636D02*
D03*
X1292606Y1646936D02*
D03*
X1165606Y1622806D02*
D03*
X1230376Y1646936D02*
D03*
X1165606Y1734566D02*
D03*
Y1759966D02*
D03*
Y1648206D02*
D03*
X1204976Y1659636D02*
D03*
X1230376Y1697736D02*
D03*
X1204976Y1710436D02*
D03*
X1230376Y1672336D02*
D03*
X1204976Y1685036D02*
D03*
X1230376Y1723136D02*
D03*
X1204976Y1735836D02*
D03*
X1333246Y1880362D02*
D03*
Y1905762D02*
D03*
Y1992122D02*
D03*
Y2017522D02*
D03*
X1267206Y1993392D02*
D03*
X1292606Y1980692D02*
D03*
X1267206Y1967992D02*
D03*
X1292606Y1955292D02*
D03*
X1267206Y1942592D02*
D03*
X1292606Y1929892D02*
D03*
X1267206Y1917192D02*
D03*
X1292606Y1904492D02*
D03*
X1165606Y1880362D02*
D03*
X1230376Y1904492D02*
D03*
X1165606Y1992122D02*
D03*
Y2017522D02*
D03*
Y1905762D02*
D03*
X1204976Y1917192D02*
D03*
X1230376Y1955292D02*
D03*
X1204976Y1967992D02*
D03*
X1230376Y1929892D02*
D03*
X1204976Y1942592D02*
D03*
X1230376Y1980692D02*
D03*
X1204976Y1993392D02*
D03*
X1333246Y2137918D02*
D03*
Y2163318D02*
D03*
Y2249678D02*
D03*
Y2275078D02*
D03*
X1267206Y2250948D02*
D03*
X1292606Y2238248D02*
D03*
X1267206Y2225548D02*
D03*
X1292606Y2212848D02*
D03*
X1267206Y2200148D02*
D03*
X1292606Y2187448D02*
D03*
X1267206Y2174748D02*
D03*
X1292606Y2162048D02*
D03*
X1165606Y2137918D02*
D03*
X1230376Y2162048D02*
D03*
X1165606Y2249678D02*
D03*
Y2275078D02*
D03*
Y2163318D02*
D03*
X1204976Y2174748D02*
D03*
X1230376Y2212848D02*
D03*
X1204976Y2225548D02*
D03*
X1230376Y2187448D02*
D03*
X1204976Y2200148D02*
D03*
X1230376Y2238248D02*
D03*
X1204976Y2250948D02*
D03*
X669036Y119888D02*
D03*
X691896D02*
D03*
X783336D02*
D03*
X806196D02*
D03*
X701802Y71628D02*
D03*
X712026Y53848D02*
D03*
X722186Y71628D02*
D03*
X732409Y53848D02*
D03*
X742505Y71628D02*
D03*
X752793Y53848D02*
D03*
X762952Y71628D02*
D03*
X773176Y53848D02*
D03*
X410464Y119888D02*
D03*
X433324D02*
D03*
X524764D02*
D03*
X547624D02*
D03*
X443230Y71628D02*
D03*
X453453Y53848D02*
D03*
X463614Y71628D02*
D03*
X473837Y53848D02*
D03*
X483933Y71628D02*
D03*
X494221Y53848D02*
D03*
X504380Y71628D02*
D03*
X514604Y53848D02*
D03*
X151892Y119888D02*
D03*
X174752D02*
D03*
X266192D02*
D03*
X289052D02*
D03*
X184658Y71628D02*
D03*
X194881Y53848D02*
D03*
X205042Y71628D02*
D03*
X215265Y53848D02*
D03*
X225361Y71628D02*
D03*
X235648Y53848D02*
D03*
X245809Y71628D02*
D03*
X256032Y53848D02*
D03*
D69*
X72644Y1579372D02*
D03*
Y1458976D02*
D03*
D70*
X338582Y1880108D02*
D03*
D71*
X366522Y1940052D02*
D03*
D72*
X391668Y1903222D02*
D03*
D73*
X609346Y624078D02*
D03*
X656336D02*
D03*
X703326D02*
D03*
X399034D02*
D03*
X446024D02*
D03*
X493014D02*
D03*
X609346Y759968D02*
D03*
X656336D02*
D03*
X703326D02*
D03*
X399034D02*
D03*
X446024D02*
D03*
X493014D02*
D03*
X609346Y895858D02*
D03*
X656336D02*
D03*
X703326D02*
D03*
X399034D02*
D03*
X446024D02*
D03*
X493014D02*
D03*
X609346Y1031748D02*
D03*
X656336D02*
D03*
X703326D02*
D03*
X399034D02*
D03*
X446024D02*
D03*
X493014D02*
D03*
X609346Y1167638D02*
D03*
X656336D02*
D03*
X703326D02*
D03*
X399034D02*
D03*
X446024D02*
D03*
X493014D02*
D03*
X609346Y1303528D02*
D03*
X656336D02*
D03*
X703326D02*
D03*
X399034D02*
D03*
X446024D02*
D03*
X493014D02*
D03*
X609346Y1439418D02*
D03*
X656336D02*
D03*
X703326D02*
D03*
X399034D02*
D03*
X446024D02*
D03*
X493014D02*
D03*
X609346Y1575308D02*
D03*
X656336D02*
D03*
X703326D02*
D03*
X399034D02*
D03*
X446024D02*
D03*
X493014D02*
D03*
X609346Y1711198D02*
D03*
X656336D02*
D03*
X703326D02*
D03*
X399034D02*
D03*
X446024D02*
D03*
X493014D02*
D03*
D74*
X177800Y1719580D02*
D03*
Y1694180D02*
D03*
X152400Y1719580D02*
D03*
Y1694180D02*
D03*
X127000Y1719580D02*
D03*
Y1694180D02*
D03*
X101600Y1719580D02*
D03*
Y1694180D02*
D03*
X76200Y1719580D02*
D03*
Y1694180D02*
D03*
X50800Y1719580D02*
D03*
Y1694180D02*
D03*
X203200Y1719580D02*
D03*
Y1694180D02*
D03*
X228600Y1719580D02*
D03*
Y1694180D02*
D03*
X37846Y1282192D02*
D03*
X63246D02*
D03*
X37846Y1256792D02*
D03*
X63246D02*
D03*
X37846Y1231392D02*
D03*
X63246D02*
D03*
X37846Y1205992D02*
D03*
X63246D02*
D03*
X37846Y1180592D02*
D03*
X63246D02*
D03*
X37846Y1155192D02*
D03*
X63246D02*
D03*
X37846Y1129792D02*
D03*
X63246D02*
D03*
D75*
X1304036Y227203D02*
D03*
Y64897D02*
D03*
X1220216Y227203D02*
D03*
Y64897D02*
D03*
X1304036Y484759D02*
D03*
Y322453D02*
D03*
X1220216Y484759D02*
D03*
Y322453D02*
D03*
X1304036Y742315D02*
D03*
Y580009D02*
D03*
X1220216Y742315D02*
D03*
Y580009D02*
D03*
X1304036Y999871D02*
D03*
Y837565D02*
D03*
X1220216Y999871D02*
D03*
Y837565D02*
D03*
X1304036Y1257427D02*
D03*
Y1095121D02*
D03*
X1220216Y1257427D02*
D03*
Y1095121D02*
D03*
X1304036Y1514983D02*
D03*
Y1352677D02*
D03*
X1220216Y1514983D02*
D03*
Y1352677D02*
D03*
X1304036Y1772539D02*
D03*
Y1610233D02*
D03*
X1220216Y1772539D02*
D03*
Y1610233D02*
D03*
X1304036Y2030095D02*
D03*
Y1867789D02*
D03*
X1220216Y2030095D02*
D03*
Y1867789D02*
D03*
X1304036Y2287651D02*
D03*
Y2125345D02*
D03*
X1220216Y2287651D02*
D03*
Y2125345D02*
D03*
X818896Y62738D02*
D03*
X656336D02*
D03*
X560324D02*
D03*
X397764D02*
D03*
X301752D02*
D03*
X139192D02*
D03*
D76*
X1375156Y209550D02*
D03*
Y82550D02*
D03*
Y467106D02*
D03*
Y340106D02*
D03*
Y724662D02*
D03*
Y597662D02*
D03*
Y982218D02*
D03*
Y855218D02*
D03*
Y1239774D02*
D03*
Y1112774D02*
D03*
Y1497330D02*
D03*
Y1370330D02*
D03*
Y1754886D02*
D03*
Y1627886D02*
D03*
Y2012442D02*
D03*
Y1885442D02*
D03*
Y2269998D02*
D03*
Y2142998D02*
D03*
X939800Y2311400D02*
D03*
X50800D02*
D03*
X939800Y25400D02*
D03*
X50800D02*
D03*
D77*
X801116Y28448D02*
D03*
X674116D02*
D03*
X542544D02*
D03*
X415544D02*
D03*
X283972D02*
D03*
X156972D02*
D03*
D78*
X179989Y1103533D02*
D03*
X283718Y1295400D02*
D03*
X255270Y1294892D02*
D03*
X179578Y1345946D02*
D03*
X88646Y1357884D02*
D03*
X79096Y1359286D02*
D03*
X234037Y1547493D02*
D03*
X206859D02*
D03*
X34555Y1347735D02*
D03*
X243586Y1253490D02*
D03*
X193868Y1210752D02*
D03*
X221145Y1211402D02*
D03*
X213868Y1254760D02*
D03*
X232421Y1079511D02*
D03*
X240792Y1074674D02*
D03*
X249174Y1064768D02*
D03*
X269494Y1043940D02*
D03*
X283972Y1032002D02*
D03*
X204470Y1111758D02*
D03*
X172974Y1271270D02*
D03*
X186866Y1265604D02*
D03*
X180340Y1431798D02*
D03*
X193294Y1419098D02*
D03*
X143208Y1287526D02*
D03*
X141478Y1274318D02*
D03*
X67480Y1359822D02*
D03*
X129286Y1635760D02*
D03*
X195580Y1368552D02*
D03*
X232651Y1617438D02*
D03*
X205473D02*
D03*
X169164Y1405128D02*
D03*
X132842Y1384554D02*
D03*
X94742Y1405636D02*
D03*
X147828Y1370330D02*
D03*
X148082Y1383284D02*
D03*
X751586Y172974D02*
D03*
X669036D02*
D03*
X493014D02*
D03*
X410464D02*
D03*
X1075944Y32766D02*
D03*
X1077468Y129032D02*
D03*
X1075944Y290322D02*
D03*
X1077468Y386588D02*
D03*
X1075944Y547878D02*
D03*
X1077468Y644144D02*
D03*
X1075944Y805434D02*
D03*
X1077468Y901700D02*
D03*
X1075944Y1062990D02*
D03*
X1077468Y1159256D02*
D03*
X1075944Y1320546D02*
D03*
X1077468Y1416812D02*
D03*
X1075944Y1578102D02*
D03*
X1077468Y1674368D02*
D03*
X1075944Y1835658D02*
D03*
X1077468Y1931924D02*
D03*
X1075944Y2093214D02*
D03*
X1077468Y2189480D02*
D03*
X347726Y198882D02*
D03*
X295216Y1078230D02*
D03*
X259402D02*
D03*
X50546Y1015746D02*
D03*
X433324Y1933194D02*
D03*
X459753Y1933482D02*
D03*
X255524Y930656D02*
D03*
X243078Y942340D02*
D03*
X230886Y954532D02*
D03*
X221234Y963930D02*
D03*
X230124Y1195832D02*
D03*
X156464Y1219708D02*
D03*
X141478Y1219200D02*
D03*
Y1249680D02*
D03*
Y1239520D02*
D03*
X126492Y1194054D02*
D03*
X119888Y1155954D02*
D03*
X733298Y571754D02*
D03*
X808228Y317500D02*
D03*
X927608Y1687322D02*
D03*
X667258Y1843024D02*
D03*
X176802Y1176783D02*
D03*
X231092Y1178673D02*
D03*
X878858Y1588263D02*
D03*
X795800Y1614679D02*
D03*
X878078Y1529842D02*
D03*
X881144Y1194817D02*
D03*
X797832Y1221741D02*
D03*
X880306Y1136434D02*
D03*
X796816Y805689D02*
D03*
X880110Y718058D02*
D03*
X879758Y777007D02*
D03*
X611886Y1828800D02*
D03*
X848233Y847979D02*
D03*
X849249Y1266063D02*
D03*
X847217Y1659509D02*
D03*
X459499Y1864394D02*
D03*
X432321D02*
D03*
X828040Y666242D02*
D03*
Y682244D02*
D03*
X932942Y771652D02*
D03*
X896112Y770636D02*
D03*
X828040Y707390D02*
D03*
X827786Y696468D02*
D03*
X880110Y751078D02*
D03*
X846483Y743359D02*
D03*
X894588Y866902D02*
D03*
X931418Y867156D02*
D03*
X901517Y659953D02*
D03*
X846328Y776732D02*
D03*
X834595Y770333D02*
D03*
X801624Y743712D02*
D03*
X781050Y747522D02*
D03*
X822452Y714502D02*
D03*
X817531Y749582D02*
D03*
X826770Y1477772D02*
D03*
Y1493774D02*
D03*
X931672Y1583182D02*
D03*
X894842Y1582166D02*
D03*
X826770Y1518920D02*
D03*
X826516Y1507998D02*
D03*
X878840Y1562608D02*
D03*
X845213Y1554889D02*
D03*
X893318Y1678432D02*
D03*
X900247Y1471483D02*
D03*
X845058Y1588262D02*
D03*
X833325Y1581863D02*
D03*
X800354Y1555242D02*
D03*
X779780Y1559052D02*
D03*
X821182Y1526032D02*
D03*
X816261Y1561111D02*
D03*
X902280Y1078037D02*
D03*
X621792Y1862836D02*
D03*
X674370Y1882902D02*
D03*
X671068Y1895094D02*
D03*
X429768Y350266D02*
D03*
X904507Y75980D02*
D03*
X931685D02*
D03*
X932447Y145068D02*
D03*
X906018Y144780D02*
D03*
X600456Y1892554D02*
D03*
X637540Y1916176D02*
D03*
X611378Y1926590D02*
D03*
X481584Y319024D02*
D03*
X409194Y379730D02*
D03*
X419354Y414782D02*
D03*
X448818Y403860D02*
D03*
X479806Y382524D02*
D03*
X483108Y370332D02*
D03*
X492760Y282194D02*
D03*
X500888Y318008D02*
D03*
X549910Y282194D02*
D03*
X828802Y1084326D02*
D03*
Y1100328D02*
D03*
X933704Y1189736D02*
D03*
X896874Y1188720D02*
D03*
X828802Y1125474D02*
D03*
X828548Y1114552D02*
D03*
X880872Y1169162D02*
D03*
X847245Y1161443D02*
D03*
X895350Y1284986D02*
D03*
X932180Y1285240D02*
D03*
X847090Y1194816D02*
D03*
X835357Y1188417D02*
D03*
X802386Y1161796D02*
D03*
X781812Y1165606D02*
D03*
X823214Y1132586D02*
D03*
X818292Y1167665D02*
D03*
X868172Y441706D02*
D03*
X852932Y352552D02*
D03*
X795020Y353568D02*
D03*
X734822Y355092D02*
D03*
X1095780Y2277295D02*
D03*
Y2019739D02*
D03*
Y1762183D02*
D03*
X1096034Y1504627D02*
D03*
Y1247071D02*
D03*
Y989515D02*
D03*
X1095780Y731959D02*
D03*
Y474403D02*
D03*
X1096010Y216662D02*
D03*
X151892Y172974D02*
D03*
X234442D02*
D03*
X145542Y1152652D02*
D03*
X169164Y1235710D02*
D03*
X283972Y1172718D02*
D03*
X267970Y1172464D02*
D03*
X257302Y1122426D02*
D03*
X112776Y1302258D02*
D03*
X113030Y1240790D02*
D03*
X176784Y1185418D02*
D03*
Y1195070D02*
D03*
X211582Y1211580D02*
D03*
X202184D02*
D03*
X141478Y1229360D02*
D03*
M02*
